G04 #@! TF.GenerationSoftware,KiCad,Pcbnew,(5.1.5)-3*
G04 #@! TF.CreationDate,2021-01-05T18:48:48-06:00*
G04 #@! TF.ProjectId,SBC,5342432e-6b69-4636-9164-5f7063625858,rev?*
G04 #@! TF.SameCoordinates,Original*
G04 #@! TF.FileFunction,Copper,L1,Top*
G04 #@! TF.FilePolarity,Positive*
%FSLAX46Y46*%
G04 Gerber Fmt 4.6, Leading zero omitted, Abs format (unit mm)*
G04 Created by KiCad (PCBNEW (5.1.5)-3) date 2021-01-05 18:48:48*
%MOMM*%
%LPD*%
G04 APERTURE LIST*
%ADD10O,1.700000X1.700000*%
%ADD11R,1.700000X1.700000*%
%ADD12C,2.500000*%
%ADD13R,2.170000X2.170000*%
%ADD14C,2.800000*%
%ADD15O,4.200000X2.100000*%
%ADD16O,1.550000X3.100000*%
%ADD17O,2.400000X1.600000*%
%ADD18R,2.400000X1.600000*%
%ADD19C,1.550000*%
%ADD20C,0.150000*%
%ADD21R,1.100000X1.800000*%
%ADD22C,1.600000*%
%ADD23C,1.500000*%
%ADD24C,1.000000*%
%ADD25O,1.600000X1.600000*%
%ADD26R,1.600000X1.600000*%
%ADD27C,2.340000*%
%ADD28O,1.400000X1.400000*%
%ADD29C,1.400000*%
%ADD30O,1.740000X2.200000*%
%ADD31C,1.950000*%
%ADD32C,4.000000*%
%ADD33C,1.800000*%
%ADD34R,1.800000X1.800000*%
%ADD35O,2.400000X2.400000*%
%ADD36R,2.400000X2.400000*%
%ADD37C,1.200000*%
%ADD38R,1.200000X1.200000*%
%ADD39C,0.889000*%
%ADD40C,1.000000*%
%ADD41C,2.000000*%
%ADD42C,0.203200*%
G04 APERTURE END LIST*
D10*
X145760000Y-74560000D03*
X145760000Y-77100000D03*
X143220000Y-74560000D03*
X143220000Y-77100000D03*
X140680000Y-74560000D03*
X140680000Y-77100000D03*
X138140000Y-74560000D03*
X138140000Y-77100000D03*
X135600000Y-74560000D03*
X135600000Y-77100000D03*
X133060000Y-74560000D03*
X133060000Y-77100000D03*
X130520000Y-74560000D03*
X130520000Y-77100000D03*
X127980000Y-74560000D03*
X127980000Y-77100000D03*
X125440000Y-74560000D03*
X125440000Y-77100000D03*
X122900000Y-74560000D03*
D11*
X122900000Y-77100000D03*
D10*
X163380000Y-90360000D03*
X163380000Y-92900000D03*
X160840000Y-90360000D03*
X160840000Y-92900000D03*
X158300000Y-90360000D03*
X158300000Y-92900000D03*
X155760000Y-90360000D03*
X155760000Y-92900000D03*
X153220000Y-90360000D03*
X153220000Y-92900000D03*
X150680000Y-90360000D03*
X150680000Y-92900000D03*
X148140000Y-90360000D03*
X148140000Y-92900000D03*
X145600000Y-90360000D03*
D11*
X145600000Y-92900000D03*
D12*
X363800000Y-135900000D03*
D13*
X343800000Y-135900000D03*
D14*
X84700000Y-80500000D03*
X84700000Y-75000000D03*
X82700000Y-72600000D03*
D15*
X59400000Y-74400000D03*
D16*
X59400000Y-78900000D03*
D17*
X285420000Y-92600000D03*
X277800000Y-107840000D03*
X285420000Y-95140000D03*
X277800000Y-105300000D03*
X285420000Y-97680000D03*
X277800000Y-102760000D03*
X285420000Y-100220000D03*
X277800000Y-100220000D03*
X285420000Y-102760000D03*
X277800000Y-97680000D03*
X285420000Y-105300000D03*
X277800000Y-95140000D03*
X285420000Y-107840000D03*
D18*
X277800000Y-92600000D03*
D19*
X366740000Y-80180000D03*
X364200000Y-80180000D03*
X361660000Y-80180000D03*
X359120000Y-80180000D03*
X356580000Y-80180000D03*
X354040000Y-80180000D03*
X351500000Y-80180000D03*
X348960000Y-80180000D03*
X346420000Y-80180000D03*
X343880000Y-80180000D03*
X341340000Y-80180000D03*
X338800000Y-80180000D03*
X336260000Y-80180000D03*
X333720000Y-80180000D03*
X331180000Y-80180000D03*
X328640000Y-80180000D03*
X326100000Y-80180000D03*
X323560000Y-80180000D03*
X321020000Y-80180000D03*
X318480000Y-80180000D03*
X315940000Y-80180000D03*
X313400000Y-80180000D03*
X310860000Y-80180000D03*
X308320000Y-80180000D03*
X305780000Y-80180000D03*
X303240000Y-80180000D03*
X300700000Y-80180000D03*
X298160000Y-80180000D03*
X295620000Y-80180000D03*
X293080000Y-80180000D03*
X290540000Y-80180000D03*
X288000000Y-80180000D03*
X366740000Y-77640000D03*
X364200000Y-77640000D03*
X361660000Y-77640000D03*
X359120000Y-77640000D03*
X356580000Y-77640000D03*
X354040000Y-77640000D03*
X351500000Y-77640000D03*
X348960000Y-77640000D03*
X346420000Y-77640000D03*
X343880000Y-77640000D03*
X341340000Y-77640000D03*
X338800000Y-77640000D03*
X336260000Y-77640000D03*
X333720000Y-77640000D03*
X331180000Y-77640000D03*
X328640000Y-77640000D03*
X326100000Y-77640000D03*
X323560000Y-77640000D03*
X321020000Y-77640000D03*
X318480000Y-77640000D03*
X315940000Y-77640000D03*
X313400000Y-77640000D03*
X310860000Y-77640000D03*
X308320000Y-77640000D03*
X305780000Y-77640000D03*
X303240000Y-77640000D03*
X300700000Y-77640000D03*
X298160000Y-77640000D03*
X295620000Y-77640000D03*
X293080000Y-77640000D03*
X290540000Y-77640000D03*
X288000000Y-77640000D03*
X366740000Y-75100000D03*
X364200000Y-75100000D03*
X361660000Y-75100000D03*
X359120000Y-75100000D03*
X356580000Y-75100000D03*
X354040000Y-75100000D03*
X351500000Y-75100000D03*
X348960000Y-75100000D03*
X346420000Y-75100000D03*
X343880000Y-75100000D03*
X341340000Y-75100000D03*
X338800000Y-75100000D03*
X336260000Y-75100000D03*
X333720000Y-75100000D03*
X331180000Y-75100000D03*
X328640000Y-75100000D03*
X326100000Y-75100000D03*
X323560000Y-75100000D03*
X321020000Y-75100000D03*
X318480000Y-75100000D03*
X315940000Y-75100000D03*
X313400000Y-75100000D03*
X310860000Y-75100000D03*
X308320000Y-75100000D03*
X305780000Y-75100000D03*
X303240000Y-75100000D03*
X300700000Y-75100000D03*
X298160000Y-75100000D03*
X295620000Y-75100000D03*
X293080000Y-75100000D03*
X290540000Y-75100000D03*
G04 #@! TA.AperFunction,ComponentPad*
D20*
G36*
X288549910Y-74326202D02*
G01*
X288574135Y-74329795D01*
X288597891Y-74335746D01*
X288620949Y-74343996D01*
X288643087Y-74354467D01*
X288664093Y-74367057D01*
X288683763Y-74381645D01*
X288701908Y-74398092D01*
X288718355Y-74416237D01*
X288732943Y-74435907D01*
X288745533Y-74456913D01*
X288756004Y-74479051D01*
X288764254Y-74502109D01*
X288770205Y-74525865D01*
X288773798Y-74550090D01*
X288775000Y-74574550D01*
X288775000Y-75625450D01*
X288773798Y-75649910D01*
X288770205Y-75674135D01*
X288764254Y-75697891D01*
X288756004Y-75720949D01*
X288745533Y-75743087D01*
X288732943Y-75764093D01*
X288718355Y-75783763D01*
X288701908Y-75801908D01*
X288683763Y-75818355D01*
X288664093Y-75832943D01*
X288643087Y-75845533D01*
X288620949Y-75856004D01*
X288597891Y-75864254D01*
X288574135Y-75870205D01*
X288549910Y-75873798D01*
X288525450Y-75875000D01*
X287474550Y-75875000D01*
X287450090Y-75873798D01*
X287425865Y-75870205D01*
X287402109Y-75864254D01*
X287379051Y-75856004D01*
X287356913Y-75845533D01*
X287335907Y-75832943D01*
X287316237Y-75818355D01*
X287298092Y-75801908D01*
X287281645Y-75783763D01*
X287267057Y-75764093D01*
X287254467Y-75743087D01*
X287243996Y-75720949D01*
X287235746Y-75697891D01*
X287229795Y-75674135D01*
X287226202Y-75649910D01*
X287225000Y-75625450D01*
X287225000Y-74574550D01*
X287226202Y-74550090D01*
X287229795Y-74525865D01*
X287235746Y-74502109D01*
X287243996Y-74479051D01*
X287254467Y-74456913D01*
X287267057Y-74435907D01*
X287281645Y-74416237D01*
X287298092Y-74398092D01*
X287316237Y-74381645D01*
X287335907Y-74367057D01*
X287356913Y-74354467D01*
X287379051Y-74343996D01*
X287402109Y-74335746D01*
X287425865Y-74329795D01*
X287450090Y-74326202D01*
X287474550Y-74325000D01*
X288525450Y-74325000D01*
X288549910Y-74326202D01*
G37*
G04 #@! TD.AperFunction*
D21*
X62200000Y-93400000D03*
G04 #@! TA.AperFunction,ComponentPad*
D20*
G36*
X65041955Y-92501324D02*
G01*
X65068650Y-92505284D01*
X65094828Y-92511841D01*
X65120238Y-92520933D01*
X65144634Y-92532472D01*
X65167782Y-92546346D01*
X65189458Y-92562422D01*
X65209454Y-92580546D01*
X65227578Y-92600542D01*
X65243654Y-92622218D01*
X65257528Y-92645366D01*
X65269067Y-92669762D01*
X65278159Y-92695172D01*
X65284716Y-92721350D01*
X65288676Y-92748045D01*
X65290000Y-92775000D01*
X65290000Y-94025000D01*
X65288676Y-94051955D01*
X65284716Y-94078650D01*
X65278159Y-94104828D01*
X65269067Y-94130238D01*
X65257528Y-94154634D01*
X65243654Y-94177782D01*
X65227578Y-94199458D01*
X65209454Y-94219454D01*
X65189458Y-94237578D01*
X65167782Y-94253654D01*
X65144634Y-94267528D01*
X65120238Y-94279067D01*
X65094828Y-94288159D01*
X65068650Y-94294716D01*
X65041955Y-94298676D01*
X65015000Y-94300000D01*
X64465000Y-94300000D01*
X64438045Y-94298676D01*
X64411350Y-94294716D01*
X64385172Y-94288159D01*
X64359762Y-94279067D01*
X64335366Y-94267528D01*
X64312218Y-94253654D01*
X64290542Y-94237578D01*
X64270546Y-94219454D01*
X64252422Y-94199458D01*
X64236346Y-94177782D01*
X64222472Y-94154634D01*
X64210933Y-94130238D01*
X64201841Y-94104828D01*
X64195284Y-94078650D01*
X64191324Y-94051955D01*
X64190000Y-94025000D01*
X64190000Y-92775000D01*
X64191324Y-92748045D01*
X64195284Y-92721350D01*
X64201841Y-92695172D01*
X64210933Y-92669762D01*
X64222472Y-92645366D01*
X64236346Y-92622218D01*
X64252422Y-92600542D01*
X64270546Y-92580546D01*
X64290542Y-92562422D01*
X64312218Y-92546346D01*
X64335366Y-92532472D01*
X64359762Y-92520933D01*
X64385172Y-92511841D01*
X64411350Y-92505284D01*
X64438045Y-92501324D01*
X64465000Y-92500000D01*
X65015000Y-92500000D01*
X65041955Y-92501324D01*
G37*
G04 #@! TD.AperFunction*
G04 #@! TA.AperFunction,ComponentPad*
G36*
X63771955Y-90431324D02*
G01*
X63798650Y-90435284D01*
X63824828Y-90441841D01*
X63850238Y-90450933D01*
X63874634Y-90462472D01*
X63897782Y-90476346D01*
X63919458Y-90492422D01*
X63939454Y-90510546D01*
X63957578Y-90530542D01*
X63973654Y-90552218D01*
X63987528Y-90575366D01*
X63999067Y-90599762D01*
X64008159Y-90625172D01*
X64014716Y-90651350D01*
X64018676Y-90678045D01*
X64020000Y-90705000D01*
X64020000Y-91955000D01*
X64018676Y-91981955D01*
X64014716Y-92008650D01*
X64008159Y-92034828D01*
X63999067Y-92060238D01*
X63987528Y-92084634D01*
X63973654Y-92107782D01*
X63957578Y-92129458D01*
X63939454Y-92149454D01*
X63919458Y-92167578D01*
X63897782Y-92183654D01*
X63874634Y-92197528D01*
X63850238Y-92209067D01*
X63824828Y-92218159D01*
X63798650Y-92224716D01*
X63771955Y-92228676D01*
X63745000Y-92230000D01*
X63195000Y-92230000D01*
X63168045Y-92228676D01*
X63141350Y-92224716D01*
X63115172Y-92218159D01*
X63089762Y-92209067D01*
X63065366Y-92197528D01*
X63042218Y-92183654D01*
X63020542Y-92167578D01*
X63000546Y-92149454D01*
X62982422Y-92129458D01*
X62966346Y-92107782D01*
X62952472Y-92084634D01*
X62940933Y-92060238D01*
X62931841Y-92034828D01*
X62925284Y-92008650D01*
X62921324Y-91981955D01*
X62920000Y-91955000D01*
X62920000Y-90705000D01*
X62921324Y-90678045D01*
X62925284Y-90651350D01*
X62931841Y-90625172D01*
X62940933Y-90599762D01*
X62952472Y-90575366D01*
X62966346Y-90552218D01*
X62982422Y-90530542D01*
X63000546Y-90510546D01*
X63020542Y-90492422D01*
X63042218Y-90476346D01*
X63065366Y-90462472D01*
X63089762Y-90450933D01*
X63115172Y-90441841D01*
X63141350Y-90435284D01*
X63168045Y-90431324D01*
X63195000Y-90430000D01*
X63745000Y-90430000D01*
X63771955Y-90431324D01*
G37*
G04 #@! TD.AperFunction*
D22*
X340200000Y-89600000D03*
X345200000Y-89600000D03*
X326100000Y-89300000D03*
X331100000Y-89300000D03*
X357300000Y-196500000D03*
X362300000Y-196500000D03*
X354600000Y-89600000D03*
X359600000Y-89600000D03*
X341100000Y-185800000D03*
X346100000Y-185800000D03*
D23*
X90600000Y-102100000D03*
X90600000Y-107000000D03*
D22*
X131400000Y-108500000D03*
X126400000Y-108500000D03*
X47900000Y-108200000D03*
X42900000Y-108200000D03*
X85300000Y-175500000D03*
X90300000Y-175500000D03*
X48700000Y-73900000D03*
X43700000Y-73900000D03*
X131400000Y-91500000D03*
X126400000Y-91500000D03*
X77500000Y-107600000D03*
X72500000Y-107600000D03*
X130800000Y-180300000D03*
X135800000Y-180300000D03*
X102700000Y-122700000D03*
X97700000Y-122700000D03*
X165100000Y-115400000D03*
X170100000Y-115400000D03*
D24*
X368800000Y-196700000D03*
X367100000Y-196700000D03*
D25*
X186220000Y-186000000D03*
X178600000Y-201240000D03*
X186220000Y-188540000D03*
X178600000Y-198700000D03*
X186220000Y-191080000D03*
X178600000Y-196160000D03*
X186220000Y-193620000D03*
X178600000Y-193620000D03*
X186220000Y-196160000D03*
X178600000Y-191080000D03*
X186220000Y-198700000D03*
X178600000Y-188540000D03*
X186220000Y-201240000D03*
D26*
X178600000Y-186000000D03*
D25*
X175040000Y-118400000D03*
X159800000Y-166660000D03*
X175040000Y-120940000D03*
X159800000Y-164120000D03*
X175040000Y-123480000D03*
X159800000Y-161580000D03*
X175040000Y-126020000D03*
X159800000Y-159040000D03*
X175040000Y-128560000D03*
X159800000Y-156500000D03*
X175040000Y-131100000D03*
X159800000Y-153960000D03*
X175040000Y-133640000D03*
X159800000Y-151420000D03*
X175040000Y-136180000D03*
X159800000Y-148880000D03*
X175040000Y-138720000D03*
X159800000Y-146340000D03*
X175040000Y-141260000D03*
X159800000Y-143800000D03*
X175040000Y-143800000D03*
X159800000Y-141260000D03*
X175040000Y-146340000D03*
X159800000Y-138720000D03*
X175040000Y-148880000D03*
X159800000Y-136180000D03*
X175040000Y-151420000D03*
X159800000Y-133640000D03*
X175040000Y-153960000D03*
X159800000Y-131100000D03*
X175040000Y-156500000D03*
X159800000Y-128560000D03*
X175040000Y-159040000D03*
X159800000Y-126020000D03*
X175040000Y-161580000D03*
X159800000Y-123480000D03*
X175040000Y-164120000D03*
X159800000Y-120940000D03*
X175040000Y-166660000D03*
D26*
X159800000Y-118400000D03*
D25*
X203640000Y-118400000D03*
X188400000Y-166660000D03*
X203640000Y-120940000D03*
X188400000Y-164120000D03*
X203640000Y-123480000D03*
X188400000Y-161580000D03*
X203640000Y-126020000D03*
X188400000Y-159040000D03*
X203640000Y-128560000D03*
X188400000Y-156500000D03*
X203640000Y-131100000D03*
X188400000Y-153960000D03*
X203640000Y-133640000D03*
X188400000Y-151420000D03*
X203640000Y-136180000D03*
X188400000Y-148880000D03*
X203640000Y-138720000D03*
X188400000Y-146340000D03*
X203640000Y-141260000D03*
X188400000Y-143800000D03*
X203640000Y-143800000D03*
X188400000Y-141260000D03*
X203640000Y-146340000D03*
X188400000Y-138720000D03*
X203640000Y-148880000D03*
X188400000Y-136180000D03*
X203640000Y-151420000D03*
X188400000Y-133640000D03*
X203640000Y-153960000D03*
X188400000Y-131100000D03*
X203640000Y-156500000D03*
X188400000Y-128560000D03*
X203640000Y-159040000D03*
X188400000Y-126020000D03*
X203640000Y-161580000D03*
X188400000Y-123480000D03*
X203640000Y-164120000D03*
X188400000Y-120940000D03*
X203640000Y-166660000D03*
D26*
X188400000Y-118400000D03*
D25*
X53040000Y-111100000D03*
X37800000Y-159360000D03*
X53040000Y-113640000D03*
X37800000Y-156820000D03*
X53040000Y-116180000D03*
X37800000Y-154280000D03*
X53040000Y-118720000D03*
X37800000Y-151740000D03*
X53040000Y-121260000D03*
X37800000Y-149200000D03*
X53040000Y-123800000D03*
X37800000Y-146660000D03*
X53040000Y-126340000D03*
X37800000Y-144120000D03*
X53040000Y-128880000D03*
X37800000Y-141580000D03*
X53040000Y-131420000D03*
X37800000Y-139040000D03*
X53040000Y-133960000D03*
X37800000Y-136500000D03*
X53040000Y-136500000D03*
X37800000Y-133960000D03*
X53040000Y-139040000D03*
X37800000Y-131420000D03*
X53040000Y-141580000D03*
X37800000Y-128880000D03*
X53040000Y-144120000D03*
X37800000Y-126340000D03*
X53040000Y-146660000D03*
X37800000Y-123800000D03*
X53040000Y-149200000D03*
X37800000Y-121260000D03*
X53040000Y-151740000D03*
X37800000Y-118720000D03*
X53040000Y-154280000D03*
X37800000Y-116180000D03*
X53040000Y-156820000D03*
X37800000Y-113640000D03*
X53040000Y-159360000D03*
D26*
X37800000Y-111100000D03*
D25*
X45720000Y-185850000D03*
X38100000Y-201090000D03*
X45720000Y-188390000D03*
X38100000Y-198550000D03*
X45720000Y-190930000D03*
X38100000Y-196010000D03*
X45720000Y-193470000D03*
X38100000Y-193470000D03*
X45720000Y-196010000D03*
X38100000Y-190930000D03*
X45720000Y-198550000D03*
X38100000Y-188390000D03*
X45720000Y-201090000D03*
D26*
X38100000Y-185850000D03*
D25*
X49920000Y-77000000D03*
X42300000Y-92240000D03*
X49920000Y-79540000D03*
X42300000Y-89700000D03*
X49920000Y-82080000D03*
X42300000Y-87160000D03*
X49920000Y-84620000D03*
X42300000Y-84620000D03*
X49920000Y-87160000D03*
X42300000Y-82080000D03*
X49920000Y-89700000D03*
X42300000Y-79540000D03*
X49920000Y-92240000D03*
D26*
X42300000Y-77000000D03*
D25*
X60920000Y-185950000D03*
X53300000Y-201190000D03*
X60920000Y-188490000D03*
X53300000Y-198650000D03*
X60920000Y-191030000D03*
X53300000Y-196110000D03*
X60920000Y-193570000D03*
X53300000Y-193570000D03*
X60920000Y-196110000D03*
X53300000Y-191030000D03*
X60920000Y-198650000D03*
X53300000Y-188490000D03*
X60920000Y-201190000D03*
D26*
X53300000Y-185950000D03*
D25*
X107840000Y-125900000D03*
X92600000Y-158920000D03*
X107840000Y-128440000D03*
X92600000Y-156380000D03*
X107840000Y-130980000D03*
X92600000Y-153840000D03*
X107840000Y-133520000D03*
X92600000Y-151300000D03*
X107840000Y-136060000D03*
X92600000Y-148760000D03*
X107840000Y-138600000D03*
X92600000Y-146220000D03*
X107840000Y-141140000D03*
X92600000Y-143680000D03*
X107840000Y-143680000D03*
X92600000Y-141140000D03*
X107840000Y-146220000D03*
X92600000Y-138600000D03*
X107840000Y-148760000D03*
X92600000Y-136060000D03*
X107840000Y-151300000D03*
X92600000Y-133520000D03*
X107840000Y-153840000D03*
X92600000Y-130980000D03*
X107840000Y-156380000D03*
X92600000Y-128440000D03*
X107840000Y-158920000D03*
D26*
X92600000Y-125900000D03*
D25*
X120120000Y-185950000D03*
X112500000Y-201190000D03*
X120120000Y-188490000D03*
X112500000Y-198650000D03*
X120120000Y-191030000D03*
X112500000Y-196110000D03*
X120120000Y-193570000D03*
X112500000Y-193570000D03*
X120120000Y-196110000D03*
X112500000Y-191030000D03*
X120120000Y-198650000D03*
X112500000Y-188490000D03*
X120120000Y-201190000D03*
D26*
X112500000Y-185950000D03*
D25*
X106320000Y-178450000D03*
X98700000Y-201310000D03*
X106320000Y-180990000D03*
X98700000Y-198770000D03*
X106320000Y-183530000D03*
X98700000Y-196230000D03*
X106320000Y-186070000D03*
X98700000Y-193690000D03*
X106320000Y-188610000D03*
X98700000Y-191150000D03*
X106320000Y-191150000D03*
X98700000Y-188610000D03*
X106320000Y-193690000D03*
X98700000Y-186070000D03*
X106320000Y-196230000D03*
X98700000Y-183530000D03*
X106320000Y-198770000D03*
X98700000Y-180990000D03*
X106320000Y-201310000D03*
D26*
X98700000Y-178450000D03*
D17*
X91420000Y-178450000D03*
X83800000Y-201310000D03*
X91420000Y-180990000D03*
X83800000Y-198770000D03*
X91420000Y-183530000D03*
X83800000Y-196230000D03*
X91420000Y-186070000D03*
X83800000Y-193690000D03*
X91420000Y-188610000D03*
X83800000Y-191150000D03*
X91420000Y-191150000D03*
X83800000Y-188610000D03*
X91420000Y-193690000D03*
X83800000Y-186070000D03*
X91420000Y-196230000D03*
X83800000Y-183530000D03*
X91420000Y-198770000D03*
X83800000Y-180990000D03*
X91420000Y-201310000D03*
D18*
X83800000Y-178450000D03*
D17*
X75920000Y-178450000D03*
X68300000Y-201310000D03*
X75920000Y-180990000D03*
X68300000Y-198770000D03*
X75920000Y-183530000D03*
X68300000Y-196230000D03*
X75920000Y-186070000D03*
X68300000Y-193690000D03*
X75920000Y-188610000D03*
X68300000Y-191150000D03*
X75920000Y-191150000D03*
X68300000Y-188610000D03*
X75920000Y-193690000D03*
X68300000Y-186070000D03*
X75920000Y-196230000D03*
X68300000Y-183530000D03*
X75920000Y-198770000D03*
X68300000Y-180990000D03*
X75920000Y-201310000D03*
D18*
X68300000Y-178450000D03*
D17*
X82140000Y-110950000D03*
X66900000Y-159210000D03*
X82140000Y-113490000D03*
X66900000Y-156670000D03*
X82140000Y-116030000D03*
X66900000Y-154130000D03*
X82140000Y-118570000D03*
X66900000Y-151590000D03*
X82140000Y-121110000D03*
X66900000Y-149050000D03*
X82140000Y-123650000D03*
X66900000Y-146510000D03*
X82140000Y-126190000D03*
X66900000Y-143970000D03*
X82140000Y-128730000D03*
X66900000Y-141430000D03*
X82140000Y-131270000D03*
X66900000Y-138890000D03*
X82140000Y-133810000D03*
X66900000Y-136350000D03*
X82140000Y-136350000D03*
X66900000Y-133810000D03*
X82140000Y-138890000D03*
X66900000Y-131270000D03*
X82140000Y-141430000D03*
X66900000Y-128730000D03*
X82140000Y-143970000D03*
X66900000Y-126190000D03*
X82140000Y-146510000D03*
X66900000Y-123650000D03*
X82140000Y-149050000D03*
X66900000Y-121110000D03*
X82140000Y-151590000D03*
X66900000Y-118570000D03*
X82140000Y-154130000D03*
X66900000Y-116030000D03*
X82140000Y-156670000D03*
X66900000Y-113490000D03*
X82140000Y-159210000D03*
D18*
X66900000Y-110950000D03*
D17*
X301420000Y-92600000D03*
X293800000Y-115460000D03*
X301420000Y-95140000D03*
X293800000Y-112920000D03*
X301420000Y-97680000D03*
X293800000Y-110380000D03*
X301420000Y-100220000D03*
X293800000Y-107840000D03*
X301420000Y-102760000D03*
X293800000Y-105300000D03*
X301420000Y-105300000D03*
X293800000Y-102760000D03*
X301420000Y-107840000D03*
X293800000Y-100220000D03*
X301420000Y-110380000D03*
X293800000Y-97680000D03*
X301420000Y-112920000D03*
X293800000Y-95140000D03*
X301420000Y-115460000D03*
D18*
X293800000Y-92600000D03*
D17*
X317320000Y-92600000D03*
X309700000Y-115460000D03*
X317320000Y-95140000D03*
X309700000Y-112920000D03*
X317320000Y-97680000D03*
X309700000Y-110380000D03*
X317320000Y-100220000D03*
X309700000Y-107840000D03*
X317320000Y-102760000D03*
X309700000Y-105300000D03*
X317320000Y-105300000D03*
X309700000Y-102760000D03*
X317320000Y-107840000D03*
X309700000Y-100220000D03*
X317320000Y-110380000D03*
X309700000Y-97680000D03*
X317320000Y-112920000D03*
X309700000Y-95140000D03*
X317320000Y-115460000D03*
D18*
X309700000Y-92600000D03*
D17*
X332820000Y-92600000D03*
X325200000Y-115460000D03*
X332820000Y-95140000D03*
X325200000Y-112920000D03*
X332820000Y-97680000D03*
X325200000Y-110380000D03*
X332820000Y-100220000D03*
X325200000Y-107840000D03*
X332820000Y-102760000D03*
X325200000Y-105300000D03*
X332820000Y-105300000D03*
X325200000Y-102760000D03*
X332820000Y-107840000D03*
X325200000Y-100220000D03*
X332820000Y-110380000D03*
X325200000Y-97680000D03*
X332820000Y-112920000D03*
X325200000Y-95140000D03*
X332820000Y-115460000D03*
D18*
X325200000Y-92600000D03*
D17*
X346820000Y-92600000D03*
X339200000Y-115460000D03*
X346820000Y-95140000D03*
X339200000Y-112920000D03*
X346820000Y-97680000D03*
X339200000Y-110380000D03*
X346820000Y-100220000D03*
X339200000Y-107840000D03*
X346820000Y-102760000D03*
X339200000Y-105300000D03*
X346820000Y-105300000D03*
X339200000Y-102760000D03*
X346820000Y-107840000D03*
X339200000Y-100220000D03*
X346820000Y-110380000D03*
X339200000Y-97680000D03*
X346820000Y-112920000D03*
X339200000Y-95140000D03*
X346820000Y-115460000D03*
D18*
X339200000Y-92600000D03*
D17*
X361320000Y-92600000D03*
X353700000Y-115460000D03*
X361320000Y-95140000D03*
X353700000Y-112920000D03*
X361320000Y-97680000D03*
X353700000Y-110380000D03*
X361320000Y-100220000D03*
X353700000Y-107840000D03*
X361320000Y-102760000D03*
X353700000Y-105300000D03*
X361320000Y-105300000D03*
X353700000Y-102760000D03*
X361320000Y-107840000D03*
X353700000Y-100220000D03*
X361320000Y-110380000D03*
X353700000Y-97680000D03*
X361320000Y-112920000D03*
X353700000Y-95140000D03*
X361320000Y-115460000D03*
D18*
X353700000Y-92600000D03*
D17*
X199120000Y-80960000D03*
X191500000Y-103820000D03*
X199120000Y-83500000D03*
X191500000Y-101280000D03*
X199120000Y-86040000D03*
X191500000Y-98740000D03*
X199120000Y-88580000D03*
X191500000Y-96200000D03*
X199120000Y-91120000D03*
X191500000Y-93660000D03*
X199120000Y-93660000D03*
X191500000Y-91120000D03*
X199120000Y-96200000D03*
X191500000Y-88580000D03*
X199120000Y-98740000D03*
X191500000Y-86040000D03*
X199120000Y-101280000D03*
X191500000Y-83500000D03*
X199120000Y-103820000D03*
D18*
X191500000Y-80960000D03*
D17*
X182120000Y-80960000D03*
X174500000Y-108900000D03*
X182120000Y-83500000D03*
X174500000Y-106360000D03*
X182120000Y-86040000D03*
X174500000Y-103820000D03*
X182120000Y-88580000D03*
X174500000Y-101280000D03*
X182120000Y-91120000D03*
X174500000Y-98740000D03*
X182120000Y-93660000D03*
X174500000Y-96200000D03*
X182120000Y-96200000D03*
X174500000Y-93660000D03*
X182120000Y-98740000D03*
X174500000Y-91120000D03*
X182120000Y-101280000D03*
X174500000Y-88580000D03*
X182120000Y-103820000D03*
X174500000Y-86040000D03*
X182120000Y-106360000D03*
X174500000Y-83500000D03*
X182120000Y-108900000D03*
D18*
X174500000Y-80960000D03*
D17*
X215020000Y-80960000D03*
X207400000Y-103820000D03*
X215020000Y-83500000D03*
X207400000Y-101280000D03*
X215020000Y-86040000D03*
X207400000Y-98740000D03*
X215020000Y-88580000D03*
X207400000Y-96200000D03*
X215020000Y-91120000D03*
X207400000Y-93660000D03*
X215020000Y-93660000D03*
X207400000Y-91120000D03*
X215020000Y-96200000D03*
X207400000Y-88580000D03*
X215020000Y-98740000D03*
X207400000Y-86040000D03*
X215020000Y-101280000D03*
X207400000Y-83500000D03*
X215020000Y-103820000D03*
D18*
X207400000Y-80960000D03*
D17*
X231520000Y-80960000D03*
X223900000Y-103820000D03*
X231520000Y-83500000D03*
X223900000Y-101280000D03*
X231520000Y-86040000D03*
X223900000Y-98740000D03*
X231520000Y-88580000D03*
X223900000Y-96200000D03*
X231520000Y-91120000D03*
X223900000Y-93660000D03*
X231520000Y-93660000D03*
X223900000Y-91120000D03*
X231520000Y-96200000D03*
X223900000Y-88580000D03*
X231520000Y-98740000D03*
X223900000Y-86040000D03*
X231520000Y-101280000D03*
X223900000Y-83500000D03*
X231520000Y-103820000D03*
D18*
X223900000Y-80960000D03*
D17*
X137320000Y-183400000D03*
X129700000Y-201180000D03*
X137320000Y-185940000D03*
X129700000Y-198640000D03*
X137320000Y-188480000D03*
X129700000Y-196100000D03*
X137320000Y-191020000D03*
X129700000Y-193560000D03*
X137320000Y-193560000D03*
X129700000Y-191020000D03*
X137320000Y-196100000D03*
X129700000Y-188480000D03*
X137320000Y-198640000D03*
X129700000Y-185940000D03*
X137320000Y-201180000D03*
D18*
X129700000Y-183400000D03*
D17*
X363620000Y-199800000D03*
X356000000Y-207420000D03*
X363620000Y-202340000D03*
X356000000Y-204880000D03*
X363620000Y-204880000D03*
X356000000Y-202340000D03*
X363620000Y-207420000D03*
D18*
X356000000Y-199800000D03*
D17*
X347520000Y-188800000D03*
X339900000Y-206580000D03*
X347520000Y-191340000D03*
X339900000Y-204040000D03*
X347520000Y-193880000D03*
X339900000Y-201500000D03*
X347520000Y-196420000D03*
X339900000Y-198960000D03*
X347520000Y-198960000D03*
X339900000Y-196420000D03*
X347520000Y-201500000D03*
X339900000Y-193880000D03*
X347520000Y-204040000D03*
X339900000Y-191340000D03*
X347520000Y-206580000D03*
D18*
X339900000Y-188800000D03*
D17*
X136740000Y-111500000D03*
X121500000Y-159760000D03*
X136740000Y-114040000D03*
X121500000Y-157220000D03*
X136740000Y-116580000D03*
X121500000Y-154680000D03*
X136740000Y-119120000D03*
X121500000Y-152140000D03*
X136740000Y-121660000D03*
X121500000Y-149600000D03*
X136740000Y-124200000D03*
X121500000Y-147060000D03*
X136740000Y-126740000D03*
X121500000Y-144520000D03*
X136740000Y-129280000D03*
X121500000Y-141980000D03*
X136740000Y-131820000D03*
X121500000Y-139440000D03*
X136740000Y-134360000D03*
X121500000Y-136900000D03*
X136740000Y-136900000D03*
X121500000Y-134360000D03*
X136740000Y-139440000D03*
X121500000Y-131820000D03*
X136740000Y-141980000D03*
X121500000Y-129280000D03*
X136740000Y-144520000D03*
X121500000Y-126740000D03*
X136740000Y-147060000D03*
X121500000Y-124200000D03*
X136740000Y-149600000D03*
X121500000Y-121660000D03*
X136740000Y-152140000D03*
X121500000Y-119120000D03*
X136740000Y-154680000D03*
X121500000Y-116580000D03*
X136740000Y-157220000D03*
X121500000Y-114040000D03*
X136740000Y-159760000D03*
D18*
X121500000Y-111500000D03*
D17*
X275320000Y-153850000D03*
X267700000Y-176710000D03*
X275320000Y-156390000D03*
X267700000Y-174170000D03*
X275320000Y-158930000D03*
X267700000Y-171630000D03*
X275320000Y-161470000D03*
X267700000Y-169090000D03*
X275320000Y-164010000D03*
X267700000Y-166550000D03*
X275320000Y-166550000D03*
X267700000Y-164010000D03*
X275320000Y-169090000D03*
X267700000Y-161470000D03*
X275320000Y-171630000D03*
X267700000Y-158930000D03*
X275320000Y-174170000D03*
X267700000Y-156390000D03*
X275320000Y-176710000D03*
D18*
X267700000Y-153850000D03*
D17*
X275220000Y-122700000D03*
X267600000Y-145560000D03*
X275220000Y-125240000D03*
X267600000Y-143020000D03*
X275220000Y-127780000D03*
X267600000Y-140480000D03*
X275220000Y-130320000D03*
X267600000Y-137940000D03*
X275220000Y-132860000D03*
X267600000Y-135400000D03*
X275220000Y-135400000D03*
X267600000Y-132860000D03*
X275220000Y-137940000D03*
X267600000Y-130320000D03*
X275220000Y-140480000D03*
X267600000Y-127780000D03*
X275220000Y-143020000D03*
X267600000Y-125240000D03*
X275220000Y-145560000D03*
D18*
X267600000Y-122700000D03*
D17*
X217120000Y-185400000D03*
X209500000Y-200640000D03*
X217120000Y-187940000D03*
X209500000Y-198100000D03*
X217120000Y-190480000D03*
X209500000Y-195560000D03*
X217120000Y-193020000D03*
X209500000Y-193020000D03*
X217120000Y-195560000D03*
X209500000Y-190480000D03*
X217120000Y-198100000D03*
X209500000Y-187940000D03*
X217120000Y-200640000D03*
D18*
X209500000Y-185400000D03*
D17*
X360520000Y-155000000D03*
X352900000Y-170240000D03*
X360520000Y-157540000D03*
X352900000Y-167700000D03*
X360520000Y-160080000D03*
X352900000Y-165160000D03*
X360520000Y-162620000D03*
X352900000Y-162620000D03*
X360520000Y-165160000D03*
X352900000Y-160080000D03*
X360520000Y-167700000D03*
X352900000Y-157540000D03*
X360520000Y-170240000D03*
D18*
X352900000Y-155000000D03*
D25*
X302140000Y-151750000D03*
X286900000Y-184770000D03*
X302140000Y-154290000D03*
X286900000Y-182230000D03*
X302140000Y-156830000D03*
X286900000Y-179690000D03*
X302140000Y-159370000D03*
X286900000Y-177150000D03*
X302140000Y-161910000D03*
X286900000Y-174610000D03*
X302140000Y-164450000D03*
X286900000Y-172070000D03*
X302140000Y-166990000D03*
X286900000Y-169530000D03*
X302140000Y-169530000D03*
X286900000Y-166990000D03*
X302140000Y-172070000D03*
X286900000Y-164450000D03*
X302140000Y-174610000D03*
X286900000Y-161910000D03*
X302140000Y-177150000D03*
X286900000Y-159370000D03*
X302140000Y-179690000D03*
X286900000Y-156830000D03*
X302140000Y-182230000D03*
X286900000Y-154290000D03*
X302140000Y-184770000D03*
D26*
X286900000Y-151750000D03*
D25*
X250240000Y-128450000D03*
X235000000Y-176710000D03*
X250240000Y-130990000D03*
X235000000Y-174170000D03*
X250240000Y-133530000D03*
X235000000Y-171630000D03*
X250240000Y-136070000D03*
X235000000Y-169090000D03*
X250240000Y-138610000D03*
X235000000Y-166550000D03*
X250240000Y-141150000D03*
X235000000Y-164010000D03*
X250240000Y-143690000D03*
X235000000Y-161470000D03*
X250240000Y-146230000D03*
X235000000Y-158930000D03*
X250240000Y-148770000D03*
X235000000Y-156390000D03*
X250240000Y-151310000D03*
X235000000Y-153850000D03*
X250240000Y-153850000D03*
X235000000Y-151310000D03*
X250240000Y-156390000D03*
X235000000Y-148770000D03*
X250240000Y-158930000D03*
X235000000Y-146230000D03*
X250240000Y-161470000D03*
X235000000Y-143690000D03*
X250240000Y-164010000D03*
X235000000Y-141150000D03*
X250240000Y-166550000D03*
X235000000Y-138610000D03*
X250240000Y-169090000D03*
X235000000Y-136070000D03*
X250240000Y-171630000D03*
X235000000Y-133530000D03*
X250240000Y-174170000D03*
X235000000Y-130990000D03*
X250240000Y-176710000D03*
D26*
X235000000Y-128450000D03*
D25*
X170220000Y-185600000D03*
X162600000Y-200840000D03*
X170220000Y-188140000D03*
X162600000Y-198300000D03*
X170220000Y-190680000D03*
X162600000Y-195760000D03*
X170220000Y-193220000D03*
X162600000Y-193220000D03*
X170220000Y-195760000D03*
X162600000Y-190680000D03*
X170220000Y-198300000D03*
X162600000Y-188140000D03*
X170220000Y-200840000D03*
D26*
X162600000Y-185600000D03*
D25*
X331440000Y-146700000D03*
X316200000Y-184800000D03*
X331440000Y-149240000D03*
X316200000Y-182260000D03*
X331440000Y-151780000D03*
X316200000Y-179720000D03*
X331440000Y-154320000D03*
X316200000Y-177180000D03*
X331440000Y-156860000D03*
X316200000Y-174640000D03*
X331440000Y-159400000D03*
X316200000Y-172100000D03*
X331440000Y-161940000D03*
X316200000Y-169560000D03*
X331440000Y-164480000D03*
X316200000Y-167020000D03*
X331440000Y-167020000D03*
X316200000Y-164480000D03*
X331440000Y-169560000D03*
X316200000Y-161940000D03*
X331440000Y-172100000D03*
X316200000Y-159400000D03*
X331440000Y-174640000D03*
X316200000Y-156860000D03*
X331440000Y-177180000D03*
X316200000Y-154320000D03*
X331440000Y-179720000D03*
X316200000Y-151780000D03*
X331440000Y-182260000D03*
X316200000Y-149240000D03*
X331440000Y-184800000D03*
D26*
X316200000Y-146700000D03*
D25*
X200420000Y-185400000D03*
X192800000Y-200640000D03*
X200420000Y-187940000D03*
X192800000Y-198100000D03*
X200420000Y-190480000D03*
X192800000Y-195560000D03*
X200420000Y-193020000D03*
X192800000Y-193020000D03*
X200420000Y-195560000D03*
X192800000Y-190480000D03*
X200420000Y-198100000D03*
X192800000Y-187940000D03*
X200420000Y-200640000D03*
D26*
X192800000Y-185400000D03*
D27*
X37100000Y-106500000D03*
X34600000Y-96500000D03*
X32100000Y-106500000D03*
X36900000Y-91200000D03*
X34400000Y-81200000D03*
X31900000Y-91200000D03*
D25*
X371300000Y-100540000D03*
X371300000Y-103080000D03*
X371300000Y-105620000D03*
X371300000Y-108160000D03*
X371300000Y-110700000D03*
X371300000Y-113240000D03*
X371300000Y-115780000D03*
X371300000Y-118320000D03*
X371300000Y-120860000D03*
D26*
X371300000Y-123400000D03*
D25*
X380200000Y-88000000D03*
X380200000Y-90540000D03*
X380200000Y-93080000D03*
X380200000Y-95620000D03*
X380200000Y-98160000D03*
D26*
X380200000Y-100700000D03*
D25*
X267400000Y-101900000D03*
X267400000Y-99360000D03*
X267400000Y-96820000D03*
X267400000Y-94280000D03*
X267400000Y-91740000D03*
D26*
X267400000Y-89200000D03*
D25*
X259800000Y-102100000D03*
X259800000Y-99560000D03*
X259800000Y-97020000D03*
X259800000Y-94480000D03*
X259800000Y-91940000D03*
D26*
X259800000Y-89400000D03*
D28*
X213300000Y-153180000D03*
D29*
X213300000Y-148100000D03*
D28*
X217600000Y-162180000D03*
D29*
X217600000Y-157100000D03*
D28*
X81220000Y-98600000D03*
D29*
X86300000Y-98600000D03*
D28*
X81620000Y-94400000D03*
D29*
X86700000Y-94400000D03*
D28*
X91420000Y-92100000D03*
D29*
X96500000Y-92100000D03*
D28*
X32300000Y-134080000D03*
D29*
X32300000Y-129000000D03*
D28*
X90920000Y-96700000D03*
D29*
X96000000Y-96700000D03*
D28*
X32315000Y-141715000D03*
D29*
X32315000Y-136635000D03*
D28*
X32500000Y-149980000D03*
D29*
X32500000Y-144900000D03*
D28*
X71020000Y-94900000D03*
D29*
X76100000Y-94900000D03*
D28*
X71120000Y-89600000D03*
D29*
X76200000Y-89600000D03*
D28*
X68900000Y-80480000D03*
D29*
X68900000Y-75400000D03*
D28*
X72900000Y-80380000D03*
D29*
X72900000Y-75300000D03*
D28*
X213400000Y-162080000D03*
D29*
X213400000Y-157000000D03*
D28*
X368500000Y-159080000D03*
D29*
X368500000Y-154000000D03*
D28*
X290220000Y-195000000D03*
D29*
X295300000Y-195000000D03*
D28*
X279720000Y-194900000D03*
D29*
X284800000Y-194900000D03*
D28*
X270120000Y-194600000D03*
D29*
X275200000Y-194600000D03*
D10*
X48240000Y-100240000D03*
X45700000Y-100240000D03*
X48240000Y-97700000D03*
D11*
X45700000Y-97700000D03*
D10*
X167160000Y-77040000D03*
X167160000Y-74500000D03*
X164620000Y-77040000D03*
X164620000Y-74500000D03*
X162080000Y-77040000D03*
X162080000Y-74500000D03*
X159540000Y-77040000D03*
X159540000Y-74500000D03*
X157000000Y-77040000D03*
D11*
X157000000Y-74500000D03*
D17*
X132820000Y-94500000D03*
X125200000Y-102120000D03*
X132820000Y-97040000D03*
X125200000Y-99580000D03*
X132820000Y-99580000D03*
X125200000Y-97040000D03*
X132820000Y-102120000D03*
D18*
X125200000Y-94500000D03*
D17*
X246420000Y-107000000D03*
X238800000Y-114620000D03*
X246420000Y-109540000D03*
X238800000Y-112080000D03*
X246420000Y-112080000D03*
X238800000Y-109540000D03*
X246420000Y-114620000D03*
D18*
X238800000Y-107000000D03*
D10*
X284100000Y-205140000D03*
D11*
X284100000Y-202600000D03*
D30*
X255020000Y-204600000D03*
X252480000Y-204600000D03*
X249940000Y-204600000D03*
G04 #@! TA.AperFunction,ComponentPad*
D20*
G36*
X248044505Y-203501204D02*
G01*
X248068773Y-203504804D01*
X248092572Y-203510765D01*
X248115671Y-203519030D01*
X248137850Y-203529520D01*
X248158893Y-203542132D01*
X248178599Y-203556747D01*
X248196777Y-203573223D01*
X248213253Y-203591401D01*
X248227868Y-203611107D01*
X248240480Y-203632150D01*
X248250970Y-203654329D01*
X248259235Y-203677428D01*
X248265196Y-203701227D01*
X248268796Y-203725495D01*
X248270000Y-203749999D01*
X248270000Y-205450001D01*
X248268796Y-205474505D01*
X248265196Y-205498773D01*
X248259235Y-205522572D01*
X248250970Y-205545671D01*
X248240480Y-205567850D01*
X248227868Y-205588893D01*
X248213253Y-205608599D01*
X248196777Y-205626777D01*
X248178599Y-205643253D01*
X248158893Y-205657868D01*
X248137850Y-205670480D01*
X248115671Y-205680970D01*
X248092572Y-205689235D01*
X248068773Y-205695196D01*
X248044505Y-205698796D01*
X248020001Y-205700000D01*
X246779999Y-205700000D01*
X246755495Y-205698796D01*
X246731227Y-205695196D01*
X246707428Y-205689235D01*
X246684329Y-205680970D01*
X246662150Y-205670480D01*
X246641107Y-205657868D01*
X246621401Y-205643253D01*
X246603223Y-205626777D01*
X246586747Y-205608599D01*
X246572132Y-205588893D01*
X246559520Y-205567850D01*
X246549030Y-205545671D01*
X246540765Y-205522572D01*
X246534804Y-205498773D01*
X246531204Y-205474505D01*
X246530000Y-205450001D01*
X246530000Y-203749999D01*
X246531204Y-203725495D01*
X246534804Y-203701227D01*
X246540765Y-203677428D01*
X246549030Y-203654329D01*
X246559520Y-203632150D01*
X246572132Y-203611107D01*
X246586747Y-203591401D01*
X246603223Y-203573223D01*
X246621401Y-203556747D01*
X246641107Y-203542132D01*
X246662150Y-203529520D01*
X246684329Y-203519030D01*
X246707428Y-203510765D01*
X246731227Y-203504804D01*
X246755495Y-203501204D01*
X246779999Y-203500000D01*
X248020001Y-203500000D01*
X248044505Y-203501204D01*
G37*
G04 #@! TD.AperFunction*
D25*
X65560000Y-86000000D03*
D22*
X55400000Y-86000000D03*
D10*
X371200000Y-92880000D03*
X371200000Y-90340000D03*
D11*
X371200000Y-87800000D03*
D10*
X297380000Y-142100000D03*
X294840000Y-142100000D03*
D11*
X292300000Y-142100000D03*
D10*
X326080000Y-138600000D03*
X323540000Y-138600000D03*
D11*
X321000000Y-138600000D03*
D10*
X273700000Y-205380000D03*
X273700000Y-202840000D03*
D11*
X273700000Y-200300000D03*
D31*
X102500000Y-83600000D03*
X97500000Y-86100000D03*
X95000000Y-83600000D03*
X107500000Y-86100000D03*
X110000000Y-83600000D03*
X105000000Y-73600000D03*
X100000000Y-73600000D03*
X102500000Y-88600000D03*
D32*
X381020000Y-156460000D03*
X381020000Y-181460000D03*
D22*
X382440000Y-164805000D03*
X382440000Y-167575000D03*
X382440000Y-170345000D03*
X382440000Y-173115000D03*
X379600000Y-163420000D03*
X379600000Y-166190000D03*
X379600000Y-168960000D03*
X379600000Y-171730000D03*
D26*
X379600000Y-174500000D03*
D32*
X380920000Y-119760000D03*
X380920000Y-144760000D03*
D22*
X382340000Y-128105000D03*
X382340000Y-130875000D03*
X382340000Y-133645000D03*
X382340000Y-136415000D03*
X379500000Y-126720000D03*
X379500000Y-129490000D03*
X379500000Y-132260000D03*
X379500000Y-135030000D03*
D26*
X379500000Y-137800000D03*
D10*
X249240000Y-93780000D03*
X246700000Y-93780000D03*
X249240000Y-91240000D03*
X246700000Y-91240000D03*
X249240000Y-88700000D03*
X246700000Y-88700000D03*
X249240000Y-86160000D03*
D11*
X246700000Y-86160000D03*
D33*
X296140000Y-204800000D03*
D34*
X293600000Y-204800000D03*
D35*
X257600000Y-195200000D03*
D36*
X244900000Y-195200000D03*
D37*
X112600000Y-94100000D03*
D38*
X110600000Y-94100000D03*
D37*
X108400000Y-103300000D03*
D38*
X106400000Y-103300000D03*
D22*
X81700000Y-89700000D03*
X86700000Y-89700000D03*
X32000000Y-118800000D03*
X32000000Y-113800000D03*
X54500000Y-100400000D03*
X59500000Y-100400000D03*
D37*
X105900000Y-94700000D03*
D38*
X103900000Y-94700000D03*
D37*
X57400000Y-92700000D03*
D38*
X55400000Y-92700000D03*
D22*
X100600000Y-102000000D03*
X95600000Y-102000000D03*
X100600000Y-106400000D03*
X95600000Y-106400000D03*
X192600000Y-78000000D03*
X197600000Y-78000000D03*
X310900000Y-89500000D03*
X315900000Y-89500000D03*
X268400000Y-119000000D03*
X273400000Y-119000000D03*
X295200000Y-89500000D03*
X300200000Y-89500000D03*
X175400000Y-78100000D03*
X180400000Y-78100000D03*
X208600000Y-78000000D03*
X213600000Y-78000000D03*
X118900000Y-181600000D03*
X113900000Y-181600000D03*
X193700000Y-115100000D03*
X198700000Y-115100000D03*
X54700000Y-182900000D03*
X59700000Y-182900000D03*
X69600000Y-175400000D03*
X74600000Y-175400000D03*
D37*
X146500000Y-207500000D03*
D38*
X144500000Y-207500000D03*
D22*
X210700000Y-182200000D03*
X215700000Y-182200000D03*
X194000000Y-182300000D03*
X199000000Y-182300000D03*
X164200000Y-182600000D03*
X169200000Y-182600000D03*
X321000000Y-143600000D03*
X326000000Y-143600000D03*
X354100000Y-151800000D03*
X359100000Y-151800000D03*
D37*
X146500000Y-194200000D03*
D38*
X144500000Y-194200000D03*
D37*
X146500000Y-201000000D03*
D38*
X144500000Y-201000000D03*
D22*
X330900000Y-206700000D03*
X330900000Y-201700000D03*
X239100000Y-207200000D03*
X239100000Y-202200000D03*
D37*
X146400000Y-186400000D03*
D38*
X144400000Y-186400000D03*
D22*
X278700000Y-89600000D03*
X283700000Y-89600000D03*
X269000000Y-150900000D03*
X274000000Y-150900000D03*
X39100000Y-182700000D03*
X44100000Y-182700000D03*
X99300000Y-175600000D03*
X104300000Y-175600000D03*
D37*
X146400000Y-178900000D03*
D38*
X144400000Y-178900000D03*
D22*
X291900000Y-148700000D03*
X296900000Y-148700000D03*
X225700000Y-77800000D03*
X230700000Y-77800000D03*
X180000000Y-182900000D03*
X185000000Y-182900000D03*
X240100000Y-125500000D03*
X245100000Y-125500000D03*
D37*
X264400000Y-195200000D03*
D38*
X262400000Y-195200000D03*
D22*
X240300000Y-104100000D03*
X245300000Y-104100000D03*
D37*
X264400000Y-204100000D03*
D38*
X262400000Y-204100000D03*
D39*
X59506200Y-138891500D03*
X201837400Y-103820000D03*
X344030400Y-195261400D03*
X203650400Y-171681500D03*
X265151000Y-165806900D03*
X243240600Y-188836500D03*
X139703000Y-193908000D03*
X236658400Y-132964600D03*
X210381100Y-138887300D03*
X72878300Y-143901500D03*
X254582000Y-86291100D03*
X181803300Y-114469700D03*
X240804300Y-113292400D03*
X203092000Y-113598500D03*
X243867800Y-113211500D03*
X207752800Y-132718900D03*
X217794200Y-128060100D03*
X288009000Y-178471900D03*
X298400800Y-134663400D03*
X284063100Y-173906600D03*
X293920700Y-136679000D03*
X245763100Y-151253000D03*
X264650600Y-128936000D03*
X38725000Y-166787400D03*
X38668900Y-162382300D03*
X42428300Y-164246100D03*
X41783300Y-163129800D03*
X41786900Y-169227700D03*
X207197600Y-167499300D03*
X113750700Y-87718000D03*
X130206900Y-87889100D03*
X195418300Y-159916400D03*
X123604700Y-107045700D03*
X194463000Y-157669900D03*
X125053000Y-107414500D03*
X142976200Y-109072800D03*
X185805100Y-123017400D03*
X142992000Y-104569300D03*
X168646100Y-109063600D03*
X179543300Y-126837800D03*
X143336300Y-102727000D03*
X183276400Y-119819600D03*
X183922600Y-131100000D03*
X145969600Y-134820500D03*
X146627500Y-139903000D03*
X185467100Y-114197600D03*
X148160400Y-103669100D03*
X179498200Y-158560700D03*
X164650900Y-93836900D03*
X180060500Y-160640100D03*
X178453300Y-157187800D03*
X166370300Y-154349600D03*
X170110600Y-111467200D03*
X180103100Y-153960000D03*
X145593200Y-102726000D03*
X182008600Y-118758500D03*
X182862900Y-151433600D03*
X176310900Y-149839500D03*
X148413500Y-147512600D03*
X138510700Y-99458800D03*
X170715300Y-109054700D03*
X180134300Y-143080100D03*
X142009300Y-107727600D03*
X168509700Y-111449600D03*
X178801000Y-140751900D03*
X219399100Y-167609800D03*
X218457600Y-168663700D03*
X267138500Y-105054000D03*
X290650000Y-136339200D03*
X256255500Y-114090200D03*
X205691200Y-141607200D03*
X125243300Y-105773600D03*
X134176600Y-92540200D03*
X244301700Y-186643300D03*
X287397500Y-121454900D03*
X270702600Y-103989900D03*
X294222300Y-123932400D03*
X269007700Y-101012700D03*
X253223500Y-99975400D03*
X211143600Y-144868700D03*
X207752800Y-141290200D03*
X285826500Y-75700500D03*
X287651400Y-99016700D03*
X239924000Y-187265200D03*
X264468500Y-113035600D03*
X267688600Y-109053700D03*
X278017700Y-78771000D03*
X343939600Y-97816900D03*
X342885100Y-94426600D03*
X166176800Y-94852900D03*
X188688400Y-170630200D03*
X135332900Y-155950000D03*
X205197100Y-150092100D03*
X241834000Y-97338100D03*
X266122600Y-104204600D03*
X287963700Y-129755700D03*
X323121800Y-129282900D03*
X172989700Y-174244700D03*
X323856400Y-192646100D03*
X61051800Y-152737800D03*
X163286000Y-119784000D03*
X166160900Y-120582000D03*
X211870700Y-140449600D03*
X243087200Y-181095100D03*
X61798600Y-151283300D03*
X201269300Y-113076300D03*
X284568800Y-112601700D03*
X324129000Y-118981000D03*
X118776700Y-192145400D03*
X210361300Y-136180000D03*
X237556800Y-179441300D03*
X279036800Y-159837500D03*
X127258700Y-126621500D03*
X177245100Y-98745300D03*
X206327300Y-106341000D03*
X238640200Y-171010600D03*
X308133300Y-155689800D03*
X290119000Y-162936900D03*
X296066000Y-156830000D03*
X139120800Y-127290000D03*
X313777400Y-138990500D03*
X295266800Y-145255800D03*
X213797900Y-123830600D03*
X292170100Y-76463100D03*
X238984000Y-157660000D03*
X142569500Y-144919200D03*
X162637600Y-129073500D03*
X236515900Y-169223000D03*
X212882900Y-125856000D03*
X285206500Y-174155300D03*
X192754300Y-110916900D03*
X206299400Y-110496800D03*
X213761500Y-128077300D03*
X185962100Y-128654800D03*
X190394400Y-128983700D03*
X315392900Y-142885900D03*
X285196900Y-152055900D03*
X139124100Y-129715900D03*
X305858800Y-127900200D03*
X188323200Y-114952200D03*
X247515800Y-128710300D03*
X214478000Y-130409100D03*
X283577500Y-158127800D03*
X158257400Y-170533500D03*
X287963000Y-105695400D03*
X299594000Y-106062100D03*
X202388800Y-97413700D03*
X128666800Y-98351000D03*
X245663800Y-160808600D03*
X247783300Y-177988000D03*
X285154400Y-171081200D03*
X288656300Y-165636100D03*
X190689700Y-113348000D03*
X206306300Y-119406000D03*
X316533700Y-138193700D03*
X294782900Y-146747500D03*
X284925900Y-160588200D03*
X291315900Y-163293800D03*
X193324600Y-113161700D03*
X325150800Y-120314000D03*
X336690600Y-188289500D03*
X126402100Y-152960400D03*
X80422900Y-137620000D03*
X221147000Y-157643000D03*
X237385600Y-177337900D03*
X284012300Y-162097200D03*
X320560200Y-156914300D03*
X325064700Y-116987000D03*
X145054800Y-139729300D03*
X342013200Y-177074600D03*
X221153100Y-158964400D03*
X241931700Y-177178300D03*
X80317800Y-132651800D03*
X280314200Y-175988900D03*
X187279400Y-116882100D03*
X205940100Y-122372000D03*
X233042500Y-175326000D03*
X282228800Y-154290000D03*
X182803500Y-174094100D03*
X271068300Y-182028500D03*
X77945900Y-132013900D03*
X342007700Y-180845500D03*
X186830200Y-149014200D03*
X298834300Y-168341200D03*
X191636800Y-148880000D03*
X226629900Y-102550000D03*
X247663200Y-169089600D03*
X252795600Y-154718300D03*
X283633700Y-181074000D03*
X303027800Y-138425400D03*
X307053200Y-138500500D03*
X162796700Y-125582100D03*
X72315500Y-127574100D03*
X235944800Y-94218300D03*
X264543100Y-103272200D03*
X287911200Y-139521500D03*
X310593100Y-142171800D03*
X280175700Y-166111100D03*
X213781500Y-143249000D03*
X231379000Y-173737000D03*
X270577300Y-174292900D03*
X127262700Y-144545600D03*
X69218800Y-124912500D03*
X311249200Y-106456900D03*
X192968400Y-128183200D03*
X213963900Y-126392200D03*
X362801000Y-188447700D03*
X72735400Y-142533600D03*
X210292700Y-133738700D03*
X112582200Y-123926200D03*
X122907100Y-125359000D03*
X331582400Y-118229400D03*
X331053400Y-129346100D03*
X250140100Y-121100200D03*
X197386800Y-113219000D03*
X340911700Y-112097800D03*
X258295300Y-119807500D03*
X258295300Y-112060200D03*
X191143200Y-105532000D03*
X262412700Y-157533400D03*
X265428400Y-138553100D03*
X279388600Y-130330300D03*
X209421600Y-146220000D03*
X271345000Y-167132100D03*
X269389200Y-165523800D03*
X244511100Y-114997100D03*
X243225000Y-166108800D03*
X254841700Y-115502900D03*
X216761700Y-79101400D03*
X219799000Y-119642200D03*
X194505000Y-113619300D03*
X252719500Y-101341000D03*
X219285500Y-105389600D03*
X196595700Y-104186600D03*
X301620700Y-120654300D03*
X192726400Y-116373500D03*
X355661300Y-165313300D03*
X347135300Y-180779300D03*
X327409200Y-189099900D03*
X329900400Y-176024000D03*
X263044600Y-110916500D03*
X222247300Y-84484300D03*
X235377800Y-124091200D03*
X270659400Y-123835200D03*
X219605100Y-109636900D03*
X270459900Y-119736600D03*
X291604200Y-123348900D03*
X289797500Y-132599900D03*
X272527900Y-107929600D03*
X220437300Y-107607500D03*
X245346900Y-138344900D03*
X217032600Y-89405700D03*
X350008500Y-129523700D03*
X215350900Y-108408000D03*
X219216600Y-114773800D03*
X184658400Y-113389000D03*
X348959200Y-126753900D03*
X242997700Y-134795900D03*
X239714000Y-133825800D03*
X344895400Y-129837300D03*
X221448800Y-106751200D03*
X178848700Y-97584000D03*
X280659500Y-124574700D03*
X280659500Y-139501900D03*
X263168000Y-105400500D03*
X217949200Y-121854400D03*
X217598400Y-108698500D03*
X344089400Y-112853400D03*
X203655800Y-92459200D03*
X149152000Y-102625800D03*
X149032000Y-141801300D03*
X123877600Y-193190400D03*
X115762600Y-192954600D03*
X178142500Y-181813700D03*
X193744100Y-129902200D03*
X216442200Y-126722600D03*
X175610100Y-178705000D03*
X191054700Y-126146400D03*
X214941300Y-123890600D03*
X210179900Y-161247200D03*
X209528600Y-94759500D03*
X181290100Y-113365800D03*
X213803500Y-110039300D03*
X280281600Y-89223700D03*
X269044400Y-86558900D03*
X201105300Y-89205500D03*
X330970200Y-106570000D03*
X328386000Y-114991900D03*
X284665200Y-117590700D03*
X277714000Y-110639500D03*
X59877300Y-156030300D03*
X60170900Y-149143200D03*
X103619300Y-151872600D03*
X104595100Y-154556400D03*
X98083900Y-134851000D03*
X105050400Y-156702800D03*
X70054400Y-173299000D03*
X85642900Y-157635100D03*
X85185400Y-155178600D03*
X106195100Y-146997600D03*
X122532400Y-165465800D03*
X105485600Y-159599200D03*
X71085800Y-146790900D03*
X111752500Y-165277700D03*
X81761200Y-161641400D03*
X87737900Y-148760000D03*
X88250500Y-146584500D03*
X88721300Y-143766000D03*
X89178800Y-141699600D03*
X86425000Y-139555900D03*
X85560100Y-137551400D03*
X94229200Y-160125600D03*
X91400200Y-160125600D03*
X97969600Y-174762000D03*
X103161700Y-179807000D03*
X80165500Y-188707100D03*
X85454000Y-189825300D03*
X105104900Y-172523600D03*
X104345600Y-182537000D03*
X174178900Y-184718800D03*
X181974100Y-124198100D03*
X177802100Y-171015400D03*
X146516800Y-101125100D03*
X153810400Y-101010400D03*
X154629800Y-100196000D03*
X295390100Y-85473600D03*
X291597300Y-91413700D03*
X317599900Y-82041000D03*
X341358400Y-85333800D03*
X350239800Y-103566700D03*
X364402000Y-85493100D03*
X352928400Y-90806100D03*
X305029300Y-96257000D03*
X305422400Y-106856700D03*
X304923000Y-82779200D03*
X327913800Y-92812900D03*
X306839100Y-86343400D03*
X313041800Y-102760000D03*
X304000100Y-86349300D03*
X304595400Y-104030000D03*
X330718300Y-87496500D03*
X329135300Y-104144000D03*
X329227100Y-94137500D03*
X307926200Y-85772700D03*
X313772400Y-112920000D03*
X366879000Y-99434000D03*
X303329100Y-87793400D03*
X283903700Y-76644400D03*
X274685600Y-89214600D03*
X296311300Y-84555000D03*
D40*
X293800000Y-115460000D02*
X295754300Y-115460000D01*
X309700000Y-115460000D02*
X307745700Y-115460000D01*
X307745700Y-115460000D02*
X306189900Y-117015800D01*
X306189900Y-117015800D02*
X297310100Y-117015800D01*
X297310100Y-117015800D02*
X295754300Y-115460000D01*
X310677200Y-115460000D02*
X309700000Y-115460000D01*
X159800000Y-118400000D02*
X161354300Y-118400000D01*
X165100000Y-115400000D02*
X164354300Y-115400000D01*
X164354300Y-115400000D02*
X161354300Y-118400000D01*
X252480000Y-204600000D02*
X249940000Y-204600000D01*
X208600000Y-78000000D02*
X206835900Y-76235900D01*
X206835900Y-76235900D02*
X194364100Y-76235900D01*
X194364100Y-76235900D02*
X192600000Y-78000000D01*
X208600000Y-78000000D02*
X210164300Y-76435700D01*
X210164300Y-76435700D02*
X224335700Y-76435700D01*
X224335700Y-76435700D02*
X225700000Y-77800000D01*
X175400000Y-78100000D02*
X176958400Y-76541600D01*
X176958400Y-76541600D02*
X191141600Y-76541600D01*
X191141600Y-76541600D02*
X192600000Y-78000000D01*
X267600000Y-122700000D02*
X265645700Y-122700000D01*
X265645700Y-122700000D02*
X265570800Y-122774900D01*
X265570800Y-122774900D02*
X242825100Y-122774900D01*
X242825100Y-122774900D02*
X240100000Y-125500000D01*
X354600000Y-89600000D02*
X357320000Y-89600000D01*
X357320000Y-89600000D02*
X366740000Y-80180000D01*
X209500000Y-200640000D02*
X211454300Y-200640000D01*
X239100000Y-207200000D02*
X218014300Y-207200000D01*
X218014300Y-207200000D02*
X211454300Y-200640000D01*
X249940000Y-206454300D02*
X249194300Y-207200000D01*
X249194300Y-207200000D02*
X239100000Y-207200000D01*
X210700000Y-182200000D02*
X201421800Y-182200000D01*
X201421800Y-182200000D02*
X199765000Y-183856800D01*
X199765000Y-183856800D02*
X195556800Y-183856800D01*
X195556800Y-183856800D02*
X194000000Y-182300000D01*
X194000000Y-182300000D02*
X193042000Y-181342000D01*
X193042000Y-181342000D02*
X180578600Y-181342000D01*
X180578600Y-181342000D02*
X180000000Y-181920600D01*
X130800000Y-180300000D02*
X120200000Y-180300000D01*
X120200000Y-180300000D02*
X118900000Y-181600000D01*
X66900000Y-138890000D02*
X64945700Y-138890000D01*
X59506200Y-138891500D02*
X64944200Y-138891500D01*
X64944200Y-138891500D02*
X64945700Y-138890000D01*
X221945700Y-103820000D02*
X218185900Y-103820000D01*
X218185900Y-103820000D02*
X216626800Y-105379100D01*
X216626800Y-105379100D02*
X210913400Y-105379100D01*
X210913400Y-105379100D02*
X209354300Y-103820000D01*
X121500000Y-157220000D02*
X136740000Y-157220000D01*
X180000000Y-181920600D02*
X180000000Y-182900000D01*
X164200000Y-182600000D02*
X166185200Y-180614800D01*
X166185200Y-180614800D02*
X178694200Y-180614800D01*
X178694200Y-180614800D02*
X180000000Y-181920600D01*
X139274300Y-185940000D02*
X140849100Y-184365200D01*
X140849100Y-184365200D02*
X150119600Y-184365200D01*
X150119600Y-184365200D02*
X151884800Y-182600000D01*
X151884800Y-182600000D02*
X164200000Y-182600000D01*
X125200000Y-102120000D02*
X123245700Y-102120000D01*
X100600000Y-102000000D02*
X100660400Y-101939600D01*
X100660400Y-101939600D02*
X123065300Y-101939600D01*
X123065300Y-101939600D02*
X123245700Y-102120000D01*
X68300000Y-178450000D02*
X68300000Y-176700000D01*
X68300000Y-176700000D02*
X69600000Y-175400000D01*
X41585200Y-182720300D02*
X45855500Y-178450000D01*
X45855500Y-178450000D02*
X68300000Y-178450000D01*
X267600000Y-145560000D02*
X269554300Y-145560000D01*
X269554300Y-145560000D02*
X272694300Y-148700000D01*
X272694300Y-148700000D02*
X291900000Y-148700000D01*
X178600000Y-201240000D02*
X180154300Y-201240000D01*
X192800000Y-200640000D02*
X191245700Y-200640000D01*
X191245700Y-200640000D02*
X189045800Y-202839900D01*
X189045800Y-202839900D02*
X181754200Y-202839900D01*
X181754200Y-202839900D02*
X180154300Y-201240000D01*
X301420000Y-95140000D02*
X303374300Y-95140000D01*
X310900000Y-89500000D02*
X309486200Y-90913800D01*
X309486200Y-90913800D02*
X307600500Y-90913800D01*
X307600500Y-90913800D02*
X303374300Y-95140000D01*
X268400000Y-119000000D02*
X271940000Y-115460000D01*
X271940000Y-115460000D02*
X291845700Y-115460000D01*
X137320000Y-185940000D02*
X139274300Y-185940000D01*
X39100000Y-182700000D02*
X39120300Y-182720300D01*
X39120300Y-182720300D02*
X41585200Y-182720300D01*
X41585200Y-182720300D02*
X43333500Y-184468600D01*
X43333500Y-184468600D02*
X44812500Y-184468600D01*
X44812500Y-184468600D02*
X46381100Y-182900000D01*
X46381100Y-182900000D02*
X54700000Y-182900000D01*
X57400000Y-92700000D02*
X60500000Y-89600000D01*
X60500000Y-89600000D02*
X71120000Y-89600000D01*
X47900000Y-108200000D02*
X54500000Y-101600000D01*
X54500000Y-101600000D02*
X54500000Y-100400000D01*
X293800000Y-115460000D02*
X291845700Y-115460000D01*
X310677200Y-115460000D02*
X311654300Y-115460000D01*
X250240000Y-176710000D02*
X251794300Y-176710000D01*
X267700000Y-176710000D02*
X265745700Y-176710000D01*
X265745700Y-176710000D02*
X251794300Y-176710000D01*
X98700000Y-201310000D02*
X100254300Y-201310000D01*
X112500000Y-201190000D02*
X110945700Y-201190000D01*
X110945700Y-201190000D02*
X109257300Y-202878400D01*
X109257300Y-202878400D02*
X101822700Y-202878400D01*
X101822700Y-202878400D02*
X100254300Y-201310000D01*
X53300000Y-201190000D02*
X54854300Y-201190000D01*
X68300000Y-201310000D02*
X66345700Y-201310000D01*
X66345700Y-201310000D02*
X64879500Y-202776200D01*
X64879500Y-202776200D02*
X56440500Y-202776200D01*
X56440500Y-202776200D02*
X54854300Y-201190000D01*
X323245700Y-115460000D02*
X321666700Y-117039000D01*
X321666700Y-117039000D02*
X313233300Y-117039000D01*
X313233300Y-117039000D02*
X311654300Y-115460000D01*
X207400000Y-103820000D02*
X201837400Y-103820000D01*
X332820000Y-95140000D02*
X334774300Y-95140000D01*
X339200000Y-92600000D02*
X337245700Y-92600000D01*
X337245700Y-92600000D02*
X334774300Y-95071400D01*
X334774300Y-95071400D02*
X334774300Y-95140000D01*
X59400000Y-74400000D02*
X56545700Y-74400000D01*
X48700000Y-73900000D02*
X56045700Y-73900000D01*
X56045700Y-73900000D02*
X56545700Y-74400000D01*
X71120000Y-89600000D02*
X72574300Y-89600000D01*
X81700000Y-89700000D02*
X80341400Y-91058600D01*
X80341400Y-91058600D02*
X74032900Y-91058600D01*
X74032900Y-91058600D02*
X72574300Y-89600000D01*
X299465700Y-95140000D02*
X299465700Y-93765700D01*
X299465700Y-93765700D02*
X295200000Y-89500000D01*
X207400000Y-103820000D02*
X209354300Y-103820000D01*
X223900000Y-103820000D02*
X221945700Y-103820000D01*
X98700000Y-201310000D02*
X97145700Y-201310000D01*
X83800000Y-201310000D02*
X85754300Y-201310000D01*
X85754300Y-201310000D02*
X87310200Y-202865900D01*
X87310200Y-202865900D02*
X95589800Y-202865900D01*
X95589800Y-202865900D02*
X97145700Y-201310000D01*
X301420000Y-95140000D02*
X299465700Y-95140000D01*
X325200000Y-115460000D02*
X323245700Y-115460000D01*
X36900000Y-91200000D02*
X37940000Y-92240000D01*
X37940000Y-92240000D02*
X42300000Y-92240000D01*
X249940000Y-204600000D02*
X249940000Y-206454300D01*
X273700000Y-202840000D02*
X275304300Y-202840000D01*
X275304300Y-202840000D02*
X275544300Y-202600000D01*
X275544300Y-202600000D02*
X284100000Y-202600000D01*
D41*
X257600000Y-195200000D02*
X260054300Y-195200000D01*
X260054300Y-195200000D02*
X260054300Y-194509700D01*
X260054300Y-194509700D02*
X261919800Y-192644200D01*
X261919800Y-192644200D02*
X282544200Y-192644200D01*
X282544200Y-192644200D02*
X284800000Y-194900000D01*
X213300000Y-148100000D02*
X214900000Y-148100000D01*
X214900000Y-148100000D02*
X216770000Y-146230000D01*
X216770000Y-146230000D02*
X232945700Y-146230000D01*
X104300000Y-175600000D02*
X101763200Y-173063200D01*
X101763200Y-173063200D02*
X92736800Y-173063200D01*
X92736800Y-173063200D02*
X90300000Y-175500000D01*
X213400000Y-157000000D02*
X211360000Y-159040000D01*
X211360000Y-159040000D02*
X203640000Y-159040000D01*
X139194300Y-111500000D02*
X140196900Y-112502600D01*
X140196900Y-112502600D02*
X165866300Y-112502600D01*
X165866300Y-112502600D02*
X168763700Y-115400000D01*
X168763700Y-115400000D02*
X170100000Y-115400000D01*
X126400000Y-109176900D02*
X128723100Y-111500000D01*
X128723100Y-111500000D02*
X134285700Y-111500000D01*
X72500000Y-107600000D02*
X75766500Y-104333500D01*
X75766500Y-104333500D02*
X103497100Y-104333500D01*
X103497100Y-104333500D02*
X108340500Y-109176900D01*
X108340500Y-109176900D02*
X126400000Y-109176900D01*
X126400000Y-108500000D02*
X126400000Y-109176900D01*
X115835900Y-181691200D02*
X118065700Y-183921100D01*
X118065700Y-183921100D02*
X118065700Y-185950000D01*
X113900000Y-181600000D02*
X115744600Y-181600000D01*
X115744600Y-181600000D02*
X115835900Y-181691200D01*
X135800000Y-180300000D02*
X133730500Y-178230500D01*
X133730500Y-178230500D02*
X119296600Y-178230500D01*
X119296600Y-178230500D02*
X115835900Y-181691200D01*
X120120000Y-185950000D02*
X118065700Y-185950000D01*
X331100000Y-89300000D02*
X333681100Y-89300000D01*
X333681100Y-89300000D02*
X335443600Y-87537500D01*
X335443600Y-87537500D02*
X343137500Y-87537500D01*
X343137500Y-87537500D02*
X345200000Y-89600000D01*
X317320000Y-90920000D02*
X321018500Y-87221500D01*
X321018500Y-87221500D02*
X326977800Y-87221500D01*
X326977800Y-87221500D02*
X329056300Y-89300000D01*
X329056300Y-89300000D02*
X331100000Y-89300000D01*
X113900000Y-181600000D02*
X110750000Y-178450000D01*
X110750000Y-178450000D02*
X106320000Y-178450000D01*
X373597600Y-154000000D02*
X381871400Y-162273800D01*
X381871400Y-162273800D02*
X382926000Y-162273800D01*
X382926000Y-162273800D02*
X384519100Y-163866900D01*
X384519100Y-163866900D02*
X384519100Y-168436500D01*
X384519100Y-168436500D02*
X382610600Y-170345000D01*
X382610600Y-170345000D02*
X382440000Y-170345000D01*
X368500000Y-154000000D02*
X373597600Y-154000000D01*
X382340000Y-133645000D02*
X382486100Y-133645000D01*
X382486100Y-133645000D02*
X384453600Y-135612500D01*
X384453600Y-135612500D02*
X384453600Y-137256100D01*
X384453600Y-137256100D02*
X380406700Y-141303000D01*
X380406700Y-141303000D02*
X379708800Y-141303000D01*
X379708800Y-141303000D02*
X373597600Y-147414200D01*
X373597600Y-147414200D02*
X373597600Y-154000000D01*
X362974300Y-155000000D02*
X363974300Y-154000000D01*
X363974300Y-154000000D02*
X368500000Y-154000000D01*
X374365300Y-100700000D02*
X380200000Y-100700000D01*
X361320000Y-92600000D02*
X366265300Y-92600000D01*
X366265300Y-92600000D02*
X374365300Y-100700000D01*
X373354300Y-123400000D02*
X373354300Y-101711000D01*
X373354300Y-101711000D02*
X374365300Y-100700000D01*
X371300000Y-123400000D02*
X373354300Y-123400000D01*
X177094300Y-159040000D02*
X177094300Y-160122300D01*
X177094300Y-160122300D02*
X183632000Y-166660000D01*
X183632000Y-166660000D02*
X186345700Y-166660000D01*
X43700000Y-73900000D02*
X46800000Y-77000000D01*
X46800000Y-77000000D02*
X49920000Y-77000000D01*
X326000000Y-143600000D02*
X323932900Y-145667100D01*
X323932900Y-145667100D02*
X319845200Y-145667100D01*
X319845200Y-145667100D02*
X318806200Y-144628100D01*
X318806200Y-144628100D02*
X314872400Y-144628100D01*
X314872400Y-144628100D02*
X311055000Y-148445500D01*
X311055000Y-148445500D02*
X305444500Y-148445500D01*
X305444500Y-148445500D02*
X302140000Y-151750000D01*
X296900000Y-148700000D02*
X299950000Y-151750000D01*
X299950000Y-151750000D02*
X302140000Y-151750000D01*
X329385700Y-146700000D02*
X326285700Y-143600000D01*
X326285700Y-143600000D02*
X326000000Y-143600000D01*
X301420000Y-90720000D02*
X303361700Y-90720000D01*
X303361700Y-90720000D02*
X304922300Y-89159400D01*
X304922300Y-89159400D02*
X308335500Y-89159400D01*
X308335500Y-89159400D02*
X310060200Y-87434700D01*
X310060200Y-87434700D02*
X313834700Y-87434700D01*
X313834700Y-87434700D02*
X315900000Y-89500000D01*
X199120000Y-80960000D02*
X196665700Y-80960000D01*
X197600000Y-78000000D02*
X196665700Y-78934300D01*
X196665700Y-78934300D02*
X196665700Y-80960000D01*
X170220000Y-185600000D02*
X170220000Y-183545700D01*
X169200000Y-182600000D02*
X170145700Y-183545700D01*
X170145700Y-183545700D02*
X170220000Y-183545700D01*
X53040000Y-149200000D02*
X55094300Y-149200000D01*
X53040000Y-141580000D02*
X55094300Y-141580000D01*
X55094300Y-141580000D02*
X55094300Y-149200000D01*
X331440000Y-146700000D02*
X329385700Y-146700000D01*
X359100000Y-151800000D02*
X354000000Y-146700000D01*
X354000000Y-146700000D02*
X331440000Y-146700000D01*
X360520000Y-155000000D02*
X362974300Y-155000000D01*
X317320000Y-90920000D02*
X315900000Y-89500000D01*
X317320000Y-92600000D02*
X317320000Y-90920000D01*
X301420000Y-90720000D02*
X301420000Y-92600000D01*
X300200000Y-89500000D02*
X301420000Y-90720000D01*
X300200000Y-89500000D02*
X298110200Y-87410200D01*
X298110200Y-87410200D02*
X288000000Y-87410200D01*
X288000000Y-87410200D02*
X285889800Y-87410200D01*
X285889800Y-87410200D02*
X283700000Y-89600000D01*
X288000000Y-80180000D02*
X288000000Y-87410200D01*
X72500000Y-107600000D02*
X58594200Y-107600000D01*
X58594200Y-107600000D02*
X58594200Y-107600100D01*
X58594200Y-107600100D02*
X55094300Y-111100000D01*
X53040000Y-111100000D02*
X55094300Y-111100000D01*
X60920000Y-185950000D02*
X60920000Y-183895700D01*
X60920000Y-183895700D02*
X60695700Y-183895700D01*
X60695700Y-183895700D02*
X59700000Y-182900000D01*
X44100000Y-182700000D02*
X45982700Y-180817300D01*
X45982700Y-180817300D02*
X57617300Y-180817300D01*
X57617300Y-180817300D02*
X59700000Y-182900000D01*
X188400000Y-166660000D02*
X186345700Y-166660000D01*
X175040000Y-159040000D02*
X177094300Y-159040000D01*
X135274300Y-94500000D02*
X139689300Y-94500000D01*
X139689300Y-94500000D02*
X145600000Y-88589300D01*
X136740000Y-111500000D02*
X134285700Y-111500000D01*
X259800000Y-89400000D02*
X261854300Y-89400000D01*
X265345700Y-89200000D02*
X262054300Y-89200000D01*
X262054300Y-89200000D02*
X261854300Y-89400000D01*
X136740000Y-111500000D02*
X139194300Y-111500000D01*
X132820000Y-94500000D02*
X135274300Y-94500000D01*
X145600000Y-88589300D02*
X145600000Y-88255700D01*
X145600000Y-90360000D02*
X145600000Y-88589300D01*
X145760000Y-79204300D02*
X145600000Y-79364300D01*
X145600000Y-79364300D02*
X145600000Y-88255700D01*
X145760000Y-77100000D02*
X145760000Y-79204300D01*
X74600000Y-175400000D02*
X76614100Y-173385900D01*
X76614100Y-173385900D02*
X88185900Y-173385900D01*
X88185900Y-173385900D02*
X90300000Y-175500000D01*
X217120000Y-185400000D02*
X214665700Y-185400000D01*
X215700000Y-182200000D02*
X214665700Y-183234300D01*
X214665700Y-183234300D02*
X214665700Y-185400000D01*
X235000000Y-146230000D02*
X232945700Y-146230000D01*
X267400000Y-89200000D02*
X265345700Y-89200000D01*
X255020000Y-204600000D02*
X255020000Y-202245700D01*
X255020000Y-202245700D02*
X254974300Y-202200000D01*
X254974300Y-202200000D02*
X239100000Y-202200000D01*
D42*
X261444100Y-195200000D02*
X261444100Y-195797400D01*
X261444100Y-195797400D02*
X260485600Y-196755900D01*
X260485600Y-196755900D02*
X248011800Y-196755900D01*
X248011800Y-196755900D02*
X246455900Y-195200000D01*
X244900000Y-195200000D02*
X246455900Y-195200000D01*
X262400000Y-195200000D02*
X261444100Y-195200000D01*
X279720000Y-194900000D02*
X278664100Y-194900000D01*
X275200000Y-194600000D02*
X278364100Y-194600000D01*
X278364100Y-194600000D02*
X278664100Y-194900000D01*
X129700000Y-183400000D02*
X131255900Y-183400000D01*
X144400000Y-178900000D02*
X143444100Y-178900000D01*
X143444100Y-178900000D02*
X140100000Y-182244100D01*
X140100000Y-182244100D02*
X132411800Y-182244100D01*
X132411800Y-182244100D02*
X131255900Y-183400000D01*
X129700000Y-188480000D02*
X131255900Y-188480000D01*
X146400000Y-178900000D02*
X141926300Y-183373700D01*
X141926300Y-183373700D02*
X140234500Y-183373700D01*
X140234500Y-183373700D02*
X138938200Y-184670000D01*
X138938200Y-184670000D02*
X135065900Y-184670000D01*
X135065900Y-184670000D02*
X131255900Y-188480000D01*
X129700000Y-191020000D02*
X131255900Y-191020000D01*
X144400000Y-186400000D02*
X143444100Y-186400000D01*
X143444100Y-186400000D02*
X140094200Y-189749900D01*
X140094200Y-189749900D02*
X132526000Y-189749900D01*
X132526000Y-189749900D02*
X131255900Y-191020000D01*
X294855900Y-204800000D02*
X294855900Y-204250500D01*
X294855900Y-204250500D02*
X301302400Y-197804000D01*
X301302400Y-197804000D02*
X341487800Y-197804000D01*
X341487800Y-197804000D02*
X344030400Y-195261400D01*
X293600000Y-204800000D02*
X294855900Y-204800000D01*
X265151000Y-165806900D02*
X254261200Y-165806900D01*
X254261200Y-165806900D02*
X252248100Y-167820000D01*
X252248100Y-167820000D02*
X223899500Y-167820000D01*
X223899500Y-167820000D02*
X220038000Y-171681500D01*
X220038000Y-171681500D02*
X203650400Y-171681500D01*
X217120000Y-200640000D02*
X215564100Y-200640000D01*
X200420000Y-198100000D02*
X201575900Y-198100000D01*
X201575900Y-198100000D02*
X202731800Y-199255900D01*
X202731800Y-199255900D02*
X214180000Y-199255900D01*
X214180000Y-199255900D02*
X215564100Y-200640000D01*
X193955900Y-193020000D02*
X195225900Y-191750000D01*
X195225900Y-191750000D02*
X240327100Y-191750000D01*
X240327100Y-191750000D02*
X243240600Y-188836500D01*
X192800000Y-193020000D02*
X193955900Y-193020000D01*
X201575900Y-187940000D02*
X202731800Y-189095900D01*
X202731800Y-189095900D02*
X214180000Y-189095900D01*
X214180000Y-189095900D02*
X215564100Y-190480000D01*
X217120000Y-190480000D02*
X215564100Y-190480000D01*
X200420000Y-187940000D02*
X201575900Y-187940000D01*
X246420000Y-107000000D02*
X244864100Y-107000000D01*
X238800000Y-107000000D02*
X240355900Y-107000000D01*
X240355900Y-107000000D02*
X244864100Y-107000000D01*
X139703000Y-193908000D02*
X138199000Y-192404000D01*
X138199000Y-192404000D02*
X128977800Y-192404000D01*
X128977800Y-192404000D02*
X128144100Y-191570300D01*
X128144100Y-191570300D02*
X128144100Y-185940000D01*
X129700000Y-185940000D02*
X128144100Y-185940000D01*
X90600000Y-107000000D02*
X95000000Y-107000000D01*
X95000000Y-107000000D02*
X95600000Y-106400000D01*
X82140000Y-110950000D02*
X86650000Y-110950000D01*
X86650000Y-110950000D02*
X90600000Y-107000000D01*
X90600000Y-102100000D02*
X95500000Y-102100000D01*
X95500000Y-102100000D02*
X95600000Y-102000000D01*
X55400000Y-92700000D02*
X56355900Y-92700000D01*
X56355900Y-92700000D02*
X56355900Y-93058500D01*
X56355900Y-93058500D02*
X57953400Y-94656000D01*
X57953400Y-94656000D02*
X63084000Y-94656000D01*
X63084000Y-94656000D02*
X64740000Y-93000000D01*
X60530900Y-78900000D02*
X65089700Y-83458800D01*
X65089700Y-83458800D02*
X86248300Y-83458800D01*
X86248300Y-83458800D02*
X96459800Y-93670300D01*
X96459800Y-93670300D02*
X104870300Y-93670300D01*
X104870300Y-93670300D02*
X105900000Y-94700000D01*
X59400000Y-78900000D02*
X60530900Y-78900000D01*
X102944100Y-94700000D02*
X95671400Y-94700000D01*
X95671400Y-94700000D02*
X91985500Y-91014100D01*
X91985500Y-91014100D02*
X83302900Y-91014100D01*
X83302900Y-91014100D02*
X81168700Y-93148300D01*
X81168700Y-93148300D02*
X73827600Y-93148300D01*
X73827600Y-93148300D02*
X72075900Y-94900000D01*
X103900000Y-94700000D02*
X102944100Y-94700000D01*
X71020000Y-94900000D02*
X72075900Y-94900000D01*
X33045900Y-94911200D02*
X33045900Y-92345900D01*
X33045900Y-92345900D02*
X31900000Y-91200000D01*
X32000000Y-118800000D02*
X33646200Y-117153800D01*
X33646200Y-117153800D02*
X33646200Y-98140400D01*
X33646200Y-98140400D02*
X33045900Y-97540100D01*
X33045900Y-97540100D02*
X33045900Y-94911200D01*
X80564100Y-94400000D02*
X79008100Y-95956000D01*
X79008100Y-95956000D02*
X37762000Y-95956000D01*
X37762000Y-95956000D02*
X36717200Y-94911200D01*
X36717200Y-94911200D02*
X33045900Y-94911200D01*
X81620000Y-94400000D02*
X80564100Y-94400000D01*
X81220000Y-98600000D02*
X80164100Y-98600000D01*
X80164100Y-98600000D02*
X79858100Y-98906000D01*
X79858100Y-98906000D02*
X37006000Y-98906000D01*
X37006000Y-98906000D02*
X34600000Y-96500000D01*
X110600000Y-94100000D02*
X109644100Y-94100000D01*
X109644100Y-94100000D02*
X107644100Y-92100000D01*
X107644100Y-92100000D02*
X96500000Y-92100000D01*
X236658400Y-132964600D02*
X236658400Y-133578400D01*
X236658400Y-133578400D02*
X235322800Y-134914000D01*
X235322800Y-134914000D02*
X214354400Y-134914000D01*
X214354400Y-134914000D02*
X210381100Y-138887300D01*
X267400000Y-96820000D02*
X266244100Y-96820000D01*
X249240000Y-93780000D02*
X250445900Y-93780000D01*
X250445900Y-93780000D02*
X252415900Y-95750000D01*
X252415900Y-95750000D02*
X265174100Y-95750000D01*
X265174100Y-95750000D02*
X266244100Y-96820000D01*
X249240000Y-91240000D02*
X246700000Y-91240000D01*
X66900000Y-149050000D02*
X68455900Y-149050000D01*
X72878300Y-143901500D02*
X72774600Y-143901500D01*
X72774600Y-143901500D02*
X68455900Y-148220200D01*
X68455900Y-148220200D02*
X68455900Y-149050000D01*
X249240000Y-88700000D02*
X252173100Y-88700000D01*
X252173100Y-88700000D02*
X254582000Y-86291100D01*
X181803300Y-114469700D02*
X183952500Y-112320500D01*
X183952500Y-112320500D02*
X189428300Y-112320500D01*
X189428300Y-112320500D02*
X189894300Y-111854500D01*
X189894300Y-111854500D02*
X196325400Y-111854500D01*
X196325400Y-111854500D02*
X196682600Y-111497300D01*
X196682600Y-111497300D02*
X212230300Y-111497300D01*
X212230300Y-111497300D02*
X214025400Y-113292400D01*
X214025400Y-113292400D02*
X240804300Y-113292400D01*
X243867800Y-113211500D02*
X241280100Y-115799200D01*
X241280100Y-115799200D02*
X209072000Y-115799200D01*
X209072000Y-115799200D02*
X206871300Y-113598500D01*
X206871300Y-113598500D02*
X203092000Y-113598500D01*
X207752800Y-132718900D02*
X213300200Y-132718900D01*
X213300200Y-132718900D02*
X217794200Y-128224900D01*
X217794200Y-128224900D02*
X217794200Y-128060100D01*
X382340000Y-128105000D02*
X353095200Y-128105000D01*
X353095200Y-128105000D02*
X349085500Y-132114700D01*
X349085500Y-132114700D02*
X299365500Y-132114700D01*
X299365500Y-132114700D02*
X295955700Y-135524500D01*
X295955700Y-135524500D02*
X289780400Y-135524500D01*
X289780400Y-135524500D02*
X288606200Y-136698700D01*
X288606200Y-136698700D02*
X279894300Y-136698700D01*
X279894300Y-136698700D02*
X277361300Y-139231700D01*
X277361300Y-139231700D02*
X266578300Y-139231700D01*
X266578300Y-139231700D02*
X266044000Y-139766000D01*
X266044000Y-139766000D02*
X232640300Y-139766000D01*
X232640300Y-139766000D02*
X230012600Y-142393700D01*
X230012600Y-142393700D02*
X212319900Y-142393700D01*
X212319900Y-142393700D02*
X212069600Y-142644000D01*
X212069600Y-142644000D02*
X187578600Y-142644000D01*
X187578600Y-142644000D02*
X187209500Y-142274900D01*
X187209500Y-142274900D02*
X177937600Y-142274900D01*
X177937600Y-142274900D02*
X177746300Y-142466200D01*
X177746300Y-142466200D02*
X150828900Y-142466200D01*
X150828900Y-142466200D02*
X149186700Y-140824000D01*
X149186700Y-140824000D02*
X115087100Y-140824000D01*
X115087100Y-140824000D02*
X114218900Y-139955800D01*
X114218900Y-139955800D02*
X88778900Y-139955800D01*
X88778900Y-139955800D02*
X88325700Y-140409000D01*
X88325700Y-140409000D02*
X86103800Y-140409000D01*
X86103800Y-140409000D02*
X85890800Y-140196000D01*
X85890800Y-140196000D02*
X47959900Y-140196000D01*
X47959900Y-140196000D02*
X38955900Y-149200000D01*
X37800000Y-149200000D02*
X38955900Y-149200000D01*
X380200000Y-96775900D02*
X380469400Y-96775900D01*
X380469400Y-96775900D02*
X383281100Y-99587600D01*
X383281100Y-99587600D02*
X383281100Y-127163900D01*
X383281100Y-127163900D02*
X382340000Y-128105000D01*
X380200000Y-95620000D02*
X380200000Y-96775900D01*
X37800000Y-152895900D02*
X37530500Y-152895900D01*
X37530500Y-152895900D02*
X35668800Y-154757600D01*
X35668800Y-154757600D02*
X35668800Y-160263400D01*
X35668800Y-160263400D02*
X36987300Y-161581900D01*
X36987300Y-161581900D02*
X43373300Y-161581900D01*
X43373300Y-161581900D02*
X49887600Y-168096200D01*
X49887600Y-168096200D02*
X145916400Y-168096200D01*
X145916400Y-168096200D02*
X152979700Y-175159500D01*
X152979700Y-175159500D02*
X181730400Y-175159500D01*
X181730400Y-175159500D02*
X182618900Y-176048000D01*
X182618900Y-176048000D02*
X226321400Y-176048000D01*
X226321400Y-176048000D02*
X233496600Y-183223200D01*
X233496600Y-183223200D02*
X247205800Y-183223200D01*
X247205800Y-183223200D02*
X247448800Y-183466200D01*
X247448800Y-183466200D02*
X289367100Y-183466200D01*
X289367100Y-183466200D02*
X291856900Y-185956000D01*
X291856900Y-185956000D02*
X332136700Y-185956000D01*
X332136700Y-185956000D02*
X336446800Y-181645900D01*
X336446800Y-181645900D02*
X351898500Y-181645900D01*
X351898500Y-181645900D02*
X362558200Y-170986200D01*
X362558200Y-170986200D02*
X362558200Y-162613600D01*
X362558200Y-162613600D02*
X361217000Y-161272400D01*
X361217000Y-161272400D02*
X359626000Y-161272400D01*
X359626000Y-161272400D02*
X358912500Y-160558900D01*
X358912500Y-160558900D02*
X358912500Y-154518700D01*
X358912500Y-154518700D02*
X369572700Y-143858500D01*
X369572700Y-143858500D02*
X373922400Y-143858500D01*
X373922400Y-143858500D02*
X378491300Y-139289600D01*
X378491300Y-139289600D02*
X380128100Y-139289600D01*
X380128100Y-139289600D02*
X381658000Y-137759700D01*
X381658000Y-137759700D02*
X381658000Y-136415000D01*
X380200000Y-98160000D02*
X378998700Y-96958700D01*
X378998700Y-96958700D02*
X378998700Y-95145400D01*
X378998700Y-95145400D02*
X379704900Y-94439200D01*
X379704900Y-94439200D02*
X380657500Y-94439200D01*
X380657500Y-94439200D02*
X383745100Y-97526800D01*
X383745100Y-97526800D02*
X383745100Y-131186700D01*
X383745100Y-131186700D02*
X382842400Y-132089400D01*
X382842400Y-132089400D02*
X381973600Y-132089400D01*
X381973600Y-132089400D02*
X380976000Y-133087000D01*
X380976000Y-133087000D02*
X380976000Y-135733000D01*
X380976000Y-135733000D02*
X381658000Y-136415000D01*
X382340000Y-136415000D02*
X381658000Y-136415000D01*
X37800000Y-151740000D02*
X37800000Y-152895900D01*
X288009000Y-178471900D02*
X282966800Y-178471900D01*
X282966800Y-178471900D02*
X280820100Y-180618600D01*
X280820100Y-180618600D02*
X243774300Y-180618600D01*
X243774300Y-180618600D02*
X243397600Y-180241900D01*
X243397600Y-180241900D02*
X234720900Y-180241900D01*
X234720900Y-180241900D02*
X227772700Y-173293700D01*
X227772700Y-173293700D02*
X152084500Y-173293700D01*
X152084500Y-173293700D02*
X146429500Y-167638700D01*
X146429500Y-167638700D02*
X50077100Y-167638700D01*
X50077100Y-167638700D02*
X43562800Y-161124400D01*
X43562800Y-161124400D02*
X37213200Y-161124400D01*
X37213200Y-161124400D02*
X36176100Y-160087300D01*
X36176100Y-160087300D02*
X36176100Y-156790300D01*
X36176100Y-156790300D02*
X37530500Y-155435900D01*
X37530500Y-155435900D02*
X37800000Y-155435900D01*
X298400800Y-134663400D02*
X300401100Y-132663100D01*
X300401100Y-132663100D02*
X376326900Y-132663100D01*
X376326900Y-132663100D02*
X379500000Y-129490000D01*
X37800000Y-154280000D02*
X37800000Y-155435900D01*
X37800000Y-157975900D02*
X37535100Y-157975900D01*
X37535100Y-157975900D02*
X36643300Y-158867700D01*
X36643300Y-158867700D02*
X36643300Y-159873400D01*
X36643300Y-159873400D02*
X37436800Y-160666900D01*
X37436800Y-160666900D02*
X43752300Y-160666900D01*
X43752300Y-160666900D02*
X50266600Y-167181200D01*
X50266600Y-167181200D02*
X148593400Y-167181200D01*
X148593400Y-167181200D02*
X154248400Y-172836200D01*
X154248400Y-172836200D02*
X228126800Y-172836200D01*
X228126800Y-172836200D02*
X234145600Y-178855000D01*
X234145600Y-178855000D02*
X237011200Y-178855000D01*
X237011200Y-178855000D02*
X237225300Y-178640900D01*
X237225300Y-178640900D02*
X237943900Y-178640900D01*
X237943900Y-178640900D02*
X238504000Y-179201000D01*
X238504000Y-179201000D02*
X243650700Y-179201000D01*
X243650700Y-179201000D02*
X244153300Y-179703600D01*
X244153300Y-179703600D02*
X275467700Y-179703600D01*
X275467700Y-179703600D02*
X281264700Y-173906600D01*
X281264700Y-173906600D02*
X284063100Y-173906600D01*
X379500000Y-132260000D02*
X378273200Y-133486800D01*
X378273200Y-133486800D02*
X302411400Y-133486800D01*
X302411400Y-133486800D02*
X299219200Y-136679000D01*
X299219200Y-136679000D02*
X293920700Y-136679000D01*
X37800000Y-156820000D02*
X37800000Y-157975900D01*
X37800000Y-159360000D02*
X49568900Y-159360000D01*
X49568900Y-159360000D02*
X56932600Y-166723700D01*
X56932600Y-166723700D02*
X150399800Y-166723700D01*
X150399800Y-166723700D02*
X155949400Y-172273300D01*
X155949400Y-172273300D02*
X201532800Y-172273300D01*
X201532800Y-172273300D02*
X203748400Y-170057700D01*
X203748400Y-170057700D02*
X218869500Y-170057700D01*
X218869500Y-170057700D02*
X233075400Y-155851800D01*
X233075400Y-155851800D02*
X233075400Y-154129500D01*
X233075400Y-154129500D02*
X234624900Y-152580000D01*
X234624900Y-152580000D02*
X236300700Y-152580000D01*
X236300700Y-152580000D02*
X237627700Y-151253000D01*
X237627700Y-151253000D02*
X245763100Y-151253000D01*
X370144100Y-118320000D02*
X362624700Y-125839400D01*
X362624700Y-125839400D02*
X309390300Y-125839400D01*
X309390300Y-125839400D02*
X306293700Y-128936000D01*
X306293700Y-128936000D02*
X264650600Y-128936000D01*
X371300000Y-118320000D02*
X370144100Y-118320000D01*
X54195900Y-159360000D02*
X61102100Y-166266200D01*
X61102100Y-166266200D02*
X150589300Y-166266200D01*
X150589300Y-166266200D02*
X156138900Y-171815800D01*
X156138900Y-171815800D02*
X201343300Y-171815800D01*
X201343300Y-171815800D02*
X203558900Y-169600200D01*
X203558900Y-169600200D02*
X218680000Y-169600200D01*
X218680000Y-169600200D02*
X220387300Y-167892900D01*
X220387300Y-167892900D02*
X220387300Y-164270500D01*
X220387300Y-164270500D02*
X234617800Y-150040000D01*
X234617800Y-150040000D02*
X259644000Y-150040000D01*
X259644000Y-150040000D02*
X259940000Y-149744000D01*
X259940000Y-149744000D02*
X291309300Y-149744000D01*
X291309300Y-149744000D02*
X291451700Y-149886400D01*
X291451700Y-149886400D02*
X292953500Y-149886400D01*
X292953500Y-149886400D02*
X297088100Y-145751800D01*
X297088100Y-145751800D02*
X310860300Y-145751800D01*
X310860300Y-145751800D02*
X314641200Y-141970900D01*
X314641200Y-141970900D02*
X374173200Y-141970900D01*
X374173200Y-141970900D02*
X378344100Y-137800000D01*
X53040000Y-159360000D02*
X54195900Y-159360000D01*
X379500000Y-137800000D02*
X378344100Y-137800000D01*
X380200000Y-89384100D02*
X380489000Y-89384100D01*
X380489000Y-89384100D02*
X381368700Y-88504400D01*
X381368700Y-88504400D02*
X381368700Y-87462300D01*
X381368700Y-87462300D02*
X365964000Y-72057600D01*
X365964000Y-72057600D02*
X286053600Y-72057600D01*
X286053600Y-72057600D02*
X283714900Y-74396300D01*
X283714900Y-74396300D02*
X264501600Y-74396300D01*
X264501600Y-74396300D02*
X262973200Y-72867900D01*
X262973200Y-72867900D02*
X140583800Y-72867900D01*
X140583800Y-72867900D02*
X139346000Y-74105700D01*
X139346000Y-74105700D02*
X139346000Y-75061400D01*
X139346000Y-75061400D02*
X138513400Y-75894000D01*
X138513400Y-75894000D02*
X137638600Y-75894000D01*
X137638600Y-75894000D02*
X136870000Y-76662600D01*
X136870000Y-76662600D02*
X136870000Y-82382000D01*
X136870000Y-82382000D02*
X128994900Y-90257100D01*
X128994900Y-90257100D02*
X124834600Y-90257100D01*
X124834600Y-90257100D02*
X114645200Y-100446500D01*
X114645200Y-100446500D02*
X61737400Y-100446500D01*
X61737400Y-100446500D02*
X39184000Y-122999900D01*
X39184000Y-122999900D02*
X39184000Y-126609500D01*
X39184000Y-126609500D02*
X38069400Y-127724100D01*
X38069400Y-127724100D02*
X37800000Y-127724100D01*
X37800000Y-128880000D02*
X37800000Y-127724100D01*
X380200000Y-90540000D02*
X380200000Y-89384100D01*
X38725000Y-166787400D02*
X40504100Y-166787400D01*
X40504100Y-166787400D02*
X44222800Y-170506100D01*
X44222800Y-170506100D02*
X144689800Y-170506100D01*
X144689800Y-170506100D02*
X151630800Y-177447100D01*
X151630800Y-177447100D02*
X177721300Y-177447100D01*
X177721300Y-177447100D02*
X178152200Y-177878000D01*
X178152200Y-177878000D02*
X224001600Y-177878000D01*
X224001600Y-177878000D02*
X231310800Y-185187200D01*
X231310800Y-185187200D02*
X246581800Y-185187200D01*
X246581800Y-185187200D02*
X246944400Y-185549800D01*
X246944400Y-185549800D02*
X283456800Y-185549800D01*
X283456800Y-185549800D02*
X285736000Y-187829000D01*
X285736000Y-187829000D02*
X333565300Y-187829000D01*
X333565300Y-187829000D02*
X336750200Y-184644100D01*
X336750200Y-184644100D02*
X367333100Y-184644100D01*
X367333100Y-184644100D02*
X378862200Y-173115000D01*
X378862200Y-173115000D02*
X382440000Y-173115000D01*
X38668900Y-162382300D02*
X38721800Y-162329400D01*
X38721800Y-162329400D02*
X42114900Y-162329400D01*
X42114900Y-162329400D02*
X48339200Y-168553700D01*
X48339200Y-168553700D02*
X145726900Y-168553700D01*
X145726900Y-168553700D02*
X152790200Y-175617000D01*
X152790200Y-175617000D02*
X181540900Y-175617000D01*
X181540900Y-175617000D02*
X182429400Y-176505500D01*
X182429400Y-176505500D02*
X225484900Y-176505500D01*
X225484900Y-176505500D02*
X232699200Y-183719800D01*
X232699200Y-183719800D02*
X247055400Y-183719800D01*
X247055400Y-183719800D02*
X247284100Y-183948500D01*
X247284100Y-183948500D02*
X284443700Y-183948500D01*
X284443700Y-183948500D02*
X286948800Y-186453600D01*
X286948800Y-186453600D02*
X332286200Y-186453600D01*
X332286200Y-186453600D02*
X336407700Y-182332100D01*
X336407700Y-182332100D02*
X363457900Y-182332100D01*
X363457900Y-182332100D02*
X379600000Y-166190000D01*
X42428300Y-164246100D02*
X47355000Y-169172800D01*
X47355000Y-169172800D02*
X47355000Y-169172900D01*
X47355000Y-169172900D02*
X145643500Y-169172900D01*
X145643500Y-169172900D02*
X152545100Y-176074500D01*
X152545100Y-176074500D02*
X181351400Y-176074500D01*
X181351400Y-176074500D02*
X182239900Y-176963000D01*
X182239900Y-176963000D02*
X225295400Y-176963000D01*
X225295400Y-176963000D02*
X232509700Y-184177300D01*
X232509700Y-184177300D02*
X246865900Y-184177300D01*
X246865900Y-184177300D02*
X247094600Y-184406000D01*
X247094600Y-184406000D02*
X284254000Y-184406000D01*
X284254000Y-184406000D02*
X286759200Y-186911200D01*
X286759200Y-186911200D02*
X333122400Y-186911200D01*
X333122400Y-186911200D02*
X337125700Y-182907900D01*
X337125700Y-182907900D02*
X365652100Y-182907900D01*
X365652100Y-182907900D02*
X379600000Y-168960000D01*
X41783300Y-163129800D02*
X41616500Y-163296600D01*
X41616500Y-163296600D02*
X41616500Y-164596300D01*
X41616500Y-164596300D02*
X47068700Y-170048500D01*
X47068700Y-170048500D02*
X145872100Y-170048500D01*
X145872100Y-170048500D02*
X152584200Y-176760600D01*
X152584200Y-176760600D02*
X181390500Y-176760600D01*
X181390500Y-176760600D02*
X182050400Y-177420500D01*
X182050400Y-177420500D02*
X225105900Y-177420500D01*
X225105900Y-177420500D02*
X232415000Y-184729600D01*
X232415000Y-184729600D02*
X246771200Y-184729600D01*
X246771200Y-184729600D02*
X247133800Y-185092200D01*
X247133800Y-185092200D02*
X283875100Y-185092200D01*
X283875100Y-185092200D02*
X286154400Y-187371500D01*
X286154400Y-187371500D02*
X333345600Y-187371500D01*
X333345600Y-187371500D02*
X337296300Y-183420800D01*
X337296300Y-183420800D02*
X367909200Y-183420800D01*
X367909200Y-183420800D02*
X379600000Y-171730000D01*
X41786900Y-169227700D02*
X43522800Y-170963600D01*
X43522800Y-170963600D02*
X144444300Y-170963600D01*
X144444300Y-170963600D02*
X151385300Y-177904600D01*
X151385300Y-177904600D02*
X177531800Y-177904600D01*
X177531800Y-177904600D02*
X177962700Y-178335500D01*
X177962700Y-178335500D02*
X223756600Y-178335500D01*
X223756600Y-178335500D02*
X231238900Y-185817800D01*
X231238900Y-185817800D02*
X246565400Y-185817800D01*
X246565400Y-185817800D02*
X246754900Y-186007300D01*
X246754900Y-186007300D02*
X283267300Y-186007300D01*
X283267300Y-186007300D02*
X285546500Y-188286500D01*
X285546500Y-188286500D02*
X333953100Y-188286500D01*
X333953100Y-188286500D02*
X334837200Y-187402400D01*
X334837200Y-187402400D02*
X365541700Y-187402400D01*
X365541700Y-187402400D02*
X378444100Y-174500000D01*
X379600000Y-174500000D02*
X378444100Y-174500000D01*
X217600000Y-162180000D02*
X216544100Y-162180000D01*
X216544100Y-162180000D02*
X211224800Y-167499300D01*
X211224800Y-167499300D02*
X207197600Y-167499300D01*
X102500000Y-83600000D02*
X106618000Y-87718000D01*
X106618000Y-87718000D02*
X113750700Y-87718000D01*
X95000000Y-83600000D02*
X100470800Y-83600000D01*
X100470800Y-83600000D02*
X105389200Y-88518400D01*
X105389200Y-88518400D02*
X129577600Y-88518400D01*
X129577600Y-88518400D02*
X130206900Y-87889100D01*
X213400000Y-162080000D02*
X212344100Y-162080000D01*
X212344100Y-162080000D02*
X210674200Y-160410100D01*
X210674200Y-160410100D02*
X195912000Y-160410100D01*
X195912000Y-160410100D02*
X195418300Y-159916400D01*
X123604700Y-107045700D02*
X124056900Y-106593500D01*
X124056900Y-106593500D02*
X142784800Y-106593500D01*
X142784800Y-106593500D02*
X145465100Y-109273800D01*
X145465100Y-109273800D02*
X166756700Y-109273800D01*
X166756700Y-109273800D02*
X168132100Y-110649200D01*
X168132100Y-110649200D02*
X168893800Y-110649200D01*
X168893800Y-110649200D02*
X169310200Y-111065600D01*
X169310200Y-111065600D02*
X169310200Y-111837700D01*
X169310200Y-111837700D02*
X169779100Y-112306600D01*
X169779100Y-112306600D02*
X171986100Y-112306600D01*
X171986100Y-112306600D02*
X180299600Y-120620100D01*
X180299600Y-120620100D02*
X186924200Y-120620100D01*
X186924200Y-120620100D02*
X187244100Y-120940000D01*
X188400000Y-120940000D02*
X187244100Y-120940000D01*
X187244100Y-123480000D02*
X186906300Y-123817800D01*
X186906300Y-123817800D02*
X185473700Y-123817800D01*
X185473700Y-123817800D02*
X183892900Y-122237000D01*
X183892900Y-122237000D02*
X180622500Y-122237000D01*
X180622500Y-122237000D02*
X172247400Y-113861900D01*
X172247400Y-113861900D02*
X169143100Y-113861900D01*
X169143100Y-113861900D02*
X166127200Y-110846000D01*
X166127200Y-110846000D02*
X141017000Y-110846000D01*
X141017000Y-110846000D02*
X137255800Y-107084800D01*
X137255800Y-107084800D02*
X125382700Y-107084800D01*
X125382700Y-107084800D02*
X125053000Y-107414500D01*
X212244100Y-153180000D02*
X207754200Y-157669900D01*
X207754200Y-157669900D02*
X194463000Y-157669900D01*
X213300000Y-153180000D02*
X212244100Y-153180000D01*
X188400000Y-123480000D02*
X187244100Y-123480000D01*
X142976200Y-109072800D02*
X144291800Y-110388400D01*
X144291800Y-110388400D02*
X166316600Y-110388400D01*
X166316600Y-110388400D02*
X169320600Y-113392400D01*
X169320600Y-113392400D02*
X172424900Y-113392400D01*
X172424900Y-113392400D02*
X180110100Y-121077600D01*
X180110100Y-121077600D02*
X183865300Y-121077600D01*
X183865300Y-121077600D02*
X185805100Y-123017400D01*
X187244100Y-128560000D02*
X185521900Y-126837800D01*
X185521900Y-126837800D02*
X179543300Y-126837800D01*
X168646100Y-109063600D02*
X166768500Y-107186000D01*
X166768500Y-107186000D02*
X145608700Y-107186000D01*
X145608700Y-107186000D02*
X142992000Y-104569300D01*
X188400000Y-128560000D02*
X187244100Y-128560000D01*
X183276400Y-119819600D02*
X180293700Y-119819600D01*
X180293700Y-119819600D02*
X169476000Y-109001900D01*
X169476000Y-109001900D02*
X169476000Y-108761500D01*
X169476000Y-108761500D02*
X166756700Y-106042200D01*
X166756700Y-106042200D02*
X146651500Y-106042200D01*
X146651500Y-106042200D02*
X143336300Y-102727000D01*
X188400000Y-131100000D02*
X183922600Y-131100000D01*
X188400000Y-133640000D02*
X180019100Y-133640000D01*
X180019100Y-133640000D02*
X178838600Y-134820500D01*
X178838600Y-134820500D02*
X145969600Y-134820500D01*
X188400000Y-136180000D02*
X177610700Y-136180000D01*
X177610700Y-136180000D02*
X176454700Y-137336000D01*
X176454700Y-137336000D02*
X172980900Y-137336000D01*
X172980900Y-137336000D02*
X170413900Y-139903000D01*
X170413900Y-139903000D02*
X146627500Y-139903000D01*
X203640000Y-118400000D02*
X192956300Y-118400000D01*
X192956300Y-118400000D02*
X188708000Y-114151700D01*
X188708000Y-114151700D02*
X185513000Y-114151700D01*
X185513000Y-114151700D02*
X185467100Y-114197600D01*
X203640000Y-120940000D02*
X193825400Y-120940000D01*
X193825400Y-120940000D02*
X189295500Y-116410100D01*
X189295500Y-116410100D02*
X188495600Y-116410100D01*
X188495600Y-116410100D02*
X187367300Y-115281800D01*
X187367300Y-115281800D02*
X178721400Y-115281800D01*
X178721400Y-115281800D02*
X167108700Y-103669100D01*
X167108700Y-103669100D02*
X148160400Y-103669100D01*
X188400000Y-161580000D02*
X182517500Y-161580000D01*
X182517500Y-161580000D02*
X179498200Y-158560700D01*
X146965900Y-74560000D02*
X155290600Y-82884700D01*
X155290600Y-82884700D02*
X157654000Y-82884700D01*
X157654000Y-82884700D02*
X164650900Y-89881600D01*
X164650900Y-89881600D02*
X164650900Y-93836900D01*
X145760000Y-74560000D02*
X146965900Y-74560000D01*
X188400000Y-164120000D02*
X183540400Y-164120000D01*
X183540400Y-164120000D02*
X180060500Y-160640100D01*
X187244100Y-159040000D02*
X181109500Y-159040000D01*
X181109500Y-159040000D02*
X179257300Y-157187800D01*
X179257300Y-157187800D02*
X178453300Y-157187800D01*
X188400000Y-159040000D02*
X187244100Y-159040000D01*
X188400000Y-156500000D02*
X187244100Y-156500000D01*
X187244100Y-156500000D02*
X186088200Y-155344100D01*
X186088200Y-155344100D02*
X167364800Y-155344100D01*
X167364800Y-155344100D02*
X166370300Y-154349600D01*
X138140000Y-77100000D02*
X138140000Y-86829400D01*
X138140000Y-86829400D02*
X127828400Y-97141000D01*
X127828400Y-97141000D02*
X127828400Y-98644600D01*
X127828400Y-98644600D02*
X130033800Y-100850000D01*
X130033800Y-100850000D02*
X138096400Y-100850000D01*
X138096400Y-100850000D02*
X145118500Y-107872100D01*
X145118500Y-107872100D02*
X166002000Y-107872100D01*
X166002000Y-107872100D02*
X168321600Y-110191700D01*
X168321600Y-110191700D02*
X169108400Y-110191700D01*
X169108400Y-110191700D02*
X170110600Y-111193900D01*
X170110600Y-111193900D02*
X170110600Y-111467200D01*
X188400000Y-153960000D02*
X180103100Y-153960000D01*
X145593200Y-102726000D02*
X147862300Y-104995100D01*
X147862300Y-104995100D02*
X167787700Y-104995100D01*
X167787700Y-104995100D02*
X181551100Y-118758500D01*
X181551100Y-118758500D02*
X182008600Y-118758500D01*
X188400000Y-151420000D02*
X182876500Y-151420000D01*
X182876500Y-151420000D02*
X182862900Y-151433600D01*
X188400000Y-148880000D02*
X188117400Y-148880000D01*
X188117400Y-148880000D02*
X187157900Y-149839500D01*
X187157900Y-149839500D02*
X176310900Y-149839500D01*
X187244100Y-146340000D02*
X178088800Y-146340000D01*
X178088800Y-146340000D02*
X176928100Y-145179300D01*
X176928100Y-145179300D02*
X173774700Y-145179300D01*
X173774700Y-145179300D02*
X171441400Y-147512600D01*
X171441400Y-147512600D02*
X148413500Y-147512600D01*
X188400000Y-146340000D02*
X187244100Y-146340000D01*
X187244100Y-143800000D02*
X186524200Y-143080100D01*
X186524200Y-143080100D02*
X180134300Y-143080100D01*
X138510700Y-99458800D02*
X141276600Y-99458800D01*
X141276600Y-99458800D02*
X144792800Y-102975000D01*
X144792800Y-102975000D02*
X144792800Y-103057500D01*
X144792800Y-103057500D02*
X147320000Y-105584700D01*
X147320000Y-105584700D02*
X167245300Y-105584700D01*
X167245300Y-105584700D02*
X170715300Y-109054700D01*
X188400000Y-143800000D02*
X187244100Y-143800000D01*
X168509700Y-111449600D02*
X168285400Y-111449600D01*
X168285400Y-111449600D02*
X166766600Y-109930800D01*
X166766600Y-109930800D02*
X145475100Y-109930800D01*
X145475100Y-109930800D02*
X143271900Y-107727600D01*
X143271900Y-107727600D02*
X142009300Y-107727600D01*
X188400000Y-141260000D02*
X179309100Y-141260000D01*
X179309100Y-141260000D02*
X178801000Y-140751900D01*
X159800000Y-156500000D02*
X160955900Y-156500000D01*
X219399100Y-167609800D02*
X213551900Y-167609800D01*
X213551900Y-167609800D02*
X212677000Y-168484700D01*
X212677000Y-168484700D02*
X172940600Y-168484700D01*
X172940600Y-168484700D02*
X160955900Y-156500000D01*
X218457600Y-168663700D02*
X218179000Y-168942300D01*
X218179000Y-168942300D02*
X170858200Y-168942300D01*
X170858200Y-168942300D02*
X160955900Y-159040000D01*
X159800000Y-159040000D02*
X160955900Y-159040000D01*
X267138500Y-105054000D02*
X264139700Y-105054000D01*
X264139700Y-105054000D02*
X263291000Y-104205300D01*
X263291000Y-104205300D02*
X252510700Y-104205300D01*
X252510700Y-104205300D02*
X247481200Y-99175800D01*
X247481200Y-99175800D02*
X238591700Y-99175800D01*
X238591700Y-99175800D02*
X233075900Y-93660000D01*
X319794100Y-138600000D02*
X318587400Y-137393300D01*
X318587400Y-137393300D02*
X315973300Y-137393300D01*
X315973300Y-137393300D02*
X315887100Y-137479500D01*
X315887100Y-137479500D02*
X291790300Y-137479500D01*
X291790300Y-137479500D02*
X290650000Y-136339200D01*
X231520000Y-93660000D02*
X233075900Y-93660000D01*
X321000000Y-138600000D02*
X319794100Y-138600000D01*
X348375900Y-112920000D02*
X352299900Y-108996000D01*
X352299900Y-108996000D02*
X355712800Y-108996000D01*
X355712800Y-108996000D02*
X358252800Y-106456000D01*
X358252800Y-106456000D02*
X362227500Y-106456000D01*
X362227500Y-106456000D02*
X367739700Y-100943800D01*
X367739700Y-100943800D02*
X367739700Y-99162700D01*
X367739700Y-99162700D02*
X362533000Y-93956000D01*
X362533000Y-93956000D02*
X360630900Y-93956000D01*
X360630900Y-93956000D02*
X359707900Y-93033000D01*
X359707900Y-93033000D02*
X359707900Y-92176600D01*
X359707900Y-92176600D02*
X364084500Y-87800000D01*
X364084500Y-87800000D02*
X371200000Y-87800000D01*
X346820000Y-112920000D02*
X348375900Y-112920000D01*
X205691200Y-141607200D02*
X206214900Y-142130900D01*
X206214900Y-142130900D02*
X211935700Y-142130900D01*
X211935700Y-142130900D02*
X212130400Y-141936200D01*
X212130400Y-141936200D02*
X224709100Y-141936200D01*
X224709100Y-141936200D02*
X229220300Y-137425000D01*
X229220300Y-137425000D02*
X247729100Y-137425000D01*
X247729100Y-137425000D02*
X249084100Y-136070000D01*
X246420000Y-114620000D02*
X247975900Y-114620000D01*
X339200000Y-105300000D02*
X337504900Y-105300000D01*
X337504900Y-105300000D02*
X333694900Y-109110000D01*
X333694900Y-109110000D02*
X322463700Y-109110000D01*
X322463700Y-109110000D02*
X320037600Y-111536100D01*
X320037600Y-111536100D02*
X285282200Y-111536100D01*
X285282200Y-111536100D02*
X285089900Y-111343800D01*
X285089900Y-111343800D02*
X284047800Y-111343800D01*
X284047800Y-111343800D02*
X283855500Y-111536100D01*
X283855500Y-111536100D02*
X267933500Y-111536100D01*
X267933500Y-111536100D02*
X265379400Y-114090200D01*
X265379400Y-114090200D02*
X256255500Y-114090200D01*
X247975900Y-114620000D02*
X248505700Y-114090200D01*
X248505700Y-114090200D02*
X256255500Y-114090200D01*
X202484100Y-156500000D02*
X194236900Y-156500000D01*
X194236900Y-156500000D02*
X193046600Y-157690300D01*
X193046600Y-157690300D02*
X180406800Y-157690300D01*
X180406800Y-157690300D02*
X179060900Y-156344400D01*
X179060900Y-156344400D02*
X176351500Y-156344400D01*
X176351500Y-156344400D02*
X176195900Y-156500000D01*
X250240000Y-136070000D02*
X249084100Y-136070000D01*
X203640000Y-156500000D02*
X202484100Y-156500000D01*
X175040000Y-156500000D02*
X176195900Y-156500000D01*
X131264100Y-102120000D02*
X127610500Y-105773600D01*
X127610500Y-105773600D02*
X125243300Y-105773600D01*
X132820000Y-102120000D02*
X131264100Y-102120000D01*
X158334100Y-77040000D02*
X158334100Y-76663100D01*
X158334100Y-76663100D02*
X157505100Y-75834100D01*
X157505100Y-75834100D02*
X151049400Y-75834100D01*
X151049400Y-75834100D02*
X148541200Y-73325900D01*
X148541200Y-73325900D02*
X142737600Y-73325900D01*
X142737600Y-73325900D02*
X141950000Y-74113500D01*
X141950000Y-74113500D02*
X141950000Y-84766800D01*
X141950000Y-84766800D02*
X134176600Y-92540200D01*
X159540000Y-77040000D02*
X158334100Y-77040000D01*
X48240000Y-101445900D02*
X48240000Y-104853500D01*
X48240000Y-104853500D02*
X38069400Y-115024100D01*
X38069400Y-115024100D02*
X37800000Y-115024100D01*
X48240000Y-97700000D02*
X49445900Y-97700000D01*
X49445900Y-97700000D02*
X49618600Y-97527300D01*
X49618600Y-97527300D02*
X85227300Y-97527300D01*
X85227300Y-97527300D02*
X86300000Y-98600000D01*
X48240000Y-100240000D02*
X48240000Y-101445900D01*
X37800000Y-116180000D02*
X37800000Y-115024100D01*
X96000000Y-96700000D02*
X92711100Y-99988900D01*
X92711100Y-99988900D02*
X61547900Y-99988900D01*
X61547900Y-99988900D02*
X43972700Y-117564100D01*
X43972700Y-117564100D02*
X37800000Y-117564100D01*
X37800000Y-118720000D02*
X37800000Y-117564100D01*
X45700000Y-100240000D02*
X45700000Y-101445900D01*
X45700000Y-101445900D02*
X45323200Y-101445900D01*
X45323200Y-101445900D02*
X36642200Y-110126900D01*
X36642200Y-110126900D02*
X36642200Y-116675800D01*
X36642200Y-116675800D02*
X37530500Y-117564100D01*
X37530500Y-117564100D02*
X37800000Y-117564100D01*
X53040000Y-116180000D02*
X51884100Y-116180000D01*
X51884100Y-116180000D02*
X51884100Y-116469000D01*
X51884100Y-116469000D02*
X38203100Y-130150000D01*
X38203100Y-130150000D02*
X37419800Y-130150000D01*
X37419800Y-130150000D02*
X33814000Y-133755800D01*
X33814000Y-133755800D02*
X33814000Y-135136000D01*
X33814000Y-135136000D02*
X32315000Y-136635000D01*
X91420000Y-92100000D02*
X90364100Y-92100000D01*
X45700000Y-97700000D02*
X46905900Y-97700000D01*
X46905900Y-97700000D02*
X46905900Y-97323100D01*
X46905900Y-97323100D02*
X47734900Y-96494100D01*
X47734900Y-96494100D02*
X86188700Y-96494100D01*
X86188700Y-96494100D02*
X90364100Y-92318700D01*
X90364100Y-92318700D02*
X90364100Y-92100000D01*
X289164100Y-195000000D02*
X280807400Y-186643300D01*
X280807400Y-186643300D02*
X244301700Y-186643300D01*
X211055900Y-185400000D02*
X212439900Y-186784000D01*
X212439900Y-186784000D02*
X228692300Y-186784000D01*
X228692300Y-186784000D02*
X229028500Y-186447800D01*
X229028500Y-186447800D02*
X244106200Y-186447800D01*
X244106200Y-186447800D02*
X244301700Y-186643300D01*
X209500000Y-185400000D02*
X211055900Y-185400000D01*
X290220000Y-195000000D02*
X289164100Y-195000000D01*
X345264100Y-110380000D02*
X342918900Y-112725200D01*
X342918900Y-112725200D02*
X342918900Y-113805300D01*
X342918900Y-113805300D02*
X335269300Y-121454900D01*
X335269300Y-121454900D02*
X287397500Y-121454900D01*
X270702600Y-103989900D02*
X267039900Y-103989900D01*
X267039900Y-103989900D02*
X265150000Y-102100000D01*
X265150000Y-102100000D02*
X260955900Y-102100000D01*
X259800000Y-102100000D02*
X260955900Y-102100000D01*
X346820000Y-110380000D02*
X345264100Y-110380000D01*
X294222300Y-123932400D02*
X336791700Y-123932400D01*
X336791700Y-123932400D02*
X345264100Y-115460000D01*
X346820000Y-115460000D02*
X345264100Y-115460000D01*
X259800000Y-99560000D02*
X265745800Y-99560000D01*
X265745800Y-99560000D02*
X266746800Y-100561000D01*
X266746800Y-100561000D02*
X268556000Y-100561000D01*
X268556000Y-100561000D02*
X269007700Y-101012700D01*
X258644100Y-97020000D02*
X255688700Y-99975400D01*
X255688700Y-99975400D02*
X253223500Y-99975400D01*
X259800000Y-97020000D02*
X258644100Y-97020000D01*
X235000000Y-141150000D02*
X233844100Y-141150000D01*
X233844100Y-141150000D02*
X232142800Y-142851300D01*
X232142800Y-142851300D02*
X216290100Y-142851300D01*
X216290100Y-142851300D02*
X214272700Y-144868700D01*
X214272700Y-144868700D02*
X211143600Y-144868700D01*
X235000000Y-136070000D02*
X224449000Y-136070000D01*
X224449000Y-136070000D02*
X219228800Y-141290200D01*
X219228800Y-141290200D02*
X207752800Y-141290200D01*
X285826500Y-75700500D02*
X285826500Y-75261300D01*
X285826500Y-75261300D02*
X287134800Y-73953000D01*
X287134800Y-73953000D02*
X312253000Y-73953000D01*
X312253000Y-73953000D02*
X313400000Y-75100000D01*
X268555900Y-101900000D02*
X269252300Y-101900000D01*
X269252300Y-101900000D02*
X272135600Y-99016700D01*
X272135600Y-99016700D02*
X287651400Y-99016700D01*
X287651400Y-99016700D02*
X344060800Y-99016700D01*
X344060800Y-99016700D02*
X345264100Y-100220000D01*
X346820000Y-100220000D02*
X345264100Y-100220000D01*
X267400000Y-101900000D02*
X268555900Y-101900000D01*
X278017700Y-78771000D02*
X334851000Y-78771000D01*
X334851000Y-78771000D02*
X336260000Y-80180000D01*
X264468500Y-113035600D02*
X264468500Y-112273800D01*
X264468500Y-112273800D02*
X267688600Y-109053700D01*
X217120000Y-187940000D02*
X218675900Y-187940000D01*
X239924000Y-187265200D02*
X219350700Y-187265200D01*
X219350700Y-187265200D02*
X218675900Y-187940000D01*
X342885100Y-94426600D02*
X342885100Y-96762400D01*
X342885100Y-96762400D02*
X343939600Y-97816900D01*
X380200000Y-88000000D02*
X380200000Y-86940700D01*
X380200000Y-86940700D02*
X365825500Y-72566200D01*
X365825500Y-72566200D02*
X286192000Y-72566200D01*
X286192000Y-72566200D02*
X283835900Y-74922300D01*
X283835900Y-74922300D02*
X176263900Y-74922300D01*
X176263900Y-74922300D02*
X166176800Y-85009400D01*
X166176800Y-85009400D02*
X166176800Y-94852900D01*
X93755900Y-125900000D02*
X94911800Y-124744100D01*
X94911800Y-124744100D02*
X116212900Y-124744100D01*
X116212900Y-124744100D02*
X120455600Y-120501400D01*
X120455600Y-120501400D02*
X141947000Y-120501400D01*
X141947000Y-120501400D02*
X143549000Y-122103400D01*
X143549000Y-122103400D02*
X170180700Y-122103400D01*
X170180700Y-122103400D02*
X173884100Y-118400000D01*
X92600000Y-125900000D02*
X93755900Y-125900000D01*
X175040000Y-118400000D02*
X173884100Y-118400000D01*
X188688400Y-170630200D02*
X187458100Y-169399900D01*
X187458100Y-169399900D02*
X167428300Y-169399900D01*
X167428300Y-169399900D02*
X160956000Y-162927600D01*
X160956000Y-162927600D02*
X158378900Y-162927600D01*
X158378900Y-162927600D02*
X151401300Y-155950000D01*
X151401300Y-155950000D02*
X135332900Y-155950000D01*
X202484100Y-164120000D02*
X198588100Y-168016000D01*
X198588100Y-168016000D02*
X180091900Y-168016000D01*
X180091900Y-168016000D02*
X176195900Y-164120000D01*
X175040000Y-164120000D02*
X176195900Y-164120000D01*
X203640000Y-164120000D02*
X202484100Y-164120000D01*
X249084100Y-143690000D02*
X245188100Y-147586000D01*
X245188100Y-147586000D02*
X218079300Y-147586000D01*
X218079300Y-147586000D02*
X215573200Y-150092100D01*
X215573200Y-150092100D02*
X205197100Y-150092100D01*
X250240000Y-143690000D02*
X249084100Y-143690000D01*
X287963700Y-129755700D02*
X288030100Y-129689300D01*
X288030100Y-129689300D02*
X322715400Y-129689300D01*
X322715400Y-129689300D02*
X323121800Y-129282900D01*
X266122600Y-104204600D02*
X263937300Y-104204600D01*
X263937300Y-104204600D02*
X263480500Y-103747800D01*
X263480500Y-103747800D02*
X252700200Y-103747800D01*
X252700200Y-103747800D02*
X246290500Y-97338100D01*
X246290500Y-97338100D02*
X241834000Y-97338100D01*
X172989700Y-174244700D02*
X181462700Y-174244700D01*
X181462700Y-174244700D02*
X182808500Y-175590500D01*
X182808500Y-175590500D02*
X226510900Y-175590500D01*
X226510900Y-175590500D02*
X233658500Y-182738100D01*
X233658500Y-182738100D02*
X270646000Y-182738100D01*
X270646000Y-182738100D02*
X270757900Y-182850000D01*
X270757900Y-182850000D02*
X285124100Y-182850000D01*
X285124100Y-182850000D02*
X285744100Y-182230000D01*
X286900000Y-182230000D02*
X285744100Y-182230000D01*
X339900000Y-193880000D02*
X338344100Y-193880000D01*
X323856400Y-192646100D02*
X337110200Y-192646100D01*
X337110200Y-192646100D02*
X338344100Y-193880000D01*
X61051800Y-152737800D02*
X64984000Y-156670000D01*
X64984000Y-156670000D02*
X66900000Y-156670000D01*
X202484100Y-141260000D02*
X201175600Y-139951500D01*
X201175600Y-139951500D02*
X177504400Y-139951500D01*
X177504400Y-139951500D02*
X176195900Y-141260000D01*
X123055900Y-116580000D02*
X124325900Y-117850000D01*
X124325900Y-117850000D02*
X139399900Y-117850000D01*
X139399900Y-117850000D02*
X141333900Y-119784000D01*
X141333900Y-119784000D02*
X163286000Y-119784000D01*
X119944100Y-116580000D02*
X115968400Y-120555700D01*
X115968400Y-120555700D02*
X91593300Y-120555700D01*
X91593300Y-120555700D02*
X89733000Y-122416000D01*
X89733000Y-122416000D02*
X55579900Y-122416000D01*
X55579900Y-122416000D02*
X54195900Y-123800000D01*
X121500000Y-116580000D02*
X123055900Y-116580000D01*
X121085600Y-116580000D02*
X121500000Y-116580000D01*
X175040000Y-141260000D02*
X176195900Y-141260000D01*
X203640000Y-141260000D02*
X202484100Y-141260000D01*
X121085600Y-116580000D02*
X119944100Y-116580000D01*
X53040000Y-123800000D02*
X54195900Y-123800000D01*
X285744100Y-179690000D02*
X282820200Y-179690000D01*
X282820200Y-179690000D02*
X281415100Y-181095100D01*
X281415100Y-181095100D02*
X243087200Y-181095100D01*
X315044100Y-179720000D02*
X313905700Y-180858400D01*
X313905700Y-180858400D02*
X290119700Y-180858400D01*
X290119700Y-180858400D02*
X288951300Y-179690000D01*
X288951300Y-179690000D02*
X286900000Y-179690000D01*
X211870700Y-140449600D02*
X206525500Y-140449600D01*
X206525500Y-140449600D02*
X204795900Y-138720000D01*
X166160900Y-120582000D02*
X166296100Y-120446800D01*
X166296100Y-120446800D02*
X166296100Y-114937500D01*
X166296100Y-114937500D02*
X165602600Y-114244000D01*
X165602600Y-114244000D02*
X139704800Y-114244000D01*
X139704800Y-114244000D02*
X138746200Y-115202600D01*
X138746200Y-115202600D02*
X124218500Y-115202600D01*
X124218500Y-115202600D02*
X123055900Y-114040000D01*
X121500000Y-114040000D02*
X123055900Y-114040000D01*
X316200000Y-179720000D02*
X315044100Y-179720000D01*
X203640000Y-138720000D02*
X204795900Y-138720000D01*
X286900000Y-179690000D02*
X285744100Y-179690000D01*
X203062100Y-138720000D02*
X203640000Y-138720000D01*
X203062100Y-138720000D02*
X202484100Y-138720000D01*
X65344100Y-154130000D02*
X62497400Y-151283300D01*
X62497400Y-151283300D02*
X61798600Y-151283300D01*
X66900000Y-154130000D02*
X65344100Y-154130000D01*
X202484100Y-138720000D02*
X201328100Y-137564000D01*
X201328100Y-137564000D02*
X177351900Y-137564000D01*
X177351900Y-137564000D02*
X176195900Y-138720000D01*
X175040000Y-138720000D02*
X176195900Y-138720000D01*
X121085600Y-114040000D02*
X121500000Y-114040000D01*
X121085600Y-114040000D02*
X119944100Y-114040000D01*
X119944100Y-114040000D02*
X114163400Y-119820700D01*
X114163400Y-119820700D02*
X55635100Y-119820700D01*
X55635100Y-119820700D02*
X55635100Y-119820800D01*
X55635100Y-119820800D02*
X54195900Y-121260000D01*
X53040000Y-121260000D02*
X54195900Y-121260000D01*
X267221100Y-118245300D02*
X265755500Y-116779700D01*
X265755500Y-116779700D02*
X209405500Y-116779700D01*
X209405500Y-116779700D02*
X207024700Y-114398900D01*
X207024700Y-114398900D02*
X202591900Y-114398900D01*
X202591900Y-114398900D02*
X201269300Y-113076300D01*
X267221100Y-118245300D02*
X272864700Y-112601700D01*
X272864700Y-112601700D02*
X284568800Y-112601700D01*
X324129000Y-118981000D02*
X324086900Y-118938900D01*
X324086900Y-118938900D02*
X275700000Y-118938900D01*
X275700000Y-118938900D02*
X274482900Y-120156000D01*
X274482900Y-120156000D02*
X271172500Y-120156000D01*
X271172500Y-120156000D02*
X270791500Y-120537000D01*
X270791500Y-120537000D02*
X270128400Y-120537000D01*
X270128400Y-120537000D02*
X269747400Y-120156000D01*
X269747400Y-120156000D02*
X267916300Y-120156000D01*
X267916300Y-120156000D02*
X267221100Y-119460800D01*
X267221100Y-119460800D02*
X267221100Y-118245300D01*
X162600000Y-193220000D02*
X142012000Y-193220000D01*
X142012000Y-193220000D02*
X140507400Y-194724600D01*
X140507400Y-194724600D02*
X126543800Y-194724600D01*
X126543800Y-194724600D02*
X124209200Y-192390000D01*
X124209200Y-192390000D02*
X119021300Y-192390000D01*
X119021300Y-192390000D02*
X118776700Y-192145400D01*
X118776700Y-192145400D02*
X115439900Y-192145400D01*
X115439900Y-192145400D02*
X115277700Y-192307600D01*
X115277700Y-192307600D02*
X60524500Y-192307600D01*
X60524500Y-192307600D02*
X54455900Y-186239000D01*
X54455900Y-186239000D02*
X54455900Y-185950000D01*
X53300000Y-185950000D02*
X54455900Y-185950000D01*
X52722100Y-185950000D02*
X53300000Y-185950000D01*
X52722100Y-185950000D02*
X52144100Y-185950000D01*
X38100000Y-188390000D02*
X39255900Y-188390000D01*
X52144100Y-185950000D02*
X50988200Y-187105900D01*
X50988200Y-187105900D02*
X40540000Y-187105900D01*
X40540000Y-187105900D02*
X39255900Y-188390000D01*
X286900000Y-177150000D02*
X280238600Y-177150000D01*
X280238600Y-177150000D02*
X277227500Y-180161100D01*
X277227500Y-180161100D02*
X243963800Y-180161100D01*
X243963800Y-180161100D02*
X243461200Y-179658500D01*
X243461200Y-179658500D02*
X237774000Y-179658500D01*
X237774000Y-179658500D02*
X237556800Y-179441300D01*
X204795900Y-136180000D02*
X210361300Y-136180000D01*
X173884100Y-136180000D02*
X172271500Y-136180000D01*
X172271500Y-136180000D02*
X171078200Y-137373300D01*
X171078200Y-137373300D02*
X144420400Y-137373300D01*
X144420400Y-137373300D02*
X137615500Y-130568400D01*
X137615500Y-130568400D02*
X131205600Y-130568400D01*
X131205600Y-130568400D02*
X127258700Y-126621500D01*
X53040000Y-118720000D02*
X54195900Y-118720000D01*
X121500000Y-111500000D02*
X119944100Y-111500000D01*
X119944100Y-111500000D02*
X114144100Y-117300000D01*
X114144100Y-117300000D02*
X55615900Y-117300000D01*
X55615900Y-117300000D02*
X54195900Y-118720000D01*
X203640000Y-136180000D02*
X202484100Y-136180000D01*
X174462100Y-136180000D02*
X174919700Y-135722400D01*
X174919700Y-135722400D02*
X181470200Y-135722400D01*
X181470200Y-135722400D02*
X182222900Y-134969700D01*
X182222900Y-134969700D02*
X201273800Y-134969700D01*
X201273800Y-134969700D02*
X202484100Y-136180000D01*
X174462100Y-136180000D02*
X173884100Y-136180000D01*
X175040000Y-136180000D02*
X174462100Y-136180000D01*
X203640000Y-136180000D02*
X204795900Y-136180000D01*
X287478000Y-177150000D02*
X286900000Y-177150000D01*
X287478000Y-177150000D02*
X288055900Y-177150000D01*
X316200000Y-177180000D02*
X328391200Y-177180000D01*
X328391200Y-177180000D02*
X329567500Y-178356300D01*
X329567500Y-178356300D02*
X341863500Y-178356300D01*
X341863500Y-178356300D02*
X351344100Y-168875700D01*
X351344100Y-168875700D02*
X351344100Y-167700000D01*
X316200000Y-177180000D02*
X315044100Y-177180000D01*
X315044100Y-177180000D02*
X313885400Y-178338700D01*
X313885400Y-178338700D02*
X289244600Y-178338700D01*
X289244600Y-178338700D02*
X288055900Y-177150000D01*
X276875900Y-158930000D02*
X278129300Y-158930000D01*
X278129300Y-158930000D02*
X279036800Y-159837500D01*
X275320000Y-158930000D02*
X276875900Y-158930000D01*
X352900000Y-167700000D02*
X351344100Y-167700000D01*
X250240000Y-171630000D02*
X239259600Y-171630000D01*
X239259600Y-171630000D02*
X238640200Y-171010600D01*
X206327300Y-106341000D02*
X188648500Y-106341000D01*
X188648500Y-106341000D02*
X184857500Y-102550000D01*
X184857500Y-102550000D02*
X181049800Y-102550000D01*
X181049800Y-102550000D02*
X177245100Y-98745300D01*
X250818000Y-171630000D02*
X250240000Y-171630000D01*
X250818000Y-171630000D02*
X251395900Y-171630000D01*
X251395900Y-171630000D02*
X252779900Y-170246000D01*
X252779900Y-170246000D02*
X278758800Y-170246000D01*
X278758800Y-170246000D02*
X283284800Y-165720000D01*
X283284800Y-165720000D02*
X287335900Y-165720000D01*
X287335900Y-165720000D02*
X290119000Y-162936900D01*
X308133300Y-155689800D02*
X329113900Y-155689800D01*
X329113900Y-155689800D02*
X330284100Y-156860000D01*
X308133300Y-155689800D02*
X304436100Y-155689800D01*
X304436100Y-155689800D02*
X303295900Y-156830000D01*
X302140000Y-156830000D02*
X303295900Y-156830000D01*
X331440000Y-156860000D02*
X330284100Y-156860000D01*
X302140000Y-156830000D02*
X296066000Y-156830000D01*
X204795900Y-123480000D02*
X205146500Y-123830600D01*
X205146500Y-123830600D02*
X213797900Y-123830600D01*
X173884100Y-123480000D02*
X170074100Y-127290000D01*
X170074100Y-127290000D02*
X139120800Y-127290000D01*
X175040000Y-123480000D02*
X173884100Y-123480000D01*
X175618000Y-123480000D02*
X175040000Y-123480000D01*
X135184100Y-141980000D02*
X126668800Y-141980000D01*
X126668800Y-141980000D02*
X125474000Y-143174800D01*
X125474000Y-143174800D02*
X114897900Y-143174800D01*
X114897900Y-143174800D02*
X114244100Y-142521000D01*
X114244100Y-142521000D02*
X88209300Y-142521000D01*
X88209300Y-142521000D02*
X88139500Y-142590800D01*
X88139500Y-142590800D02*
X74741000Y-142590800D01*
X74741000Y-142590800D02*
X73580200Y-141430000D01*
X73580200Y-141430000D02*
X68455900Y-141430000D01*
X313777400Y-138990500D02*
X313777400Y-140119700D01*
X313777400Y-140119700D02*
X310375400Y-143521700D01*
X310375400Y-143521700D02*
X297000900Y-143521700D01*
X297000900Y-143521700D02*
X295266800Y-145255800D01*
X295266800Y-145255800D02*
X294363700Y-144352700D01*
X294363700Y-144352700D02*
X256017600Y-144352700D01*
X256017600Y-144352700D02*
X252984300Y-147386000D01*
X252984300Y-147386000D02*
X249741600Y-147386000D01*
X249741600Y-147386000D02*
X248357600Y-148770000D01*
X248357600Y-148770000D02*
X235000000Y-148770000D01*
X202484100Y-123480000D02*
X201296300Y-124667800D01*
X201296300Y-124667800D02*
X182860600Y-124667800D01*
X182860600Y-124667800D02*
X182529900Y-124998500D01*
X182529900Y-124998500D02*
X177714400Y-124998500D01*
X177714400Y-124998500D02*
X176195900Y-123480000D01*
X175618000Y-123480000D02*
X176195900Y-123480000D01*
X203640000Y-123480000D02*
X204795900Y-123480000D01*
X203640000Y-123480000D02*
X202484100Y-123480000D01*
X315044100Y-174640000D02*
X313859400Y-175824700D01*
X313859400Y-175824700D02*
X289270600Y-175824700D01*
X289270600Y-175824700D02*
X288055900Y-174610000D01*
X135962100Y-141980000D02*
X136740000Y-141980000D01*
X135962100Y-141980000D02*
X135184100Y-141980000D01*
X66900000Y-141430000D02*
X68455900Y-141430000D01*
X287316200Y-174610000D02*
X286900000Y-174610000D01*
X287316200Y-174610000D02*
X288055900Y-174610000D01*
X316200000Y-174640000D02*
X315044100Y-174640000D01*
X180564100Y-88580000D02*
X180564100Y-84490000D01*
X180564100Y-84490000D02*
X175765900Y-79691800D01*
X175765900Y-79691800D02*
X175282400Y-79691800D01*
X175282400Y-79691800D02*
X174216100Y-78625500D01*
X174216100Y-78625500D02*
X174216100Y-77644900D01*
X174216100Y-77644900D02*
X176481100Y-75379900D01*
X176481100Y-75379900D02*
X259672400Y-75379900D01*
X259672400Y-75379900D02*
X274307600Y-90015100D01*
X274307600Y-90015100D02*
X275031100Y-90015100D01*
X275031100Y-90015100D02*
X275546600Y-89499600D01*
X275546600Y-89499600D02*
X275546600Y-80107500D01*
X275546600Y-80107500D02*
X277728800Y-77925300D01*
X277728800Y-77925300D02*
X285883900Y-77925300D01*
X285883900Y-77925300D02*
X287346100Y-76463100D01*
X287346100Y-76463100D02*
X292170100Y-76463100D01*
X302140000Y-159370000D02*
X289910000Y-159370000D01*
X289910000Y-159370000D02*
X288749100Y-158209100D01*
X288749100Y-158209100D02*
X285982800Y-158209100D01*
X285982800Y-158209100D02*
X285249400Y-158942500D01*
X285249400Y-158942500D02*
X278814900Y-158942500D01*
X278814900Y-158942500D02*
X277461400Y-157589000D01*
X277461400Y-157589000D02*
X263600300Y-157589000D01*
X263600300Y-157589000D02*
X262744300Y-156733000D01*
X262744300Y-156733000D02*
X257649700Y-156733000D01*
X257649700Y-156733000D02*
X256722700Y-157660000D01*
X256722700Y-157660000D02*
X238984000Y-157660000D01*
X182120000Y-88580000D02*
X180564100Y-88580000D01*
X330284100Y-159400000D02*
X329115600Y-158231500D01*
X329115600Y-158231500D02*
X315565500Y-158231500D01*
X315565500Y-158231500D02*
X314427000Y-159370000D01*
X314427000Y-159370000D02*
X302140000Y-159370000D01*
X331440000Y-159400000D02*
X330284100Y-159400000D01*
X204795900Y-126020000D02*
X212718900Y-126020000D01*
X212718900Y-126020000D02*
X212882900Y-125856000D01*
X236515900Y-169223000D02*
X235413600Y-170325300D01*
X235413600Y-170325300D02*
X233632600Y-170325300D01*
X233632600Y-170325300D02*
X230548800Y-173409100D01*
X230548800Y-173409100D02*
X230548800Y-174611200D01*
X230548800Y-174611200D02*
X234319600Y-178382000D01*
X234319600Y-178382000D02*
X236789000Y-178382000D01*
X236789000Y-178382000D02*
X236987600Y-178183400D01*
X236987600Y-178183400D02*
X238133400Y-178183400D01*
X238133400Y-178183400D02*
X238693500Y-178743500D01*
X238693500Y-178743500D02*
X244392800Y-178743500D01*
X244392800Y-178743500D02*
X244895400Y-179246100D01*
X244895400Y-179246100D02*
X275076800Y-179246100D01*
X275076800Y-179246100D02*
X281220100Y-173102800D01*
X281220100Y-173102800D02*
X284391300Y-173102800D01*
X284391300Y-173102800D02*
X285206500Y-173918000D01*
X285206500Y-173918000D02*
X285206500Y-174155300D01*
X173884100Y-126020000D02*
X170830600Y-129073500D01*
X170830600Y-129073500D02*
X162637600Y-129073500D01*
X175040000Y-126020000D02*
X173884100Y-126020000D01*
X136740000Y-144520000D02*
X138295900Y-144520000D01*
X142569500Y-144919200D02*
X138695100Y-144919200D01*
X138695100Y-144919200D02*
X138295900Y-144520000D01*
X175618000Y-126020000D02*
X175040000Y-126020000D01*
X175618000Y-126020000D02*
X176195900Y-126020000D01*
X202484100Y-126020000D02*
X201190300Y-126020000D01*
X201190300Y-126020000D02*
X199997400Y-127212900D01*
X199997400Y-127212900D02*
X187449600Y-127212900D01*
X187449600Y-127212900D02*
X186256700Y-126020000D01*
X186256700Y-126020000D02*
X176195900Y-126020000D01*
X203640000Y-126020000D02*
X204795900Y-126020000D01*
X203640000Y-126020000D02*
X202484100Y-126020000D01*
X316200000Y-172100000D02*
X304952300Y-172100000D01*
X304952300Y-172100000D02*
X303813300Y-173239000D01*
X303813300Y-173239000D02*
X299289500Y-173239000D01*
X299289500Y-173239000D02*
X298120500Y-172070000D01*
X298120500Y-172070000D02*
X286900000Y-172070000D01*
X300984100Y-161910000D02*
X290014100Y-161910000D01*
X290014100Y-161910000D02*
X288660700Y-163263400D01*
X288660700Y-163263400D02*
X285043300Y-163263400D01*
X285043300Y-163263400D02*
X280372600Y-167934100D01*
X280372600Y-167934100D02*
X253966600Y-167934100D01*
X253966600Y-167934100D02*
X251630500Y-170270200D01*
X251630500Y-170270200D02*
X239031800Y-170270200D01*
X239031800Y-170270200D02*
X238965700Y-170204100D01*
X238965700Y-170204100D02*
X237581800Y-170204100D01*
X237581800Y-170204100D02*
X236155900Y-171630000D01*
X192754300Y-110916900D02*
X193174400Y-110496800D01*
X193174400Y-110496800D02*
X206299400Y-110496800D01*
X235578000Y-171630000D02*
X235000000Y-171630000D01*
X235578000Y-171630000D02*
X236155900Y-171630000D01*
X302140000Y-161910000D02*
X300984100Y-161910000D01*
X302718000Y-161910000D02*
X302140000Y-161910000D01*
X303295900Y-161910000D02*
X304451700Y-160754200D01*
X304451700Y-160754200D02*
X329098300Y-160754200D01*
X329098300Y-160754200D02*
X330284100Y-161940000D01*
X302718000Y-161910000D02*
X303295900Y-161910000D01*
X331440000Y-161940000D02*
X330284100Y-161940000D01*
X139124100Y-129715900D02*
X139318900Y-129910700D01*
X139318900Y-129910700D02*
X172533400Y-129910700D01*
X172533400Y-129910700D02*
X173884100Y-128560000D01*
X204795900Y-128560000D02*
X205278600Y-128077300D01*
X205278600Y-128077300D02*
X213761500Y-128077300D01*
X203640000Y-128560000D02*
X204795900Y-128560000D01*
X203640000Y-128560000D02*
X202484100Y-128560000D01*
X202484100Y-128560000D02*
X202060400Y-128983700D01*
X202060400Y-128983700D02*
X190394400Y-128983700D01*
X175040000Y-128560000D02*
X176195900Y-128560000D01*
X185962100Y-128654800D02*
X176290700Y-128654800D01*
X176290700Y-128654800D02*
X176195900Y-128560000D01*
X285196900Y-152055900D02*
X285196900Y-151324900D01*
X285196900Y-151324900D02*
X285927800Y-150594000D01*
X285927800Y-150594000D02*
X293040300Y-150594000D01*
X293040300Y-150594000D02*
X296672100Y-146962200D01*
X296672100Y-146962200D02*
X310297200Y-146962200D01*
X310297200Y-146962200D02*
X314373500Y-142885900D01*
X314373500Y-142885900D02*
X315392900Y-142885900D01*
X236155900Y-153850000D02*
X237539900Y-152466000D01*
X237539900Y-152466000D02*
X264907400Y-152466000D01*
X264907400Y-152466000D02*
X265317500Y-152055900D01*
X265317500Y-152055900D02*
X285196900Y-152055900D01*
X235000000Y-153850000D02*
X236155900Y-153850000D01*
X175040000Y-128560000D02*
X173884100Y-128560000D01*
X188323200Y-114952200D02*
X188484600Y-114952200D01*
X188484600Y-114952200D02*
X193088400Y-119556000D01*
X193088400Y-119556000D02*
X204256000Y-119556000D01*
X204256000Y-119556000D02*
X207543600Y-122843600D01*
X207543600Y-122843600D02*
X231534000Y-122843600D01*
X231534000Y-122843600D02*
X237400700Y-128710300D01*
X237400700Y-128710300D02*
X247515800Y-128710300D01*
X247515800Y-128710300D02*
X249629200Y-126596900D01*
X249629200Y-126596900D02*
X304555500Y-126596900D01*
X304555500Y-126596900D02*
X305858800Y-127900200D01*
X302140000Y-164450000D02*
X303295900Y-164450000D01*
X331440000Y-164480000D02*
X330284100Y-164480000D01*
X330284100Y-164480000D02*
X329122400Y-163318300D01*
X329122400Y-163318300D02*
X304427600Y-163318300D01*
X304427600Y-163318300D02*
X303295900Y-164450000D01*
X204795900Y-131100000D02*
X213787100Y-131100000D01*
X213787100Y-131100000D02*
X214478000Y-130409100D01*
X236155900Y-156390000D02*
X237325600Y-155220300D01*
X237325600Y-155220300D02*
X251943000Y-155220300D01*
X251943000Y-155220300D02*
X252297700Y-155575000D01*
X252297700Y-155575000D02*
X253516000Y-155575000D01*
X253516000Y-155575000D02*
X253870700Y-155220300D01*
X253870700Y-155220300D02*
X278015100Y-155220300D01*
X278015100Y-155220300D02*
X280922600Y-158127800D01*
X280922600Y-158127800D02*
X283577500Y-158127800D01*
X176195900Y-131100000D02*
X177393900Y-129902000D01*
X177393900Y-129902000D02*
X189324500Y-129902000D01*
X189324500Y-129902000D02*
X190522500Y-131100000D01*
X190522500Y-131100000D02*
X202484100Y-131100000D01*
X316200000Y-167020000D02*
X315044100Y-167020000D01*
X315044100Y-167020000D02*
X313913400Y-168150700D01*
X313913400Y-168150700D02*
X300874800Y-168150700D01*
X300874800Y-168150700D02*
X299714100Y-166990000D01*
X299714100Y-166990000D02*
X286900000Y-166990000D01*
X203640000Y-131100000D02*
X204795900Y-131100000D01*
X175040000Y-131100000D02*
X176195900Y-131100000D01*
X203640000Y-131100000D02*
X202484100Y-131100000D01*
X235000000Y-156390000D02*
X236155900Y-156390000D01*
X197564100Y-91120000D02*
X196401500Y-89957400D01*
X196401500Y-89957400D02*
X173590600Y-89957400D01*
X173590600Y-89957400D02*
X161722600Y-101825400D01*
X161722600Y-101825400D02*
X148410700Y-101825400D01*
X148410700Y-101825400D02*
X148310600Y-101925500D01*
X148310600Y-101925500D02*
X145608000Y-101925500D01*
X145608000Y-101925500D02*
X142033500Y-98351000D01*
X142033500Y-98351000D02*
X128666800Y-98351000D01*
X136740000Y-159760000D02*
X147483900Y-159760000D01*
X147483900Y-159760000D02*
X158257400Y-170533500D01*
X283864100Y-107840000D02*
X282663900Y-109040200D01*
X282663900Y-109040200D02*
X275248000Y-109040200D01*
X275248000Y-109040200D02*
X273151100Y-106943300D01*
X273151100Y-106943300D02*
X270143100Y-106943300D01*
X270143100Y-106943300D02*
X269887800Y-106688000D01*
X269887800Y-106688000D02*
X262676600Y-106688000D01*
X262676600Y-106688000D02*
X261954200Y-105965600D01*
X261954200Y-105965600D02*
X251683000Y-105965600D01*
X251683000Y-105965600D02*
X248203900Y-102486500D01*
X248203900Y-102486500D02*
X234980700Y-102486500D01*
X234980700Y-102486500D02*
X232504200Y-100010000D01*
X232504200Y-100010000D02*
X228019900Y-100010000D01*
X228019900Y-100010000D02*
X225423600Y-97413700D01*
X225423600Y-97413700D02*
X202388800Y-97413700D01*
X287963000Y-105695400D02*
X289524300Y-104134100D01*
X289524300Y-104134100D02*
X297666000Y-104134100D01*
X297666000Y-104134100D02*
X299594000Y-106062100D01*
X285420000Y-107840000D02*
X283864100Y-107840000D01*
X199120000Y-91120000D02*
X197564100Y-91120000D01*
X53300000Y-196110000D02*
X53300000Y-197265900D01*
X170220000Y-188140000D02*
X170220000Y-189295900D01*
X170220000Y-189295900D02*
X169930900Y-189295900D01*
X169930900Y-189295900D02*
X169064100Y-190162700D01*
X169064100Y-190162700D02*
X169064100Y-190967300D01*
X169064100Y-190967300D02*
X163001400Y-197030000D01*
X163001400Y-197030000D02*
X154424400Y-197030000D01*
X154424400Y-197030000D02*
X147218300Y-204236100D01*
X147218300Y-204236100D02*
X54672900Y-204236100D01*
X54672900Y-204236100D02*
X52142200Y-201705400D01*
X52142200Y-201705400D02*
X52142200Y-198154200D01*
X52142200Y-198154200D02*
X53030500Y-197265900D01*
X53030500Y-197265900D02*
X53300000Y-197265900D01*
X303295900Y-166990000D02*
X304451700Y-165834200D01*
X304451700Y-165834200D02*
X329098300Y-165834200D01*
X329098300Y-165834200D02*
X330284100Y-167020000D01*
X302140000Y-166990000D02*
X303295900Y-166990000D01*
X331440000Y-167020000D02*
X330284100Y-167020000D01*
X285154400Y-171081200D02*
X281379500Y-171081200D01*
X281379500Y-171081200D02*
X277020700Y-175440000D01*
X277020700Y-175440000D02*
X271798700Y-175440000D01*
X271798700Y-175440000D02*
X268907700Y-178331000D01*
X268907700Y-178331000D02*
X248126300Y-178331000D01*
X248126300Y-178331000D02*
X247783300Y-177988000D01*
X316200000Y-164480000D02*
X305004200Y-164480000D01*
X305004200Y-164480000D02*
X303848100Y-165636100D01*
X303848100Y-165636100D02*
X288656300Y-165636100D01*
X236155900Y-158930000D02*
X238034500Y-160808600D01*
X238034500Y-160808600D02*
X245663800Y-160808600D01*
X235000000Y-158930000D02*
X236155900Y-158930000D01*
X206306300Y-119406000D02*
X204130600Y-117230300D01*
X204130600Y-117230300D02*
X192433600Y-117230300D01*
X192433600Y-117230300D02*
X190689700Y-115486400D01*
X190689700Y-115486400D02*
X190689700Y-113348000D01*
X235000000Y-174170000D02*
X236155900Y-174170000D01*
X300984100Y-169530000D02*
X299828200Y-170685900D01*
X299828200Y-170685900D02*
X285891100Y-170685900D01*
X285891100Y-170685900D02*
X285484700Y-170279500D01*
X285484700Y-170279500D02*
X281534100Y-170279500D01*
X281534100Y-170279500D02*
X279027600Y-172786000D01*
X279027600Y-172786000D02*
X237539900Y-172786000D01*
X237539900Y-172786000D02*
X236155900Y-174170000D01*
X302140000Y-169530000D02*
X303295900Y-169530000D01*
X331440000Y-169560000D02*
X330284100Y-169560000D01*
X330284100Y-169560000D02*
X329099400Y-170744700D01*
X329099400Y-170744700D02*
X304510600Y-170744700D01*
X304510600Y-170744700D02*
X303295900Y-169530000D01*
X302140000Y-169530000D02*
X300984100Y-169530000D01*
X236155900Y-161470000D02*
X236329500Y-161643600D01*
X236329500Y-161643600D02*
X246408900Y-161643600D01*
X246408900Y-161643600D02*
X247742100Y-160310400D01*
X247742100Y-160310400D02*
X278232700Y-160310400D01*
X278232700Y-160310400D02*
X278564100Y-160641800D01*
X278564100Y-160641800D02*
X284872300Y-160641800D01*
X284872300Y-160641800D02*
X284925900Y-160588200D01*
X294782900Y-146747500D02*
X294958700Y-146747500D01*
X294958700Y-146747500D02*
X296412000Y-145294200D01*
X296412000Y-145294200D02*
X309433200Y-145294200D01*
X309433200Y-145294200D02*
X316533700Y-138193700D01*
X235000000Y-161470000D02*
X236155900Y-161470000D01*
X316200000Y-161940000D02*
X303964200Y-161940000D01*
X303964200Y-161940000D02*
X302610400Y-163293800D01*
X302610400Y-163293800D02*
X291315900Y-163293800D01*
X193324600Y-113161700D02*
X193667500Y-112818800D01*
X193667500Y-112818800D02*
X196655100Y-112818800D01*
X196655100Y-112818800D02*
X197055300Y-112418600D01*
X197055300Y-112418600D02*
X199280800Y-112418600D01*
X199280800Y-112418600D02*
X202176200Y-115314000D01*
X202176200Y-115314000D02*
X207292600Y-115314000D01*
X207292600Y-115314000D02*
X209415200Y-117436600D01*
X209415200Y-117436600D02*
X251992200Y-117436600D01*
X251992200Y-117436600D02*
X255626600Y-121071000D01*
X255626600Y-121071000D02*
X269368400Y-121071000D01*
X269368400Y-121071000D02*
X269749400Y-121452000D01*
X269749400Y-121452000D02*
X271170500Y-121452000D01*
X271170500Y-121452000D02*
X271551500Y-121071000D01*
X271551500Y-121071000D02*
X279517200Y-121071000D01*
X279517200Y-121071000D02*
X280734300Y-119853900D01*
X280734300Y-119853900D02*
X302529600Y-119853900D01*
X302529600Y-119853900D02*
X302989700Y-120314000D01*
X302989700Y-120314000D02*
X325150800Y-120314000D01*
X285744100Y-159370000D02*
X285744100Y-160902000D01*
X285744100Y-160902000D02*
X285257500Y-161388600D01*
X285257500Y-161388600D02*
X284435700Y-161388600D01*
X284435700Y-161388600D02*
X284343900Y-161296800D01*
X284343900Y-161296800D02*
X283680900Y-161296800D01*
X283680900Y-161296800D02*
X282123600Y-162854100D01*
X282123600Y-162854100D02*
X237311800Y-162854100D01*
X237311800Y-162854100D02*
X236155900Y-164010000D01*
X286900000Y-159370000D02*
X288055900Y-159370000D01*
X316200000Y-159400000D02*
X315044100Y-159400000D01*
X315044100Y-159400000D02*
X314616500Y-159827600D01*
X314616500Y-159827600D02*
X304253100Y-159827600D01*
X304253100Y-159827600D02*
X303542300Y-160538400D01*
X303542300Y-160538400D02*
X289224300Y-160538400D01*
X289224300Y-160538400D02*
X288055900Y-159370000D01*
X286900000Y-159370000D02*
X285744100Y-159370000D01*
X235000000Y-164010000D02*
X236155900Y-164010000D01*
X273764100Y-176710000D02*
X271685500Y-178788600D01*
X271685500Y-178788600D02*
X245084900Y-178788600D01*
X245084900Y-178788600D02*
X244582300Y-178286000D01*
X244582300Y-178286000D02*
X241631900Y-178286000D01*
X241631900Y-178286000D02*
X240683800Y-177337900D01*
X240683800Y-177337900D02*
X237385600Y-177337900D01*
X173827400Y-151861000D02*
X173827400Y-150981300D01*
X173827400Y-150981300D02*
X174570400Y-150238300D01*
X174570400Y-150238300D02*
X175577800Y-150238300D01*
X175577800Y-150238300D02*
X175979400Y-150639900D01*
X175979400Y-150639900D02*
X176642500Y-150639900D01*
X176642500Y-150639900D02*
X176654900Y-150627500D01*
X176654900Y-150627500D02*
X187017000Y-150627500D01*
X187017000Y-150627500D02*
X187417900Y-150226600D01*
X187417900Y-150226600D02*
X204089200Y-150226600D01*
X204089200Y-150226600D02*
X204815000Y-150952400D01*
X204815000Y-150952400D02*
X204815000Y-151591200D01*
X80422900Y-137620000D02*
X82904800Y-137620000D01*
X82904800Y-137620000D02*
X83650700Y-138365900D01*
X83650700Y-138365900D02*
X87954100Y-138365900D01*
X87954100Y-138365900D02*
X88917900Y-137402100D01*
X88917900Y-137402100D02*
X111822000Y-137402100D01*
X111822000Y-137402100D02*
X119944100Y-129280000D01*
X173827400Y-151861000D02*
X172998400Y-152690000D01*
X172998400Y-152690000D02*
X142328300Y-152690000D01*
X142328300Y-152690000D02*
X141722300Y-153296000D01*
X141722300Y-153296000D02*
X126737700Y-153296000D01*
X126737700Y-153296000D02*
X126402100Y-152960400D01*
X347520000Y-193880000D02*
X345964100Y-193880000D01*
X336690600Y-188289500D02*
X338357100Y-189956000D01*
X338357100Y-189956000D02*
X342040100Y-189956000D01*
X342040100Y-189956000D02*
X345964100Y-193880000D01*
X175040000Y-152804100D02*
X174770500Y-152804100D01*
X174770500Y-152804100D02*
X173827400Y-151861000D01*
X80422900Y-137620000D02*
X55315900Y-137620000D01*
X55315900Y-137620000D02*
X54195900Y-136500000D01*
X53040000Y-136500000D02*
X54195900Y-136500000D01*
X121500000Y-129280000D02*
X119944100Y-129280000D01*
X221147000Y-157643000D02*
X215095200Y-151591200D01*
X215095200Y-151591200D02*
X204815000Y-151591200D01*
X275320000Y-176710000D02*
X273764100Y-176710000D01*
X204815000Y-151591200D02*
X204815000Y-151898500D01*
X204815000Y-151898500D02*
X203909400Y-152804100D01*
X203909400Y-152804100D02*
X203640000Y-152804100D01*
X276098000Y-176710000D02*
X275320000Y-176710000D01*
X276098000Y-176710000D02*
X276875900Y-176710000D01*
X276875900Y-176710000D02*
X280988100Y-172597800D01*
X280988100Y-172597800D02*
X284586600Y-172597800D01*
X284586600Y-172597800D02*
X285342600Y-173353800D01*
X285342600Y-173353800D02*
X298433900Y-173353800D01*
X298433900Y-173353800D02*
X299690100Y-174610000D01*
X299690100Y-174610000D02*
X300984100Y-174610000D01*
X175040000Y-153960000D02*
X175040000Y-152804100D01*
X203640000Y-153960000D02*
X203640000Y-152804100D01*
X302140000Y-174610000D02*
X300984100Y-174610000D01*
X302718000Y-174610000D02*
X302140000Y-174610000D01*
X302718000Y-174610000D02*
X303295900Y-174610000D01*
X331440000Y-174640000D02*
X330284100Y-174640000D01*
X330284100Y-174640000D02*
X329098300Y-173454200D01*
X329098300Y-173454200D02*
X304451700Y-173454200D01*
X304451700Y-173454200D02*
X303295900Y-174610000D01*
X235000000Y-166550000D02*
X236155900Y-166550000D01*
X284012300Y-162097200D02*
X280908000Y-165201500D01*
X280908000Y-165201500D02*
X270278900Y-165201500D01*
X270278900Y-165201500D02*
X269788400Y-164711000D01*
X269788400Y-164711000D02*
X269043700Y-164711000D01*
X269043700Y-164711000D02*
X268543100Y-165211600D01*
X268543100Y-165211600D02*
X266349300Y-165211600D01*
X266349300Y-165211600D02*
X266098200Y-164960500D01*
X266098200Y-164960500D02*
X254460500Y-164960500D01*
X254460500Y-164960500D02*
X254255000Y-165166000D01*
X254255000Y-165166000D02*
X237539900Y-165166000D01*
X237539900Y-165166000D02*
X236155900Y-166550000D01*
X326755900Y-112920000D02*
X326755900Y-115972800D01*
X326755900Y-115972800D02*
X325741700Y-116987000D01*
X325741700Y-116987000D02*
X325064700Y-116987000D01*
X315044100Y-156860000D02*
X313914700Y-157989400D01*
X313914700Y-157989400D02*
X289215300Y-157989400D01*
X289215300Y-157989400D02*
X288055900Y-156830000D01*
X325200000Y-112920000D02*
X326755900Y-112920000D01*
X316200000Y-156860000D02*
X317355900Y-156860000D01*
X320560200Y-156914300D02*
X317410200Y-156914300D01*
X317410200Y-156914300D02*
X317355900Y-156860000D01*
X287478000Y-156830000D02*
X286900000Y-156830000D01*
X287478000Y-156830000D02*
X288055900Y-156830000D01*
X316200000Y-156860000D02*
X315044100Y-156860000D01*
X123055900Y-126740000D02*
X129477100Y-133161200D01*
X129477100Y-133161200D02*
X138486700Y-133161200D01*
X138486700Y-133161200D02*
X145054800Y-139729300D01*
X300984100Y-177150000D02*
X289948900Y-177150000D01*
X289948900Y-177150000D02*
X288787800Y-175988900D01*
X288787800Y-175988900D02*
X280314200Y-175988900D01*
X54195900Y-133960000D02*
X55504100Y-132651800D01*
X55504100Y-132651800D02*
X77411500Y-132651800D01*
X77411500Y-132651800D02*
X77593600Y-132833900D01*
X77593600Y-132833900D02*
X80135700Y-132833900D01*
X80135700Y-132833900D02*
X80317800Y-132651800D01*
X119944100Y-126740000D02*
X114443400Y-132240700D01*
X114443400Y-132240700D02*
X87953100Y-132240700D01*
X87953100Y-132240700D02*
X87542000Y-132651800D01*
X87542000Y-132651800D02*
X80317800Y-132651800D01*
X201320000Y-152584100D02*
X201320000Y-153276100D01*
X201320000Y-153276100D02*
X203180600Y-155136700D01*
X203180600Y-155136700D02*
X206142800Y-155136700D01*
X206142800Y-155136700D02*
X209206400Y-152073100D01*
X209206400Y-152073100D02*
X214261800Y-152073100D01*
X214261800Y-152073100D02*
X221153100Y-158964400D01*
X201320000Y-152584100D02*
X177360000Y-152584100D01*
X177360000Y-152584100D02*
X176195900Y-151420000D01*
X121500000Y-126740000D02*
X123055900Y-126740000D01*
X360520000Y-162620000D02*
X358964100Y-162620000D01*
X342013200Y-177074600D02*
X342013200Y-173943000D01*
X342013200Y-173943000D02*
X352066200Y-163890000D01*
X352066200Y-163890000D02*
X357694100Y-163890000D01*
X357694100Y-163890000D02*
X358964100Y-162620000D01*
X331440000Y-177180000D02*
X341907800Y-177180000D01*
X341907800Y-177180000D02*
X342013200Y-177074600D01*
X330862100Y-177180000D02*
X331440000Y-177180000D01*
X330862100Y-177180000D02*
X330284100Y-177180000D01*
X241931700Y-177178300D02*
X248999600Y-177178300D01*
X248999600Y-177178300D02*
X249687200Y-177865900D01*
X249687200Y-177865900D02*
X268615400Y-177865900D01*
X268615400Y-177865900D02*
X272311300Y-174170000D01*
X272311300Y-174170000D02*
X273764100Y-174170000D01*
X302140000Y-177150000D02*
X314427000Y-177150000D01*
X314427000Y-177150000D02*
X315598600Y-175978400D01*
X315598600Y-175978400D02*
X328373100Y-175978400D01*
X328373100Y-175978400D02*
X329574700Y-177180000D01*
X329574700Y-177180000D02*
X330284100Y-177180000D01*
X275320000Y-174170000D02*
X273764100Y-174170000D01*
X202484100Y-151420000D02*
X201320000Y-152584100D01*
X53040000Y-133960000D02*
X54195900Y-133960000D01*
X121500000Y-126740000D02*
X119944100Y-126740000D01*
X302140000Y-177150000D02*
X300984100Y-177150000D01*
X175040000Y-151420000D02*
X176195900Y-151420000D01*
X203640000Y-151420000D02*
X202484100Y-151420000D01*
X187279400Y-116882100D02*
X189120400Y-116882100D01*
X189120400Y-116882100D02*
X194525900Y-122287600D01*
X194525900Y-122287600D02*
X205855700Y-122287600D01*
X205855700Y-122287600D02*
X205940100Y-122372000D01*
X250240000Y-174170000D02*
X240776300Y-174170000D01*
X240776300Y-174170000D02*
X239620300Y-175326000D01*
X239620300Y-175326000D02*
X233042500Y-175326000D01*
X285744100Y-154290000D02*
X282228800Y-154290000D01*
X286900000Y-154290000D02*
X285744100Y-154290000D01*
X287478000Y-154290000D02*
X286900000Y-154290000D01*
X288055900Y-154290000D02*
X289239900Y-153106000D01*
X289239900Y-153106000D02*
X303496200Y-153106000D01*
X303496200Y-153106000D02*
X306027100Y-150575100D01*
X306027100Y-150575100D02*
X316671000Y-150575100D01*
X316671000Y-150575100D02*
X317364000Y-151268100D01*
X317364000Y-151268100D02*
X317364000Y-152289100D01*
X317364000Y-152289100D02*
X316489000Y-153164100D01*
X316489000Y-153164100D02*
X316200000Y-153164100D01*
X287478000Y-154290000D02*
X288055900Y-154290000D01*
X316200000Y-154320000D02*
X316200000Y-153164100D01*
X271068300Y-182028500D02*
X235860500Y-182028500D01*
X235860500Y-182028500D02*
X227926100Y-174094100D01*
X227926100Y-174094100D02*
X182803500Y-174094100D01*
X77945900Y-132013900D02*
X77945900Y-130114000D01*
X121500000Y-124200000D02*
X119944100Y-124200000D01*
X77945900Y-130114000D02*
X55501900Y-130114000D01*
X55501900Y-130114000D02*
X54195900Y-131420000D01*
X119944100Y-124200000D02*
X114388100Y-129756000D01*
X114388100Y-129756000D02*
X87897900Y-129756000D01*
X87897900Y-129756000D02*
X87539900Y-130114000D01*
X87539900Y-130114000D02*
X77945900Y-130114000D01*
X53040000Y-131420000D02*
X54195900Y-131420000D01*
X331440000Y-179720000D02*
X340882200Y-179720000D01*
X340882200Y-179720000D02*
X342007700Y-180845500D01*
X330862100Y-179720000D02*
X331440000Y-179720000D01*
X175040000Y-148880000D02*
X176195900Y-148880000D01*
X186830200Y-149014200D02*
X176330100Y-149014200D01*
X176330100Y-149014200D02*
X176195900Y-148880000D01*
X173884100Y-148880000D02*
X172728200Y-150035900D01*
X172728200Y-150035900D02*
X146725500Y-150035900D01*
X146725500Y-150035900D02*
X145891400Y-150870000D01*
X145891400Y-150870000D02*
X112143800Y-150870000D01*
X112143800Y-150870000D02*
X110329800Y-152684000D01*
X110329800Y-152684000D02*
X86548100Y-152684000D01*
X86548100Y-152684000D02*
X83695900Y-155536200D01*
X83695900Y-155536200D02*
X83695900Y-156670000D01*
X330862100Y-179720000D02*
X330284100Y-179720000D01*
X330284100Y-179720000D02*
X329119700Y-178555600D01*
X329119700Y-178555600D02*
X315561400Y-178555600D01*
X315561400Y-178555600D02*
X314427000Y-179690000D01*
X314427000Y-179690000D02*
X302140000Y-179690000D01*
X298834300Y-168341200D02*
X282281300Y-168341200D01*
X282281300Y-168341200D02*
X278992500Y-171630000D01*
X278992500Y-171630000D02*
X276875900Y-171630000D01*
X275320000Y-171630000D02*
X276875900Y-171630000D01*
X203640000Y-148880000D02*
X191636800Y-148880000D01*
X82140000Y-156670000D02*
X83695900Y-156670000D01*
X175040000Y-148880000D02*
X173884100Y-148880000D01*
X226629900Y-102550000D02*
X195024200Y-102550000D01*
X195024200Y-102550000D02*
X192581800Y-100107600D01*
X192581800Y-100107600D02*
X180195300Y-100107600D01*
X180195300Y-100107600D02*
X176055900Y-95968200D01*
X176055900Y-95968200D02*
X176055900Y-93660000D01*
X174500000Y-93660000D02*
X176055900Y-93660000D01*
X231520000Y-103820000D02*
X233075900Y-103820000D01*
X309700000Y-110380000D02*
X306330000Y-110380000D01*
X306330000Y-110380000D02*
X305161600Y-109211600D01*
X305161600Y-109211600D02*
X284150200Y-109211600D01*
X284150200Y-109211600D02*
X283827300Y-109534500D01*
X283827300Y-109534500D02*
X271440200Y-109534500D01*
X271440200Y-109534500D02*
X269567200Y-107661500D01*
X269567200Y-107661500D02*
X256562900Y-107661500D01*
X256562900Y-107661500D02*
X256010600Y-107109200D01*
X256010600Y-107109200D02*
X250967800Y-107109200D01*
X250967800Y-107109200D02*
X249188100Y-105329500D01*
X249188100Y-105329500D02*
X234585400Y-105329500D01*
X234585400Y-105329500D02*
X233075900Y-103820000D01*
X302140000Y-154290000D02*
X303295900Y-154290000D01*
X300984100Y-154290000D02*
X299828200Y-155445900D01*
X299828200Y-155445900D02*
X280386000Y-155445900D01*
X280386000Y-155445900D02*
X277634200Y-152694100D01*
X277634200Y-152694100D02*
X266352700Y-152694100D01*
X266352700Y-152694100D02*
X264328500Y-154718300D01*
X264328500Y-154718300D02*
X252795600Y-154718300D01*
X315044100Y-151780000D02*
X305805900Y-151780000D01*
X305805900Y-151780000D02*
X303295900Y-154290000D01*
X316200000Y-151780000D02*
X315044100Y-151780000D01*
X302140000Y-154290000D02*
X300984100Y-154290000D01*
X250240000Y-169090000D02*
X249084100Y-169090000D01*
X247663200Y-169089600D02*
X249083700Y-169089600D01*
X249083700Y-169089600D02*
X249084100Y-169090000D01*
X302140000Y-182230000D02*
X289739400Y-182230000D01*
X289739400Y-182230000D02*
X288583400Y-181074000D01*
X288583400Y-181074000D02*
X283633700Y-181074000D01*
X330284100Y-182260000D02*
X329128100Y-181104000D01*
X329128100Y-181104000D02*
X315442200Y-181104000D01*
X315442200Y-181104000D02*
X314316200Y-182230000D01*
X314316200Y-182230000D02*
X302140000Y-182230000D01*
X204795900Y-146340000D02*
X205759900Y-145376000D01*
X205759900Y-145376000D02*
X210519000Y-145376000D01*
X210519000Y-145376000D02*
X210812100Y-145669100D01*
X210812100Y-145669100D02*
X214766300Y-145669100D01*
X214766300Y-145669100D02*
X216028500Y-144406900D01*
X216028500Y-144406900D02*
X232480100Y-144406900D01*
X232480100Y-144406900D02*
X234581000Y-142306000D01*
X234581000Y-142306000D02*
X266044000Y-142306000D01*
X266044000Y-142306000D02*
X266714000Y-141636000D01*
X266714000Y-141636000D02*
X276544500Y-141636000D01*
X276544500Y-141636000D02*
X279755100Y-138425400D01*
X279755100Y-138425400D02*
X303027800Y-138425400D01*
X303027800Y-138425400D02*
X306978100Y-138425400D01*
X306978100Y-138425400D02*
X307053200Y-138500500D01*
X119944100Y-121660000D02*
X114463800Y-127140300D01*
X114463800Y-127140300D02*
X84543800Y-127140300D01*
X84543800Y-127140300D02*
X84110000Y-127574100D01*
X84110000Y-127574100D02*
X72315500Y-127574100D01*
X203640000Y-146340000D02*
X204795900Y-146340000D01*
X175040000Y-146340000D02*
X176195900Y-146340000D01*
X203640000Y-146340000D02*
X202484100Y-146340000D01*
X202484100Y-146340000D02*
X201323300Y-147500800D01*
X201323300Y-147500800D02*
X177356700Y-147500800D01*
X177356700Y-147500800D02*
X176195900Y-146340000D01*
X54195900Y-128880000D02*
X55501800Y-127574100D01*
X55501800Y-127574100D02*
X72315500Y-127574100D01*
X331440000Y-182260000D02*
X330284100Y-182260000D01*
X121500000Y-121660000D02*
X123055900Y-121660000D01*
X162796700Y-125582100D02*
X161964600Y-124750000D01*
X161964600Y-124750000D02*
X143637100Y-124750000D01*
X143637100Y-124750000D02*
X141817100Y-122930000D01*
X141817100Y-122930000D02*
X124325900Y-122930000D01*
X124325900Y-122930000D02*
X123055900Y-121660000D01*
X121500000Y-121660000D02*
X119944100Y-121660000D01*
X53040000Y-128880000D02*
X54195900Y-128880000D01*
X287911200Y-139521500D02*
X307942800Y-139521500D01*
X307942800Y-139521500D02*
X310593100Y-142171800D01*
X264543100Y-103272200D02*
X253518600Y-103272200D01*
X253518600Y-103272200D02*
X244464700Y-94218300D01*
X244464700Y-94218300D02*
X235944800Y-94218300D01*
X231379000Y-173737000D02*
X231379000Y-174794400D01*
X231379000Y-174794400D02*
X234461700Y-177877100D01*
X234461700Y-177877100D02*
X235714600Y-177877100D01*
X235714600Y-177877100D02*
X237555000Y-176036700D01*
X237555000Y-176036700D02*
X248830900Y-176036700D01*
X248830900Y-176036700D02*
X249427600Y-175440000D01*
X249427600Y-175440000D02*
X269430200Y-175440000D01*
X269430200Y-175440000D02*
X270577300Y-174292900D01*
X127262700Y-144545600D02*
X128436700Y-145719600D01*
X128436700Y-145719600D02*
X153950200Y-145719600D01*
X153950200Y-145719600D02*
X154599800Y-145070000D01*
X154599800Y-145070000D02*
X166929800Y-145070000D01*
X166929800Y-145070000D02*
X168199800Y-143800000D01*
X168199800Y-143800000D02*
X175040000Y-143800000D01*
X275320000Y-166550000D02*
X279736800Y-166550000D01*
X279736800Y-166550000D02*
X280175700Y-166111100D01*
X204795900Y-143800000D02*
X205346900Y-143249000D01*
X205346900Y-143249000D02*
X213781500Y-143249000D01*
X203640000Y-143800000D02*
X204795900Y-143800000D01*
X175040000Y-143800000D02*
X176195900Y-143800000D01*
X176195900Y-143800000D02*
X177381400Y-144985500D01*
X177381400Y-144985500D02*
X201298600Y-144985500D01*
X201298600Y-144985500D02*
X202484100Y-143800000D01*
X119944100Y-119120000D02*
X117919700Y-121144400D01*
X117919700Y-121144400D02*
X92781100Y-121144400D01*
X92781100Y-121144400D02*
X89013000Y-124912500D01*
X89013000Y-124912500D02*
X69218800Y-124912500D01*
X69218800Y-124912500D02*
X55623400Y-124912500D01*
X55623400Y-124912500D02*
X54195900Y-126340000D01*
X53040000Y-126340000D02*
X54195900Y-126340000D01*
X121500000Y-119120000D02*
X119944100Y-119120000D01*
X330284100Y-184800000D02*
X329128200Y-183644100D01*
X329128200Y-183644100D02*
X304421800Y-183644100D01*
X304421800Y-183644100D02*
X303295900Y-184770000D01*
X203176500Y-143800000D02*
X203640000Y-143800000D01*
X203176500Y-143800000D02*
X202484100Y-143800000D01*
X302718000Y-184770000D02*
X302140000Y-184770000D01*
X302718000Y-184770000D02*
X303295900Y-184770000D01*
X331440000Y-184800000D02*
X330284100Y-184800000D01*
X311249200Y-106456900D02*
X306154600Y-106456900D01*
X306154600Y-106456900D02*
X305754000Y-106056300D01*
X305754000Y-106056300D02*
X305004600Y-106056300D01*
X305004600Y-106056300D02*
X304604000Y-106456900D01*
X304604000Y-106456900D02*
X300331200Y-106456900D01*
X300331200Y-106456900D02*
X299925600Y-106862500D01*
X299925600Y-106862500D02*
X298666200Y-106862500D01*
X298666200Y-106862500D02*
X298299500Y-106495800D01*
X298299500Y-106495800D02*
X287631500Y-106495800D01*
X287631500Y-106495800D02*
X287621500Y-106485800D01*
X287621500Y-106485800D02*
X270332600Y-106485800D01*
X270332600Y-106485800D02*
X270077300Y-106230500D01*
X270077300Y-106230500D02*
X262866100Y-106230500D01*
X262866100Y-106230500D02*
X262143700Y-105508100D01*
X262143700Y-105508100D02*
X251872500Y-105508100D01*
X251872500Y-105508100D02*
X248393400Y-102029000D01*
X248393400Y-102029000D02*
X238904900Y-102029000D01*
X238904900Y-102029000D02*
X233075900Y-96200000D01*
X231520000Y-96200000D02*
X233075900Y-96200000D01*
X162600000Y-198300000D02*
X163755900Y-198300000D01*
X347520000Y-206580000D02*
X345964100Y-206580000D01*
X345964100Y-206580000D02*
X344145600Y-208398500D01*
X344145600Y-208398500D02*
X173854400Y-208398500D01*
X173854400Y-208398500D02*
X163755900Y-198300000D01*
X192968400Y-128183200D02*
X199997400Y-128183200D01*
X199997400Y-128183200D02*
X200833500Y-127347100D01*
X200833500Y-127347100D02*
X213009000Y-127347100D01*
X213009000Y-127347100D02*
X213963900Y-126392200D01*
X362801000Y-188447700D02*
X356197800Y-195050900D01*
X356197800Y-195050900D02*
X345467100Y-195050900D01*
X345467100Y-195050900D02*
X344831500Y-194415300D01*
X344831500Y-194415300D02*
X343744700Y-194415300D01*
X343744700Y-194415300D02*
X343010000Y-195150000D01*
X343010000Y-195150000D02*
X334992600Y-195150000D01*
X334992600Y-195150000D02*
X332899700Y-197242900D01*
X332899700Y-197242900D02*
X246485400Y-197242900D01*
X246485400Y-197242900D02*
X246112500Y-196870000D01*
X246112500Y-196870000D02*
X192475300Y-196870000D01*
X192475300Y-196870000D02*
X190495300Y-194890000D01*
X190495300Y-194890000D02*
X173045900Y-194890000D01*
X173045900Y-194890000D02*
X171375900Y-193220000D01*
X170220000Y-193220000D02*
X171375900Y-193220000D01*
X53040000Y-154280000D02*
X56273600Y-154280000D01*
X56273600Y-154280000D02*
X65313600Y-145240000D01*
X65313600Y-145240000D02*
X70029000Y-145240000D01*
X70029000Y-145240000D02*
X72735400Y-142533600D01*
X331053400Y-129346100D02*
X330252700Y-130146800D01*
X330252700Y-130146800D02*
X297188400Y-130146800D01*
X297188400Y-130146800D02*
X295829900Y-131505300D01*
X295829900Y-131505300D02*
X254451200Y-131505300D01*
X254451200Y-131505300D02*
X251395900Y-128450000D01*
X210292700Y-133738700D02*
X204894600Y-133738700D01*
X204894600Y-133738700D02*
X204795900Y-133640000D01*
X249084100Y-128450000D02*
X245369900Y-132164200D01*
X245369900Y-132164200D02*
X215649800Y-132164200D01*
X215649800Y-132164200D02*
X214075300Y-133738700D01*
X214075300Y-133738700D02*
X210292700Y-133738700D01*
X135184100Y-125359000D02*
X135184100Y-127314800D01*
X135184100Y-127314800D02*
X135879300Y-128010000D01*
X135879300Y-128010000D02*
X137575200Y-128010000D01*
X137575200Y-128010000D02*
X138323700Y-128758500D01*
X138323700Y-128758500D02*
X138323700Y-130057500D01*
X138323700Y-130057500D02*
X140580000Y-132313800D01*
X140580000Y-132313800D02*
X172557900Y-132313800D01*
X172557900Y-132313800D02*
X173884100Y-133640000D01*
X135184100Y-125359000D02*
X122907100Y-125359000D01*
X112582200Y-123926200D02*
X90646400Y-123926200D01*
X90646400Y-123926200D02*
X88382600Y-126190000D01*
X88382600Y-126190000D02*
X82140000Y-126190000D01*
X135184100Y-124200000D02*
X135184100Y-125359000D01*
X337644100Y-110380000D02*
X335653700Y-112370400D01*
X335653700Y-112370400D02*
X335653700Y-114672900D01*
X335653700Y-114672900D02*
X332097200Y-118229400D01*
X332097200Y-118229400D02*
X331582400Y-118229400D01*
X176195900Y-133640000D02*
X177363600Y-132472300D01*
X177363600Y-132472300D02*
X201316400Y-132472300D01*
X201316400Y-132472300D02*
X202484100Y-133640000D01*
X339200000Y-110380000D02*
X337644100Y-110380000D01*
X203640000Y-133640000D02*
X204795900Y-133640000D01*
X175040000Y-133640000D02*
X173884100Y-133640000D01*
X136740000Y-124200000D02*
X135184100Y-124200000D01*
X175040000Y-133640000D02*
X176195900Y-133640000D01*
X203640000Y-133640000D02*
X202484100Y-133640000D01*
X250240000Y-128450000D02*
X251395900Y-128450000D01*
X250240000Y-128450000D02*
X249084100Y-128450000D01*
X197386800Y-113219000D02*
X199434200Y-113219000D01*
X199434200Y-113219000D02*
X201986800Y-115771600D01*
X201986800Y-115771600D02*
X206779800Y-115771600D01*
X206779800Y-115771600D02*
X209309000Y-118300800D01*
X209309000Y-118300800D02*
X247340700Y-118300800D01*
X247340700Y-118300800D02*
X250140100Y-121100200D01*
X191143200Y-105532000D02*
X208755800Y-105532000D01*
X208755800Y-105532000D02*
X209916300Y-106692500D01*
X209916300Y-106692500D02*
X217170800Y-106692500D01*
X217170800Y-106692500D02*
X217673300Y-106190000D01*
X217673300Y-106190000D02*
X219617100Y-106190000D01*
X219617100Y-106190000D02*
X219926300Y-105880800D01*
X219926300Y-105880800D02*
X226209700Y-105880800D01*
X226209700Y-105880800D02*
X231245200Y-110916300D01*
X231245200Y-110916300D02*
X257151400Y-110916300D01*
X257151400Y-110916300D02*
X258295300Y-112060200D01*
X340911700Y-112097800D02*
X340911700Y-113299700D01*
X340911700Y-113299700D02*
X339907300Y-114304100D01*
X339907300Y-114304100D02*
X338321300Y-114304100D01*
X338321300Y-114304100D02*
X333094800Y-119530600D01*
X333094800Y-119530600D02*
X325590200Y-119530600D01*
X325590200Y-119530600D02*
X325536300Y-119476700D01*
X325536300Y-119476700D02*
X324765500Y-119476700D01*
X324765500Y-119476700D02*
X324459400Y-119782800D01*
X324459400Y-119782800D02*
X303105500Y-119782800D01*
X303105500Y-119782800D02*
X302719100Y-119396400D01*
X302719100Y-119396400D02*
X279892000Y-119396400D01*
X279892000Y-119396400D02*
X278674900Y-120613500D01*
X278674900Y-120613500D02*
X271362000Y-120613500D01*
X271362000Y-120613500D02*
X270981000Y-120994500D01*
X270981000Y-120994500D02*
X269938900Y-120994500D01*
X269938900Y-120994500D02*
X269557900Y-120613500D01*
X269557900Y-120613500D02*
X259101300Y-120613500D01*
X259101300Y-120613500D02*
X258295300Y-119807500D01*
X262412700Y-157533400D02*
X261016100Y-158930000D01*
X261016100Y-158930000D02*
X250240000Y-158930000D01*
X275220000Y-137940000D02*
X270842300Y-137940000D01*
X270842300Y-137940000D02*
X269686300Y-136784000D01*
X269686300Y-136784000D02*
X266641400Y-136784000D01*
X266641400Y-136784000D02*
X265428400Y-137997000D01*
X265428400Y-137997000D02*
X265428400Y-138553100D01*
X275220000Y-130320000D02*
X279378300Y-130320000D01*
X279378300Y-130320000D02*
X279388600Y-130330300D01*
X209421600Y-146220000D02*
X214862500Y-146220000D01*
X214862500Y-146220000D02*
X216208500Y-144874000D01*
X216208500Y-144874000D02*
X232660100Y-144874000D01*
X232660100Y-144874000D02*
X233844100Y-143690000D01*
X235000000Y-143690000D02*
X233844100Y-143690000D01*
X269389200Y-165523800D02*
X270997500Y-167132100D01*
X270997500Y-167132100D02*
X271345000Y-167132100D01*
X244511100Y-114997100D02*
X245337300Y-115823300D01*
X245337300Y-115823300D02*
X254521300Y-115823300D01*
X254521300Y-115823300D02*
X254841700Y-115502900D01*
X308144100Y-112920000D02*
X306945600Y-114118500D01*
X306945600Y-114118500D02*
X287217600Y-114118500D01*
X287217600Y-114118500D02*
X284900400Y-111801300D01*
X284900400Y-111801300D02*
X284237300Y-111801300D01*
X284237300Y-111801300D02*
X284002400Y-112036200D01*
X284002400Y-112036200D02*
X268724200Y-112036200D01*
X268724200Y-112036200D02*
X265257500Y-115502900D01*
X265257500Y-115502900D02*
X254841700Y-115502900D01*
X250240000Y-166550000D02*
X249084100Y-166550000D01*
X243225000Y-166108800D02*
X248642900Y-166108800D01*
X248642900Y-166108800D02*
X249084100Y-166550000D01*
X223900000Y-80960000D02*
X222344100Y-80960000D01*
X216761700Y-79101400D02*
X220485500Y-79101400D01*
X220485500Y-79101400D02*
X222344100Y-80960000D01*
X309700000Y-112920000D02*
X308144100Y-112920000D01*
X194505000Y-113619300D02*
X194905100Y-114019400D01*
X194905100Y-114019400D02*
X197718400Y-114019400D01*
X197718400Y-114019400D02*
X197818400Y-113919400D01*
X197818400Y-113919400D02*
X199487500Y-113919400D01*
X199487500Y-113919400D02*
X201797200Y-116229100D01*
X201797200Y-116229100D02*
X205943400Y-116229100D01*
X205943400Y-116229100D02*
X209356500Y-119642200D01*
X209356500Y-119642200D02*
X219799000Y-119642200D01*
X337644100Y-102760000D02*
X336444300Y-101560200D01*
X336444300Y-101560200D02*
X271397900Y-101560200D01*
X271397900Y-101560200D02*
X269884300Y-103073800D01*
X269884300Y-103073800D02*
X266770900Y-103073800D01*
X266770900Y-103073800D02*
X264637600Y-100940500D01*
X264637600Y-100940500D02*
X253120000Y-100940500D01*
X253120000Y-100940500D02*
X252719500Y-101341000D01*
X339200000Y-102760000D02*
X337644100Y-102760000D01*
X196595700Y-104186600D02*
X197483600Y-105074500D01*
X197483600Y-105074500D02*
X208984500Y-105074500D01*
X208984500Y-105074500D02*
X210145000Y-106235000D01*
X210145000Y-106235000D02*
X216981300Y-106235000D01*
X216981300Y-106235000D02*
X217826700Y-105389600D01*
X217826700Y-105389600D02*
X219285500Y-105389600D01*
X192726400Y-116373500D02*
X193073600Y-116720700D01*
X193073600Y-116720700D02*
X205362200Y-116720700D01*
X205362200Y-116720700D02*
X209548700Y-120907200D01*
X209548700Y-120907200D02*
X248815200Y-120907200D01*
X248815200Y-120907200D02*
X249808600Y-121900600D01*
X249808600Y-121900600D02*
X250998900Y-121900600D01*
X250998900Y-121900600D02*
X251371000Y-121528500D01*
X251371000Y-121528500D02*
X269178900Y-121528500D01*
X269178900Y-121528500D02*
X269559900Y-121909500D01*
X269559900Y-121909500D02*
X271360000Y-121909500D01*
X271360000Y-121909500D02*
X271740900Y-121528600D01*
X271740900Y-121528600D02*
X281283400Y-121528600D01*
X281283400Y-121528600D02*
X282157700Y-120654300D01*
X282157700Y-120654300D02*
X301620700Y-120654300D01*
X352900000Y-165160000D02*
X354455900Y-165160000D01*
X360520000Y-170240000D02*
X358964100Y-170240000D01*
X358964100Y-170240000D02*
X354455900Y-165731800D01*
X354455900Y-165731800D02*
X354455900Y-165160000D01*
X360520000Y-165160000D02*
X358964100Y-165160000D01*
X355661300Y-165313300D02*
X358810800Y-165313300D01*
X358810800Y-165313300D02*
X358964100Y-165160000D01*
X360520000Y-167700000D02*
X362075900Y-167700000D01*
X347135300Y-180779300D02*
X352029000Y-180779300D01*
X352029000Y-180779300D02*
X362075900Y-170732400D01*
X362075900Y-170732400D02*
X362075900Y-167700000D01*
X327409200Y-189099900D02*
X326270800Y-189099900D01*
X326270800Y-189099900D02*
X319309900Y-196060800D01*
X319309900Y-196060800D02*
X288153700Y-196060800D01*
X288153700Y-196060800D02*
X280127400Y-188034500D01*
X280127400Y-188034500D02*
X241679300Y-188034500D01*
X241679300Y-188034500D02*
X240584700Y-189129100D01*
X240584700Y-189129100D02*
X216274300Y-189129100D01*
X216274300Y-189129100D02*
X215085200Y-187940000D01*
X215085200Y-187940000D02*
X209500000Y-187940000D01*
X351344100Y-157540000D02*
X332860100Y-176024000D01*
X332860100Y-176024000D02*
X329900400Y-176024000D01*
X352900000Y-157540000D02*
X351344100Y-157540000D01*
X263044600Y-110916500D02*
X258086400Y-110916500D01*
X258086400Y-110916500D02*
X255423200Y-108253300D01*
X255423200Y-108253300D02*
X233271200Y-108253300D01*
X233271200Y-108253300D02*
X228207100Y-103189200D01*
X228207100Y-103189200D02*
X228207100Y-102995200D01*
X228207100Y-102995200D02*
X226491900Y-101280000D01*
X226491900Y-101280000D02*
X223900000Y-101280000D01*
X276775900Y-125240000D02*
X276911000Y-125375100D01*
X276911000Y-125375100D02*
X339689000Y-125375100D01*
X339689000Y-125375100D02*
X352144100Y-112920000D01*
X182120000Y-83500000D02*
X183675900Y-83500000D01*
X183675900Y-83500000D02*
X184831800Y-82344100D01*
X184831800Y-82344100D02*
X220107100Y-82344100D01*
X220107100Y-82344100D02*
X222247300Y-84484300D01*
X275220000Y-125240000D02*
X276775900Y-125240000D01*
X353700000Y-112920000D02*
X352144100Y-112920000D01*
X176055900Y-106360000D02*
X180693700Y-110997800D01*
X180693700Y-110997800D02*
X187232500Y-110997800D01*
X187232500Y-110997800D02*
X189030600Y-109199700D01*
X189030600Y-109199700D02*
X214363700Y-109199700D01*
X214363700Y-109199700D02*
X214829900Y-109665900D01*
X214829900Y-109665900D02*
X219576100Y-109665900D01*
X219576100Y-109665900D02*
X219605100Y-109636900D01*
X270659400Y-123835200D02*
X270638600Y-123856000D01*
X270638600Y-123856000D02*
X243598200Y-123856000D01*
X243598200Y-123856000D02*
X240791400Y-126662800D01*
X240791400Y-126662800D02*
X237949400Y-126662800D01*
X237949400Y-126662800D02*
X235377800Y-124091200D01*
X174500000Y-106360000D02*
X176055900Y-106360000D01*
X352144100Y-102760000D02*
X352144100Y-104609500D01*
X352144100Y-104609500D02*
X347643600Y-109110000D01*
X347643600Y-109110000D02*
X342636100Y-109110000D01*
X342636100Y-109110000D02*
X340096100Y-111650000D01*
X340096100Y-111650000D02*
X338411400Y-111650000D01*
X338411400Y-111650000D02*
X337499300Y-112562100D01*
X337499300Y-112562100D02*
X337499300Y-113474400D01*
X337499300Y-113474400D02*
X331904300Y-119069400D01*
X331904300Y-119069400D02*
X325776000Y-119069400D01*
X325776000Y-119069400D02*
X325671900Y-118965300D01*
X325671900Y-118965300D02*
X325245300Y-118965300D01*
X325245300Y-118965300D02*
X324460600Y-118180600D01*
X324460600Y-118180600D02*
X323797500Y-118180600D01*
X323797500Y-118180600D02*
X323582000Y-118396100D01*
X323582000Y-118396100D02*
X283027500Y-118396100D01*
X283027500Y-118396100D02*
X282456200Y-117824800D01*
X282456200Y-117824800D02*
X272371700Y-117824800D01*
X272371700Y-117824800D02*
X270459900Y-119736600D01*
X353700000Y-102760000D02*
X352144100Y-102760000D01*
X352144100Y-110380000D02*
X348220100Y-114304000D01*
X348220100Y-114304000D02*
X344957000Y-114304000D01*
X344957000Y-114304000D02*
X336129100Y-123131900D01*
X336129100Y-123131900D02*
X291821200Y-123131900D01*
X291821200Y-123131900D02*
X291604200Y-123348900D01*
X353700000Y-110380000D02*
X352144100Y-110380000D01*
X183675900Y-108900000D02*
X187121000Y-108900000D01*
X187121000Y-108900000D02*
X188413500Y-107607500D01*
X188413500Y-107607500D02*
X220437300Y-107607500D01*
X275220000Y-132860000D02*
X276775900Y-132860000D01*
X289797500Y-132599900D02*
X277036000Y-132599900D01*
X277036000Y-132599900D02*
X276775900Y-132860000D01*
X272527900Y-107929600D02*
X270482400Y-107929600D01*
X270482400Y-107929600D02*
X269698300Y-107145500D01*
X269698300Y-107145500D02*
X256922500Y-107145500D01*
X256922500Y-107145500D02*
X256200100Y-106423100D01*
X256200100Y-106423100D02*
X251493500Y-106423100D01*
X251493500Y-106423100D02*
X248014400Y-102944000D01*
X248014400Y-102944000D02*
X233584000Y-102944000D01*
X233584000Y-102944000D02*
X233076000Y-102436000D01*
X233076000Y-102436000D02*
X229151900Y-102436000D01*
X229151900Y-102436000D02*
X225455900Y-98740000D01*
X223900000Y-98740000D02*
X225455900Y-98740000D01*
X182120000Y-108900000D02*
X183675900Y-108900000D01*
X176055900Y-103820000D02*
X176055900Y-104889700D01*
X176055900Y-104889700D02*
X181229900Y-110063700D01*
X181229900Y-110063700D02*
X186604300Y-110063700D01*
X186604300Y-110063700D02*
X188431600Y-108236400D01*
X188431600Y-108236400D02*
X215179300Y-108236400D01*
X215179300Y-108236400D02*
X215350900Y-108408000D01*
X245346900Y-138344900D02*
X247934400Y-138344900D01*
X247934400Y-138344900D02*
X248825300Y-137454000D01*
X248825300Y-137454000D02*
X259216500Y-137454000D01*
X259216500Y-137454000D02*
X261270500Y-135400000D01*
X261270500Y-135400000D02*
X267600000Y-135400000D01*
X223900000Y-88580000D02*
X222344100Y-88580000D01*
X217032600Y-89405700D02*
X221518400Y-89405700D01*
X221518400Y-89405700D02*
X222344100Y-88580000D01*
X350008500Y-129523700D02*
X347875100Y-131657100D01*
X347875100Y-131657100D02*
X298266100Y-131657100D01*
X298266100Y-131657100D02*
X295122600Y-134800600D01*
X295122600Y-134800600D02*
X289534000Y-134800600D01*
X289534000Y-134800600D02*
X289038800Y-135295800D01*
X289038800Y-135295800D02*
X277527200Y-135295800D01*
X277527200Y-135295800D02*
X276261000Y-136562000D01*
X276261000Y-136562000D02*
X270317900Y-136562000D01*
X270317900Y-136562000D02*
X269155900Y-135400000D01*
X267600000Y-135400000D02*
X269155900Y-135400000D01*
X174500000Y-103820000D02*
X176055900Y-103820000D01*
X184658400Y-113389000D02*
X189516800Y-113389000D01*
X189516800Y-113389000D02*
X190544800Y-112361000D01*
X190544800Y-112361000D02*
X196465900Y-112361000D01*
X196465900Y-112361000D02*
X196866000Y-111960900D01*
X196866000Y-111960900D02*
X211723500Y-111960900D01*
X211723500Y-111960900D02*
X214536400Y-114773800D01*
X214536400Y-114773800D02*
X219216600Y-114773800D01*
X348959200Y-126753900D02*
X348959200Y-126953600D01*
X348959200Y-126953600D02*
X344804200Y-131108600D01*
X344804200Y-131108600D02*
X298167500Y-131108600D01*
X298167500Y-131108600D02*
X295124000Y-134152100D01*
X295124000Y-134152100D02*
X289535400Y-134152100D01*
X289535400Y-134152100D02*
X289078000Y-134609500D01*
X289078000Y-134609500D02*
X277566400Y-134609500D01*
X277566400Y-134609500D02*
X276775900Y-135400000D01*
X275220000Y-135400000D02*
X276775900Y-135400000D01*
X242997700Y-134795900D02*
X250844100Y-134795900D01*
X250844100Y-134795900D02*
X251417900Y-134222100D01*
X251417900Y-134222100D02*
X269007600Y-134222100D01*
X269007600Y-134222100D02*
X270185500Y-135400000D01*
X270185500Y-135400000D02*
X275220000Y-135400000D01*
X176055900Y-101280000D02*
X176055900Y-102393200D01*
X176055900Y-102393200D02*
X181229200Y-107566500D01*
X181229200Y-107566500D02*
X187807500Y-107566500D01*
X187807500Y-107566500D02*
X188224000Y-107150000D01*
X188224000Y-107150000D02*
X218322200Y-107150000D01*
X218322200Y-107150000D02*
X218721000Y-106751200D01*
X218721000Y-106751200D02*
X221448800Y-106751200D01*
X344895400Y-129837300D02*
X344128400Y-130604300D01*
X344128400Y-130604300D02*
X298024700Y-130604300D01*
X298024700Y-130604300D02*
X294934500Y-133694500D01*
X294934500Y-133694500D02*
X287261600Y-133694500D01*
X287261600Y-133694500D02*
X286900500Y-134055600D01*
X286900500Y-134055600D02*
X270351500Y-134055600D01*
X270351500Y-134055600D02*
X269155900Y-132860000D01*
X267600000Y-132860000D02*
X266044100Y-132860000D01*
X239714000Y-133825800D02*
X246103500Y-133825800D01*
X246103500Y-133825800D02*
X247569000Y-132360300D01*
X247569000Y-132360300D02*
X265544400Y-132360300D01*
X265544400Y-132360300D02*
X266044100Y-132860000D01*
X268378000Y-132860000D02*
X267600000Y-132860000D01*
X268378000Y-132860000D02*
X269155900Y-132860000D01*
X174500000Y-101280000D02*
X176055900Y-101280000D01*
X352144100Y-105300000D02*
X352144100Y-107133000D01*
X352144100Y-107133000D02*
X347627100Y-111650000D01*
X347627100Y-111650000D02*
X345951900Y-111650000D01*
X345951900Y-111650000D02*
X344967700Y-112634200D01*
X344967700Y-112634200D02*
X344967700Y-113119800D01*
X344967700Y-113119800D02*
X335547000Y-122540500D01*
X335547000Y-122540500D02*
X290431400Y-122540500D01*
X290431400Y-122540500D02*
X288397200Y-124574700D01*
X288397200Y-124574700D02*
X280659500Y-124574700D01*
X222344100Y-93660000D02*
X221074100Y-94930000D01*
X221074100Y-94930000D02*
X212247500Y-94930000D01*
X212247500Y-94930000D02*
X211586900Y-95590600D01*
X211586900Y-95590600D02*
X208986600Y-95590600D01*
X208986600Y-95590600D02*
X208440000Y-95044000D01*
X208440000Y-95044000D02*
X197107200Y-95044000D01*
X197107200Y-95044000D02*
X194567200Y-97584000D01*
X194567200Y-97584000D02*
X178848700Y-97584000D01*
X223900000Y-93660000D02*
X222344100Y-93660000D01*
X225455900Y-93660000D02*
X226611900Y-94816000D01*
X226611900Y-94816000D02*
X232339000Y-94816000D01*
X232339000Y-94816000D02*
X237991100Y-100468100D01*
X237991100Y-100468100D02*
X247479700Y-100468100D01*
X247479700Y-100468100D02*
X251674500Y-104662900D01*
X251674500Y-104662900D02*
X262430400Y-104662900D01*
X262430400Y-104662900D02*
X263168000Y-105400500D01*
X353700000Y-105300000D02*
X352144100Y-105300000D01*
X223900000Y-93660000D02*
X225455900Y-93660000D01*
X280659500Y-139501900D02*
X277141400Y-143020000D01*
X277141400Y-143020000D02*
X275220000Y-143020000D01*
X344089400Y-112853400D02*
X344089400Y-113351000D01*
X344089400Y-113351000D02*
X335357500Y-122082900D01*
X335357500Y-122082900D02*
X288198000Y-122082900D01*
X288198000Y-122082900D02*
X286932900Y-123348000D01*
X286932900Y-123348000D02*
X280367400Y-123348000D01*
X280367400Y-123348000D02*
X279745400Y-123970000D01*
X279745400Y-123970000D02*
X272917300Y-123970000D01*
X272917300Y-123970000D02*
X271647300Y-125240000D01*
X271647300Y-125240000D02*
X267600000Y-125240000D01*
X172944100Y-98740000D02*
X172944100Y-104371800D01*
X172944100Y-104371800D02*
X173548300Y-104976000D01*
X173548300Y-104976000D02*
X175319000Y-104976000D01*
X175319000Y-104976000D02*
X180883200Y-110540200D01*
X180883200Y-110540200D02*
X186774900Y-110540200D01*
X186774900Y-110540200D02*
X188575600Y-108739500D01*
X188575600Y-108739500D02*
X214550500Y-108739500D01*
X214550500Y-108739500D02*
X215019400Y-109208400D01*
X215019400Y-109208400D02*
X217088500Y-109208400D01*
X217088500Y-109208400D02*
X217598400Y-108698500D01*
X267600000Y-125240000D02*
X248895800Y-125240000D01*
X248895800Y-125240000D02*
X246997100Y-127138700D01*
X246997100Y-127138700D02*
X237293000Y-127138700D01*
X237293000Y-127138700D02*
X232008700Y-121854400D01*
X232008700Y-121854400D02*
X217949200Y-121854400D01*
X174500000Y-98740000D02*
X172944100Y-98740000D01*
X121500000Y-144520000D02*
X123055900Y-144520000D01*
X149152000Y-102625800D02*
X162305500Y-102625800D01*
X162305500Y-102625800D02*
X172472100Y-92459200D01*
X172472100Y-92459200D02*
X203655800Y-92459200D01*
X123055900Y-144520000D02*
X123830800Y-143745100D01*
X123830800Y-143745100D02*
X130286500Y-143745100D01*
X130286500Y-143745100D02*
X130704000Y-143327600D01*
X130704000Y-143327600D02*
X147505700Y-143327600D01*
X147505700Y-143327600D02*
X149032000Y-141801300D01*
X137320000Y-198640000D02*
X135764100Y-198640000D01*
X135764100Y-198640000D02*
X134494100Y-197370000D01*
X134494100Y-197370000D02*
X128057200Y-197370000D01*
X128057200Y-197370000D02*
X123877600Y-193190400D01*
X137320000Y-201180000D02*
X135764100Y-201180000D01*
X135764100Y-201180000D02*
X134494100Y-199910000D01*
X134494100Y-199910000D02*
X125774200Y-199910000D01*
X125774200Y-199910000D02*
X120704200Y-194840000D01*
X120704200Y-194840000D02*
X117648000Y-194840000D01*
X117648000Y-194840000D02*
X115762600Y-192954600D01*
X339900000Y-204040000D02*
X341455900Y-204040000D01*
X363620000Y-207420000D02*
X362064100Y-207420000D01*
X362064100Y-207420000D02*
X360908100Y-206264000D01*
X360908100Y-206264000D02*
X352377100Y-206264000D01*
X352377100Y-206264000D02*
X351423100Y-205310000D01*
X351423100Y-205310000D02*
X342725900Y-205310000D01*
X342725900Y-205310000D02*
X341455900Y-204040000D01*
X347520000Y-198960000D02*
X349075900Y-198960000D01*
X363620000Y-202340000D02*
X362064100Y-202340000D01*
X362064100Y-202340000D02*
X360851700Y-201127600D01*
X360851700Y-201127600D02*
X351243500Y-201127600D01*
X351243500Y-201127600D02*
X349075900Y-198960000D01*
X356000000Y-202340000D02*
X357555900Y-202340000D01*
X357555900Y-202340000D02*
X358727900Y-203512000D01*
X358727900Y-203512000D02*
X364490200Y-203512000D01*
X364490200Y-203512000D02*
X368800000Y-199202200D01*
X368800000Y-199202200D02*
X368800000Y-196700000D01*
X193744100Y-129902200D02*
X213262600Y-129902200D01*
X213262600Y-129902200D02*
X216442200Y-126722600D01*
X178142500Y-181813700D02*
X175934000Y-181813700D01*
X175934000Y-181813700D02*
X170777700Y-186970000D01*
X170777700Y-186970000D02*
X169678000Y-186970000D01*
X169678000Y-186970000D02*
X165230300Y-191417700D01*
X165230300Y-191417700D02*
X165230300Y-192293700D01*
X165230300Y-192293700D02*
X163034000Y-194490000D01*
X163034000Y-194490000D02*
X153714600Y-194490000D01*
X153714600Y-194490000D02*
X149462300Y-198742300D01*
X149462300Y-198742300D02*
X143025900Y-198742300D01*
X143025900Y-198742300D02*
X137989700Y-203778500D01*
X137989700Y-203778500D02*
X73022700Y-203778500D01*
X73022700Y-203778500D02*
X69284200Y-200040000D01*
X69284200Y-200040000D02*
X67434600Y-200040000D01*
X67434600Y-200040000D02*
X62234600Y-194840000D01*
X62234600Y-194840000D02*
X55725900Y-194840000D01*
X55725900Y-194840000D02*
X54455900Y-193570000D01*
X53300000Y-188490000D02*
X53300000Y-189645900D01*
X53300000Y-189645900D02*
X53589100Y-189645900D01*
X53589100Y-189645900D02*
X54455900Y-190512700D01*
X54455900Y-190512700D02*
X54455900Y-193570000D01*
X53300000Y-193570000D02*
X54455900Y-193570000D01*
X191054700Y-126146400D02*
X192075700Y-125125400D01*
X192075700Y-125125400D02*
X201611600Y-125125400D01*
X201611600Y-125125400D02*
X201984500Y-124752500D01*
X201984500Y-124752500D02*
X214079400Y-124752500D01*
X214079400Y-124752500D02*
X214941300Y-123890600D01*
X38100000Y-189774100D02*
X37830500Y-189774100D01*
X37830500Y-189774100D02*
X36942200Y-188885800D01*
X36942200Y-188885800D02*
X36942200Y-183155200D01*
X36942200Y-183155200D02*
X48394500Y-171702900D01*
X48394500Y-171702900D02*
X141335800Y-171702900D01*
X141335800Y-171702900D02*
X148337900Y-178705000D01*
X148337900Y-178705000D02*
X175610100Y-178705000D01*
X38100000Y-190930000D02*
X38100000Y-189774100D01*
X38100000Y-196010000D02*
X38100000Y-194854100D01*
X38100000Y-190930000D02*
X38100000Y-192085900D01*
X38100000Y-192085900D02*
X37811000Y-192085900D01*
X37811000Y-192085900D02*
X36942200Y-192954700D01*
X36942200Y-192954700D02*
X36942200Y-193965800D01*
X36942200Y-193965800D02*
X37830500Y-194854100D01*
X37830500Y-194854100D02*
X38100000Y-194854100D01*
X204795900Y-161580000D02*
X205128700Y-161247200D01*
X205128700Y-161247200D02*
X210179900Y-161247200D01*
X215020000Y-93660000D02*
X213464100Y-93660000D01*
X209528600Y-94759500D02*
X210628100Y-93660000D01*
X210628100Y-93660000D02*
X213464100Y-93660000D01*
X203640000Y-161580000D02*
X204795900Y-161580000D01*
X181290100Y-113365800D02*
X183200500Y-111455400D01*
X183200500Y-111455400D02*
X187800900Y-111455400D01*
X187800900Y-111455400D02*
X189560000Y-109696300D01*
X189560000Y-109696300D02*
X213460500Y-109696300D01*
X213460500Y-109696300D02*
X213803500Y-110039300D01*
X182120000Y-96200000D02*
X191500000Y-96200000D01*
X280281600Y-89223700D02*
X279501900Y-88444000D01*
X279501900Y-88444000D02*
X277847300Y-88444000D01*
X277847300Y-88444000D02*
X275818700Y-90472600D01*
X275818700Y-90472600D02*
X274093400Y-90472600D01*
X274093400Y-90472600D02*
X268487600Y-84866800D01*
X268487600Y-84866800D02*
X223017700Y-84866800D01*
X223017700Y-84866800D02*
X222594500Y-85290000D01*
X222594500Y-85290000D02*
X221902100Y-85290000D01*
X221902100Y-85290000D02*
X221382100Y-84770000D01*
X221382100Y-84770000D02*
X201945900Y-84770000D01*
X201945900Y-84770000D02*
X200675900Y-83500000D01*
X199120000Y-83500000D02*
X200675900Y-83500000D01*
X199120000Y-86040000D02*
X200675900Y-86040000D01*
X200675900Y-86040000D02*
X202001900Y-87366000D01*
X202001900Y-87366000D02*
X250405800Y-87366000D01*
X250405800Y-87366000D02*
X252344300Y-85427500D01*
X252344300Y-85427500D02*
X267913000Y-85427500D01*
X267913000Y-85427500D02*
X269044400Y-86558900D01*
X308144100Y-92600000D02*
X307554500Y-92600000D01*
X307554500Y-92600000D02*
X303832600Y-96321900D01*
X303832600Y-96321900D02*
X288157800Y-96321900D01*
X288157800Y-96321900D02*
X286975900Y-95140000D01*
X337644100Y-95140000D02*
X336433200Y-96350900D01*
X336433200Y-96350900D02*
X330256200Y-96350900D01*
X330256200Y-96350900D02*
X326755900Y-92850600D01*
X326755900Y-92850600D02*
X326755900Y-92600000D01*
X309700000Y-92600000D02*
X308144100Y-92600000D01*
X285420000Y-95140000D02*
X286975900Y-95140000D01*
X279355900Y-92600000D02*
X281895900Y-95140000D01*
X281895900Y-95140000D02*
X285420000Y-95140000D01*
X325200000Y-92600000D02*
X323644100Y-92600000D01*
X309700000Y-92600000D02*
X311255900Y-92600000D01*
X311255900Y-92600000D02*
X312639900Y-93984000D01*
X312639900Y-93984000D02*
X322260100Y-93984000D01*
X322260100Y-93984000D02*
X323644100Y-92600000D01*
X276244100Y-92600000D02*
X275720100Y-93124000D01*
X275720100Y-93124000D02*
X250437000Y-93124000D01*
X250437000Y-93124000D02*
X249759000Y-92446000D01*
X249759000Y-92446000D02*
X206647100Y-92446000D01*
X206647100Y-92446000D02*
X204207000Y-90005900D01*
X204207000Y-90005900D02*
X200545900Y-90005900D01*
X200545900Y-90005900D02*
X199120000Y-88580000D01*
X325200000Y-92600000D02*
X326755900Y-92600000D01*
X339200000Y-95140000D02*
X337644100Y-95140000D01*
X277800000Y-92600000D02*
X276244100Y-92600000D01*
X352144100Y-92600000D02*
X350986300Y-93757800D01*
X350986300Y-93757800D02*
X343348300Y-93757800D01*
X343348300Y-93757800D02*
X343174700Y-93584200D01*
X343174700Y-93584200D02*
X342311700Y-93584200D01*
X342311700Y-93584200D02*
X340755900Y-95140000D01*
X339200000Y-95140000D02*
X340755900Y-95140000D01*
X353700000Y-92600000D02*
X352144100Y-92600000D01*
X277800000Y-92600000D02*
X279355900Y-92600000D01*
X201105300Y-89205500D02*
X204053500Y-89205500D01*
X204053500Y-89205500D02*
X204698000Y-89850000D01*
X204698000Y-89850000D02*
X216345000Y-89850000D01*
X216345000Y-89850000D02*
X216701100Y-90206100D01*
X216701100Y-90206100D02*
X221365100Y-90206100D01*
X221365100Y-90206100D02*
X221665100Y-89906100D01*
X221665100Y-89906100D02*
X253649400Y-89906100D01*
X253649400Y-89906100D02*
X255719600Y-87835900D01*
X255719600Y-87835900D02*
X270072900Y-87835900D01*
X270072900Y-87835900D02*
X273193000Y-90956000D01*
X273193000Y-90956000D02*
X290246800Y-90956000D01*
X290246800Y-90956000D02*
X290594100Y-90608700D01*
X290594100Y-90608700D02*
X292025100Y-90608700D01*
X292025100Y-90608700D02*
X293800000Y-92383600D01*
X293800000Y-92383600D02*
X293800000Y-92600000D01*
X277714000Y-110639500D02*
X271400800Y-110639500D01*
X271400800Y-110639500D02*
X269014500Y-108253200D01*
X269014500Y-108253200D02*
X256507500Y-108253200D01*
X256507500Y-108253200D02*
X256050000Y-107795700D01*
X256050000Y-107795700D02*
X249984600Y-107795700D01*
X249984600Y-107795700D02*
X247976000Y-105787100D01*
X247976000Y-105787100D02*
X231452200Y-105787100D01*
X231452200Y-105787100D02*
X228664600Y-102999500D01*
X228664600Y-102999500D02*
X228664600Y-102805700D01*
X228664600Y-102805700D02*
X225868900Y-100010000D01*
X225868900Y-100010000D02*
X201945900Y-100010000D01*
X201945900Y-100010000D02*
X200675900Y-98740000D01*
X328386000Y-114991900D02*
X325555300Y-117822600D01*
X325555300Y-117822600D02*
X324749600Y-117822600D01*
X324749600Y-117822600D02*
X324650100Y-117723100D01*
X324650100Y-117723100D02*
X323608000Y-117723100D01*
X323608000Y-117723100D02*
X323408900Y-117922200D01*
X323408900Y-117922200D02*
X284996700Y-117922200D01*
X284996700Y-117922200D02*
X284665200Y-117590700D01*
X199120000Y-98740000D02*
X200675900Y-98740000D01*
X339200000Y-100220000D02*
X340755900Y-100220000D01*
X330970200Y-106570000D02*
X333614400Y-106570000D01*
X333614400Y-106570000D02*
X336154400Y-104030000D01*
X336154400Y-104030000D02*
X340011900Y-104030000D01*
X340011900Y-104030000D02*
X340755900Y-103286000D01*
X340755900Y-103286000D02*
X340755900Y-100220000D01*
X66900000Y-146510000D02*
X65344100Y-146510000D01*
X65344100Y-146510000D02*
X59877300Y-151976800D01*
X59877300Y-151976800D02*
X59877300Y-156030300D01*
X65344100Y-143970000D02*
X60170900Y-149143200D01*
X66900000Y-143970000D02*
X65344100Y-143970000D01*
X93755900Y-151300000D02*
X94328500Y-151872600D01*
X94328500Y-151872600D02*
X103619300Y-151872600D01*
X92600000Y-151300000D02*
X93755900Y-151300000D01*
X92600000Y-153840000D02*
X103878700Y-153840000D01*
X103878700Y-153840000D02*
X104595100Y-154556400D01*
X66900000Y-136350000D02*
X68455900Y-136350000D01*
X68455900Y-136350000D02*
X69771900Y-135034000D01*
X69771900Y-135034000D02*
X87242100Y-135034000D01*
X87242100Y-135034000D02*
X87425100Y-134851000D01*
X87425100Y-134851000D02*
X98083900Y-134851000D01*
X112500000Y-191030000D02*
X112500000Y-189874100D01*
X98700000Y-178450000D02*
X102961800Y-178450000D01*
X102961800Y-178450000D02*
X103962200Y-179450400D01*
X103962200Y-179450400D02*
X103962200Y-181788400D01*
X103962200Y-181788400D02*
X103531800Y-182218800D01*
X103531800Y-182218800D02*
X103531800Y-182907400D01*
X103531800Y-182907400D02*
X105424400Y-184800000D01*
X105424400Y-184800000D02*
X106737500Y-184800000D01*
X106737500Y-184800000D02*
X111811600Y-189874100D01*
X111811600Y-189874100D02*
X112500000Y-189874100D01*
X93755900Y-156380000D02*
X94078700Y-156702800D01*
X94078700Y-156702800D02*
X105050400Y-156702800D01*
X92600000Y-156380000D02*
X93755900Y-156380000D01*
X98700000Y-180990000D02*
X97544100Y-180990000D01*
X70054400Y-173299000D02*
X74049500Y-177294100D01*
X74049500Y-177294100D02*
X93848200Y-177294100D01*
X93848200Y-177294100D02*
X97544100Y-180990000D01*
X106684100Y-158920000D02*
X105399200Y-157635100D01*
X105399200Y-157635100D02*
X85642900Y-157635100D01*
X107840000Y-158920000D02*
X106684100Y-158920000D01*
X83800000Y-180990000D02*
X85355900Y-180990000D01*
X98700000Y-183530000D02*
X97544100Y-183530000D01*
X97544100Y-183530000D02*
X96388200Y-182374100D01*
X96388200Y-182374100D02*
X86740000Y-182374100D01*
X86740000Y-182374100D02*
X85355900Y-180990000D01*
X83800000Y-180990000D02*
X82244100Y-180990000D01*
X68300000Y-180990000D02*
X69855900Y-180990000D01*
X69855900Y-180990000D02*
X71046400Y-179799500D01*
X71046400Y-179799500D02*
X81053600Y-179799500D01*
X81053600Y-179799500D02*
X82244100Y-180990000D01*
X85185400Y-155178600D02*
X104085400Y-155178600D01*
X104085400Y-155178600D02*
X104294900Y-155388100D01*
X104294900Y-155388100D02*
X105692200Y-155388100D01*
X105692200Y-155388100D02*
X106684100Y-156380000D01*
X107840000Y-156380000D02*
X106684100Y-156380000D01*
X83800000Y-183530000D02*
X82244100Y-183530000D01*
X68300000Y-183530000D02*
X69855900Y-183530000D01*
X69855900Y-183530000D02*
X71046400Y-182339500D01*
X71046400Y-182339500D02*
X81053600Y-182339500D01*
X81053600Y-182339500D02*
X82244100Y-183530000D01*
X82140000Y-143970000D02*
X83695900Y-143970000D01*
X83695900Y-143970000D02*
X84675900Y-144950000D01*
X84675900Y-144950000D02*
X104147500Y-144950000D01*
X104147500Y-144950000D02*
X106195100Y-146997600D01*
X83800000Y-186070000D02*
X82244100Y-186070000D01*
X68300000Y-186070000D02*
X69855900Y-186070000D01*
X69855900Y-186070000D02*
X71066800Y-184859100D01*
X71066800Y-184859100D02*
X81033200Y-184859100D01*
X81033200Y-184859100D02*
X82244100Y-186070000D01*
X83695900Y-146510000D02*
X84614500Y-147428600D01*
X84614500Y-147428600D02*
X105494200Y-147428600D01*
X105494200Y-147428600D02*
X105863600Y-147798000D01*
X105863600Y-147798000D02*
X106526700Y-147798000D01*
X106526700Y-147798000D02*
X106734500Y-147590200D01*
X106734500Y-147590200D02*
X108311800Y-147590200D01*
X108311800Y-147590200D02*
X109022700Y-148301100D01*
X109022700Y-148301100D02*
X109022700Y-149230800D01*
X109022700Y-149230800D02*
X108109400Y-150144100D01*
X108109400Y-150144100D02*
X107840000Y-150144100D01*
X107840000Y-151300000D02*
X107840000Y-150144100D01*
X82140000Y-146510000D02*
X83695900Y-146510000D01*
X83800000Y-188610000D02*
X82244100Y-188610000D01*
X68300000Y-188610000D02*
X69855900Y-188610000D01*
X69855900Y-188610000D02*
X71046400Y-187419500D01*
X71046400Y-187419500D02*
X81053600Y-187419500D01*
X81053600Y-187419500D02*
X82244100Y-188610000D01*
X83695900Y-149050000D02*
X84590000Y-149944100D01*
X84590000Y-149944100D02*
X105500000Y-149944100D01*
X105500000Y-149944100D02*
X106684100Y-148760000D01*
X107840000Y-148760000D02*
X106684100Y-148760000D01*
X82140000Y-149050000D02*
X83695900Y-149050000D01*
X69855900Y-191150000D02*
X71046400Y-189959500D01*
X71046400Y-189959500D02*
X80406600Y-189959500D01*
X80406600Y-189959500D02*
X81597100Y-191150000D01*
X81597100Y-191150000D02*
X82244100Y-191150000D01*
X83800000Y-191150000D02*
X82244100Y-191150000D01*
X68300000Y-191150000D02*
X69855900Y-191150000D01*
X83800000Y-193690000D02*
X82244100Y-193690000D01*
X68300000Y-193690000D02*
X69855900Y-193690000D01*
X69855900Y-193690000D02*
X71046400Y-194880500D01*
X71046400Y-194880500D02*
X81053600Y-194880500D01*
X81053600Y-194880500D02*
X82244100Y-193690000D01*
X98700000Y-196230000D02*
X97544100Y-196230000D01*
X83800000Y-193690000D02*
X85355900Y-193690000D01*
X85355900Y-193690000D02*
X86625900Y-194960000D01*
X86625900Y-194960000D02*
X96274100Y-194960000D01*
X96274100Y-194960000D02*
X97544100Y-196230000D01*
X82244100Y-197579400D02*
X82244100Y-198770000D01*
X83022100Y-196230000D02*
X82244100Y-197008000D01*
X82244100Y-197008000D02*
X82244100Y-197579400D01*
X69855900Y-198770000D02*
X71046500Y-197579400D01*
X71046500Y-197579400D02*
X82244100Y-197579400D01*
X68300000Y-198770000D02*
X69855900Y-198770000D01*
X83800000Y-198770000D02*
X82244100Y-198770000D01*
X83800000Y-196230000D02*
X83022100Y-196230000D01*
X98700000Y-198770000D02*
X97544100Y-198770000D01*
X83800000Y-198770000D02*
X85355900Y-198770000D01*
X85355900Y-198770000D02*
X86546500Y-197579400D01*
X86546500Y-197579400D02*
X96353500Y-197579400D01*
X96353500Y-197579400D02*
X97544100Y-198770000D01*
X105485600Y-160636500D02*
X105485600Y-159599200D01*
X105485600Y-160636500D02*
X117703100Y-160636500D01*
X117703100Y-160636500D02*
X122532400Y-165465800D01*
X71085800Y-146790900D02*
X71085800Y-147689900D01*
X71085800Y-147689900D02*
X81283500Y-157887600D01*
X81283500Y-157887600D02*
X84356100Y-157887600D01*
X84356100Y-157887600D02*
X87405500Y-160937000D01*
X87405500Y-160937000D02*
X105185100Y-160937000D01*
X105185100Y-160937000D02*
X105485600Y-160636500D01*
X81761200Y-161641400D02*
X108116200Y-161641400D01*
X108116200Y-161641400D02*
X111752500Y-165277700D01*
X92600000Y-148760000D02*
X87737900Y-148760000D01*
X91444100Y-146220000D02*
X91079600Y-146584500D01*
X91079600Y-146584500D02*
X88250500Y-146584500D01*
X92600000Y-146220000D02*
X91444100Y-146220000D01*
X91444100Y-143680000D02*
X91358100Y-143766000D01*
X91358100Y-143766000D02*
X88721300Y-143766000D01*
X92600000Y-143680000D02*
X91444100Y-143680000D01*
X91444100Y-141140000D02*
X90884500Y-141699600D01*
X90884500Y-141699600D02*
X89178800Y-141699600D01*
X92600000Y-141140000D02*
X91444100Y-141140000D01*
X91444100Y-138600000D02*
X90965200Y-139078900D01*
X90965200Y-139078900D02*
X86902000Y-139078900D01*
X86902000Y-139078900D02*
X86425000Y-139555900D01*
X92600000Y-138600000D02*
X91444100Y-138600000D01*
X92600000Y-136060000D02*
X87051500Y-136060000D01*
X87051500Y-136060000D02*
X85560100Y-137551400D01*
X94229200Y-160125600D02*
X91400200Y-160125600D01*
X112500000Y-198650000D02*
X111344100Y-198650000D01*
X75920000Y-201310000D02*
X77475900Y-201310000D01*
X77475900Y-201310000D02*
X78751900Y-200034000D01*
X78751900Y-200034000D02*
X109960100Y-200034000D01*
X109960100Y-200034000D02*
X111344100Y-198650000D01*
X91420000Y-180990000D02*
X95651300Y-180990000D01*
X95651300Y-180990000D02*
X96816500Y-182155200D01*
X96816500Y-182155200D02*
X99245400Y-182155200D01*
X99245400Y-182155200D02*
X99895500Y-181505100D01*
X99895500Y-181505100D02*
X99895500Y-180538000D01*
X99895500Y-180538000D02*
X98963500Y-179606000D01*
X98963500Y-179606000D02*
X97721400Y-179606000D01*
X97721400Y-179606000D02*
X97533500Y-179418100D01*
X97533500Y-179418100D02*
X97533500Y-175198100D01*
X97533500Y-175198100D02*
X97969600Y-174762000D01*
X92975900Y-188610000D02*
X96785900Y-184800000D01*
X96785900Y-184800000D02*
X99103000Y-184800000D01*
X99103000Y-184800000D02*
X103161700Y-180741300D01*
X103161700Y-180741300D02*
X103161700Y-179807000D01*
X91420000Y-188610000D02*
X92975900Y-188610000D01*
X85454000Y-189825300D02*
X81283700Y-189825300D01*
X81283700Y-189825300D02*
X80165500Y-188707100D01*
X104345600Y-182537000D02*
X104936500Y-181946100D01*
X104936500Y-181946100D02*
X104936500Y-177217700D01*
X104936500Y-177217700D02*
X105665400Y-176488800D01*
X105665400Y-176488800D02*
X105665400Y-173084100D01*
X105665400Y-173084100D02*
X105104900Y-172523600D01*
X53040000Y-156820000D02*
X51884100Y-156820000D01*
X51884100Y-156820000D02*
X45534100Y-150470000D01*
X45534100Y-150470000D02*
X37409000Y-150470000D01*
X37409000Y-150470000D02*
X34919300Y-147980300D01*
X34919300Y-147980300D02*
X34919300Y-142822700D01*
X34919300Y-142822700D02*
X30307900Y-138211300D01*
X30307900Y-138211300D02*
X30307900Y-90563500D01*
X30307900Y-90563500D02*
X38791400Y-82080000D01*
X38791400Y-82080000D02*
X42300000Y-82080000D01*
X176195900Y-120940000D02*
X179454000Y-124198100D01*
X179454000Y-124198100D02*
X181974100Y-124198100D01*
X174178900Y-184718800D02*
X174178900Y-185772500D01*
X174178900Y-185772500D02*
X178330500Y-189924100D01*
X178330500Y-189924100D02*
X178600000Y-189924100D01*
X175040000Y-120940000D02*
X176195900Y-120940000D01*
X178600000Y-191080000D02*
X178600000Y-189924100D01*
X159800000Y-164120000D02*
X160955900Y-164120000D01*
X160955900Y-164120000D02*
X167851300Y-171015400D01*
X167851300Y-171015400D02*
X177802100Y-171015400D01*
X159634100Y-90360000D02*
X159634100Y-90734800D01*
X159634100Y-90734800D02*
X158738900Y-91630000D01*
X158738900Y-91630000D02*
X157862600Y-91630000D01*
X157862600Y-91630000D02*
X157094000Y-92398600D01*
X157094000Y-92398600D02*
X157094000Y-93355100D01*
X157094000Y-93355100D02*
X149324000Y-101125100D01*
X149324000Y-101125100D02*
X146516800Y-101125100D01*
X160840000Y-90360000D02*
X159634100Y-90360000D01*
X162174100Y-92900000D02*
X162174100Y-93805800D01*
X162174100Y-93805800D02*
X154969500Y-101010400D01*
X154969500Y-101010400D02*
X153810400Y-101010400D01*
X163380000Y-92900000D02*
X162174100Y-92900000D01*
X160840000Y-94105900D02*
X154749900Y-100196000D01*
X154749900Y-100196000D02*
X154629800Y-100196000D01*
X160840000Y-92900000D02*
X160840000Y-94105900D01*
X360520000Y-160080000D02*
X362075900Y-160080000D01*
X368500000Y-159080000D02*
X363075900Y-159080000D01*
X363075900Y-159080000D02*
X362075900Y-160080000D01*
X84700000Y-80500000D02*
X95148500Y-90948500D01*
X95148500Y-90948500D02*
X109448500Y-90948500D01*
X109448500Y-90948500D02*
X112600000Y-94100000D01*
X326100000Y-80180000D02*
X322822200Y-83457800D01*
X322822200Y-83457800D02*
X306506000Y-83457800D01*
X306506000Y-83457800D02*
X304490200Y-85473600D01*
X304490200Y-85473600D02*
X295390100Y-85473600D01*
X268555900Y-91740000D02*
X268882200Y-91413700D01*
X268882200Y-91413700D02*
X291597300Y-91413700D01*
X267400000Y-91740000D02*
X268555900Y-91740000D01*
X310860000Y-80180000D02*
X312721000Y-82041000D01*
X312721000Y-82041000D02*
X317599900Y-82041000D01*
X348960000Y-80180000D02*
X343806200Y-85333800D01*
X343806200Y-85333800D02*
X341358400Y-85333800D01*
X346820000Y-97680000D02*
X348375900Y-97680000D01*
X348375900Y-97680000D02*
X352299900Y-93756000D01*
X352299900Y-93756000D02*
X355108300Y-93756000D01*
X355108300Y-93756000D02*
X355256000Y-93608300D01*
X355256000Y-93608300D02*
X355256000Y-91651400D01*
X355256000Y-91651400D02*
X354734700Y-91130100D01*
X354734700Y-91130100D02*
X354464000Y-91130100D01*
X354464000Y-91130100D02*
X353386000Y-90052100D01*
X353386000Y-90052100D02*
X353386000Y-89166200D01*
X353386000Y-89166200D02*
X354637700Y-87914500D01*
X354637700Y-87914500D02*
X355562300Y-87914500D01*
X355562300Y-87914500D02*
X363067600Y-80409200D01*
X363067600Y-80409200D02*
X363067600Y-79640200D01*
X363067600Y-79640200D02*
X363797800Y-78910000D01*
X363797800Y-78910000D02*
X364549500Y-78910000D01*
X364549500Y-78910000D02*
X365333100Y-78126400D01*
X365333100Y-78126400D02*
X365333100Y-76233100D01*
X365333100Y-76233100D02*
X364200000Y-75100000D01*
X339200000Y-107840000D02*
X344451600Y-107840000D01*
X344451600Y-107840000D02*
X345624300Y-106667300D01*
X345624300Y-106667300D02*
X347589700Y-106667300D01*
X347589700Y-106667300D02*
X350239800Y-104017200D01*
X350239800Y-104017200D02*
X350239800Y-103566700D01*
X348375900Y-102760000D02*
X348375900Y-100939600D01*
X348375900Y-100939600D02*
X352905500Y-96410000D01*
X352905500Y-96410000D02*
X354488300Y-96410000D01*
X354488300Y-96410000D02*
X364402000Y-86496300D01*
X364402000Y-86496300D02*
X364402000Y-85493100D01*
X346820000Y-102760000D02*
X348375900Y-102760000D01*
X352928400Y-90806100D02*
X352928400Y-86371600D01*
X352928400Y-86371600D02*
X359120000Y-80180000D01*
X332820000Y-97680000D02*
X328972500Y-97680000D01*
X328972500Y-97680000D02*
X327702500Y-96410000D01*
X327702500Y-96410000D02*
X305182300Y-96410000D01*
X305182300Y-96410000D02*
X305029300Y-96257000D01*
X332820000Y-105300000D02*
X329320600Y-105300000D01*
X329320600Y-105300000D02*
X328050600Y-106570000D01*
X328050600Y-106570000D02*
X322842900Y-106570000D01*
X322842900Y-106570000D02*
X320372600Y-109040300D01*
X320372600Y-109040300D02*
X307606000Y-109040300D01*
X307606000Y-109040300D02*
X305422400Y-106856700D01*
X304923000Y-82779200D02*
X305780000Y-81922200D01*
X305780000Y-81922200D02*
X305780000Y-80180000D01*
X327913800Y-92812900D02*
X329740300Y-90986400D01*
X329740300Y-90986400D02*
X345784900Y-90986400D01*
X345784900Y-90986400D02*
X355171000Y-81600300D01*
X355171000Y-81600300D02*
X355171000Y-74878600D01*
X355171000Y-74878600D02*
X356080600Y-73969000D01*
X356080600Y-73969000D02*
X360529000Y-73969000D01*
X360529000Y-73969000D02*
X361660000Y-75100000D01*
X317320000Y-102760000D02*
X313041800Y-102760000D01*
X306839100Y-86343400D02*
X306839100Y-85665600D01*
X306839100Y-85665600D02*
X307809600Y-84695100D01*
X307809600Y-84695100D02*
X326664900Y-84695100D01*
X326664900Y-84695100D02*
X331180000Y-80180000D01*
X315764100Y-105300000D02*
X314494100Y-104030000D01*
X314494100Y-104030000D02*
X304595400Y-104030000D01*
X317320000Y-105300000D02*
X315764100Y-105300000D01*
X304000100Y-86349300D02*
X305403100Y-86349300D01*
X305403100Y-86349300D02*
X307608500Y-84143900D01*
X307608500Y-84143900D02*
X324676100Y-84143900D01*
X324676100Y-84143900D02*
X328640000Y-80180000D01*
X354040000Y-80180000D02*
X348046500Y-86173500D01*
X348046500Y-86173500D02*
X332041300Y-86173500D01*
X332041300Y-86173500D02*
X330718300Y-87496500D01*
X317320000Y-107840000D02*
X318875900Y-107840000D01*
X318875900Y-107840000D02*
X322571900Y-104144000D01*
X322571900Y-104144000D02*
X329135300Y-104144000D01*
X329227100Y-94137500D02*
X331920600Y-91444000D01*
X331920600Y-91444000D02*
X346946100Y-91444000D01*
X346946100Y-91444000D02*
X357711000Y-80679100D01*
X357711000Y-80679100D02*
X357711000Y-76509000D01*
X357711000Y-76509000D02*
X359120000Y-75100000D01*
X317320000Y-112920000D02*
X313772400Y-112920000D01*
X307926200Y-85772700D02*
X308317600Y-85381300D01*
X308317600Y-85381300D02*
X326625800Y-85381300D01*
X326625800Y-85381300D02*
X330696100Y-81311000D01*
X330696100Y-81311000D02*
X336804800Y-81311000D01*
X336804800Y-81311000D02*
X337391000Y-80724800D01*
X337391000Y-80724800D02*
X337391000Y-77167700D01*
X337391000Y-77167700D02*
X336732300Y-76509000D01*
X336732300Y-76509000D02*
X332589000Y-76509000D01*
X332589000Y-76509000D02*
X331180000Y-75100000D01*
X318875900Y-115460000D02*
X322685900Y-111650000D01*
X322685900Y-111650000D02*
X333610400Y-111650000D01*
X333610400Y-111650000D02*
X337499300Y-107761100D01*
X337499300Y-107761100D02*
X337499300Y-107463200D01*
X337499300Y-107463200D02*
X338392500Y-106570000D01*
X338392500Y-106570000D02*
X340588200Y-106570000D01*
X340588200Y-106570000D02*
X343014200Y-104144000D01*
X343014200Y-104144000D02*
X347948800Y-104144000D01*
X347948800Y-104144000D02*
X350602800Y-101490000D01*
X350602800Y-101490000D02*
X364823000Y-101490000D01*
X364823000Y-101490000D02*
X366879000Y-99434000D01*
X317320000Y-115460000D02*
X318875900Y-115460000D01*
X303329100Y-87793400D02*
X307783700Y-87793400D01*
X307783700Y-87793400D02*
X309738300Y-85838800D01*
X309738300Y-85838800D02*
X327470700Y-85838800D01*
X327470700Y-85838800D02*
X330188400Y-83121100D01*
X330188400Y-83121100D02*
X343478900Y-83121100D01*
X343478900Y-83121100D02*
X346420000Y-80180000D01*
X354040000Y-75100000D02*
X352427400Y-73487400D01*
X352427400Y-73487400D02*
X286900500Y-73487400D01*
X286900500Y-73487400D02*
X283903700Y-76484200D01*
X283903700Y-76484200D02*
X283903700Y-76644400D01*
X361660000Y-80180000D02*
X362838900Y-79001100D01*
X362838900Y-79001100D02*
X362838900Y-74606700D01*
X362838900Y-74606700D02*
X361262000Y-73029800D01*
X361262000Y-73029800D02*
X286375500Y-73029800D01*
X286375500Y-73029800D02*
X281966800Y-77438500D01*
X281966800Y-77438500D02*
X277487700Y-77438500D01*
X277487700Y-77438500D02*
X274685600Y-80240600D01*
X274685600Y-80240600D02*
X274685600Y-89214600D01*
X296311300Y-84555000D02*
X304626200Y-84555000D01*
X304626200Y-84555000D02*
X306193500Y-82987700D01*
X306193500Y-82987700D02*
X318212300Y-82987700D01*
X318212300Y-82987700D02*
X321020000Y-80180000D01*
M02*
