M48
;DRILL file {KiCad 4.0.6} date 08/27/17 12:17:27
;FORMAT={-:-/ absolute / inch / decimal}
FMAT,2
INCH,TZ
T1C0.020
T2C0.023
T3C0.024
T4C0.028
T5C0.031
T6C0.032
T7C0.035
T8C0.039
T9C0.043
T10C0.070
T11C0.087
T12C0.120
%
G90
G05
M72
T1
X5.8502Y-4.95
X5.925Y-4.95
T2
X3.3376Y-4.3125
X3.4128Y-2.8429
X3.4141Y-3.6295
X3.4906Y-4.6599
X3.5121Y-4.7106
X3.5718Y-4.8628
X3.6716Y-3.0188
X3.689Y-4.4654
X3.6917Y-3.692
X3.8454Y-4.7703
X3.892Y-3.2493
X4.0264Y-2.9254
X4.1746Y-3.9436
X4.2536Y-4.2683
X4.2633Y-5.4966
X4.2717Y-3.6917
X4.3146Y-4.1363
X4.388Y-3.2593
X4.4821Y-5.6466
X4.5272Y-3.3915
X4.5637Y-2.6756
X4.6046Y-4.8544
X4.6711Y-3.3842
X4.6881Y-4.7706
X4.6951Y-2.627
X4.8125Y-5.4113
X4.8255Y-4.738
X4.8348Y-3.2129
X4.8487Y-2.4608
X4.8679Y-3.5122
X4.8714Y-4.7429
X4.88Y-4.1879
X4.9179Y-3.2675
X4.9526Y-5.6466
X5.0754Y-3.4547
X5.0996Y-2.4347
X5.1359Y-3.2614
X5.1512Y-5.078
X5.206Y-4.3045
X5.2121Y-5.5835
X5.2289Y-3.4547
X5.2308Y-3.4092
X5.2899Y-3.4908
X5.3446Y-5.4007
X5.3455Y-5.4604
X5.3837Y-5.0489
X5.4116Y-2.8543
X5.4306Y-2.636
X5.4355Y-5.0288
X5.4478Y-2.8174
X5.4631Y-5.4415
X5.4726Y-2.7042
X5.4972Y-3.3088
X5.4972Y-3.4544
X5.5155Y-5.3919
X5.5311Y-2.5709
X5.535Y-2.6339
X5.5388Y-3.2537
X5.5486Y-3.5781
X5.5937Y-2.538
X5.6154Y-5.0637
X5.6488Y-2.9182
X5.6513Y-2.7098
X5.6819Y-4.4257
X5.6839Y-2.6773
X5.6915Y-2.9617
X5.7073Y-3.5781
X5.7349Y-4.7157
X5.7673Y-2.9795
X5.7798Y-4.1079
X5.8012Y-5.5099
X5.8057Y-2.6366
X5.8148Y-2.9842
X5.8198Y-3.0295
X5.832Y-5.7456
X5.8538Y-3.6262
X5.857Y-2.7345
X5.8891Y-4.1154
X5.9242Y-3.0328
X5.94Y-4.39
X5.9529Y-3.2411
X5.9686Y-2.9977
X6.0036Y-4.0648
X6.0238Y-2.6546
X6.0338Y-5.9684
X6.0425Y-2.9865
X6.0478Y-4.0921
X6.1838Y-2.943
X6.2037Y-5.1309
X6.3094Y-3.9611
X6.3425Y-5.0831
X6.3789Y-4.3163
X6.4394Y-2.484
X6.4552Y-5.0642
X6.4804Y-2.4241
X6.4822Y-2.5049
X6.4907Y-2.712
X6.5143Y-2.4556
X6.5263Y-2.3681
X6.5325Y-4.3462
X6.5486Y-5.1519
X6.5551Y-3.2202
X6.5999Y-3.443
X6.6825Y-2.9442
X6.6885Y-2.4629
X6.7031Y-5.7359
X6.7113Y-4.0723
X6.7116Y-4.2157
X6.7373Y-4.3772
X6.7866Y-2.3642
X6.7876Y-4.4337
X6.8562Y-2.3934
X6.8702Y-3.271
X6.9036Y-4.818
X6.9342Y-3.6297
X6.9405Y-3.0029
X6.9448Y-2.3613
X6.9809Y-5.6728
X7.034Y-3.5311
X7.0358Y-4.6479
X7.0894Y-3.1556
X7.1259Y-5.0912
X7.132Y-3.8274
X7.1791Y-2.3287
X7.2113Y-4.5601
X7.2123Y-5.0595
X7.2225Y-3.1859
X7.2521Y-5.32
X7.2552Y-2.6805
X7.3058Y-3.8486
X7.3173Y-3.3225
X7.3685Y-4.6338
X7.4006Y-2.6782
X7.5097Y-4.3444
X7.5191Y-3.798
X7.5448Y-3.4558
X7.5653Y-4.2573
X7.5767Y-2.3107
X7.5897Y-3.9149
X7.5922Y-4.8268
X7.6171Y-3.2397
X7.6333Y-3.3589
X7.6691Y-3.4027
X7.7526Y-2.352
X7.8654Y-2.3509
X7.9113Y-4.1699
X7.9168Y-4.9221
X7.9668Y-5.4511
X8.1034Y-2.7229
X8.1525Y-4.7634
X8.1956Y-5.2225
X8.2293Y-2.6685
X8.2795Y-2.7
X8.3028Y-3.4389
X8.4037Y-2.4024
X8.4127Y-3.2586
X8.4314Y-4.4461
X8.4529Y-5.2867
X8.4633Y-2.3387
X8.5184Y-3.9159
X8.5251Y-4.6097
X8.5448Y-4.7182
X8.551Y-2.3709
X8.5803Y-3.9081
X8.6313Y-5.2281
X8.739Y-3.7966
X8.7404Y-4.1081
X8.7595Y-4.923
X8.7717Y-4.4
X8.8774Y-3.1881
X8.8833Y-2.4581
T3
X3.25Y-4.4213
X3.25Y-4.5
X3.475Y-5.7213
X3.475Y-5.8
X3.55Y-5.3463
X3.55Y-5.425
X3.55Y-5.5213
X3.55Y-5.6
X3.725Y-5.3463
X3.725Y-5.425
X3.725Y-5.5213
X3.725Y-5.6
X5.575Y-3.3213
X5.575Y-3.4
T4
X3.15Y-3.725
X3.15Y-3.875
X3.15Y-4.05
X3.15Y-4.225
X3.225Y-4.675
X3.225Y-4.975
X3.4Y-4.9425
X3.4Y-5.0409
X3.45Y-3.725
X3.45Y-3.875
X3.45Y-4.05
X3.45Y-4.225
X3.5Y-3.2766
X3.5Y-3.375
X3.505Y-2.8566
X3.505Y-2.955
X3.512Y-4.452
X3.512Y-4.5504
X4.1Y-5.9
X4.1325Y-2.355
X4.1325Y-2.4534
X4.1984Y-5.9
X4.325Y-5.55
X4.325Y-5.6484
X4.3375Y-2.8791
X4.3375Y-2.9775
X4.35Y-3.425
X4.35Y-3.5234
X4.35Y-3.925
X4.35Y-4.0234
X4.35Y-4.45
X4.35Y-4.5484
X4.35Y-5.
X4.35Y-5.0984
X5.425Y-5.55
X5.425Y-5.6484
X5.5Y-2.3266
X5.5Y-2.425
X5.5Y-4.
X5.5Y-4.0984
X5.5Y-4.5516
X5.5Y-4.65
X5.5266Y-4.95
X5.6Y-3.7
X5.625Y-4.95
X5.6984Y-3.7
X5.825Y-3.3016
X5.825Y-3.4
X6.1Y-4.4
X6.1Y-4.4984
X6.15Y-3.925
X6.2484Y-3.925
X7.4016Y-5.
X7.5Y-5.
X7.685Y-5.175
X7.685Y-5.2734
X7.695Y-2.375
X7.695Y-2.4734
X7.7Y-2.9
X7.7Y-2.9984
X7.71Y-3.475
X7.71Y-3.5734
X7.71Y-4.075
X7.71Y-4.1734
X7.71Y-4.625
X7.71Y-4.7234
X8.285Y-5.675
X8.285Y-5.7734
T5
X3.525Y-4.9
X3.525Y-5.2
X3.625Y-2.775
X3.625Y-3.075
X3.625Y-3.3
X3.625Y-3.6
X3.625Y-3.8
X3.625Y-4.1
X3.625Y-4.35
X3.625Y-4.65
X3.625Y-4.9
X3.625Y-5.2
X3.725Y-2.775
X3.725Y-3.075
X3.725Y-3.3
X3.725Y-3.6
X3.725Y-3.8
X3.725Y-4.1
X3.725Y-4.35
X3.725Y-4.65
X3.725Y-4.9
X3.725Y-5.2
X3.825Y-2.775
X3.825Y-3.075
X3.825Y-3.3
X3.825Y-3.6
X3.825Y-3.8
X3.825Y-4.1
X3.825Y-4.35
X3.825Y-4.65
X3.825Y-4.9
X3.825Y-5.2
X3.9Y-5.45
X3.9Y-5.75
X3.925Y-2.775
X3.925Y-3.075
X3.925Y-3.3
X3.925Y-3.6
X3.925Y-3.8
X3.925Y-4.1
X3.925Y-4.35
X3.925Y-4.65
X3.925Y-4.9
X3.925Y-5.2
X4.Y-5.45
X4.Y-5.75
X4.025Y-2.775
X4.025Y-3.075
X4.025Y-3.3
X4.025Y-3.6
X4.025Y-3.8
X4.025Y-4.1
X4.025Y-4.35
X4.025Y-4.65
X4.025Y-4.9
X4.025Y-5.2
X4.1Y-5.45
X4.1Y-5.75
X4.125Y-2.775
X4.125Y-3.075
X4.125Y-3.3
X4.125Y-3.6
X4.125Y-3.8
X4.125Y-4.1
X4.125Y-4.35
X4.125Y-4.65
X4.125Y-4.9
X4.125Y-5.2
X4.2Y-5.45
X4.2Y-5.75
X4.225Y-2.775
X4.225Y-3.075
X4.225Y-3.3
X4.225Y-3.6
X4.225Y-3.8
X4.225Y-4.1
X4.225Y-4.35
X4.225Y-4.65
X4.225Y-4.9
X4.225Y-5.2
X4.25Y-2.25
X4.25Y-2.55
X4.35Y-2.25
X4.35Y-2.55
X4.45Y-2.25
X4.45Y-2.55
X4.45Y-2.775
X4.45Y-3.075
X4.45Y-3.325
X4.45Y-3.625
X4.45Y-3.825
X4.45Y-4.125
X4.45Y-4.35
X4.45Y-4.65
X4.45Y-4.9
X4.45Y-5.2
X4.45Y-5.55
X4.45Y-5.85
X4.55Y-2.25
X4.55Y-2.55
X4.55Y-2.775
X4.55Y-3.075
X4.55Y-3.325
X4.55Y-3.625
X4.55Y-3.825
X4.55Y-4.125
X4.55Y-4.35
X4.55Y-4.65
X4.55Y-4.9
X4.55Y-5.2
X4.55Y-5.55
X4.55Y-5.85
X4.65Y-2.25
X4.65Y-2.55
X4.65Y-2.775
X4.65Y-3.075
X4.65Y-3.325
X4.65Y-3.625
X4.65Y-3.825
X4.65Y-4.125
X4.65Y-4.35
X4.65Y-4.65
X4.65Y-4.9
X4.65Y-5.2
X4.65Y-5.55
X4.65Y-5.85
X4.75Y-2.25
X4.75Y-2.55
X4.75Y-2.775
X4.75Y-3.075
X4.75Y-3.325
X4.75Y-3.625
X4.75Y-3.825
X4.75Y-4.125
X4.75Y-4.35
X4.75Y-4.65
X4.75Y-4.9
X4.75Y-5.2
X4.75Y-5.55
X4.75Y-5.85
X4.85Y-2.25
X4.85Y-2.55
X4.85Y-2.775
X4.85Y-3.075
X4.85Y-3.325
X4.85Y-3.625
X4.85Y-3.825
X4.85Y-4.125
X4.85Y-4.35
X4.85Y-4.65
X4.85Y-4.9
X4.85Y-5.2
X4.85Y-5.55
X4.85Y-5.85
X4.95Y-2.25
X4.95Y-2.55
X4.95Y-2.775
X4.95Y-3.075
X4.95Y-3.325
X4.95Y-3.625
X4.95Y-3.825
X4.95Y-4.125
X4.95Y-4.35
X4.95Y-4.65
X4.95Y-4.9
X4.95Y-5.2
X4.95Y-5.55
X4.95Y-5.85
X5.05Y-2.25
X5.05Y-2.55
X5.05Y-2.775
X5.05Y-3.075
X5.05Y-3.325
X5.05Y-3.625
X5.05Y-3.825
X5.05Y-4.125
X5.05Y-4.35
X5.05Y-4.65
X5.05Y-4.9
X5.05Y-5.2
X5.05Y-5.55
X5.05Y-5.85
X5.15Y-2.25
X5.15Y-2.55
X5.15Y-2.775
X5.15Y-3.075
X5.15Y-3.325
X5.15Y-3.625
X5.15Y-3.825
X5.15Y-4.125
X5.15Y-4.35
X5.15Y-4.65
X5.15Y-4.9
X5.15Y-5.2
X5.15Y-5.55
X5.15Y-5.85
X5.25Y-2.25
X5.25Y-2.55
X5.25Y-2.775
X5.25Y-3.075
X5.25Y-3.325
X5.25Y-3.625
X5.25Y-3.825
X5.25Y-4.125
X5.25Y-4.35
X5.25Y-4.65
X5.25Y-4.9
X5.25Y-5.2
X5.35Y-2.25
X5.35Y-2.55
X5.35Y-2.775
X5.35Y-3.075
X5.35Y-3.325
X5.35Y-3.625
X5.35Y-3.825
X5.35Y-4.125
X5.35Y-4.35
X5.35Y-4.65
X5.35Y-4.9
X5.35Y-5.2
X5.55Y-5.25
X5.55Y-5.85
X5.625Y-3.9
X5.625Y-4.2
X5.625Y-4.475
X5.625Y-4.775
X5.6275Y-2.255
X5.6275Y-2.855
X5.65Y-5.25
X5.65Y-5.85
X5.725Y-3.9
X5.725Y-4.2
X5.725Y-4.475
X5.725Y-4.775
X5.7275Y-2.255
X5.7275Y-2.855
X5.75Y-5.25
X5.75Y-5.85
X5.825Y-3.9
X5.825Y-4.2
X5.825Y-4.475
X5.825Y-4.775
X5.8275Y-2.255
X5.8275Y-2.855
X5.85Y-5.25
X5.85Y-5.85
X5.925Y-3.9
X5.925Y-4.2
X5.925Y-4.475
X5.925Y-4.775
X5.9275Y-2.255
X5.9275Y-2.855
X5.95Y-5.25
X5.95Y-5.85
X5.984Y-3.096
X5.984Y-3.696
X6.0275Y-2.255
X6.0275Y-2.855
X6.05Y-5.25
X6.05Y-5.85
X6.084Y-3.096
X6.084Y-3.696
X6.1275Y-2.255
X6.1275Y-2.855
X6.15Y-5.25
X6.15Y-5.85
X6.184Y-3.096
X6.184Y-3.696
X6.2275Y-2.255
X6.2275Y-2.855
X6.232Y-4.152
X6.232Y-4.752
X6.25Y-5.25
X6.25Y-5.85
X6.284Y-3.096
X6.284Y-3.696
X6.3275Y-2.255
X6.3275Y-2.855
X6.332Y-4.152
X6.332Y-4.752
X6.35Y-5.25
X6.35Y-5.85
X6.384Y-3.096
X6.384Y-3.696
X6.4275Y-2.255
X6.4275Y-2.855
X6.432Y-4.152
X6.432Y-4.752
X6.45Y-5.25
X6.45Y-5.85
X6.484Y-3.096
X6.484Y-3.696
X6.5275Y-2.255
X6.5275Y-2.855
X6.532Y-4.152
X6.532Y-4.752
X6.55Y-5.25
X6.55Y-5.85
X6.584Y-3.096
X6.584Y-3.696
X6.6275Y-2.255
X6.6275Y-2.855
X6.632Y-4.152
X6.632Y-4.752
X6.65Y-5.25
X6.65Y-5.85
X6.684Y-3.096
X6.684Y-3.696
X6.7275Y-2.255
X6.7275Y-2.855
X6.732Y-4.152
X6.732Y-4.752
X6.75Y-5.25
X6.75Y-5.85
X6.784Y-3.096
X6.784Y-3.696
X6.8275Y-2.255
X6.8275Y-2.855
X6.832Y-4.152
X6.832Y-4.752
X6.85Y-5.25
X6.85Y-5.85
X6.884Y-3.096
X6.884Y-3.696
X6.9275Y-2.255
X6.9275Y-2.855
X6.932Y-4.152
X6.932Y-4.752
X6.95Y-5.25
X6.95Y-5.85
X6.984Y-3.096
X6.984Y-3.696
X7.0275Y-2.255
X7.0275Y-2.855
X7.032Y-4.152
X7.032Y-4.752
X7.05Y-5.25
X7.05Y-5.85
X7.084Y-3.096
X7.084Y-3.696
X7.1275Y-2.255
X7.1275Y-2.855
X7.132Y-4.152
X7.132Y-4.752
X7.15Y-5.25
X7.15Y-5.85
X7.184Y-3.096
X7.184Y-3.696
X7.2275Y-2.255
X7.2275Y-2.855
X7.232Y-4.152
X7.232Y-4.752
X7.25Y-5.25
X7.25Y-5.85
X7.284Y-3.096
X7.284Y-3.696
X7.3275Y-2.255
X7.3275Y-2.855
X7.332Y-4.152
X7.332Y-4.752
X7.35Y-5.25
X7.35Y-5.85
X7.384Y-3.096
X7.384Y-3.696
X7.4275Y-2.255
X7.4275Y-2.855
X7.432Y-4.152
X7.432Y-4.752
X7.45Y-5.25
X7.45Y-5.85
X7.484Y-3.096
X7.484Y-3.696
X7.5275Y-2.255
X7.5275Y-2.855
X7.532Y-4.152
X7.532Y-4.752
X7.625Y-5.65
X7.625Y-5.85
X7.725Y-5.65
X7.725Y-5.85
X7.8Y-5.075
X7.8Y-5.375
X7.825Y-2.275
X7.825Y-2.575
X7.825Y-2.8
X7.825Y-3.1
X7.825Y-3.375
X7.825Y-3.675
X7.825Y-3.975
X7.825Y-4.275
X7.825Y-4.525
X7.825Y-4.825
X7.825Y-5.65
X7.825Y-5.85
X7.9Y-5.075
X7.9Y-5.375
X7.925Y-2.275
X7.925Y-2.575
X7.925Y-2.8
X7.925Y-3.1
X7.925Y-3.375
X7.925Y-3.675
X7.925Y-3.975
X7.925Y-4.275
X7.925Y-4.525
X7.925Y-4.825
X7.925Y-5.65
X7.925Y-5.85
X8.Y-5.075
X8.Y-5.375
X8.025Y-2.275
X8.025Y-2.575
X8.025Y-2.8
X8.025Y-3.1
X8.025Y-3.375
X8.025Y-3.675
X8.025Y-3.975
X8.025Y-4.275
X8.025Y-4.525
X8.025Y-4.825
X8.025Y-5.65
X8.025Y-5.85
X8.1Y-5.075
X8.1Y-5.375
X8.125Y-2.275
X8.125Y-2.575
X8.125Y-2.8
X8.125Y-3.1
X8.125Y-3.375
X8.125Y-3.675
X8.125Y-3.975
X8.125Y-4.275
X8.125Y-4.525
X8.125Y-4.825
X8.125Y-5.65
X8.125Y-5.85
X8.2Y-5.075
X8.2Y-5.375
X8.225Y-2.275
X8.225Y-2.575
X8.225Y-2.8
X8.225Y-3.1
X8.225Y-3.375
X8.225Y-3.675
X8.225Y-3.975
X8.225Y-4.275
X8.225Y-4.525
X8.225Y-4.825
X8.3Y-5.075
X8.3Y-5.375
X8.325Y-2.275
X8.325Y-2.575
X8.325Y-2.8
X8.325Y-3.1
X8.325Y-3.375
X8.325Y-3.675
X8.325Y-3.975
X8.325Y-4.275
X8.325Y-4.525
X8.325Y-4.825
X8.4Y-5.075
X8.4Y-5.375
X8.4Y-5.575
X8.4Y-5.875
X8.425Y-2.275
X8.425Y-2.575
X8.425Y-2.8
X8.425Y-3.1
X8.425Y-3.375
X8.425Y-3.675
X8.425Y-3.975
X8.425Y-4.275
X8.425Y-4.525
X8.425Y-4.825
X8.5Y-5.075
X8.5Y-5.375
X8.5Y-5.575
X8.5Y-5.875
X8.525Y-2.275
X8.525Y-2.575
X8.525Y-2.8
X8.525Y-3.1
X8.525Y-3.375
X8.525Y-3.675
X8.525Y-3.975
X8.525Y-4.275
X8.6Y-5.075
X8.6Y-5.375
X8.6Y-5.575
X8.6Y-5.875
X8.625Y-2.275
X8.625Y-2.575
X8.625Y-2.8
X8.625Y-3.1
X8.625Y-3.375
X8.625Y-3.675
X8.625Y-3.975
X8.625Y-4.275
X8.7Y-5.075
X8.7Y-5.375
X8.7Y-5.575
X8.7Y-5.875
X8.725Y-2.275
X8.725Y-2.575
X8.725Y-2.8
X8.725Y-3.1
X8.725Y-3.375
X8.725Y-3.675
X8.725Y-3.975
X8.725Y-4.275
T6
X8.95Y-2.5
X8.95Y-2.6
X8.95Y-2.7
X8.95Y-2.8
X8.95Y-2.9
X8.95Y-3.
X8.95Y-3.1
X8.95Y-3.2
X8.95Y-3.3
X8.95Y-3.4
X8.95Y-3.5
X8.95Y-3.6
X8.95Y-3.7
X8.95Y-3.8
X8.95Y-3.9
X8.95Y-4.
X8.95Y-4.1
X8.95Y-4.2
X8.95Y-4.3
X8.95Y-4.4
X8.95Y-4.5
X8.95Y-4.6
X8.95Y-4.7
X8.95Y-4.8
X8.95Y-4.9
X8.95Y-5.
X8.95Y-5.1
X8.95Y-5.2
X8.95Y-5.3
X8.95Y-5.4
X8.95Y-5.5
X8.95Y-5.6
X9.05Y-2.5
X9.05Y-2.6
X9.05Y-2.7
X9.05Y-2.8
X9.05Y-2.9
X9.05Y-3.
X9.05Y-3.1
X9.05Y-3.2
X9.05Y-3.3
X9.05Y-3.4
X9.05Y-3.5
X9.05Y-3.6
X9.05Y-3.7
X9.05Y-3.8
X9.05Y-3.9
X9.05Y-4.
X9.05Y-4.1
X9.05Y-4.2
X9.05Y-4.3
X9.05Y-4.4
X9.05Y-4.5
X9.05Y-4.6
X9.05Y-4.7
X9.05Y-4.8
X9.05Y-4.9
X9.05Y-5.
X9.05Y-5.1
X9.05Y-5.2
X9.05Y-5.3
X9.05Y-5.4
X9.05Y-5.5
X9.05Y-5.6
X9.15Y-2.5
X9.15Y-2.6
X9.15Y-2.7
X9.15Y-2.8
X9.15Y-2.9
X9.15Y-3.
X9.15Y-3.1
X9.15Y-3.2
X9.15Y-3.3
X9.15Y-3.4
X9.15Y-3.5
X9.15Y-3.6
X9.15Y-3.7
X9.15Y-3.8
X9.15Y-3.9
X9.15Y-4.
X9.15Y-4.1
X9.15Y-4.2
X9.15Y-4.3
X9.15Y-4.4
X9.15Y-4.5
X9.15Y-4.6
X9.15Y-4.7
X9.15Y-4.8
X9.15Y-4.9
X9.15Y-5.
X9.15Y-5.1
X9.15Y-5.2
X9.15Y-5.3
X9.15Y-5.4
X9.15Y-5.5
X9.15Y-5.6
T7
X3.15Y-3.525
X3.225Y-5.1
X3.225Y-5.2
X3.45Y-3.525
T8
X3.2Y-5.525
X3.2Y-5.625
X3.2Y-5.725
X3.2Y-5.825
X3.2Y-5.925
X3.3Y-5.525
X3.3Y-5.625
X3.3Y-5.725
X3.3Y-5.825
X3.3Y-5.925
X3.85Y-2.3
X3.85Y-2.4
X4.45Y-5.375
X4.55Y-5.375
X4.958Y-5.372
X5.058Y-5.372
X5.158Y-5.372
X5.602Y-3.098
X5.702Y-3.098
X5.802Y-3.098
X6.2125Y-4.96
X6.3125Y-4.96
X6.48Y-3.928
X6.58Y-3.928
X6.5975Y-4.96
X6.68Y-3.928
X6.6975Y-4.96
X6.862Y-3.928
X6.962Y-3.928
X7.Y-4.95
X7.062Y-3.928
X7.1Y-4.95
X7.2Y-4.95
X7.254Y-3.93
X7.354Y-3.93
X7.454Y-3.93
X8.625Y-4.575
X8.625Y-4.675
X8.625Y-4.775
X8.75Y-4.575
X8.75Y-4.675
X8.75Y-4.775
T9
X3.175Y-3.1191
X3.175Y-3.375
X3.3522Y-3.1191
X3.3522Y-3.375
T10
X3.274Y-2.283
X3.274Y-2.483
X3.274Y-2.683
X3.274Y-2.883
T11
X3.65Y-2.3
X3.65Y-5.8
T12
X9.25Y-2.3
X9.25Y-5.8
T0
M30
