G04 #@! TF.GenerationSoftware,KiCad,Pcbnew,(5.1.5)-3*
G04 #@! TF.CreationDate,2021-11-18T13:20:43-06:00*
G04 #@! TF.ProjectId,SBC,5342432e-6b69-4636-9164-5f7063625858,rev?*
G04 #@! TF.SameCoordinates,Original*
G04 #@! TF.FileFunction,Soldermask,Bot*
G04 #@! TF.FilePolarity,Negative*
%FSLAX46Y46*%
G04 Gerber Fmt 4.6, Leading zero omitted, Abs format (unit mm)*
G04 Created by KiCad (PCBNEW (5.1.5)-3) date 2021-11-18 13:20:43*
%MOMM*%
%LPD*%
G04 APERTURE LIST*
%ADD10O,2.208000X2.208000*%
%ADD11R,2.208000X2.208000*%
%ADD12C,2.108000*%
%ADD13O,2.108000X2.108000*%
%ADD14R,2.108000X2.108000*%
%ADD15O,1.908000X1.908000*%
%ADD16C,1.908000*%
%ADD17C,3.008000*%
%ADD18R,3.008000X3.008000*%
%ADD19C,3.708000*%
%ADD20R,2.678000X2.678000*%
%ADD21C,3.308000*%
%ADD22O,4.708000X2.608000*%
%ADD23O,2.058000X3.608000*%
%ADD24R,1.608000X2.308000*%
%ADD25C,0.150000*%
%ADD26C,2.008000*%
%ADD27C,1.508000*%
%ADD28O,2.908000X2.108000*%
%ADD29R,2.908000X2.108000*%
%ADD30C,2.848000*%
%ADD31C,2.458000*%
%ADD32C,2.908000*%
%ADD33C,4.508000*%
%ADD34C,2.308000*%
%ADD35R,2.308000X2.308000*%
%ADD36C,1.708000*%
%ADD37R,1.708000X1.708000*%
G04 APERTURE END LIST*
D10*
X166485000Y-74560000D03*
X166485000Y-77100000D03*
X163945000Y-74560000D03*
X163945000Y-77100000D03*
X161405000Y-74560000D03*
X161405000Y-77100000D03*
X158865000Y-74560000D03*
X158865000Y-77100000D03*
X156325000Y-74560000D03*
D11*
X156325000Y-77100000D03*
D12*
X48975000Y-164900000D03*
X43975000Y-164900000D03*
D10*
X304190000Y-79810000D03*
X304190000Y-82350000D03*
X306730000Y-79810000D03*
X306730000Y-82350000D03*
X309270000Y-79810000D03*
X309270000Y-82350000D03*
X311810000Y-79810000D03*
X311810000Y-82350000D03*
X314350000Y-79810000D03*
X314350000Y-82350000D03*
X316890000Y-79810000D03*
X316890000Y-82350000D03*
X319430000Y-79810000D03*
X319430000Y-82350000D03*
X321970000Y-79810000D03*
X321970000Y-82350000D03*
X324510000Y-79810000D03*
X324510000Y-82350000D03*
X327050000Y-79810000D03*
X327050000Y-82350000D03*
X329590000Y-79810000D03*
X329590000Y-82350000D03*
X332130000Y-79810000D03*
X332130000Y-82350000D03*
X334670000Y-79810000D03*
X334670000Y-82350000D03*
X337210000Y-79810000D03*
X337210000Y-82350000D03*
X339750000Y-79810000D03*
X339750000Y-82350000D03*
X342290000Y-79810000D03*
X342290000Y-82350000D03*
X344830000Y-79810000D03*
X344830000Y-82350000D03*
X347370000Y-79810000D03*
X347370000Y-82350000D03*
X349910000Y-79810000D03*
X349910000Y-82350000D03*
X352450000Y-79810000D03*
D11*
X352450000Y-82350000D03*
D13*
X368480000Y-154310000D03*
X353240000Y-187330000D03*
X368480000Y-156850000D03*
X353240000Y-184790000D03*
X368480000Y-159390000D03*
X353240000Y-182250000D03*
X368480000Y-161930000D03*
X353240000Y-179710000D03*
X368480000Y-164470000D03*
X353240000Y-177170000D03*
X368480000Y-167010000D03*
X353240000Y-174630000D03*
X368480000Y-169550000D03*
X353240000Y-172090000D03*
X368480000Y-172090000D03*
X353240000Y-169550000D03*
X368480000Y-174630000D03*
X353240000Y-167010000D03*
X368480000Y-177170000D03*
X353240000Y-164470000D03*
X368480000Y-179710000D03*
X353240000Y-161930000D03*
X368480000Y-182250000D03*
X353240000Y-159390000D03*
X368480000Y-184790000D03*
X353240000Y-156850000D03*
X368480000Y-187330000D03*
D14*
X353240000Y-154310000D03*
D15*
X275950000Y-188300000D03*
D16*
X270870000Y-188300000D03*
D13*
X186220000Y-190160000D03*
X178600000Y-205400000D03*
X186220000Y-192700000D03*
X178600000Y-202860000D03*
X186220000Y-195240000D03*
X178600000Y-200320000D03*
X186220000Y-197780000D03*
X178600000Y-197780000D03*
X186220000Y-200320000D03*
X178600000Y-195240000D03*
X186220000Y-202860000D03*
X178600000Y-192700000D03*
X186220000Y-205400000D03*
D14*
X178600000Y-190160000D03*
D13*
X170340000Y-190190000D03*
X162720000Y-205430000D03*
X170340000Y-192730000D03*
X162720000Y-202890000D03*
X170340000Y-195270000D03*
X162720000Y-200350000D03*
X170340000Y-197810000D03*
X162720000Y-197810000D03*
X170340000Y-200350000D03*
X162720000Y-195270000D03*
X170340000Y-202890000D03*
X162720000Y-192730000D03*
X170340000Y-205430000D03*
D14*
X162720000Y-190190000D03*
D13*
X120678000Y-190320000D03*
X113058000Y-205560000D03*
X120678000Y-192860000D03*
X113058000Y-203020000D03*
X120678000Y-195400000D03*
X113058000Y-200480000D03*
X120678000Y-197940000D03*
X113058000Y-197940000D03*
X120678000Y-200480000D03*
X113058000Y-195400000D03*
X120678000Y-203020000D03*
X113058000Y-192860000D03*
X120678000Y-205560000D03*
D14*
X113058000Y-190320000D03*
D17*
X252190000Y-205560000D03*
X247190000Y-205560000D03*
X242190000Y-205560000D03*
D18*
X237190000Y-205560000D03*
D10*
X164070000Y-103190000D03*
X161530000Y-103190000D03*
D11*
X158990000Y-103190000D03*
D10*
X163380000Y-90360000D03*
X163380000Y-92900000D03*
X160840000Y-90360000D03*
X160840000Y-92900000D03*
X158300000Y-90360000D03*
X158300000Y-92900000D03*
X155760000Y-90360000D03*
X155760000Y-92900000D03*
X153220000Y-90360000D03*
X153220000Y-92900000D03*
X150680000Y-90360000D03*
X150680000Y-92900000D03*
X148140000Y-90360000D03*
X148140000Y-92900000D03*
X145600000Y-90360000D03*
D11*
X145600000Y-92900000D03*
D19*
X217200000Y-138700000D03*
X378400000Y-75400000D03*
X378400000Y-206100000D03*
X32600000Y-206100000D03*
X32600000Y-75400000D03*
D17*
X365725000Y-138075000D03*
D20*
X345725000Y-138075000D03*
D21*
X84700000Y-80500000D03*
X84700000Y-75000000D03*
X82700000Y-72600000D03*
D22*
X59400000Y-74400000D03*
D23*
X59400000Y-78900000D03*
D24*
X62200000Y-93400000D03*
D25*
G36*
X65181403Y-92247936D02*
G01*
X65220426Y-92253724D01*
X65258694Y-92263310D01*
X65295839Y-92276600D01*
X65331501Y-92293468D01*
X65365339Y-92313749D01*
X65397026Y-92337250D01*
X65426257Y-92363743D01*
X65452750Y-92392974D01*
X65476251Y-92424661D01*
X65496532Y-92458499D01*
X65513400Y-92494161D01*
X65526690Y-92531306D01*
X65536276Y-92569574D01*
X65542064Y-92608597D01*
X65544000Y-92648000D01*
X65544000Y-94152000D01*
X65542064Y-94191403D01*
X65536276Y-94230426D01*
X65526690Y-94268694D01*
X65513400Y-94305839D01*
X65496532Y-94341501D01*
X65476251Y-94375339D01*
X65452750Y-94407026D01*
X65426257Y-94436257D01*
X65397026Y-94462750D01*
X65365339Y-94486251D01*
X65331501Y-94506532D01*
X65295839Y-94523400D01*
X65258694Y-94536690D01*
X65220426Y-94546276D01*
X65181403Y-94552064D01*
X65142000Y-94554000D01*
X64338000Y-94554000D01*
X64298597Y-94552064D01*
X64259574Y-94546276D01*
X64221306Y-94536690D01*
X64184161Y-94523400D01*
X64148499Y-94506532D01*
X64114661Y-94486251D01*
X64082974Y-94462750D01*
X64053743Y-94436257D01*
X64027250Y-94407026D01*
X64003749Y-94375339D01*
X63983468Y-94341501D01*
X63966600Y-94305839D01*
X63953310Y-94268694D01*
X63943724Y-94230426D01*
X63937936Y-94191403D01*
X63936000Y-94152000D01*
X63936000Y-92648000D01*
X63937936Y-92608597D01*
X63943724Y-92569574D01*
X63953310Y-92531306D01*
X63966600Y-92494161D01*
X63983468Y-92458499D01*
X64003749Y-92424661D01*
X64027250Y-92392974D01*
X64053743Y-92363743D01*
X64082974Y-92337250D01*
X64114661Y-92313749D01*
X64148499Y-92293468D01*
X64184161Y-92276600D01*
X64221306Y-92263310D01*
X64259574Y-92253724D01*
X64298597Y-92247936D01*
X64338000Y-92246000D01*
X65142000Y-92246000D01*
X65181403Y-92247936D01*
G37*
G36*
X63911403Y-90177936D02*
G01*
X63950426Y-90183724D01*
X63988694Y-90193310D01*
X64025839Y-90206600D01*
X64061501Y-90223468D01*
X64095339Y-90243749D01*
X64127026Y-90267250D01*
X64156257Y-90293743D01*
X64182750Y-90322974D01*
X64206251Y-90354661D01*
X64226532Y-90388499D01*
X64243400Y-90424161D01*
X64256690Y-90461306D01*
X64266276Y-90499574D01*
X64272064Y-90538597D01*
X64274000Y-90578000D01*
X64274000Y-92082000D01*
X64272064Y-92121403D01*
X64266276Y-92160426D01*
X64256690Y-92198694D01*
X64243400Y-92235839D01*
X64226532Y-92271501D01*
X64206251Y-92305339D01*
X64182750Y-92337026D01*
X64156257Y-92366257D01*
X64127026Y-92392750D01*
X64095339Y-92416251D01*
X64061501Y-92436532D01*
X64025839Y-92453400D01*
X63988694Y-92466690D01*
X63950426Y-92476276D01*
X63911403Y-92482064D01*
X63872000Y-92484000D01*
X63068000Y-92484000D01*
X63028597Y-92482064D01*
X62989574Y-92476276D01*
X62951306Y-92466690D01*
X62914161Y-92453400D01*
X62878499Y-92436532D01*
X62844661Y-92416251D01*
X62812974Y-92392750D01*
X62783743Y-92366257D01*
X62757250Y-92337026D01*
X62733749Y-92305339D01*
X62713468Y-92271501D01*
X62696600Y-92235839D01*
X62683310Y-92198694D01*
X62673724Y-92160426D01*
X62667936Y-92121403D01*
X62666000Y-92082000D01*
X62666000Y-90578000D01*
X62667936Y-90538597D01*
X62673724Y-90499574D01*
X62683310Y-90461306D01*
X62696600Y-90424161D01*
X62713468Y-90388499D01*
X62733749Y-90354661D01*
X62757250Y-90322974D01*
X62783743Y-90293743D01*
X62812974Y-90267250D01*
X62844661Y-90243749D01*
X62878499Y-90223468D01*
X62914161Y-90206600D01*
X62951306Y-90193310D01*
X62989574Y-90183724D01*
X63028597Y-90177936D01*
X63068000Y-90176000D01*
X63872000Y-90176000D01*
X63911403Y-90177936D01*
G37*
D12*
X353000000Y-92475000D03*
X358000000Y-92475000D03*
X337925000Y-92350000D03*
X342925000Y-92350000D03*
X357300000Y-196500000D03*
X362300000Y-196500000D03*
D26*
X90600000Y-102100000D03*
X90600000Y-107000000D03*
D12*
X131400000Y-108500000D03*
X126400000Y-108500000D03*
X47900000Y-108200000D03*
X42900000Y-108200000D03*
X80000000Y-178600000D03*
X85000000Y-178600000D03*
X48700000Y-73900000D03*
X43700000Y-73900000D03*
X131400000Y-91500000D03*
X126400000Y-91500000D03*
X77500000Y-107600000D03*
X72500000Y-107600000D03*
X132000000Y-183325000D03*
X137000000Y-183325000D03*
X102700000Y-122700000D03*
X97700000Y-122700000D03*
X165100000Y-115400000D03*
X170100000Y-115400000D03*
D27*
X368800000Y-196700000D03*
X367100000Y-196700000D03*
D13*
X174850000Y-119630000D03*
X159610000Y-167890000D03*
X174850000Y-122170000D03*
X159610000Y-165350000D03*
X174850000Y-124710000D03*
X159610000Y-162810000D03*
X174850000Y-127250000D03*
X159610000Y-160270000D03*
X174850000Y-129790000D03*
X159610000Y-157730000D03*
X174850000Y-132330000D03*
X159610000Y-155190000D03*
X174850000Y-134870000D03*
X159610000Y-152650000D03*
X174850000Y-137410000D03*
X159610000Y-150110000D03*
X174850000Y-139950000D03*
X159610000Y-147570000D03*
X174850000Y-142490000D03*
X159610000Y-145030000D03*
X174850000Y-145030000D03*
X159610000Y-142490000D03*
X174850000Y-147570000D03*
X159610000Y-139950000D03*
X174850000Y-150110000D03*
X159610000Y-137410000D03*
X174850000Y-152650000D03*
X159610000Y-134870000D03*
X174850000Y-155190000D03*
X159610000Y-132330000D03*
X174850000Y-157730000D03*
X159610000Y-129790000D03*
X174850000Y-160270000D03*
X159610000Y-127250000D03*
X174850000Y-162810000D03*
X159610000Y-124710000D03*
X174850000Y-165350000D03*
X159610000Y-122170000D03*
X174850000Y-167890000D03*
D14*
X159610000Y-119630000D03*
D13*
X203620000Y-119240000D03*
X188380000Y-167500000D03*
X203620000Y-121780000D03*
X188380000Y-164960000D03*
X203620000Y-124320000D03*
X188380000Y-162420000D03*
X203620000Y-126860000D03*
X188380000Y-159880000D03*
X203620000Y-129400000D03*
X188380000Y-157340000D03*
X203620000Y-131940000D03*
X188380000Y-154800000D03*
X203620000Y-134480000D03*
X188380000Y-152260000D03*
X203620000Y-137020000D03*
X188380000Y-149720000D03*
X203620000Y-139560000D03*
X188380000Y-147180000D03*
X203620000Y-142100000D03*
X188380000Y-144640000D03*
X203620000Y-144640000D03*
X188380000Y-142100000D03*
X203620000Y-147180000D03*
X188380000Y-139560000D03*
X203620000Y-149720000D03*
X188380000Y-137020000D03*
X203620000Y-152260000D03*
X188380000Y-134480000D03*
X203620000Y-154800000D03*
X188380000Y-131940000D03*
X203620000Y-157340000D03*
X188380000Y-129400000D03*
X203620000Y-159880000D03*
X188380000Y-126860000D03*
X203620000Y-162420000D03*
X188380000Y-124320000D03*
X203620000Y-164960000D03*
X188380000Y-121780000D03*
X203620000Y-167500000D03*
D14*
X188380000Y-119240000D03*
D13*
X53550000Y-112630000D03*
X38310000Y-160890000D03*
X53550000Y-115170000D03*
X38310000Y-158350000D03*
X53550000Y-117710000D03*
X38310000Y-155810000D03*
X53550000Y-120250000D03*
X38310000Y-153270000D03*
X53550000Y-122790000D03*
X38310000Y-150730000D03*
X53550000Y-125330000D03*
X38310000Y-148190000D03*
X53550000Y-127870000D03*
X38310000Y-145650000D03*
X53550000Y-130410000D03*
X38310000Y-143110000D03*
X53550000Y-132950000D03*
X38310000Y-140570000D03*
X53550000Y-135490000D03*
X38310000Y-138030000D03*
X53550000Y-138030000D03*
X38310000Y-135490000D03*
X53550000Y-140570000D03*
X38310000Y-132950000D03*
X53550000Y-143110000D03*
X38310000Y-130410000D03*
X53550000Y-145650000D03*
X38310000Y-127870000D03*
X53550000Y-148190000D03*
X38310000Y-125330000D03*
X53550000Y-150730000D03*
X38310000Y-122790000D03*
X53550000Y-153270000D03*
X38310000Y-120250000D03*
X53550000Y-155810000D03*
X38310000Y-117710000D03*
X53550000Y-158350000D03*
X38310000Y-115170000D03*
X53550000Y-160890000D03*
D14*
X38310000Y-112630000D03*
D13*
X51751700Y-190230000D03*
X44131700Y-205470000D03*
X51751700Y-192770000D03*
X44131700Y-202930000D03*
X51751700Y-195310000D03*
X44131700Y-200390000D03*
X51751700Y-197850000D03*
X44131700Y-197850000D03*
X51751700Y-200390000D03*
X44131700Y-195310000D03*
X51751700Y-202930000D03*
X44131700Y-192770000D03*
X51751700Y-205470000D03*
D14*
X44131700Y-190230000D03*
D13*
X107780000Y-126820000D03*
X92540000Y-159840000D03*
X107780000Y-129360000D03*
X92540000Y-157300000D03*
X107780000Y-131900000D03*
X92540000Y-154760000D03*
X107780000Y-134440000D03*
X92540000Y-152220000D03*
X107780000Y-136980000D03*
X92540000Y-149680000D03*
X107780000Y-139520000D03*
X92540000Y-147140000D03*
X107780000Y-142060000D03*
X92540000Y-144600000D03*
X107780000Y-144600000D03*
X92540000Y-142060000D03*
X107780000Y-147140000D03*
X92540000Y-139520000D03*
X107780000Y-149680000D03*
X92540000Y-136980000D03*
X107780000Y-152220000D03*
X92540000Y-134440000D03*
X107780000Y-154760000D03*
X92540000Y-131900000D03*
X107780000Y-157300000D03*
X92540000Y-129360000D03*
X107780000Y-159840000D03*
D14*
X92540000Y-126820000D03*
D13*
X103446700Y-182730000D03*
X95826700Y-205590000D03*
X103446700Y-185270000D03*
X95826700Y-203050000D03*
X103446700Y-187810000D03*
X95826700Y-200510000D03*
X103446700Y-190350000D03*
X95826700Y-197970000D03*
X103446700Y-192890000D03*
X95826700Y-195430000D03*
X103446700Y-195430000D03*
X95826700Y-192890000D03*
X103446700Y-197970000D03*
X95826700Y-190350000D03*
X103446700Y-200510000D03*
X95826700Y-187810000D03*
X103446700Y-203050000D03*
X95826700Y-185270000D03*
X103446700Y-205590000D03*
D14*
X95826700Y-182730000D03*
D28*
X86215000Y-182730000D03*
X78595000Y-205590000D03*
X86215000Y-185270000D03*
X78595000Y-203050000D03*
X86215000Y-187810000D03*
X78595000Y-200510000D03*
X86215000Y-190350000D03*
X78595000Y-197970000D03*
X86215000Y-192890000D03*
X78595000Y-195430000D03*
X86215000Y-195430000D03*
X78595000Y-192890000D03*
X86215000Y-197970000D03*
X78595000Y-190350000D03*
X86215000Y-200510000D03*
X78595000Y-187810000D03*
X86215000Y-203050000D03*
X78595000Y-185270000D03*
X86215000Y-205590000D03*
D29*
X78595000Y-182730000D03*
D28*
X68983300Y-182730000D03*
X61363300Y-205590000D03*
X68983300Y-185270000D03*
X61363300Y-203050000D03*
X68983300Y-187810000D03*
X61363300Y-200510000D03*
X68983300Y-190350000D03*
X61363300Y-197970000D03*
X68983300Y-192890000D03*
X61363300Y-195430000D03*
X68983300Y-195430000D03*
X61363300Y-192890000D03*
X68983300Y-197970000D03*
X61363300Y-190350000D03*
X68983300Y-200510000D03*
X61363300Y-187810000D03*
X68983300Y-203050000D03*
X61363300Y-185270000D03*
X68983300Y-205590000D03*
D29*
X61363300Y-182730000D03*
D28*
X81930000Y-111660000D03*
X66690000Y-159920000D03*
X81930000Y-114200000D03*
X66690000Y-157380000D03*
X81930000Y-116740000D03*
X66690000Y-154840000D03*
X81930000Y-119280000D03*
X66690000Y-152300000D03*
X81930000Y-121820000D03*
X66690000Y-149760000D03*
X81930000Y-124360000D03*
X66690000Y-147220000D03*
X81930000Y-126900000D03*
X66690000Y-144680000D03*
X81930000Y-129440000D03*
X66690000Y-142140000D03*
X81930000Y-131980000D03*
X66690000Y-139600000D03*
X81930000Y-134520000D03*
X66690000Y-137060000D03*
X81930000Y-137060000D03*
X66690000Y-134520000D03*
X81930000Y-139600000D03*
X66690000Y-131980000D03*
X81930000Y-142140000D03*
X66690000Y-129440000D03*
X81930000Y-144680000D03*
X66690000Y-126900000D03*
X81930000Y-147220000D03*
X66690000Y-124360000D03*
X81930000Y-149760000D03*
X66690000Y-121820000D03*
X81930000Y-152300000D03*
X66690000Y-119280000D03*
X81930000Y-154840000D03*
X66690000Y-116740000D03*
X81930000Y-157380000D03*
X66690000Y-114200000D03*
X81930000Y-159920000D03*
D29*
X66690000Y-111660000D03*
D28*
X296420000Y-96300000D03*
X288800000Y-119160000D03*
X296420000Y-98840000D03*
X288800000Y-116620000D03*
X296420000Y-101380000D03*
X288800000Y-114080000D03*
X296420000Y-103920000D03*
X288800000Y-111540000D03*
X296420000Y-106460000D03*
X288800000Y-109000000D03*
X296420000Y-109000000D03*
X288800000Y-106460000D03*
X296420000Y-111540000D03*
X288800000Y-103920000D03*
X296420000Y-114080000D03*
X288800000Y-101380000D03*
X296420000Y-116620000D03*
X288800000Y-98840000D03*
X296420000Y-119160000D03*
D29*
X288800000Y-96300000D03*
D28*
X312214000Y-96400000D03*
X304594000Y-119260000D03*
X312214000Y-98940000D03*
X304594000Y-116720000D03*
X312214000Y-101480000D03*
X304594000Y-114180000D03*
X312214000Y-104020000D03*
X304594000Y-111640000D03*
X312214000Y-106560000D03*
X304594000Y-109100000D03*
X312214000Y-109100000D03*
X304594000Y-106560000D03*
X312214000Y-111640000D03*
X304594000Y-104020000D03*
X312214000Y-114180000D03*
X304594000Y-101480000D03*
X312214000Y-116720000D03*
X304594000Y-98940000D03*
X312214000Y-119260000D03*
D29*
X304594000Y-96400000D03*
D28*
X328008000Y-96400000D03*
X320388000Y-119260000D03*
X328008000Y-98940000D03*
X320388000Y-116720000D03*
X328008000Y-101480000D03*
X320388000Y-114180000D03*
X328008000Y-104020000D03*
X320388000Y-111640000D03*
X328008000Y-106560000D03*
X320388000Y-109100000D03*
X328008000Y-109100000D03*
X320388000Y-106560000D03*
X328008000Y-111640000D03*
X320388000Y-104020000D03*
X328008000Y-114180000D03*
X320388000Y-101480000D03*
X328008000Y-116720000D03*
X320388000Y-98940000D03*
X328008000Y-119260000D03*
D29*
X320388000Y-96400000D03*
D28*
X343801000Y-96400000D03*
X336181000Y-119260000D03*
X343801000Y-98940000D03*
X336181000Y-116720000D03*
X343801000Y-101480000D03*
X336181000Y-114180000D03*
X343801000Y-104020000D03*
X336181000Y-111640000D03*
X343801000Y-106560000D03*
X336181000Y-109100000D03*
X343801000Y-109100000D03*
X336181000Y-106560000D03*
X343801000Y-111640000D03*
X336181000Y-104020000D03*
X343801000Y-114180000D03*
X336181000Y-101480000D03*
X343801000Y-116720000D03*
X336181000Y-98940000D03*
X343801000Y-119260000D03*
D29*
X336181000Y-96400000D03*
D28*
X359595000Y-96400000D03*
X351975000Y-119260000D03*
X359595000Y-98940000D03*
X351975000Y-116720000D03*
X359595000Y-101480000D03*
X351975000Y-114180000D03*
X359595000Y-104020000D03*
X351975000Y-111640000D03*
X359595000Y-106560000D03*
X351975000Y-109100000D03*
X359595000Y-109100000D03*
X351975000Y-106560000D03*
X359595000Y-111640000D03*
X351975000Y-104020000D03*
X359595000Y-114180000D03*
X351975000Y-101480000D03*
X359595000Y-116720000D03*
X351975000Y-98940000D03*
X359595000Y-119260000D03*
D29*
X351975000Y-96400000D03*
D28*
X199120000Y-80960000D03*
X191500000Y-103820000D03*
X199120000Y-83500000D03*
X191500000Y-101280000D03*
X199120000Y-86040000D03*
X191500000Y-98740000D03*
X199120000Y-88580000D03*
X191500000Y-96200000D03*
X199120000Y-91120000D03*
X191500000Y-93660000D03*
X199120000Y-93660000D03*
X191500000Y-91120000D03*
X199120000Y-96200000D03*
X191500000Y-88580000D03*
X199120000Y-98740000D03*
X191500000Y-86040000D03*
X199120000Y-101280000D03*
X191500000Y-83500000D03*
X199120000Y-103820000D03*
D29*
X191500000Y-80960000D03*
D28*
X182120000Y-80960000D03*
X174500000Y-108900000D03*
X182120000Y-83500000D03*
X174500000Y-106360000D03*
X182120000Y-86040000D03*
X174500000Y-103820000D03*
X182120000Y-88580000D03*
X174500000Y-101280000D03*
X182120000Y-91120000D03*
X174500000Y-98740000D03*
X182120000Y-93660000D03*
X174500000Y-96200000D03*
X182120000Y-96200000D03*
X174500000Y-93660000D03*
X182120000Y-98740000D03*
X174500000Y-91120000D03*
X182120000Y-101280000D03*
X174500000Y-88580000D03*
X182120000Y-103820000D03*
X174500000Y-86040000D03*
X182120000Y-106360000D03*
X174500000Y-83500000D03*
X182120000Y-108900000D03*
D29*
X174500000Y-80960000D03*
D28*
X215020000Y-80960000D03*
X207400000Y-103820000D03*
X215020000Y-83500000D03*
X207400000Y-101280000D03*
X215020000Y-86040000D03*
X207400000Y-98740000D03*
X215020000Y-88580000D03*
X207400000Y-96200000D03*
X215020000Y-91120000D03*
X207400000Y-93660000D03*
X215020000Y-93660000D03*
X207400000Y-91120000D03*
X215020000Y-96200000D03*
X207400000Y-88580000D03*
X215020000Y-98740000D03*
X207400000Y-86040000D03*
X215020000Y-101280000D03*
X207400000Y-83500000D03*
X215020000Y-103820000D03*
D29*
X207400000Y-80960000D03*
D28*
X137910000Y-187680000D03*
X130290000Y-205460000D03*
X137910000Y-190220000D03*
X130290000Y-202920000D03*
X137910000Y-192760000D03*
X130290000Y-200380000D03*
X137910000Y-195300000D03*
X130290000Y-197840000D03*
X137910000Y-197840000D03*
X130290000Y-195300000D03*
X137910000Y-200380000D03*
X130290000Y-192760000D03*
X137910000Y-202920000D03*
X130290000Y-190220000D03*
X137910000Y-205460000D03*
D29*
X130290000Y-187680000D03*
D28*
X363620000Y-199800000D03*
X356000000Y-207420000D03*
X363620000Y-202340000D03*
X356000000Y-204880000D03*
X363620000Y-204880000D03*
X356000000Y-202340000D03*
X363620000Y-207420000D03*
D29*
X356000000Y-199800000D03*
D28*
X136940000Y-113210000D03*
X121700000Y-161470000D03*
X136940000Y-115750000D03*
X121700000Y-158930000D03*
X136940000Y-118290000D03*
X121700000Y-156390000D03*
X136940000Y-120830000D03*
X121700000Y-153850000D03*
X136940000Y-123370000D03*
X121700000Y-151310000D03*
X136940000Y-125910000D03*
X121700000Y-148770000D03*
X136940000Y-128450000D03*
X121700000Y-146230000D03*
X136940000Y-130990000D03*
X121700000Y-143690000D03*
X136940000Y-133530000D03*
X121700000Y-141150000D03*
X136940000Y-136070000D03*
X121700000Y-138610000D03*
X136940000Y-138610000D03*
X121700000Y-136070000D03*
X136940000Y-141150000D03*
X121700000Y-133530000D03*
X136940000Y-143690000D03*
X121700000Y-130990000D03*
X136940000Y-146230000D03*
X121700000Y-128450000D03*
X136940000Y-148770000D03*
X121700000Y-125910000D03*
X136940000Y-151310000D03*
X121700000Y-123370000D03*
X136940000Y-153850000D03*
X121700000Y-120830000D03*
X136940000Y-156390000D03*
X121700000Y-118290000D03*
X136940000Y-158930000D03*
X121700000Y-115750000D03*
X136940000Y-161470000D03*
D29*
X121700000Y-113210000D03*
D28*
X275510000Y-154420000D03*
X267890000Y-177280000D03*
X275510000Y-156960000D03*
X267890000Y-174740000D03*
X275510000Y-159500000D03*
X267890000Y-172200000D03*
X275510000Y-162040000D03*
X267890000Y-169660000D03*
X275510000Y-164580000D03*
X267890000Y-167120000D03*
X275510000Y-167120000D03*
X267890000Y-164580000D03*
X275510000Y-169660000D03*
X267890000Y-162040000D03*
X275510000Y-172200000D03*
X267890000Y-159500000D03*
X275510000Y-174740000D03*
X267890000Y-156960000D03*
X275510000Y-177280000D03*
D29*
X267890000Y-154420000D03*
D28*
X275030000Y-120950000D03*
X267410000Y-143810000D03*
X275030000Y-123490000D03*
X267410000Y-141270000D03*
X275030000Y-126030000D03*
X267410000Y-138730000D03*
X275030000Y-128570000D03*
X267410000Y-136190000D03*
X275030000Y-131110000D03*
X267410000Y-133650000D03*
X275030000Y-133650000D03*
X267410000Y-131110000D03*
X275030000Y-136190000D03*
X267410000Y-128570000D03*
X275030000Y-138730000D03*
X267410000Y-126030000D03*
X275030000Y-141270000D03*
X267410000Y-123490000D03*
X275030000Y-143810000D03*
D29*
X267410000Y-120950000D03*
D28*
X216990000Y-189800000D03*
X209370000Y-205040000D03*
X216990000Y-192340000D03*
X209370000Y-202500000D03*
X216990000Y-194880000D03*
X209370000Y-199960000D03*
X216990000Y-197420000D03*
X209370000Y-197420000D03*
X216990000Y-199960000D03*
X209370000Y-194880000D03*
X216990000Y-202500000D03*
X209370000Y-192340000D03*
X216990000Y-205040000D03*
D29*
X209370000Y-189800000D03*
D13*
X302355000Y-155795000D03*
X287115000Y-188815000D03*
X302355000Y-158335000D03*
X287115000Y-186275000D03*
X302355000Y-160875000D03*
X287115000Y-183735000D03*
X302355000Y-163415000D03*
X287115000Y-181195000D03*
X302355000Y-165955000D03*
X287115000Y-178655000D03*
X302355000Y-168495000D03*
X287115000Y-176115000D03*
X302355000Y-171035000D03*
X287115000Y-173575000D03*
X302355000Y-173575000D03*
X287115000Y-171035000D03*
X302355000Y-176115000D03*
X287115000Y-168495000D03*
X302355000Y-178655000D03*
X287115000Y-165955000D03*
X302355000Y-181195000D03*
X287115000Y-163415000D03*
X302355000Y-183735000D03*
X287115000Y-160875000D03*
X302355000Y-186275000D03*
X287115000Y-158335000D03*
X302355000Y-188815000D03*
D14*
X287115000Y-155795000D03*
D13*
X250240000Y-128450000D03*
X235000000Y-176710000D03*
X250240000Y-130990000D03*
X235000000Y-174170000D03*
X250240000Y-133530000D03*
X235000000Y-171630000D03*
X250240000Y-136070000D03*
X235000000Y-169090000D03*
X250240000Y-138610000D03*
X235000000Y-166550000D03*
X250240000Y-141150000D03*
X235000000Y-164010000D03*
X250240000Y-143690000D03*
X235000000Y-161470000D03*
X250240000Y-146230000D03*
X235000000Y-158930000D03*
X250240000Y-148770000D03*
X235000000Y-156390000D03*
X250240000Y-151310000D03*
X235000000Y-153850000D03*
X250240000Y-153850000D03*
X235000000Y-151310000D03*
X250240000Y-156390000D03*
X235000000Y-148770000D03*
X250240000Y-158930000D03*
X235000000Y-146230000D03*
X250240000Y-161470000D03*
X235000000Y-143690000D03*
X250240000Y-164010000D03*
X235000000Y-141150000D03*
X250240000Y-166550000D03*
X235000000Y-138610000D03*
X250240000Y-169090000D03*
X235000000Y-136070000D03*
X250240000Y-171630000D03*
X235000000Y-133530000D03*
X250240000Y-174170000D03*
X235000000Y-130990000D03*
X250240000Y-176710000D03*
D14*
X235000000Y-128450000D03*
D13*
X331465000Y-150745000D03*
X316225000Y-188845000D03*
X331465000Y-153285000D03*
X316225000Y-186305000D03*
X331465000Y-155825000D03*
X316225000Y-183765000D03*
X331465000Y-158365000D03*
X316225000Y-181225000D03*
X331465000Y-160905000D03*
X316225000Y-178685000D03*
X331465000Y-163445000D03*
X316225000Y-176145000D03*
X331465000Y-165985000D03*
X316225000Y-173605000D03*
X331465000Y-168525000D03*
X316225000Y-171065000D03*
X331465000Y-171065000D03*
X316225000Y-168525000D03*
X331465000Y-173605000D03*
X316225000Y-165985000D03*
X331465000Y-176145000D03*
X316225000Y-163445000D03*
X331465000Y-178685000D03*
X316225000Y-160905000D03*
X331465000Y-181225000D03*
X316225000Y-158365000D03*
X331465000Y-183765000D03*
X316225000Y-155825000D03*
X331465000Y-186305000D03*
X316225000Y-153285000D03*
X331465000Y-188845000D03*
D14*
X316225000Y-150745000D03*
D13*
X200660000Y-190000000D03*
X193040000Y-205240000D03*
X200660000Y-192540000D03*
X193040000Y-202700000D03*
X200660000Y-195080000D03*
X193040000Y-200160000D03*
X200660000Y-197620000D03*
X193040000Y-197620000D03*
X200660000Y-200160000D03*
X193040000Y-195080000D03*
X200660000Y-202700000D03*
X193040000Y-192540000D03*
X200660000Y-205240000D03*
D14*
X193040000Y-190000000D03*
D30*
X37100000Y-106500000D03*
X34600000Y-96500000D03*
X32100000Y-106500000D03*
X36900000Y-91200000D03*
X34400000Y-81200000D03*
X31900000Y-91200000D03*
D13*
X371300000Y-100540000D03*
X371300000Y-103080000D03*
X371300000Y-105620000D03*
X371300000Y-108160000D03*
X371300000Y-110700000D03*
X371300000Y-113240000D03*
X371300000Y-115780000D03*
X371300000Y-118320000D03*
X371300000Y-120860000D03*
D14*
X371300000Y-123400000D03*
D13*
X380200000Y-88000000D03*
X380200000Y-90540000D03*
X380200000Y-93080000D03*
X380200000Y-95620000D03*
X380200000Y-98160000D03*
D14*
X380200000Y-100700000D03*
D13*
X267400000Y-101900000D03*
X267400000Y-99360000D03*
X267400000Y-96820000D03*
X267400000Y-94280000D03*
X267400000Y-91740000D03*
D14*
X267400000Y-89200000D03*
D13*
X259800000Y-102100000D03*
X259800000Y-99560000D03*
X259800000Y-97020000D03*
X259800000Y-94480000D03*
X259800000Y-91940000D03*
D14*
X259800000Y-89400000D03*
D15*
X213300000Y-153180000D03*
D16*
X213300000Y-148100000D03*
D15*
X217600000Y-162180000D03*
D16*
X217600000Y-157100000D03*
D15*
X81220000Y-98600000D03*
D16*
X86300000Y-98600000D03*
D15*
X81620000Y-94400000D03*
D16*
X86700000Y-94400000D03*
D15*
X91420000Y-92100000D03*
D16*
X96500000Y-92100000D03*
D15*
X32300000Y-134080000D03*
D16*
X32300000Y-129000000D03*
D15*
X90920000Y-96700000D03*
D16*
X96000000Y-96700000D03*
D15*
X32315000Y-141715000D03*
D16*
X32315000Y-136635000D03*
D15*
X32500000Y-149980000D03*
D16*
X32500000Y-144900000D03*
D15*
X71020000Y-94900000D03*
D16*
X76100000Y-94900000D03*
D15*
X71120000Y-89600000D03*
D16*
X76200000Y-89600000D03*
D15*
X68900000Y-80480000D03*
D16*
X68900000Y-75400000D03*
D15*
X72900000Y-80380000D03*
D16*
X72900000Y-75300000D03*
D15*
X213400000Y-162080000D03*
D16*
X213400000Y-157000000D03*
D15*
X290220000Y-195000000D03*
D16*
X295300000Y-195000000D03*
D15*
X279720000Y-194900000D03*
D16*
X284800000Y-194900000D03*
D15*
X270120000Y-194600000D03*
D16*
X275200000Y-194600000D03*
D10*
X48240000Y-100240000D03*
X45700000Y-100240000D03*
X48240000Y-97700000D03*
D11*
X45700000Y-97700000D03*
D28*
X132820000Y-94500000D03*
X125200000Y-102120000D03*
X132820000Y-97040000D03*
X125200000Y-99580000D03*
X132820000Y-99580000D03*
X125200000Y-97040000D03*
X132820000Y-102120000D03*
D29*
X125200000Y-94500000D03*
D28*
X246420000Y-107000000D03*
X238800000Y-114620000D03*
X246420000Y-109540000D03*
X238800000Y-112080000D03*
X246420000Y-112080000D03*
X238800000Y-109540000D03*
X246420000Y-114620000D03*
D29*
X238800000Y-107000000D03*
D10*
X284100000Y-205140000D03*
D11*
X284100000Y-202600000D03*
D13*
X65560000Y-86000000D03*
D12*
X55400000Y-86000000D03*
D10*
X297555000Y-145025000D03*
X295015000Y-145025000D03*
D11*
X292475000Y-145025000D03*
D10*
X326255000Y-141525000D03*
X323715000Y-141525000D03*
D11*
X321175000Y-141525000D03*
D10*
X273700000Y-205380000D03*
X273700000Y-202840000D03*
D11*
X273700000Y-200300000D03*
D31*
X102500000Y-83600000D03*
X97500000Y-86100000D03*
X95000000Y-83600000D03*
X107500000Y-86100000D03*
X110000000Y-83600000D03*
X105000000Y-73600000D03*
X100000000Y-73600000D03*
X102500000Y-88600000D03*
D32*
X110000000Y-78600000D03*
X95000000Y-78600000D03*
D33*
X381020000Y-156460000D03*
X381020000Y-181460000D03*
D12*
X382440000Y-164805000D03*
X382440000Y-167575000D03*
X382440000Y-170345000D03*
X382440000Y-173115000D03*
X379600000Y-163420000D03*
X379600000Y-166190000D03*
X379600000Y-168960000D03*
X379600000Y-171730000D03*
D14*
X379600000Y-174500000D03*
D33*
X380920000Y-119760000D03*
X380920000Y-144760000D03*
D12*
X382340000Y-128105000D03*
X382340000Y-130875000D03*
X382340000Y-133645000D03*
X382340000Y-136415000D03*
X379500000Y-126720000D03*
X379500000Y-129490000D03*
X379500000Y-132260000D03*
X379500000Y-135030000D03*
D14*
X379500000Y-137800000D03*
D10*
X249240000Y-93780000D03*
X246700000Y-93780000D03*
X249240000Y-91240000D03*
X246700000Y-91240000D03*
X249240000Y-88700000D03*
X246700000Y-88700000D03*
X249240000Y-86160000D03*
D11*
X246700000Y-86160000D03*
D34*
X296140000Y-204800000D03*
D35*
X293600000Y-204800000D03*
D36*
X112600000Y-94100000D03*
D37*
X110600000Y-94100000D03*
D36*
X108400000Y-103300000D03*
D37*
X106400000Y-103300000D03*
D12*
X81700000Y-89700000D03*
X86700000Y-89700000D03*
X32000000Y-118800000D03*
X32000000Y-113800000D03*
X54500000Y-100400000D03*
X59500000Y-100400000D03*
D36*
X105900000Y-94700000D03*
D37*
X103900000Y-94700000D03*
D36*
X57400000Y-92700000D03*
D37*
X55400000Y-92700000D03*
D12*
X100600000Y-102000000D03*
X95600000Y-102000000D03*
X100600000Y-106400000D03*
X95600000Y-106400000D03*
X192600000Y-78000000D03*
X197600000Y-78000000D03*
X322300000Y-92550000D03*
X327300000Y-92550000D03*
X268140000Y-117100000D03*
X273140000Y-117100000D03*
X306375000Y-92725000D03*
X311375000Y-92725000D03*
X175400000Y-78100000D03*
X180400000Y-78100000D03*
X208600000Y-78000000D03*
X213600000Y-78000000D03*
X119675000Y-186200000D03*
X114675000Y-186200000D03*
X193700000Y-115100000D03*
X198700000Y-115100000D03*
X45625000Y-185600000D03*
X50625000Y-185600000D03*
X62875000Y-178850000D03*
X67875000Y-178850000D03*
D36*
X146500000Y-207500000D03*
D37*
X144500000Y-207500000D03*
D12*
X210510000Y-186040000D03*
X215510000Y-186040000D03*
X193810000Y-186140000D03*
X198810000Y-186140000D03*
X164010000Y-186440000D03*
X169010000Y-186440000D03*
X321175000Y-146525000D03*
X326175000Y-146525000D03*
D36*
X146500000Y-194200000D03*
D37*
X144500000Y-194200000D03*
D36*
X146500000Y-201000000D03*
D37*
X144500000Y-201000000D03*
D12*
X227490000Y-207390000D03*
X227490000Y-202390000D03*
D36*
X146400000Y-186400000D03*
D37*
X144400000Y-186400000D03*
D12*
X290275000Y-92675000D03*
X295275000Y-92675000D03*
X269000000Y-150900000D03*
X274000000Y-150900000D03*
X97025000Y-179100000D03*
X102025000Y-179100000D03*
D36*
X146400000Y-178900000D03*
D37*
X144400000Y-178900000D03*
D12*
X292075000Y-151625000D03*
X297075000Y-151625000D03*
X179810000Y-186740000D03*
X184810000Y-186740000D03*
X240100000Y-125500000D03*
X245100000Y-125500000D03*
D36*
X264400000Y-195200000D03*
D37*
X262400000Y-195200000D03*
D12*
X240300000Y-104100000D03*
X245300000Y-104100000D03*
D36*
X264400000Y-204100000D03*
D37*
X262400000Y-204100000D03*
M02*
