M48
; DRILL file {KiCad (5.1.5)-3} date 11/18/2021 1:20:47 PM
; FORMAT={-:-/ absolute / inch / decimal}
; #@! TF.CreationDate,2021-11-18T13:20:47-06:00
; #@! TF.GenerationSoftware,Kicad,Pcbnew,(5.1.5)-3
; #@! TF.FileFunction,Plated,1,2,PTH
FMAT,2
INCH
T1C0.0197
T2C0.0230
T3C0.0236
T4C0.0276
T5C0.0295
T6C0.0315
T7C0.0354
T8C0.0394
T9C0.0461
T10C0.0512
T11C0.0591
T12C0.0787
T13C0.1260
%
G90
G05
T1
X14.4528Y-7.7441
X14.5197Y-7.7441
T2
X1.3355Y-5.6643
X1.3495Y-5.0876
X1.5317Y-7.4264
X1.9743Y-5.923
X1.9773Y-6.1402
X2.0388Y-5.7838
X2.1382Y-6.6379
X2.17Y-6.7306
X2.1803Y-6.3779
X2.2076Y-6.3292
X2.2394Y-5.853
X2.2569Y-6.535
X2.2616Y-6.4013
X2.2704Y-6.6115
X2.3483Y-5.2155
X2.3722Y-5.2693
X2.4968Y-6.1215
X2.5502Y-4.9961
X2.6241Y-7.6317
X2.6788Y-6.1499
X2.8365Y-7.4802
X2.923Y-6.8225
X2.9916Y-7.4735
X3.0024Y-6.8881
X3.0523Y-6.8438
X3.1153Y-7.0935
X3.139Y-7.1335
X3.1601Y-4.661
X3.1743Y-6.965
X3.1769Y-6.8907
X3.1878Y-7.5799
X3.2397Y-7.486
X3.2486Y-7.4068
X3.5052Y-3.0232
X3.5216Y-5.4961
X3.547Y-6.3903
X3.5743Y-7.3885
X3.6925Y-4.8985
X3.7405Y-5.7955
X3.7581Y-5.6958
X3.7743Y-6.4366
X3.7765Y-5.1406
X3.7773Y-5.7402
X3.7951Y-5.3724
X3.807Y-6.0731
X3.843Y-6.2739
X3.8968Y-4.3074
X3.8991Y-7.2157
X3.9503Y-4.7435
X3.9617Y-6.0063
X3.9887Y-5.8427
X4.0864Y-5.4405
X4.1345Y-6.1929
X4.1676Y-6.1368
X4.2737Y-7.4001
X4.2741Y-7.3435
X4.2746Y-7.4623
X4.2915Y-5.6294
X4.3094Y-5.3726
X4.3454Y-5.1265
X4.3979Y-6.0062
X4.4767Y-5.2064
X4.4924Y-5.8132
X4.4933Y-5.8929
X4.4952Y-5.0881
X4.5055Y-4.8517
X4.5496Y-7.8932
X4.642Y-6.3799
X4.6439Y-4.4975
X4.677Y-6.1028
X4.7958Y-6.6115
X4.939Y-5.4919
X4.9391Y-5.7571
X4.9557Y-6.3803
X4.9631Y-7.6054
X5.0264Y-4.6667
X5.0601Y-7.7574
X5.1268Y-4.6667
X5.1629Y-5.7536
X5.1873Y-4.6932
X5.2061Y-7.5277
X5.2464Y-4.4022
X5.2519Y-7.3616
X5.2614Y-5.8043
X5.3981Y-7.2902
X5.5229Y-7.689
X5.5928Y-7.599
X5.6025Y-5.2617
X5.6213Y-3.5845
X5.6726Y-6.8405
X5.7604Y-4.7255
X5.7612Y-5.3303
X5.795Y-5.4571
X5.8362Y-4.8201
X5.918Y-5.9834
X5.9351Y-4.883
X5.9397Y-5.6757
X5.9712Y-5.7924
X5.9721Y-5.1902
X5.9847Y-4.9561
X6.0081Y-5.2989
X6.0111Y-5.8522
X6.0441Y-5.3963
X6.0621Y-5.4502
X6.1049Y-5.9921
X6.1485Y-5.8699
X6.1615Y-6.1098
X6.1642Y-5.5713
X6.1972Y-5.1285
X6.2185Y-5.225
X6.2244Y-5.6483
X6.3963Y-6.1826
X6.3983Y-6.2554
X6.4572Y-6.426
X6.4653Y-6.2169
X6.5177Y-4.4571
X6.5445Y-6.4575
X6.6191Y-3.9454
X6.6301Y-6.611
X6.7113Y-6.4975
X6.7857Y-4.4343
X6.7865Y-4.2646
X6.9363Y-6.7988
X6.9692Y-5.0874
X6.9849Y-6.6573
X7.0749Y-6.8463
X7.1248Y-6.5744
X7.1495Y-5.9215
X7.1512Y-6.3552
X7.1609Y-6.4922
X7.1615Y-4.8545
X7.1698Y-6.5562
X7.2248Y-4.9638
X7.243Y-4.7998
X7.2906Y-4.7823
X7.3343Y-4.8023
X7.3384Y-6.3077
X7.3393Y-4.8603
X7.3938Y-3.464
X7.3955Y-4.2664
X7.4017Y-4.1153
X7.4114Y-7.8966
X7.6212Y-4.7139
X7.6215Y-4.8581
X7.6841Y-5.8945
X7.6963Y-4.1335
X7.7091Y-6.3112
X7.7106Y-3.9359
X7.8562Y-5.4786
X7.8567Y-6.2923
X7.8874Y-5.3958
X7.9039Y-6.8618
X7.9511Y-7.1495
X7.9669Y-6.6532
X8.0072Y-4.1342
X8.0851Y-4.9356
X8.0885Y-4.7443
X8.3001Y-3.3118
X8.3144Y-6.5075
X8.3364Y-5.9212
X8.3581Y-3.6021
X8.3661Y-5.9666
X8.3745Y-6.4894
X8.383Y-6.0955
X8.42Y-6.4729
X8.4483Y-6.9061
X8.4868Y-4.7263
X8.5669Y-5.8307
X8.6087Y-6.324
X8.6239Y-5.0606
X8.6402Y-3.8419
X8.687Y-5.9256
X8.7151Y-3.9272
X8.7751Y-3.8418
X8.7855Y-5.564
X8.7905Y-6.1377
X8.8351Y-4.4386
X8.8583Y-3.6274
X8.8743Y-3.7666
X8.8761Y-4.8579
X8.8868Y-5.3803
X8.9019Y-4.5371
X8.9075Y-3.6115
X8.9888Y-6.3964
X9.047Y-4.798
X9.0549Y-6.4815
X9.0554Y-4.3875
X9.0591Y-6.6492
X9.0882Y-3.9326
X9.1123Y-6.5137
X9.1213Y-6.5684
X9.1233Y-7.539
X9.1694Y-3.4304
X9.1707Y-4.0958
X9.177Y-4.977
X9.1981Y-4.4667
X9.2309Y-4.4991
X9.2948Y-4.0228
X9.3508Y-6.2247
X9.4365Y-3.8624
X9.4878Y-3.9586
X9.5749Y-5.0423
X9.5981Y-3.4217
X9.6367Y-7.0685
X9.6787Y-3.2375
X9.7451Y-5.0155
X9.7694Y-3.2578
X9.8944Y-5.2074
X9.9305Y-6.6274
X10.0123Y-4.0182
X10.0902Y-4.5126
X10.1023Y-5.6141
X10.107Y-5.4251
X10.1676Y-3.4209
X10.2072Y-4.1632
X10.2303Y-6.9919
X10.2543Y-5.4623
X10.2862Y-4.7286
X10.2963Y-3.9155
X10.3094Y-5.9177
X10.3138Y-4.1585
X10.3221Y-4.7613
X10.3375Y-5.6316
X10.3388Y-5.3784
X10.3486Y-5.0798
X10.3587Y-4.2897
X10.3596Y-4.1723
X10.3658Y-6.9426
X10.3699Y-4.7503
X10.3814Y-5.7517
X10.3863Y-3.9697
X10.3993Y-4.3636
X10.4086Y-5.9314
X10.4103Y-5.5739
X10.4168Y-5.0469
X10.4231Y-5.6821
X10.432Y-5.3043
X10.434Y-6.4739
X10.4453Y-7.008
X10.4671Y-5.8534
X10.5148Y-4.4248
X10.5891Y-4.6625
X10.613Y-5.5131
X10.6133Y-6.4383
X10.6316Y-5.6697
X10.6479Y-6.3137
X10.6514Y-5.7868
X10.6815Y-5.5426
X10.69Y-4.3655
X10.7124Y-6.934
X10.7402Y-4.4559
X10.7443Y-6.9997
X10.8473Y-5.9197
X10.8763Y-3.4086
X10.9026Y-4.666
X10.9031Y-5.2031
X10.9471Y-4.4537
X10.966Y-7.0771
X10.9727Y-5.6194
X10.9734Y-5.735
X10.997Y-4.4051
X10.9998Y-6.8881
X11.0105Y-4.5452
X11.0298Y-6.2795
X11.0527Y-6.8806
X11.0587Y-6.6793
X11.0841Y-6.1424
X11.091Y-6.0202
X11.0993Y-6.2727
X11.0994Y-6.8577
X11.1231Y-7.4333
X11.1477Y-4.2216
X11.1584Y-7.1938
X11.162Y-4.6859
X11.1624Y-4.316
X11.1767Y-4.0295
X11.2023Y-4.5689
X11.2094Y-4.4051
X11.2376Y-3.9971
X11.2438Y-6.4305
X11.3054Y-3.9294
X11.4829Y-4.8579
X11.5379Y-4.8763
X11.7656Y-5.0117
X11.7689Y-4.6131
X11.8339Y-3.1064
X11.8436Y-3.0394
X11.8764Y-3.0079
X11.8789Y-3.1059
X11.9032Y-5.8302
X11.9043Y-5.9697
X11.9239Y-3.1069
X11.924Y-7.5576
X11.9304Y-5.6519
X11.9764Y-6.6143
X12.0214Y-6.8362
X12.0342Y-7.512
X12.1119Y-4.1787
X12.1381Y-4.4453
X12.1596Y-7.0893
X12.1749Y-7.0316
X12.178Y-5.0917
X12.2085Y-6.632
X12.2304Y-6.5348
X12.2427Y-6.7103
X12.2443Y-6.8256
X12.2668Y-6.4792
X12.269Y-6.3455
X12.3102Y-6.4309
X12.3173Y-3.696
X12.3438Y-3.4656
X12.363Y-6.7418
X12.421Y-5.3062
X12.4404Y-4.2953
X12.4579Y-4.1909
X12.4853Y-5.5913
X12.5021Y-4.3142
X12.5125Y-3.9529
X12.5848Y-5.1612
X12.7069Y-4.1408
X12.7406Y-5.0269
X12.7805Y-3.5608
X12.7891Y-4.4565
X12.8993Y-6.3348
X13.0227Y-4.1076
X13.053Y-5.255
X13.0588Y-5.1408
X13.0759Y-4.9537
X13.1445Y-3.4548
X13.229Y-5.1927
X13.287Y-5.0858
X13.4588Y-5.7469
X13.6202Y-4.8145
X13.6265Y-3.2796
X13.6688Y-4.7891
X13.7656Y-2.8405
X13.7844Y-4.5557
X13.794Y-3.3074
X13.8147Y-2.8366
X13.8899Y-3.5408
X13.893Y-5.2062
X14.4394Y-6.9462
X14.5861Y-5.5159
T3
X5.685Y-7.3386
X5.7638Y-7.3386
X5.689Y-7.9134
X5.7677Y-7.9134
X5.685Y-7.0433
X5.7638Y-7.0433
X4.3543Y-3.7047
X4.4331Y-3.7047
X10.3307Y-8.0354
X10.4094Y-8.0354
X10.3307Y-7.685
X10.4094Y-7.685
X2.1811Y-3.6496
X2.2598Y-3.6496
X5.689Y-7.6457
X5.7677Y-7.6457
X4.0906Y-3.7283
X4.1693Y-3.7283
X5.689Y-8.1693
X5.7677Y-8.1693
X4.189Y-4.0669
X4.2677Y-4.0669
T4
X3.2134Y-3.7165
X3.4134Y-3.7165
X10.6346Y-7.6614
X10.8346Y-7.6614
X11.426Y-7.6772
X11.626Y-7.6772
X2.7126Y-2.9685
X2.7126Y-3.1685
X3.5992Y-3.626
X3.7992Y-3.626
X2.8701Y-2.9646
X2.8701Y-3.1646
X8.4016Y-6.1811
X8.4016Y-6.3811
X3.1976Y-3.8819
X3.3976Y-3.8819
X10.6642Y-7.4134
X10.8642Y-7.4134
X11.0126Y-7.6732
X11.2126Y-7.6732
X2.7961Y-3.7362
X2.9961Y-3.7362
X2.8Y-3.5276
X3.0Y-3.5276
X1.2722Y-5.3793
X1.2722Y-5.5793
X8.3976Y-5.8307
X8.3976Y-6.0307
X1.2795Y-5.7047
X1.2795Y-5.9047
X8.5669Y-6.185
X8.5669Y-6.385
X1.2717Y-5.0787
X1.2717Y-5.2787
X3.5795Y-3.8071
X3.7795Y-3.8071
T5
X2.4488Y-3.6614
X2.4988Y-3.6114
X2.5488Y-3.6614
T6
X10.2283Y-3.5197
X10.2283Y-3.6197
X10.2283Y-3.7197
X10.2283Y-3.8197
X10.2283Y-3.9197
X10.2283Y-4.0197
X12.6137Y-3.7953
X12.6137Y-3.8953
X12.6137Y-3.9953
X12.6137Y-4.0953
X12.6137Y-4.1953
X12.6137Y-4.2953
X12.6137Y-4.3953
X12.6137Y-4.4953
X12.6137Y-4.5953
X12.6137Y-4.6953
X12.9137Y-3.7953
X12.9137Y-3.8953
X12.9137Y-3.9953
X12.9137Y-4.0953
X12.9137Y-4.1953
X12.9137Y-4.2953
X12.9137Y-4.3953
X12.9137Y-4.4953
X12.9137Y-4.5953
X12.9137Y-4.6953
X3.8199Y-7.0512
X4.0167Y-7.0512
X3.5669Y-4.0197
X3.5669Y-4.2126
X8.2429Y-7.4724
X8.2429Y-7.5724
X8.2429Y-7.6724
X8.2429Y-7.7724
X8.2429Y-7.8724
X8.2429Y-7.9724
X8.2429Y-8.0724
X8.5429Y-7.4724
X8.5429Y-7.5724
X8.5429Y-7.6724
X8.5429Y-7.7724
X8.5429Y-7.8724
X8.5429Y-7.9724
X8.5429Y-8.0724
X10.5469Y-6.0795
X10.5469Y-6.1795
X10.5469Y-6.2795
X10.5469Y-6.3795
X10.5469Y-6.4795
X10.5469Y-6.5795
X10.5469Y-6.6795
X10.5469Y-6.7795
X10.5469Y-6.8795
X10.5469Y-6.9795
X10.8469Y-6.0795
X10.8469Y-6.1795
X10.8469Y-6.2795
X10.8469Y-6.3795
X10.8469Y-6.4795
X10.8469Y-6.5795
X10.8469Y-6.6795
X10.8469Y-6.7795
X10.8469Y-6.8795
X10.8469Y-6.9795
X6.5Y-4.5433
X6.6969Y-4.5433
X12.6447Y-5.7687
X12.8415Y-5.7687
X8.2126Y-3.0709
X8.4094Y-3.0709
X10.5567Y-4.6102
X10.7535Y-4.6102
X6.4063Y-7.4878
X6.4063Y-7.5878
X6.4063Y-7.6878
X6.4063Y-7.7878
X6.4063Y-7.8878
X6.4063Y-7.9878
X6.4063Y-8.0878
X6.7063Y-7.4878
X6.7063Y-7.5878
X6.7063Y-7.6878
X6.7063Y-7.7878
X6.7063Y-7.8878
X6.7063Y-7.9878
X6.7063Y-8.0878
X4.4511Y-7.4929
X4.4511Y-7.5929
X4.4511Y-7.6929
X4.4511Y-7.7929
X4.4511Y-7.8929
X4.4511Y-7.9929
X4.4511Y-8.0929
X4.7511Y-7.4929
X4.7511Y-7.5929
X4.7511Y-7.6929
X4.7511Y-7.7929
X4.7511Y-7.8929
X4.7511Y-7.9929
X4.7511Y-8.0929
X13.8976Y-3.6407
X14.0945Y-3.6407
X4.7913Y-4.4571
X4.7913Y-4.5571
X4.7913Y-4.6571
X4.7913Y-4.7571
X4.7913Y-4.8571
X4.7913Y-4.9571
X4.7913Y-5.0571
X4.7913Y-5.1571
X4.7913Y-5.2571
X4.7913Y-5.3571
X4.7913Y-5.4571
X4.7913Y-5.5571
X4.7913Y-5.6571
X4.7913Y-5.7571
X4.7913Y-5.8571
X4.7913Y-5.9571
X4.7913Y-6.0571
X4.7913Y-6.1571
X4.7913Y-6.2571
X4.7913Y-6.3571
X5.3913Y-4.4571
X5.3913Y-4.5571
X5.3913Y-4.6571
X5.3913Y-4.7571
X5.3913Y-4.8571
X5.3913Y-4.9571
X5.3913Y-5.0571
X5.3913Y-5.1571
X5.3913Y-5.2571
X5.3913Y-5.3571
X5.3913Y-5.4571
X5.3913Y-5.5571
X5.3913Y-5.6571
X5.3913Y-5.7571
X5.3913Y-5.8571
X5.3913Y-5.9571
X5.3913Y-6.0571
X5.3913Y-6.1571
X5.3913Y-6.2571
X5.3913Y-6.3571
X11.3701Y-3.7913
X11.3701Y-3.8913
X11.3701Y-3.9913
X11.3701Y-4.0913
X11.3701Y-4.1913
X11.3701Y-4.2913
X11.3701Y-4.3913
X11.3701Y-4.4913
X11.3701Y-4.5913
X11.3701Y-4.6913
X11.6701Y-3.7913
X11.6701Y-3.8913
X11.6701Y-3.9913
X11.6701Y-4.0913
X11.6701Y-4.1913
X11.6701Y-4.2913
X11.6701Y-4.3913
X11.6701Y-4.4913
X11.6701Y-4.5913
X11.6701Y-4.6913
X9.4528Y-4.9409
X9.6496Y-4.9409
X8.1654Y-3.1874
X8.1654Y-3.2874
X8.1654Y-3.3874
X8.1654Y-3.4874
X8.1654Y-3.5874
X8.1654Y-3.6874
X8.1654Y-3.7874
X8.1654Y-3.8874
X8.1654Y-3.9874
X8.1654Y-4.0874
X8.4654Y-3.1874
X8.4654Y-3.2874
X8.4654Y-3.3874
X8.4654Y-3.4874
X8.4654Y-3.5874
X8.4654Y-3.6874
X8.4654Y-3.7874
X8.4654Y-3.8874
X8.4654Y-3.9874
X8.4654Y-4.0874
X3.8465Y-4.8307
X4.0433Y-4.8307
X7.626Y-4.5315
X7.8228Y-4.5315
X3.2165Y-3.5315
X3.4134Y-3.5315
X7.0315Y-7.4866
X7.0315Y-7.5866
X7.0315Y-7.6866
X7.0315Y-7.7866
X7.0315Y-7.8866
X7.0315Y-7.9866
X7.0315Y-8.0866
X7.3315Y-7.4866
X7.3315Y-7.5866
X7.3315Y-7.6866
X7.3315Y-7.7866
X7.3315Y-7.8866
X7.3315Y-7.9866
X7.3315Y-8.0866
X1.7313Y-6.4921
X1.9281Y-6.4921
X9.4016Y-4.2126
X9.4016Y-4.3126
X9.4016Y-4.4126
X9.4016Y-4.5126
X9.7016Y-4.2126
X9.7016Y-4.3126
X9.7016Y-4.4126
X9.7016Y-4.5126
X7.6Y-7.4803
X7.6Y-7.5803
X7.6Y-7.6803
X7.6Y-7.7803
X7.6Y-7.8803
X7.6Y-7.9803
X7.6Y-8.0803
X7.9Y-7.4803
X7.9Y-7.5803
X7.9Y-7.6803
X7.9Y-7.7803
X7.9Y-7.8803
X7.9Y-7.9803
X7.9Y-8.0803
X3.6433Y-4.9929
X3.6433Y-5.0929
X3.6433Y-5.1929
X3.6433Y-5.2929
X3.6433Y-5.3929
X3.6433Y-5.4929
X3.6433Y-5.5929
X3.6433Y-5.6929
X3.6433Y-5.7929
X3.6433Y-5.8929
X3.6433Y-5.9929
X3.6433Y-6.0929
X3.6433Y-6.1929
X3.6433Y-6.2929
X4.2433Y-4.9929
X4.2433Y-5.0929
X4.2433Y-5.1929
X4.2433Y-5.2929
X4.2433Y-5.3929
X4.2433Y-5.4929
X4.2433Y-5.5929
X4.2433Y-5.6929
X4.2433Y-5.7929
X4.2433Y-5.8929
X4.2433Y-5.9929
X4.2433Y-6.0929
X4.2433Y-6.1929
X4.2433Y-6.2929
X11.4281Y-3.6486
X11.625Y-3.6486
X14.0157Y-7.8661
X14.0157Y-7.9661
X14.0157Y-8.0661
X14.0157Y-8.1661
X14.3157Y-7.8661
X14.3157Y-7.9661
X14.3157Y-8.0661
X14.3157Y-8.1661
X2.6256Y-4.3961
X2.6256Y-4.4961
X2.6256Y-4.5961
X2.6256Y-4.6961
X2.6256Y-4.7961
X2.6256Y-4.8961
X2.6256Y-4.9961
X2.6256Y-5.0961
X2.6256Y-5.1961
X2.6256Y-5.2961
X2.6256Y-5.3961
X2.6256Y-5.4961
X2.6256Y-5.5961
X2.6256Y-5.6961
X2.6256Y-5.7961
X2.6256Y-5.8961
X2.6256Y-5.9961
X2.6256Y-6.0961
X2.6256Y-6.1961
X2.6256Y-6.2961
X3.2256Y-4.3961
X3.2256Y-4.4961
X3.2256Y-4.5961
X3.2256Y-4.6961
X3.2256Y-4.7961
X3.2256Y-4.8961
X3.2256Y-4.9961
X3.2256Y-5.0961
X3.2256Y-5.1961
X3.2256Y-5.2961
X3.2256Y-5.3961
X3.2256Y-5.4961
X3.2256Y-5.5961
X3.2256Y-5.6961
X3.2256Y-5.7961
X3.2256Y-5.8961
X3.2256Y-5.9961
X3.2256Y-6.0961
X3.2256Y-6.1961
X3.2256Y-6.2961
X2.8543Y-4.2362
X3.0512Y-4.2362
X6.9055Y-3.0748
X7.1024Y-3.0748
X3.7638Y-4.189
X3.9606Y-4.189
X1.2598Y-4.4803
X1.2598Y-4.6772
X4.9291Y-3.7205
X4.9291Y-3.8205
X4.9291Y-3.9205
X4.9291Y-4.0205
X5.2291Y-3.7205
X5.2291Y-3.8205
X5.2291Y-3.9205
X5.2291Y-4.0205
X14.9685Y-3.4646
X14.9685Y-3.5646
X14.9685Y-3.6646
X14.9685Y-3.7646
X14.9685Y-3.8646
X14.9685Y-3.9646
X11.9919Y-3.7953
X11.9919Y-3.8953
X11.9919Y-3.9953
X11.9919Y-4.0953
X11.9919Y-4.1953
X11.9919Y-4.2953
X11.9919Y-4.3953
X11.9919Y-4.4953
X11.9919Y-4.5953
X11.9919Y-4.6953
X12.2919Y-3.7953
X12.2919Y-3.8953
X12.2919Y-3.9953
X12.2919Y-4.0953
X12.2919Y-4.1953
X12.2919Y-4.2953
X12.2919Y-4.3953
X12.2919Y-4.4953
X12.2919Y-4.5953
X12.2919Y-4.6953
X1.7375Y-7.4894
X1.7375Y-7.5894
X1.7375Y-7.6894
X1.7375Y-7.7894
X1.7375Y-7.8894
X1.7375Y-7.9894
X1.7375Y-8.0894
X2.0375Y-7.4894
X2.0375Y-7.5894
X2.0375Y-7.6894
X2.0375Y-7.7894
X2.0375Y-7.8894
X2.0375Y-7.9894
X2.0375Y-8.0894
X10.5906Y-5.9409
X10.7874Y-5.9409
X14.0669Y-7.7362
X14.2638Y-7.7362
X13.2355Y-3.7953
X13.2355Y-3.8953
X13.2355Y-3.9953
X13.2355Y-4.0953
X13.2355Y-4.1953
X13.2355Y-4.2953
X13.2355Y-4.3953
X13.2355Y-4.4953
X13.2355Y-4.5953
X13.2355Y-4.6953
X13.5355Y-3.7953
X13.5355Y-3.8953
X13.5355Y-3.9953
X13.5355Y-4.0953
X13.5355Y-4.1953
X13.5355Y-4.2953
X13.5355Y-4.3953
X13.5355Y-4.4953
X13.5355Y-4.5953
X13.5355Y-4.6953
X2.4159Y-7.1941
X2.4159Y-7.2941
X2.4159Y-7.3941
X2.4159Y-7.4941
X2.4159Y-7.5941
X2.4159Y-7.6941
X2.4159Y-7.7941
X2.4159Y-7.8941
X2.4159Y-7.9941
X2.4159Y-8.0941
X2.7159Y-7.1941
X2.7159Y-7.2941
X2.7159Y-7.3941
X2.7159Y-7.4941
X2.7159Y-7.5941
X2.7159Y-7.6941
X2.7159Y-7.7941
X2.7159Y-7.8941
X2.7159Y-7.9941
X2.7159Y-8.0941
X6.4571Y-7.3402
X6.6539Y-7.3402
X1.7205Y-2.9094
X1.9173Y-2.9094
X12.062Y-3.6506
X12.2589Y-3.6506
X13.9071Y-6.0752
X13.9071Y-6.1752
X13.9071Y-6.2752
X13.9071Y-6.3752
X13.9071Y-6.4752
X13.9071Y-6.5752
X13.9071Y-6.6752
X13.9071Y-6.7752
X13.9071Y-6.8752
X13.9071Y-6.9752
X13.9071Y-7.0752
X13.9071Y-7.1752
X13.9071Y-7.2752
X13.9071Y-7.3752
X14.5071Y-6.0752
X14.5071Y-6.1752
X14.5071Y-6.2752
X14.5071Y-6.3752
X14.5071Y-6.4752
X14.5071Y-6.5752
X14.5071Y-6.6752
X14.5071Y-6.7752
X14.5071Y-6.8752
X14.5071Y-6.9752
X14.5071Y-7.0752
X14.5071Y-7.1752
X14.5071Y-7.2752
X14.5071Y-7.3752
X2.1811Y-3.3858
X2.5811Y-3.3858
X11.499Y-5.9695
X11.6959Y-5.9695
X1.689Y-4.2598
X1.8858Y-4.2598
X12.4498Y-5.9348
X12.4498Y-6.0348
X12.4498Y-6.1348
X12.4498Y-6.2348
X12.4498Y-6.3348
X12.4498Y-6.4348
X12.4498Y-6.5348
X12.4498Y-6.6348
X12.4498Y-6.7348
X12.4498Y-6.8348
X12.4498Y-6.9348
X12.4498Y-7.0348
X12.4498Y-7.1348
X12.4498Y-7.2348
X12.4498Y-7.3348
X12.4498Y-7.4348
X13.0498Y-5.9348
X13.0498Y-6.0348
X13.0498Y-6.1348
X13.0498Y-6.2348
X13.0498Y-6.3348
X13.0498Y-6.4348
X13.0498Y-6.5348
X13.0498Y-6.6348
X13.0498Y-6.7348
X13.0498Y-6.8348
X13.0498Y-6.9348
X13.0498Y-7.0348
X13.0498Y-7.1348
X13.0498Y-7.2348
X13.0498Y-7.3348
X13.0498Y-7.4348
X5.1969Y-7.2175
X5.3937Y-7.2175
X8.2878Y-7.3244
X8.4846Y-7.3244
X7.5394Y-3.1874
X7.5394Y-3.2874
X7.5394Y-3.3874
X7.5394Y-3.4874
X7.5394Y-3.5874
X7.5394Y-3.6874
X7.5394Y-3.7874
X7.5394Y-3.8874
X7.5394Y-3.9874
X7.5394Y-4.0874
X7.8394Y-3.1874
X7.8394Y-3.2874
X7.8394Y-3.3874
X7.8394Y-3.4874
X7.8394Y-3.5874
X7.8394Y-3.6874
X7.8394Y-3.7874
X7.8394Y-3.8874
X7.8394Y-3.9874
X7.8394Y-4.0874
X6.2839Y-4.7098
X6.2839Y-4.8098
X6.2839Y-4.9098
X6.2839Y-5.0098
X6.2839Y-5.1098
X6.2839Y-5.2098
X6.2839Y-5.3098
X6.2839Y-5.4098
X6.2839Y-5.5098
X6.2839Y-5.6098
X6.2839Y-5.7098
X6.2839Y-5.8098
X6.2839Y-5.9098
X6.2839Y-6.0098
X6.2839Y-6.1098
X6.2839Y-6.2098
X6.2839Y-6.3098
X6.2839Y-6.4098
X6.2839Y-6.5098
X6.2839Y-6.6098
X6.8839Y-4.7098
X6.8839Y-4.8098
X6.8839Y-4.9098
X6.8839Y-5.0098
X6.8839Y-5.1098
X6.8839Y-5.2098
X6.8839Y-5.3098
X6.8839Y-5.4098
X6.8839Y-5.5098
X6.8839Y-5.6098
X6.8839Y-5.7098
X6.8839Y-5.8098
X6.8839Y-5.9098
X6.8839Y-6.0098
X6.8839Y-6.1098
X6.8839Y-6.2098
X6.8839Y-6.3098
X6.8839Y-6.4098
X6.8839Y-6.5098
X6.8839Y-6.6098
X7.0791Y-7.352
X7.276Y-7.352
X3.1496Y-7.0315
X3.3465Y-7.0315
X1.7963Y-7.3071
X1.9931Y-7.3071
X12.689Y-3.6437
X12.8858Y-3.6437
X14.6181Y-3.9583
X14.6181Y-4.0583
X14.6181Y-4.1583
X14.6181Y-4.2583
X14.6181Y-4.3583
X14.6181Y-4.4583
X14.6181Y-4.5583
X14.6181Y-4.6583
X14.6181Y-4.7583
X14.6181Y-4.8583
X13.8573Y-3.7953
X13.8573Y-3.8953
X13.8573Y-3.9953
X13.8573Y-4.0953
X13.8573Y-4.1953
X13.8573Y-4.2953
X13.8573Y-4.3953
X13.8573Y-4.4953
X13.8573Y-4.5953
X13.8573Y-4.6953
X14.1573Y-3.7953
X14.1573Y-3.8953
X14.1573Y-3.9953
X14.1573Y-4.0953
X14.1573Y-4.1953
X14.1573Y-4.2953
X14.1573Y-4.3953
X14.1573Y-4.4953
X14.1573Y-4.5953
X14.1573Y-4.6953
X4.9764Y-4.2717
X5.1732Y-4.2717
X11.3037Y-6.1337
X11.3037Y-6.2337
X11.3037Y-6.3337
X11.3037Y-6.4337
X11.3037Y-6.5337
X11.3037Y-6.6337
X11.3037Y-6.7337
X11.3037Y-6.8337
X11.3037Y-6.9337
X11.3037Y-7.0337
X11.3037Y-7.1337
X11.3037Y-7.2337
X11.3037Y-7.3337
X11.3037Y-7.4337
X11.9037Y-6.1337
X11.9037Y-6.2337
X11.9037Y-6.3337
X11.9037Y-6.4337
X11.9037Y-6.5337
X11.9037Y-6.6337
X11.9037Y-6.7337
X11.9037Y-6.8337
X11.9037Y-6.9337
X11.9037Y-7.0337
X11.9037Y-7.1337
X11.9037Y-7.2337
X11.9037Y-7.3337
X11.9037Y-7.4337
X7.4165Y-4.6945
X7.4165Y-4.7945
X7.4165Y-4.8945
X7.4165Y-4.9945
X7.4165Y-5.0945
X7.4165Y-5.1945
X7.4165Y-5.2945
X7.4165Y-5.3945
X7.4165Y-5.4945
X7.4165Y-5.5945
X7.4165Y-5.6945
X7.4165Y-5.7945
X7.4165Y-5.8945
X7.4165Y-5.9945
X7.4165Y-6.0945
X7.4165Y-6.1945
X7.4165Y-6.2945
X7.4165Y-6.3945
X7.4165Y-6.4945
X7.4165Y-6.5945
X8.0165Y-4.6945
X8.0165Y-4.7945
X8.0165Y-4.8945
X8.0165Y-4.9945
X8.0165Y-5.0945
X8.0165Y-5.1945
X8.0165Y-5.2945
X8.0165Y-5.3945
X8.0165Y-5.4945
X8.0165Y-5.5945
X8.0165Y-5.6945
X8.0165Y-5.7945
X8.0165Y-5.8945
X8.0165Y-5.9945
X8.0165Y-6.0945
X8.0165Y-6.1945
X8.0165Y-6.2945
X8.0165Y-6.3945
X8.0165Y-6.4945
X8.0165Y-6.5945
X8.9563Y-7.9681
X8.9563Y-8.165
X6.8701Y-3.1874
X6.8701Y-3.2874
X6.8701Y-3.3874
X6.8701Y-3.4874
X6.8701Y-3.5874
X6.8701Y-3.6874
X6.8701Y-3.7874
X6.8701Y-3.8874
X6.8701Y-3.9874
X6.8701Y-4.0874
X6.8701Y-4.1874
X6.8701Y-4.2874
X7.1701Y-3.1874
X7.1701Y-3.2874
X7.1701Y-3.3874
X7.1701Y-3.4874
X7.1701Y-3.5874
X7.1701Y-3.6874
X7.1701Y-3.7874
X7.1701Y-3.8874
X7.1701Y-3.9874
X7.1701Y-4.0874
X7.1701Y-4.1874
X7.1701Y-4.2874
X3.0943Y-7.1941
X3.0943Y-7.2941
X3.0943Y-7.3941
X3.0943Y-7.4941
X3.0943Y-7.5941
X3.0943Y-7.6941
X3.0943Y-7.7941
X3.0943Y-7.8941
X3.0943Y-7.9941
X3.0943Y-8.0941
X3.3943Y-7.1941
X3.3943Y-7.2941
X3.3943Y-7.3941
X3.3943Y-7.4941
X3.3943Y-7.5941
X3.3943Y-7.6941
X3.3943Y-7.7941
X3.3943Y-7.8941
X3.3943Y-7.9941
X3.3943Y-8.0941
X3.7727Y-7.1941
X3.7727Y-7.2941
X3.7727Y-7.3941
X3.7727Y-7.4941
X3.7727Y-7.5941
X3.7727Y-7.6941
X3.7727Y-7.7941
X3.7727Y-7.8941
X3.7727Y-7.9941
X3.7727Y-8.0941
X4.0727Y-7.1941
X4.0727Y-7.2941
X4.0727Y-7.3941
X4.0727Y-7.4941
X4.0727Y-7.5941
X4.0727Y-7.6941
X4.0727Y-7.7941
X4.0727Y-7.8941
X4.0727Y-7.9941
X4.0727Y-8.0941
X2.1457Y-3.9528
X2.3425Y-3.9528
X7.5827Y-3.0709
X7.7795Y-3.0709
X10.5276Y-3.5118
X10.5276Y-3.6118
X10.5276Y-3.7118
X10.5276Y-3.8118
X10.5276Y-3.9118
X10.5276Y-4.0118
X5.1295Y-7.389
X5.1295Y-7.489
X5.1295Y-7.589
X5.1295Y-7.689
X5.1295Y-7.789
X5.1295Y-7.889
X5.1295Y-7.989
X5.1295Y-8.089
X5.4295Y-7.389
X5.4295Y-7.489
X5.4295Y-7.589
X5.4295Y-7.689
X5.4295Y-7.789
X5.4295Y-7.889
X5.4295Y-7.989
X5.4295Y-8.089
X13.3041Y-3.6358
X13.501Y-3.6358
X9.252Y-5.0571
X9.252Y-5.1571
X9.252Y-5.2571
X9.252Y-5.3571
X9.252Y-5.4571
X9.252Y-5.5571
X9.252Y-5.6571
X9.252Y-5.7571
X9.252Y-5.8571
X9.252Y-5.9571
X9.252Y-6.0571
X9.252Y-6.1571
X9.252Y-6.2571
X9.252Y-6.3571
X9.252Y-6.4571
X9.252Y-6.5571
X9.252Y-6.6571
X9.252Y-6.7571
X9.252Y-6.8571
X9.252Y-6.9571
X9.852Y-5.0571
X9.852Y-5.1571
X9.852Y-5.2571
X9.852Y-5.3571
X9.852Y-5.4571
X9.852Y-5.5571
X9.852Y-5.6571
X9.852Y-5.7571
X9.852Y-5.8571
X9.852Y-5.9571
X9.852Y-6.0571
X9.852Y-6.1571
X9.852Y-6.2571
X9.852Y-6.3571
X9.852Y-6.4571
X9.852Y-6.5571
X9.852Y-6.6571
X9.852Y-6.7571
X9.852Y-6.8571
X9.852Y-6.9571
X4.9764Y-3.6024
X5.1732Y-3.6024
X9.4606Y-4.0984
X9.6575Y-4.0984
X10.528Y-4.7618
X10.528Y-4.8618
X10.528Y-4.9618
X10.528Y-5.0618
X10.528Y-5.1618
X10.528Y-5.2618
X10.528Y-5.3618
X10.528Y-5.4618
X10.528Y-5.5618
X10.528Y-5.6618
X10.828Y-4.7618
X10.828Y-4.8618
X10.828Y-4.9618
X10.828Y-5.0618
X10.828Y-5.1618
X10.828Y-5.2618
X10.828Y-5.3618
X10.828Y-5.4618
X10.828Y-5.5618
X10.828Y-5.6618
X1.5083Y-4.4343
X1.5083Y-4.5343
X1.5083Y-4.6343
X1.5083Y-4.7343
X1.5083Y-4.8343
X1.5083Y-4.9343
X1.5083Y-5.0343
X1.5083Y-5.1343
X1.5083Y-5.2343
X1.5083Y-5.3343
X1.5083Y-5.4343
X1.5083Y-5.5343
X1.5083Y-5.6343
X1.5083Y-5.7343
X1.5083Y-5.8343
X1.5083Y-5.9343
X1.5083Y-6.0343
X1.5083Y-6.1343
X1.5083Y-6.2343
X1.5083Y-6.3343
X2.1083Y-4.4343
X2.1083Y-4.5343
X2.1083Y-4.6343
X2.1083Y-4.7343
X2.1083Y-4.8343
X2.1083Y-4.9343
X2.1083Y-5.0343
X2.1083Y-5.1343
X2.1083Y-5.2343
X2.1083Y-5.3343
X2.1083Y-5.4343
X2.1083Y-5.5343
X2.1083Y-5.6343
X2.1083Y-5.7343
X2.1083Y-5.8343
X2.1083Y-5.9343
X2.1083Y-6.0343
X2.1083Y-6.1343
X2.1083Y-6.2343
X2.1083Y-6.3343
X7.6303Y-7.3283
X7.8272Y-7.3283
X2.4754Y-7.0413
X2.6722Y-7.0413
X4.5148Y-7.3307
X4.7116Y-7.3307
X3.7638Y-4.0157
X3.9606Y-4.0157
T7
X11.5591Y-8.063
X11.6591Y-8.063
T8
X10.7756Y-7.8858
X10.7756Y-7.9858
X10.7756Y-8.0858
X14.9409Y-4.989
X14.9409Y-5.098
X14.9409Y-5.2071
X14.9409Y-5.3161
X14.9409Y-5.4252
X15.0528Y-5.0435
X15.0528Y-5.1526
X15.0528Y-5.2616
X15.0528Y-5.3707
X12.6447Y-5.5719
X12.7447Y-5.5719
X12.8447Y-5.5719
X11.185Y-7.9764
X11.185Y-8.0764
X6.2594Y-4.0626
X6.3594Y-4.0626
X6.4594Y-4.0626
X5.7323Y-3.5575
X5.7323Y-3.6575
X5.8323Y-3.5575
X5.8323Y-3.6575
X5.9323Y-3.5575
X5.9323Y-3.6575
X6.0323Y-3.5575
X6.0323Y-3.6575
X6.1323Y-3.5575
X6.1323Y-3.6575
X6.2323Y-3.5575
X6.2323Y-3.6575
X6.3323Y-3.5575
X6.3323Y-3.6575
X6.4323Y-3.5575
X6.4323Y-3.6575
X11.976Y-3.1421
X11.976Y-3.2421
X12.076Y-3.1421
X12.076Y-3.2421
X12.176Y-3.1421
X12.176Y-3.2421
X12.276Y-3.1421
X12.276Y-3.2421
X12.376Y-3.1421
X12.376Y-3.2421
X12.476Y-3.1421
X12.476Y-3.2421
X12.576Y-3.1421
X12.576Y-3.2421
X12.676Y-3.1421
X12.676Y-3.2421
X12.776Y-3.1421
X12.776Y-3.2421
X12.876Y-3.1421
X12.876Y-3.2421
X12.976Y-3.1421
X12.976Y-3.2421
X13.076Y-3.1421
X13.076Y-3.2421
X13.176Y-3.1421
X13.176Y-3.2421
X13.276Y-3.1421
X13.276Y-3.2421
X13.376Y-3.1421
X13.376Y-3.2421
X13.476Y-3.1421
X13.476Y-3.2421
X13.576Y-3.1421
X13.576Y-3.2421
X13.676Y-3.1421
X13.676Y-3.2421
X13.776Y-3.1421
X13.776Y-3.2421
X13.876Y-3.1421
X13.876Y-3.2421
X1.7992Y-3.8465
X1.7992Y-3.9465
X1.8992Y-3.8465
X1.8992Y-3.9465
X11.5148Y-5.7096
X11.6148Y-5.7096
X11.7148Y-5.7096
X9.7126Y-3.3921
X9.7126Y-3.4921
X9.7126Y-3.5921
X9.7126Y-3.6921
X9.8126Y-3.3921
X9.8126Y-3.4921
X9.8126Y-3.5921
X9.8126Y-3.6921
X14.9449Y-6.4339
X14.9449Y-6.5429
X14.9449Y-6.652
X14.9449Y-6.761
X14.9449Y-6.8701
X15.0567Y-6.4884
X15.0567Y-6.5974
X15.0567Y-6.7065
X15.0567Y-6.8156
X6.1545Y-2.9354
X6.1545Y-3.0354
X6.2545Y-2.9354
X6.2545Y-3.0354
X6.3545Y-2.9354
X6.3545Y-3.0354
X6.4545Y-2.9354
X6.4545Y-3.0354
X6.5545Y-2.9354
X6.5545Y-3.0354
T9
X13.6112Y-5.436
T10
X3.7402Y-3.2913
X3.8386Y-3.3898
X3.937Y-2.8976
X4.0354Y-3.2913
X4.0354Y-3.4882
X4.1339Y-2.8976
X4.2323Y-3.3898
X4.3307Y-3.2913
X9.3382Y-8.0929
X9.535Y-8.0929
X9.7319Y-8.0929
X9.9287Y-8.0929
X1.2559Y-3.5906
X1.3543Y-3.1969
X1.4528Y-3.5906
X1.2638Y-4.1929
X1.3622Y-3.7992
X1.4606Y-4.1929
T11
X14.3986Y-5.436
T12
X3.2559Y-2.8583
X3.3346Y-2.9528
X3.3346Y-3.1693
T13
X15.0008Y-6.1598
X15.0008Y-7.1441
X14.9969Y-4.715
X14.9969Y-5.6992
T8
G00X2.3386Y-3.1319
M15
G01X2.3386Y-3.0807
M16
G05
T10
G00X2.2972Y-2.9291
M15
G01X2.3799Y-2.9291
M16
G05
T0
M30
