M48
; DRILL file {KiCad (6.0.6)} date Mon Aug  1 08:11:49 2022
; FORMAT={-:-/ absolute / inch / decimal}
; #@! TF.CreationDate,2022-08-01T08:11:49-05:00
; #@! TF.GenerationSoftware,Kicad,Pcbnew,(6.0.6)
; #@! TF.FileFunction,Plated,1,2,PTH
FMAT,2
INCH
; #@! TA.AperFunction,Plated,PTH,ComponentDrill
T1C0.0197
; #@! TA.AperFunction,Plated,PTH,ViaDrill
T2C0.0230
; #@! TA.AperFunction,Plated,PTH,ComponentDrill
T3C0.0236
; #@! TA.AperFunction,Plated,PTH,ComponentDrill
T4C0.0276
; #@! TA.AperFunction,Plated,PTH,ComponentDrill
T5C0.0295
; #@! TA.AperFunction,Plated,PTH,ComponentDrill
T6C0.0315
; #@! TA.AperFunction,Plated,PTH,ComponentDrill
T7C0.0354
; #@! TA.AperFunction,Plated,PTH,ComponentDrill
T8C0.0394
; #@! TA.AperFunction,Plated,PTH,ComponentDrill
T9C0.0461
; #@! TA.AperFunction,Plated,PTH,ComponentDrill
T10C0.0512
; #@! TA.AperFunction,Plated,PTH,ComponentDrill
T11C0.0591
; #@! TA.AperFunction,Plated,PTH,ComponentDrill
T12C0.0787
; #@! TA.AperFunction,Plated,PTH,ComponentDrill
T13C0.1260
%
G90
G05
T1
X14.4528Y-7.7441
X14.5197Y-7.7441
T2
X1.6597Y-6.3684
X1.9727Y-5.9325
X1.9934Y-7.1338
X2.3069Y-7.1579
X2.4159Y-7.0014
X2.5014Y-6.7402
X2.6086Y-6.9688
X2.6727Y-6.8436
X2.721Y-3.5463
X2.7239Y-5.3715
X2.731Y-4.7748
X2.7525Y-3.4395
X2.8657Y-3.4745
X3.0277Y-5.6394
X3.0592Y-6.773
X3.2573Y-6.8861
X3.281Y-7.2243
X3.3287Y-5.7929
X3.3586Y-6.042
X3.3903Y-5.6929
X3.4266Y-5.6316
X3.5518Y-7.1261
X3.5792Y-5.0384
X3.5906Y-6.2321
X3.5939Y-7.1482
X3.6831Y-6.872
X3.715Y-6.8217
X3.775Y-6.9659
X3.8544Y-6.7399
X3.9718Y-6.205
X3.9731Y-5.9929
X3.9781Y-6.1226
X4.0943Y-4.1908
X4.169Y-6.861
X4.1881Y-7.2187
X4.1994Y-7.1675
X4.3001Y-3.9522
X4.4329Y-6.6868
X4.4469Y-6.3891
X4.4594Y-7.2979
X4.5225Y-3.6685
X4.5257Y-6.2129
X4.5824Y-7.1606
X4.7527Y-5.7116
X4.85Y-6.0868
X4.8695Y-5.8742
X4.9049Y-5.8404
X4.9166Y-5.7716
X4.9589Y-5.1942
X4.9589Y-5.5638
X5.067Y-5.3864
X5.1751Y-5.4571
X5.2192Y-6.7463
X5.3058Y-6.705
X5.3542Y-3.408
X5.4504Y-3.3817
X5.5847Y-5.3103
X5.6216Y-4.4055
X5.6561Y-4.3519
X5.6928Y-6.9013
X6.0091Y-3.0642
X6.0566Y-4.8098
X6.1684Y-6.2828
X6.2064Y-6.1428
X6.2098Y-6.0741
X6.2232Y-7.0699
X6.2633Y-7.0296
X6.3434Y-6.5176
X6.3763Y-6.319
X6.3962Y-6.464
X6.4989Y-3.8765
X6.5206Y-6.5062
X6.5504Y-5.0811
X6.6032Y-4.9645
X6.6168Y-5.4906
X6.7274Y-5.6268
X6.7881Y-4.7794
X6.9862Y-4.7615
X7.0082Y-4.8966
X7.0314Y-4.1515
X7.1743Y-6.4845
X7.2287Y-6.8413
X7.2653Y-6.6569
X7.2712Y-4.2515
X7.3168Y-3.8085
X7.3644Y-3.8239
X7.4251Y-4.1674
X7.5362Y-6.7291
X7.5618Y-6.6869
X7.6134Y-6.5585
X7.6535Y-6.0931
X7.7406Y-6.5357
X7.7658Y-6.3662
X7.8587Y-6.6747
X8.0257Y-4.0736
X8.0393Y-3.6692
X8.0587Y-3.2981
X8.0791Y-3.237
X8.0839Y-6.0664
X8.154Y-6.2473
X8.1713Y-5.5571
X8.2092Y-5.7737
X8.252Y-5.3259
X8.3493Y-4.3302
X8.3493Y-5.6097
X8.3496Y-4.0144
X8.3611Y-3.8958
X8.3642Y-3.4029
X8.367Y-3.816
X8.3767Y-4.4117
X8.3906Y-3.7342
X8.6234Y-3.9096
X8.6566Y-4.3611
X8.7694Y-5.3999
X8.8744Y-5.1918
X8.9214Y-5.2588
X8.9226Y-5.213
X9.3206Y-4.4413
X9.4136Y-3.9249
X9.4139Y-6.7388
X9.4226Y-6.6789
X9.4279Y-6.8676
X9.4351Y-5.1119
X9.4579Y-6.7073
X9.4639Y-6.8066
X9.5031Y-3.9652
X9.7537Y-4.6208
X9.7879Y-7.5179
X9.7973Y-6.1995
X9.9345Y-6.3071
X9.9591Y-6.2109
X9.969Y-4.1705
X10.2076Y-5.7559
X10.3365Y-5.4695
X10.5119Y-4.4796
X10.5249Y-4.3714
X10.5731Y-3.6652
X10.6051Y-3.9632
X10.6638Y-7.1774
X10.6674Y-3.3277
X10.9298Y-6.7372
X10.9413Y-6.8116
X11.0189Y-6.1934
X11.0476Y-6.8416
X11.1114Y-6.8981
X11.1635Y-6.8628
X11.2439Y-6.1312
X11.363Y-5.7173
X11.3675Y-6.1873
X11.4001Y-6.2662
X11.4338Y-6.3873
X11.4362Y-5.1058
X11.4675Y-5.1382
X11.5073Y-7.6415
X11.5321Y-6.9457
X11.5553Y-7.6443
X11.5684Y-6.7857
X11.6003Y-7.5737
X11.656Y-7.6072
X12.0038Y-6.1348
X12.0126Y-5.674
X12.0591Y-6.187
X12.4225Y-5.0423
X12.4293Y-5.5427
X12.5369Y-4.9395
X12.556Y-4.9942
X12.5861Y-5.7999
X12.9047Y-5.9223
X12.973Y-5.5169
X13.0083Y-3.7825
X13.0213Y-5.4943
X13.3022Y-3.5663
X13.428Y-7.6673
X13.6605Y-3.8202
X13.7126Y-3.7644
X13.8277Y-3.5187
X13.9155Y-3.3834
X13.9393Y-3.2979
X14.1432Y-3.4958
X14.2094Y-3.6113
X14.8122Y-4.971
X15.0212Y-5.4325
X15.1314Y-5.2743
T3
X2.1811Y-3.6496
X2.2598Y-3.6496
X4.0906Y-3.7283
X4.1693Y-3.7283
X4.189Y-4.0669
X4.2677Y-4.0669
X4.3543Y-3.7047
X4.4331Y-3.7047
X5.685Y-7.0433
X5.685Y-7.3386
X5.689Y-7.6457
X5.689Y-7.9134
X5.689Y-8.1693
X5.7638Y-7.0433
X5.7638Y-7.3386
X5.7677Y-7.6457
X5.7677Y-7.9134
X5.7677Y-8.1693
X10.3307Y-7.685
X10.3307Y-8.0354
X10.4094Y-7.685
X10.4094Y-8.0354
T4
X1.2717Y-5.0787
X1.2717Y-5.2787
X1.2722Y-5.3793
X1.2722Y-5.5793
X1.2795Y-5.7047
X1.2795Y-5.9047
X2.7126Y-2.9685
X2.7126Y-3.1685
X2.7961Y-3.7362
X2.8Y-3.5276
X2.8701Y-2.9646
X2.8701Y-3.1646
X2.9961Y-3.7362
X3.0Y-3.5276
X3.1976Y-3.8819
X3.2134Y-3.7165
X3.3976Y-3.8819
X3.4134Y-3.7165
X3.5795Y-3.8071
X3.5992Y-3.626
X3.7795Y-3.8071
X3.7992Y-3.626
X8.3976Y-5.8307
X8.3976Y-6.0307
X8.4016Y-6.1811
X8.4016Y-6.3811
X8.5669Y-6.185
X8.5669Y-6.385
X10.6346Y-7.6614
X10.6642Y-7.4134
X10.8346Y-7.6614
X10.8642Y-7.4134
X11.0126Y-7.6732
X11.2126Y-7.6732
X11.426Y-7.6772
X11.626Y-7.6772
T5
X2.4488Y-3.6614
X2.4988Y-3.6114
X2.5488Y-3.6614
T6
X1.2598Y-4.4803
X1.2598Y-4.6772
X1.5083Y-4.4343
X1.5083Y-4.5343
X1.5083Y-4.6343
X1.5083Y-4.7343
X1.5083Y-4.8343
X1.5083Y-4.9343
X1.5083Y-5.0343
X1.5083Y-5.1343
X1.5083Y-5.2343
X1.5083Y-5.3343
X1.5083Y-5.4343
X1.5083Y-5.5343
X1.5083Y-5.6343
X1.5083Y-5.7343
X1.5083Y-5.8343
X1.5083Y-5.9343
X1.5083Y-6.0343
X1.5083Y-6.1343
X1.5083Y-6.2343
X1.5083Y-6.3343
X1.689Y-4.2598
X1.7087Y-6.5157
X1.7205Y-2.9094
X1.7362Y-7.4843
X1.7362Y-7.5843
X1.7362Y-7.6843
X1.7362Y-7.7843
X1.7362Y-7.8843
X1.7362Y-7.9843
X1.7362Y-8.0843
X1.7963Y-7.3071
X1.8858Y-4.2598
X1.9055Y-6.5157
X1.9173Y-2.9094
X1.9931Y-7.3071
X2.0362Y-7.4843
X2.0362Y-7.5843
X2.0362Y-7.6843
X2.0362Y-7.7843
X2.0362Y-7.8843
X2.0362Y-7.9843
X2.0362Y-8.0843
X2.1083Y-4.4343
X2.1083Y-4.5343
X2.1083Y-4.6343
X2.1083Y-4.7343
X2.1083Y-4.8343
X2.1083Y-4.9343
X2.1083Y-5.0343
X2.1083Y-5.1343
X2.1083Y-5.2343
X2.1083Y-5.3343
X2.1083Y-5.4343
X2.1083Y-5.5343
X2.1083Y-5.6343
X2.1083Y-5.7343
X2.1083Y-5.8343
X2.1083Y-5.9343
X2.1083Y-6.0343
X2.1083Y-6.1343
X2.1083Y-6.2343
X2.1083Y-6.3343
X2.1457Y-3.9528
X2.1811Y-3.3858
X2.3425Y-3.9528
X2.4159Y-7.1941
X2.4159Y-7.2941
X2.4159Y-7.3941
X2.4159Y-7.4941
X2.4159Y-7.5941
X2.4159Y-7.6941
X2.4159Y-7.7941
X2.4159Y-7.8941
X2.4159Y-7.9941
X2.4159Y-8.0941
X2.4754Y-7.0413
X2.5811Y-3.3858
X2.6256Y-4.3961
X2.6256Y-4.4961
X2.6256Y-4.5961
X2.6256Y-4.6961
X2.6256Y-4.7961
X2.6256Y-4.8961
X2.6256Y-4.9961
X2.6256Y-5.0961
X2.6256Y-5.1961
X2.6256Y-5.2961
X2.6256Y-5.3961
X2.6256Y-5.4961
X2.6256Y-5.5961
X2.6256Y-5.6961
X2.6256Y-5.7961
X2.6256Y-5.8961
X2.6256Y-5.9961
X2.6256Y-6.0961
X2.6256Y-6.1961
X2.6256Y-6.2961
X2.6722Y-7.0413
X2.7159Y-7.1941
X2.7159Y-7.2941
X2.7159Y-7.3941
X2.7159Y-7.4941
X2.7159Y-7.5941
X2.7159Y-7.6941
X2.7159Y-7.7941
X2.7159Y-7.8941
X2.7159Y-7.9941
X2.7159Y-8.0941
X2.8543Y-4.2362
X3.0512Y-4.2362
X3.0943Y-7.1941
X3.0943Y-7.2941
X3.0943Y-7.3941
X3.0943Y-7.4941
X3.0943Y-7.5941
X3.0943Y-7.6941
X3.0943Y-7.7941
X3.0943Y-7.8941
X3.0943Y-7.9941
X3.0943Y-8.0941
X3.1496Y-7.0315
X3.2165Y-3.5315
X3.2256Y-4.3961
X3.2256Y-4.4961
X3.2256Y-4.5961
X3.2256Y-4.6961
X3.2256Y-4.7961
X3.2256Y-4.8961
X3.2256Y-4.9961
X3.2256Y-5.0961
X3.2256Y-5.1961
X3.2256Y-5.2961
X3.2256Y-5.3961
X3.2256Y-5.4961
X3.2256Y-5.5961
X3.2256Y-5.6961
X3.2256Y-5.7961
X3.2256Y-5.8961
X3.2256Y-5.9961
X3.2256Y-6.0961
X3.2256Y-6.1961
X3.2256Y-6.2961
X3.3465Y-7.0315
X3.3943Y-7.1941
X3.3943Y-7.2941
X3.3943Y-7.3941
X3.3943Y-7.4941
X3.3943Y-7.5941
X3.3943Y-7.6941
X3.3943Y-7.7941
X3.3943Y-7.8941
X3.3943Y-7.9941
X3.3943Y-8.0941
X3.4134Y-3.5315
X3.5669Y-4.0197
X3.5669Y-4.2126
X3.6433Y-4.9929
X3.6433Y-5.0929
X3.6433Y-5.1929
X3.6433Y-5.2929
X3.6433Y-5.3929
X3.6433Y-5.4929
X3.6433Y-5.5929
X3.6433Y-5.6929
X3.6433Y-5.7929
X3.6433Y-5.8929
X3.6433Y-5.9929
X3.6433Y-6.0929
X3.6433Y-6.1929
X3.6433Y-6.2929
X3.7638Y-4.0157
X3.7638Y-4.189
X3.7727Y-7.1941
X3.7727Y-7.2941
X3.7727Y-7.3941
X3.7727Y-7.4941
X3.7727Y-7.5941
X3.7727Y-7.6941
X3.7727Y-7.7941
X3.7727Y-7.8941
X3.7727Y-7.9941
X3.7727Y-8.0941
X3.8199Y-7.0512
X3.8465Y-4.8307
X3.9606Y-4.0157
X3.9606Y-4.189
X4.0167Y-7.0512
X4.0433Y-4.8307
X4.0727Y-7.1941
X4.0727Y-7.2941
X4.0727Y-7.3941
X4.0727Y-7.4941
X4.0727Y-7.5941
X4.0727Y-7.6941
X4.0727Y-7.7941
X4.0727Y-7.8941
X4.0727Y-7.9941
X4.0727Y-8.0941
X4.2433Y-4.9929
X4.2433Y-5.0929
X4.2433Y-5.1929
X4.2433Y-5.2929
X4.2433Y-5.3929
X4.2433Y-5.4929
X4.2433Y-5.5929
X4.2433Y-5.6929
X4.2433Y-5.7929
X4.2433Y-5.8929
X4.2433Y-5.9929
X4.2433Y-6.0929
X4.2433Y-6.1929
X4.2433Y-6.2929
X4.4511Y-7.4929
X4.4511Y-7.5929
X4.4511Y-7.6929
X4.4511Y-7.7929
X4.4511Y-7.8929
X4.4511Y-7.9929
X4.4511Y-8.0929
X4.5148Y-7.3307
X4.7116Y-7.3307
X4.7511Y-7.4929
X4.7511Y-7.5929
X4.7511Y-7.6929
X4.7511Y-7.7929
X4.7511Y-7.8929
X4.7511Y-7.9929
X4.7511Y-8.0929
X4.7913Y-4.4571
X4.7913Y-4.5571
X4.7913Y-4.6571
X4.7913Y-4.7571
X4.7913Y-4.8571
X4.7913Y-4.9571
X4.7913Y-5.0571
X4.7913Y-5.1571
X4.7913Y-5.2571
X4.7913Y-5.3571
X4.7913Y-5.4571
X4.7913Y-5.5571
X4.7913Y-5.6571
X4.7913Y-5.7571
X4.7913Y-5.8571
X4.7913Y-5.9571
X4.7913Y-6.0571
X4.7913Y-6.1571
X4.7913Y-6.2571
X4.7913Y-6.3571
X4.9248Y-3.7634
X4.9248Y-4.0634
X4.9764Y-3.6024
X4.9764Y-4.2717
X5.1295Y-7.389
X5.1295Y-7.489
X5.1295Y-7.589
X5.1295Y-7.689
X5.1295Y-7.789
X5.1295Y-7.889
X5.1295Y-7.989
X5.1295Y-8.089
X5.1732Y-3.6024
X5.1732Y-4.2717
X5.1969Y-7.2175
X5.2248Y-3.7634
X5.2248Y-4.0634
X5.3913Y-4.4571
X5.3913Y-4.5571
X5.3913Y-4.6571
X5.3913Y-4.7571
X5.3913Y-4.8571
X5.3913Y-4.9571
X5.3913Y-5.0571
X5.3913Y-5.1571
X5.3913Y-5.2571
X5.3913Y-5.3571
X5.3913Y-5.4571
X5.3913Y-5.5571
X5.3913Y-5.6571
X5.3913Y-5.7571
X5.3913Y-5.8571
X5.3913Y-5.9571
X5.3913Y-6.0571
X5.3913Y-6.1571
X5.3913Y-6.2571
X5.3913Y-6.3571
X5.3937Y-7.2175
X5.4295Y-7.389
X5.4295Y-7.489
X5.4295Y-7.589
X5.4295Y-7.689
X5.4295Y-7.789
X5.4295Y-7.889
X5.4295Y-7.989
X5.4295Y-8.089
X6.2839Y-4.7098
X6.2839Y-4.8098
X6.2839Y-4.9098
X6.2839Y-5.0098
X6.2839Y-5.1098
X6.2839Y-5.2098
X6.2839Y-5.3098
X6.2839Y-5.4098
X6.2839Y-5.5098
X6.2839Y-5.6098
X6.2839Y-5.7098
X6.2839Y-5.8098
X6.2839Y-5.9098
X6.2839Y-6.0098
X6.2839Y-6.1098
X6.2839Y-6.2098
X6.2839Y-6.3098
X6.2839Y-6.4098
X6.2839Y-6.5098
X6.2839Y-6.6098
X6.4063Y-7.4878
X6.4063Y-7.5878
X6.4063Y-7.6878
X6.4063Y-7.7878
X6.4063Y-7.8878
X6.4063Y-7.9878
X6.4063Y-8.0878
X6.4571Y-7.3402
X6.5Y-4.5433
X6.6539Y-7.3402
X6.6969Y-4.5433
X6.7063Y-7.4878
X6.7063Y-7.5878
X6.7063Y-7.6878
X6.7063Y-7.7878
X6.7063Y-7.8878
X6.7063Y-7.9878
X6.7063Y-8.0878
X6.8701Y-3.1874
X6.8701Y-3.2874
X6.8701Y-3.3874
X6.8701Y-3.4874
X6.8701Y-3.5874
X6.8701Y-3.6874
X6.8701Y-3.7874
X6.8701Y-3.8874
X6.8701Y-3.9874
X6.8701Y-4.0874
X6.8701Y-4.1874
X6.8701Y-4.2874
X6.8839Y-4.7098
X6.8839Y-4.8098
X6.8839Y-4.9098
X6.8839Y-5.0098
X6.8839Y-5.1098
X6.8839Y-5.2098
X6.8839Y-5.3098
X6.8839Y-5.4098
X6.8839Y-5.5098
X6.8839Y-5.6098
X6.8839Y-5.7098
X6.8839Y-5.8098
X6.8839Y-5.9098
X6.8839Y-6.0098
X6.8839Y-6.1098
X6.8839Y-6.2098
X6.8839Y-6.3098
X6.8839Y-6.4098
X6.8839Y-6.5098
X6.8839Y-6.6098
X6.9055Y-3.0748
X7.0315Y-7.4866
X7.0315Y-7.5866
X7.0315Y-7.6866
X7.0315Y-7.7866
X7.0315Y-7.8866
X7.0315Y-7.9866
X7.0315Y-8.0866
X7.0791Y-7.352
X7.1024Y-3.0748
X7.1701Y-3.1874
X7.1701Y-3.2874
X7.1701Y-3.3874
X7.1701Y-3.4874
X7.1701Y-3.5874
X7.1701Y-3.6874
X7.1701Y-3.7874
X7.1701Y-3.8874
X7.1701Y-3.9874
X7.1701Y-4.0874
X7.1701Y-4.1874
X7.1701Y-4.2874
X7.276Y-7.352
X7.3315Y-7.4866
X7.3315Y-7.5866
X7.3315Y-7.6866
X7.3315Y-7.7866
X7.3315Y-7.8866
X7.3315Y-7.9866
X7.3315Y-8.0866
X7.4165Y-4.6945
X7.4165Y-4.7945
X7.4165Y-4.8945
X7.4165Y-4.9945
X7.4165Y-5.0945
X7.4165Y-5.1945
X7.4165Y-5.2945
X7.4165Y-5.3945
X7.4165Y-5.4945
X7.4165Y-5.5945
X7.4165Y-5.6945
X7.4165Y-5.7945
X7.4165Y-5.8945
X7.4165Y-5.9945
X7.4165Y-6.0945
X7.4165Y-6.1945
X7.4165Y-6.2945
X7.4165Y-6.3945
X7.4165Y-6.4945
X7.4165Y-6.5945
X7.5394Y-3.1874
X7.5394Y-3.2874
X7.5394Y-3.3874
X7.5394Y-3.4874
X7.5394Y-3.5874
X7.5394Y-3.6874
X7.5394Y-3.7874
X7.5394Y-3.8874
X7.5394Y-3.9874
X7.5394Y-4.0874
X7.5827Y-3.0709
X7.6Y-7.4803
X7.6Y-7.5803
X7.6Y-7.6803
X7.6Y-7.7803
X7.6Y-7.8803
X7.6Y-7.9803
X7.6Y-8.0803
X7.626Y-4.5315
X7.6303Y-7.3283
X7.7795Y-3.0709
X7.8228Y-4.5315
X7.8272Y-7.3283
X7.8394Y-3.1874
X7.8394Y-3.2874
X7.8394Y-3.3874
X7.8394Y-3.4874
X7.8394Y-3.5874
X7.8394Y-3.6874
X7.8394Y-3.7874
X7.8394Y-3.8874
X7.8394Y-3.9874
X7.8394Y-4.0874
X7.9Y-7.4803
X7.9Y-7.5803
X7.9Y-7.6803
X7.9Y-7.7803
X7.9Y-7.8803
X7.9Y-7.9803
X7.9Y-8.0803
X8.0165Y-4.6945
X8.0165Y-4.7945
X8.0165Y-4.8945
X8.0165Y-4.9945
X8.0165Y-5.0945
X8.0165Y-5.1945
X8.0165Y-5.2945
X8.0165Y-5.3945
X8.0165Y-5.4945
X8.0165Y-5.5945
X8.0165Y-5.6945
X8.0165Y-5.7945
X8.0165Y-5.8945
X8.0165Y-5.9945
X8.0165Y-6.0945
X8.0165Y-6.1945
X8.0165Y-6.2945
X8.0165Y-6.3945
X8.0165Y-6.4945
X8.0165Y-6.5945
X8.1654Y-3.1874
X8.1654Y-3.2874
X8.1654Y-3.3874
X8.1654Y-3.4874
X8.1654Y-3.5874
X8.1654Y-3.6874
X8.1654Y-3.7874
X8.1654Y-3.8874
X8.1654Y-3.9874
X8.1654Y-4.0874
X8.2126Y-3.0709
X8.2429Y-7.4724
X8.2429Y-7.5724
X8.2429Y-7.6724
X8.2429Y-7.7724
X8.2429Y-7.8724
X8.2429Y-7.9724
X8.2429Y-8.0724
X8.2878Y-7.3244
X8.4094Y-3.0709
X8.4654Y-3.1874
X8.4654Y-3.2874
X8.4654Y-3.3874
X8.4654Y-3.4874
X8.4654Y-3.5874
X8.4654Y-3.6874
X8.4654Y-3.7874
X8.4654Y-3.8874
X8.4654Y-3.9874
X8.4654Y-4.0874
X8.4846Y-7.3244
X8.5429Y-7.4724
X8.5429Y-7.5724
X8.5429Y-7.6724
X8.5429Y-7.7724
X8.5429Y-7.8724
X8.5429Y-7.9724
X8.5429Y-8.0724
X8.9563Y-7.9681
X8.9563Y-8.165
X9.252Y-5.0571
X9.252Y-5.1571
X9.252Y-5.2571
X9.252Y-5.3571
X9.252Y-5.4571
X9.252Y-5.5571
X9.252Y-5.6571
X9.252Y-5.7571
X9.252Y-5.8571
X9.252Y-5.9571
X9.252Y-6.0571
X9.252Y-6.1571
X9.252Y-6.2571
X9.252Y-6.3571
X9.252Y-6.4571
X9.252Y-6.5571
X9.252Y-6.6571
X9.252Y-6.7571
X9.252Y-6.8571
X9.252Y-6.9571
X9.4169Y-4.2634
X9.4169Y-4.5634
X9.4528Y-4.9409
X9.4606Y-4.0984
X9.6496Y-4.9409
X9.6575Y-4.0984
X9.7169Y-4.2634
X9.7169Y-4.5634
X9.852Y-5.0571
X9.852Y-5.1571
X9.852Y-5.2571
X9.852Y-5.3571
X9.852Y-5.4571
X9.852Y-5.5571
X9.852Y-5.6571
X9.852Y-5.7571
X9.852Y-5.8571
X9.852Y-5.9571
X9.852Y-6.0571
X9.852Y-6.1571
X9.852Y-6.2571
X9.852Y-6.3571
X9.852Y-6.4571
X9.852Y-6.5571
X9.852Y-6.6571
X9.852Y-6.7571
X9.852Y-6.8571
X9.852Y-6.9571
X10.2283Y-3.5197
X10.2283Y-3.6197
X10.2283Y-3.7197
X10.2283Y-3.8197
X10.2283Y-3.9197
X10.2283Y-4.0197
X10.5276Y-3.5118
X10.5276Y-3.6118
X10.5276Y-3.7118
X10.5276Y-3.8118
X10.5276Y-3.9118
X10.5276Y-4.0118
X10.528Y-4.7618
X10.528Y-4.8618
X10.528Y-4.9618
X10.528Y-5.0618
X10.528Y-5.1618
X10.528Y-5.2618
X10.528Y-5.3618
X10.528Y-5.4618
X10.528Y-5.5618
X10.528Y-5.6618
X10.5469Y-6.0795
X10.5469Y-6.1795
X10.5469Y-6.2795
X10.5469Y-6.3795
X10.5469Y-6.4795
X10.5469Y-6.5795
X10.5469Y-6.6795
X10.5469Y-6.7795
X10.5469Y-6.8795
X10.5469Y-6.9795
X10.5567Y-4.6102
X10.5906Y-5.9409
X10.7535Y-4.6102
X10.7874Y-5.9409
X10.828Y-4.7618
X10.828Y-4.8618
X10.828Y-4.9618
X10.828Y-5.0618
X10.828Y-5.1618
X10.828Y-5.2618
X10.828Y-5.3618
X10.828Y-5.4618
X10.828Y-5.5618
X10.828Y-5.6618
X10.8469Y-6.0795
X10.8469Y-6.1795
X10.8469Y-6.2795
X10.8469Y-6.3795
X10.8469Y-6.4795
X10.8469Y-6.5795
X10.8469Y-6.6795
X10.8469Y-6.7795
X10.8469Y-6.8795
X10.8469Y-6.9795
X11.3037Y-6.1337
X11.3037Y-6.2337
X11.3037Y-6.3337
X11.3037Y-6.4337
X11.3037Y-6.5337
X11.3037Y-6.6337
X11.3037Y-6.7337
X11.3037Y-6.8337
X11.3037Y-6.9337
X11.3037Y-7.0337
X11.3037Y-7.1337
X11.3037Y-7.2337
X11.3037Y-7.3337
X11.3037Y-7.4337
X11.3701Y-3.7913
X11.3701Y-3.8913
X11.3701Y-3.9913
X11.3701Y-4.0913
X11.3701Y-4.1913
X11.3701Y-4.2913
X11.3701Y-4.3913
X11.3701Y-4.4913
X11.3701Y-4.5913
X11.3701Y-4.6913
X11.4281Y-3.6486
X11.625Y-3.6486
X11.6701Y-3.7913
X11.6701Y-3.8913
X11.6701Y-3.9913
X11.6701Y-4.0913
X11.6701Y-4.1913
X11.6701Y-4.2913
X11.6701Y-4.3913
X11.6701Y-4.4913
X11.6701Y-4.5913
X11.6701Y-4.6913
X11.9037Y-6.1337
X11.9037Y-6.2337
X11.9037Y-6.3337
X11.9037Y-6.4337
X11.9037Y-6.5337
X11.9037Y-6.6337
X11.9037Y-6.7337
X11.9037Y-6.8337
X11.9037Y-6.9337
X11.9037Y-7.0337
X11.9037Y-7.1337
X11.9037Y-7.2337
X11.9037Y-7.3337
X11.9037Y-7.4337
X11.9919Y-3.7953
X11.9919Y-3.8953
X11.9919Y-3.9953
X11.9919Y-4.0953
X11.9919Y-4.1953
X11.9919Y-4.2953
X11.9919Y-4.3953
X11.9919Y-4.4953
X11.9919Y-4.5953
X11.9919Y-4.6953
X12.062Y-3.6506
X12.2589Y-3.6506
X12.2919Y-3.7953
X12.2919Y-3.8953
X12.2919Y-3.9953
X12.2919Y-4.0953
X12.2919Y-4.1953
X12.2919Y-4.2953
X12.2919Y-4.3953
X12.2919Y-4.4953
X12.2919Y-4.5953
X12.2919Y-4.6953
X12.4498Y-5.9348
X12.4498Y-6.0348
X12.4498Y-6.1348
X12.4498Y-6.2348
X12.4498Y-6.3348
X12.4498Y-6.4348
X12.4498Y-6.5348
X12.4498Y-6.6348
X12.4498Y-6.7348
X12.4498Y-6.8348
X12.4498Y-6.9348
X12.4498Y-7.0348
X12.4498Y-7.1348
X12.4498Y-7.2348
X12.4498Y-7.3348
X12.4498Y-7.4348
X12.6137Y-3.7953
X12.6137Y-3.8953
X12.6137Y-3.9953
X12.6137Y-4.0953
X12.6137Y-4.1953
X12.6137Y-4.2953
X12.6137Y-4.3953
X12.6137Y-4.4953
X12.6137Y-4.5953
X12.6137Y-4.6953
X12.6447Y-5.7687
X12.689Y-3.6437
X12.8415Y-5.7687
X12.8858Y-3.6437
X12.9137Y-3.7953
X12.9137Y-3.8953
X12.9137Y-3.9953
X12.9137Y-4.0953
X12.9137Y-4.1953
X12.9137Y-4.2953
X12.9137Y-4.3953
X12.9137Y-4.4953
X12.9137Y-4.5953
X12.9137Y-4.6953
X13.0498Y-5.9348
X13.0498Y-6.0348
X13.0498Y-6.1348
X13.0498Y-6.2348
X13.0498Y-6.3348
X13.0498Y-6.4348
X13.0498Y-6.5348
X13.0498Y-6.6348
X13.0498Y-6.7348
X13.0498Y-6.8348
X13.0498Y-6.9348
X13.0498Y-7.0348
X13.0498Y-7.1348
X13.0498Y-7.2348
X13.0498Y-7.3348
X13.0498Y-7.4348
X13.2355Y-3.7953
X13.2355Y-3.8953
X13.2355Y-3.9953
X13.2355Y-4.0953
X13.2355Y-4.1953
X13.2355Y-4.2953
X13.2355Y-4.3953
X13.2355Y-4.4953
X13.2355Y-4.5953
X13.2355Y-4.6953
X13.3041Y-3.6358
X13.501Y-3.6358
X13.5355Y-3.7953
X13.5355Y-3.8953
X13.5355Y-3.9953
X13.5355Y-4.0953
X13.5355Y-4.1953
X13.5355Y-4.2953
X13.5355Y-4.3953
X13.5355Y-4.4953
X13.5355Y-4.5953
X13.5355Y-4.6953
X13.8573Y-3.7953
X13.8573Y-3.8953
X13.8573Y-3.9953
X13.8573Y-4.0953
X13.8573Y-4.1953
X13.8573Y-4.2953
X13.8573Y-4.3953
X13.8573Y-4.4953
X13.8573Y-4.5953
X13.8573Y-4.6953
X13.8976Y-3.6407
X13.9071Y-6.0752
X13.9071Y-6.1752
X13.9071Y-6.2752
X13.9071Y-6.3752
X13.9071Y-6.4752
X13.9071Y-6.5752
X13.9071Y-6.6752
X13.9071Y-6.7752
X13.9071Y-6.8752
X13.9071Y-6.9752
X13.9071Y-7.0752
X13.9071Y-7.1752
X13.9071Y-7.2752
X13.9071Y-7.3752
X14.0157Y-7.8661
X14.0157Y-7.9661
X14.0157Y-8.0661
X14.0157Y-8.1661
X14.0669Y-7.7362
X14.0945Y-3.6407
X14.1573Y-3.7953
X14.1573Y-3.8953
X14.1573Y-3.9953
X14.1573Y-4.0953
X14.1573Y-4.1953
X14.1573Y-4.2953
X14.1573Y-4.3953
X14.1573Y-4.4953
X14.1573Y-4.5953
X14.1573Y-4.6953
X14.2638Y-7.7362
X14.3157Y-7.8661
X14.3157Y-7.9661
X14.3157Y-8.0661
X14.3157Y-8.1661
X14.5071Y-6.0752
X14.5071Y-6.1752
X14.5071Y-6.2752
X14.5071Y-6.3752
X14.5071Y-6.4752
X14.5071Y-6.5752
X14.5071Y-6.6752
X14.5071Y-6.7752
X14.5071Y-6.8752
X14.5071Y-6.9752
X14.5071Y-7.0752
X14.5071Y-7.1752
X14.5071Y-7.2752
X14.5071Y-7.3752
X14.6181Y-3.9583
X14.6181Y-4.0583
X14.6181Y-4.1583
X14.6181Y-4.2583
X14.6181Y-4.3583
X14.6181Y-4.4583
X14.6181Y-4.5583
X14.6181Y-4.6583
X14.6181Y-4.7583
X14.6181Y-4.8583
X14.9685Y-3.4646
X14.9685Y-3.5646
X14.9685Y-3.6646
X14.9685Y-3.7646
X14.9685Y-3.8646
X14.9685Y-3.9646
T7
X11.5591Y-8.063
X11.6591Y-8.063
T8
X1.7992Y-3.8465
X1.7992Y-3.9465
X1.8992Y-3.8465
X1.8992Y-3.9465
X5.3386Y-2.9685
X5.4386Y-2.9685
X5.5386Y-2.9685
X5.6386Y-2.9685
X5.7323Y-3.5575
X5.7323Y-3.6575
X5.7386Y-2.9685
X5.8323Y-3.5575
X5.8323Y-3.6575
X5.8386Y-2.9685
X5.9323Y-3.5575
X5.9323Y-3.6575
X6.0323Y-3.5575
X6.0323Y-3.6575
X6.1323Y-3.5575
X6.1323Y-3.6575
X6.1545Y-2.9354
X6.1545Y-3.0354
X6.2323Y-3.5575
X6.2323Y-3.6575
X6.2545Y-2.9354
X6.2545Y-3.0354
X6.2594Y-4.0626
X6.3323Y-3.5575
X6.3323Y-3.6575
X6.3545Y-2.9354
X6.3545Y-3.0354
X6.3594Y-4.0626
X6.4323Y-3.5575
X6.4323Y-3.6575
X6.4545Y-2.9354
X6.4545Y-3.0354
X6.4594Y-4.0626
X6.5545Y-2.9354
X6.5545Y-3.0354
X9.7126Y-3.3921
X9.7126Y-3.4921
X9.7126Y-3.5921
X9.7126Y-3.6921
X9.8126Y-3.3921
X9.8126Y-3.4921
X9.8126Y-3.5921
X9.8126Y-3.6921
X10.7756Y-7.8858
X10.7756Y-7.9858
X10.7756Y-8.0858
X11.185Y-7.9764
X11.185Y-8.0764
X11.5148Y-5.7096
X11.6148Y-5.7096
X11.7148Y-5.7096
X11.976Y-3.1421
X11.976Y-3.2421
X12.076Y-3.1421
X12.076Y-3.2421
X12.176Y-3.1421
X12.176Y-3.2421
X12.276Y-3.1421
X12.276Y-3.2421
X12.376Y-3.1421
X12.376Y-3.2421
X12.476Y-3.1421
X12.476Y-3.2421
X12.576Y-3.1421
X12.576Y-3.2421
X12.6447Y-5.5719
X12.676Y-3.1421
X12.676Y-3.2421
X12.7447Y-5.5719
X12.776Y-3.1421
X12.776Y-3.2421
X12.8447Y-5.5719
X12.876Y-3.1421
X12.876Y-3.2421
X12.976Y-3.1421
X12.976Y-3.2421
X13.076Y-3.1421
X13.076Y-3.2421
X13.176Y-3.1421
X13.176Y-3.2421
X13.276Y-3.1421
X13.276Y-3.2421
X13.376Y-3.1421
X13.376Y-3.2421
X13.476Y-3.1421
X13.476Y-3.2421
X13.576Y-3.1421
X13.576Y-3.2421
X13.676Y-3.1421
X13.676Y-3.2421
X13.776Y-3.1421
X13.776Y-3.2421
X13.876Y-3.1421
X13.876Y-3.2421
X14.9409Y-4.989
X14.9409Y-5.098
X14.9409Y-5.2071
X14.9409Y-5.3161
X14.9409Y-5.4252
X14.9449Y-6.4339
X14.9449Y-6.5429
X14.9449Y-6.652
X14.9449Y-6.761
X14.9449Y-6.8701
X15.0528Y-5.0435
X15.0528Y-5.1526
X15.0528Y-5.2616
X15.0528Y-5.3707
X15.0567Y-6.4884
X15.0567Y-6.5974
X15.0567Y-6.7065
X15.0567Y-6.8156
T9
X13.6112Y-5.436
T10
X1.2559Y-3.5906
X1.2638Y-4.1929
X1.3543Y-3.1969
X1.3622Y-3.7992
X1.4528Y-3.5906
X1.4606Y-4.1929
X3.7402Y-3.2913
X3.8386Y-3.3898
X3.937Y-2.8976
X4.0354Y-3.2913
X4.0354Y-3.4882
X4.1339Y-2.8976
X4.2323Y-3.3898
X4.3307Y-3.2913
X9.3382Y-8.0929
X9.535Y-8.0929
X9.7319Y-8.0929
X9.9287Y-8.0929
T11
X14.3986Y-5.436
T12
X3.2559Y-2.8583
X3.3346Y-2.9528
X3.3346Y-3.1693
T13
X14.9969Y-4.715
X14.9969Y-5.6992
X15.0008Y-6.1598
X15.0008Y-7.1441
T8
G00X2.3386Y-3.1319
M15
G01X2.3386Y-3.0807
M16
G05
T10
G00X2.2972Y-2.9291
M15
G01X2.3799Y-2.9291
M16
G05
T0
M30
