G04 #@! TF.GenerationSoftware,KiCad,Pcbnew,(6.0.6)*
G04 #@! TF.CreationDate,2022-08-01T08:11:52-05:00*
G04 #@! TF.ProjectId,we816,77653831-362e-46b6-9963-61645f706362,rev?*
G04 #@! TF.SameCoordinates,Original*
G04 #@! TF.FileFunction,Soldermask,Bot*
G04 #@! TF.FilePolarity,Negative*
%FSLAX46Y46*%
G04 Gerber Fmt 4.6, Leading zero omitted, Abs format (unit mm)*
G04 Created by KiCad (PCBNEW (6.0.6)) date 2022-08-01 08:11:52*
%MOMM*%
%LPD*%
G01*
G04 APERTURE LIST*
G04 Aperture macros list*
%AMRoundRect*
0 Rectangle with rounded corners*
0 $1 Rounding radius*
0 $2 $3 $4 $5 $6 $7 $8 $9 X,Y pos of 4 corners*
0 Add a 4 corners polygon primitive as box body*
4,1,4,$2,$3,$4,$5,$6,$7,$8,$9,$2,$3,0*
0 Add four circle primitives for the rounded corners*
1,1,$1+$1,$2,$3*
1,1,$1+$1,$4,$5*
1,1,$1+$1,$6,$7*
1,1,$1+$1,$8,$9*
0 Add four rect primitives between the rounded corners*
20,1,$1+$1,$2,$3,$4,$5,0*
20,1,$1+$1,$4,$5,$6,$7,0*
20,1,$1+$1,$6,$7,$8,$9,0*
20,1,$1+$1,$8,$9,$2,$3,0*%
G04 Aperture macros list end*
%ADD10C,2.108000*%
%ADD11RoundRect,0.254000X-0.800000X-0.800000X0.800000X-0.800000X0.800000X0.800000X-0.800000X0.800000X0*%
%ADD12O,2.108000X2.108000*%
%ADD13RoundRect,0.254000X-1.200000X-0.800000X1.200000X-0.800000X1.200000X0.800000X-1.200000X0.800000X0*%
%ADD14O,2.908000X2.108000*%
%ADD15C,4.508000*%
%ADD16RoundRect,0.254000X0.800000X-0.800000X0.800000X0.800000X-0.800000X0.800000X-0.800000X-0.800000X0*%
%ADD17RoundRect,0.254000X-0.600000X-0.600000X0.600000X-0.600000X0.600000X0.600000X-0.600000X0.600000X0*%
%ADD18C,1.708000*%
%ADD19RoundRect,0.254000X-0.900000X-0.900000X0.900000X-0.900000X0.900000X0.900000X-0.900000X0.900000X0*%
%ADD20C,2.308000*%
%ADD21RoundRect,0.254000X-0.850000X-0.850000X0.850000X-0.850000X0.850000X0.850000X-0.850000X0.850000X0*%
%ADD22O,2.208000X2.208000*%
%ADD23RoundRect,0.254000X0.850000X-0.850000X0.850000X0.850000X-0.850000X0.850000X-0.850000X-0.850000X0*%
%ADD24RoundRect,0.254000X-1.250000X-1.250000X1.250000X-1.250000X1.250000X1.250000X-1.250000X1.250000X0*%
%ADD25C,3.008000*%
%ADD26RoundRect,0.254000X-0.800000X0.800000X-0.800000X-0.800000X0.800000X-0.800000X0.800000X0.800000X0*%
%ADD27RoundRect,0.254000X-0.550000X-0.900000X0.550000X-0.900000X0.550000X0.900000X-0.550000X0.900000X0*%
%ADD28RoundRect,0.529000X-0.275000X-0.625000X0.275000X-0.625000X0.275000X0.625000X-0.275000X0.625000X0*%
%ADD29C,1.908000*%
%ADD30O,1.908000X1.908000*%
%ADD31C,2.848000*%
%ADD32C,1.508000*%
%ADD33C,2.008000*%
%ADD34C,2.908000*%
%ADD35C,2.458000*%
%ADD36O,4.708000X2.608000*%
%ADD37O,2.058000X3.608000*%
%ADD38RoundRect,0.254000X-1.085000X-1.085000X1.085000X-1.085000X1.085000X1.085000X-1.085000X1.085000X0*%
%ADD39C,3.708000*%
%ADD40C,3.308000*%
%ADD41RoundRect,0.254000X-0.850000X0.850000X-0.850000X-0.850000X0.850000X-0.850000X0.850000X0.850000X0*%
G04 APERTURE END LIST*
D10*
X245100000Y-125500000D03*
X240100000Y-125500000D03*
X184810000Y-186740000D03*
X179810000Y-186740000D03*
X102025000Y-179100000D03*
X97025000Y-179100000D03*
X274000000Y-150900000D03*
X269000000Y-150900000D03*
X295275000Y-92675000D03*
X290275000Y-92675000D03*
X227490000Y-202390000D03*
X227490000Y-207390000D03*
X169010000Y-186440000D03*
X164010000Y-186440000D03*
X198810000Y-186140000D03*
X193810000Y-186140000D03*
X215510000Y-186040000D03*
X210510000Y-186040000D03*
X198700000Y-115100000D03*
X193700000Y-115100000D03*
X97700000Y-122700000D03*
X102700000Y-122700000D03*
D11*
X92540000Y-126820000D03*
D12*
X92540000Y-129360000D03*
X92540000Y-131900000D03*
X92540000Y-134440000D03*
X92540000Y-136980000D03*
X92540000Y-139520000D03*
X92540000Y-142060000D03*
X92540000Y-144600000D03*
X92540000Y-147140000D03*
X92540000Y-149680000D03*
X92540000Y-152220000D03*
X92540000Y-154760000D03*
X92540000Y-157300000D03*
X92540000Y-159840000D03*
X107780000Y-159840000D03*
X107780000Y-157300000D03*
X107780000Y-154760000D03*
X107780000Y-152220000D03*
X107780000Y-149680000D03*
X107780000Y-147140000D03*
X107780000Y-144600000D03*
X107780000Y-142060000D03*
X107780000Y-139520000D03*
X107780000Y-136980000D03*
X107780000Y-134440000D03*
X107780000Y-131900000D03*
X107780000Y-129360000D03*
X107780000Y-126820000D03*
D13*
X66690000Y-111660000D03*
D14*
X66690000Y-114200000D03*
X66690000Y-116740000D03*
X66690000Y-119280000D03*
X66690000Y-121820000D03*
X66690000Y-124360000D03*
X66690000Y-126900000D03*
X66690000Y-129440000D03*
X66690000Y-131980000D03*
X66690000Y-134520000D03*
X66690000Y-137060000D03*
X66690000Y-139600000D03*
X66690000Y-142140000D03*
X66690000Y-144680000D03*
X66690000Y-147220000D03*
X66690000Y-149760000D03*
X66690000Y-152300000D03*
X66690000Y-154840000D03*
X66690000Y-157380000D03*
X66690000Y-159920000D03*
X81930000Y-159920000D03*
X81930000Y-157380000D03*
X81930000Y-154840000D03*
X81930000Y-152300000D03*
X81930000Y-149760000D03*
X81930000Y-147220000D03*
X81930000Y-144680000D03*
X81930000Y-142140000D03*
X81930000Y-139600000D03*
X81930000Y-137060000D03*
X81930000Y-134520000D03*
X81930000Y-131980000D03*
X81930000Y-129440000D03*
X81930000Y-126900000D03*
X81930000Y-124360000D03*
X81930000Y-121820000D03*
X81930000Y-119280000D03*
X81930000Y-116740000D03*
X81930000Y-114200000D03*
X81930000Y-111660000D03*
D11*
X121700000Y-113210000D03*
D12*
X121700000Y-115750000D03*
X121700000Y-118290000D03*
X121700000Y-120830000D03*
X121700000Y-123370000D03*
X121700000Y-125910000D03*
X121700000Y-128450000D03*
X121700000Y-130990000D03*
X121700000Y-133530000D03*
X121700000Y-136070000D03*
X121700000Y-138610000D03*
X121700000Y-141150000D03*
X121700000Y-143690000D03*
X121700000Y-146230000D03*
X121700000Y-148770000D03*
X121700000Y-151310000D03*
X121700000Y-153850000D03*
X121700000Y-156390000D03*
X121700000Y-158930000D03*
X121700000Y-161470000D03*
X136940000Y-161470000D03*
X136940000Y-158930000D03*
X136940000Y-156390000D03*
X136940000Y-153850000D03*
X136940000Y-151310000D03*
X136940000Y-148770000D03*
X136940000Y-146230000D03*
X136940000Y-143690000D03*
X136940000Y-141150000D03*
X136940000Y-138610000D03*
X136940000Y-136070000D03*
X136940000Y-133530000D03*
X136940000Y-130990000D03*
X136940000Y-128450000D03*
X136940000Y-125910000D03*
X136940000Y-123370000D03*
X136940000Y-120830000D03*
X136940000Y-118290000D03*
X136940000Y-115750000D03*
X136940000Y-113210000D03*
D15*
X381020000Y-181460000D03*
X381020000Y-156460000D03*
D16*
X379600000Y-174500000D03*
D10*
X379600000Y-171730000D03*
X379600000Y-168960000D03*
X379600000Y-166190000D03*
X379600000Y-163420000D03*
X382440000Y-173115000D03*
X382440000Y-170345000D03*
X382440000Y-167575000D03*
X382440000Y-164805000D03*
D17*
X262400000Y-204100000D03*
D18*
X264400000Y-204100000D03*
D10*
X245300000Y-104100000D03*
X240300000Y-104100000D03*
D17*
X262400000Y-195200000D03*
D18*
X264400000Y-195200000D03*
D17*
X144400000Y-178900000D03*
D18*
X146400000Y-178900000D03*
D17*
X144400000Y-186400000D03*
D18*
X146400000Y-186400000D03*
D17*
X144500000Y-201000000D03*
D18*
X146500000Y-201000000D03*
D17*
X144500000Y-194200000D03*
D18*
X146500000Y-194200000D03*
D17*
X144500000Y-207500000D03*
D18*
X146500000Y-207500000D03*
D10*
X311375000Y-92725000D03*
X306375000Y-92725000D03*
X273140000Y-117100000D03*
X268140000Y-117100000D03*
X327300000Y-92550000D03*
X322300000Y-92550000D03*
X95600000Y-106400000D03*
X100600000Y-106400000D03*
X95600000Y-102000000D03*
X100600000Y-102000000D03*
D17*
X55400000Y-92700000D03*
D18*
X57400000Y-92700000D03*
D17*
X103900000Y-94700000D03*
D18*
X105900000Y-94700000D03*
D10*
X59500000Y-100400000D03*
X54500000Y-100400000D03*
X32000000Y-113800000D03*
X32000000Y-118800000D03*
X86700000Y-89700000D03*
X81700000Y-89700000D03*
D17*
X106400000Y-103300000D03*
D18*
X108400000Y-103300000D03*
D17*
X110600000Y-94100000D03*
D18*
X112600000Y-94100000D03*
D19*
X293600000Y-204800000D03*
D20*
X296140000Y-204800000D03*
D21*
X246700000Y-86160000D03*
D22*
X249240000Y-86160000D03*
X246700000Y-88700000D03*
X249240000Y-88700000D03*
X246700000Y-91240000D03*
X249240000Y-91240000D03*
X246700000Y-93780000D03*
X249240000Y-93780000D03*
D15*
X380920000Y-119760000D03*
X380920000Y-144760000D03*
D16*
X379500000Y-137800000D03*
D10*
X379500000Y-135030000D03*
X379500000Y-132260000D03*
X379500000Y-129490000D03*
X379500000Y-126720000D03*
X382340000Y-136415000D03*
X382340000Y-133645000D03*
X382340000Y-130875000D03*
X382340000Y-128105000D03*
D23*
X145600000Y-92900000D03*
D22*
X145600000Y-90360000D03*
X148140000Y-92900000D03*
X148140000Y-90360000D03*
X150680000Y-92900000D03*
X150680000Y-90360000D03*
X153220000Y-92900000D03*
X153220000Y-90360000D03*
X155760000Y-92900000D03*
X155760000Y-90360000D03*
X158300000Y-92900000D03*
X158300000Y-90360000D03*
X160840000Y-92900000D03*
X160840000Y-90360000D03*
X163380000Y-92900000D03*
X163380000Y-90360000D03*
D21*
X273700000Y-200300000D03*
D22*
X273700000Y-202840000D03*
X273700000Y-205380000D03*
D10*
X55400000Y-86000000D03*
D12*
X65560000Y-86000000D03*
D24*
X237190000Y-205560000D03*
D25*
X242190000Y-205560000D03*
X247190000Y-205560000D03*
X252190000Y-205560000D03*
D21*
X284100000Y-202600000D03*
D22*
X284100000Y-205140000D03*
D26*
X239190000Y-108290000D03*
D10*
X239190000Y-115910000D03*
X246810000Y-115910000D03*
X246810000Y-108290000D03*
D27*
X62200000Y-93400000D03*
D28*
X63470000Y-91330000D03*
X64740000Y-93400000D03*
D29*
X275200000Y-194600000D03*
D30*
X270120000Y-194600000D03*
D29*
X284800000Y-194900000D03*
D30*
X279720000Y-194900000D03*
D29*
X295300000Y-195000000D03*
D30*
X290220000Y-195000000D03*
D29*
X213400000Y-157000000D03*
D30*
X213400000Y-162080000D03*
D29*
X72900000Y-75300000D03*
D30*
X72900000Y-80380000D03*
D29*
X68900000Y-75400000D03*
D30*
X68900000Y-80480000D03*
D29*
X76200000Y-89600000D03*
D30*
X71120000Y-89600000D03*
D29*
X76100000Y-94900000D03*
D30*
X71020000Y-94900000D03*
D29*
X32500000Y-144900000D03*
D30*
X32500000Y-149980000D03*
D29*
X32315000Y-136635000D03*
D30*
X32315000Y-141715000D03*
D29*
X96000000Y-96700000D03*
D30*
X90920000Y-96700000D03*
D29*
X96500000Y-92100000D03*
D30*
X91420000Y-92100000D03*
D29*
X86700000Y-94400000D03*
D30*
X81620000Y-94400000D03*
D29*
X86300000Y-98600000D03*
D30*
X81220000Y-98600000D03*
D29*
X217600000Y-157100000D03*
D30*
X217600000Y-162180000D03*
D29*
X213300000Y-148100000D03*
D30*
X213300000Y-153180000D03*
D26*
X267400000Y-89200000D03*
D12*
X267400000Y-91740000D03*
X267400000Y-94280000D03*
X267400000Y-96820000D03*
X267400000Y-99360000D03*
X267400000Y-101900000D03*
D16*
X380200000Y-100700000D03*
D12*
X380200000Y-98160000D03*
X380200000Y-95620000D03*
X380200000Y-93080000D03*
X380200000Y-90540000D03*
X380200000Y-88000000D03*
D16*
X371300000Y-123400000D03*
D12*
X371300000Y-120860000D03*
X371300000Y-118320000D03*
X371300000Y-115780000D03*
X371300000Y-113240000D03*
X371300000Y-110700000D03*
X371300000Y-108160000D03*
X371300000Y-105620000D03*
X371300000Y-103080000D03*
X371300000Y-100540000D03*
D31*
X36900000Y-91200000D03*
X34400000Y-81200000D03*
X31900000Y-91200000D03*
X37100000Y-106500000D03*
X34600000Y-96500000D03*
X32100000Y-106500000D03*
D11*
X193040000Y-190000000D03*
D12*
X193040000Y-192540000D03*
X193040000Y-195080000D03*
X193040000Y-197620000D03*
X193040000Y-200160000D03*
X193040000Y-202700000D03*
X193040000Y-205240000D03*
X200660000Y-205240000D03*
X200660000Y-202700000D03*
X200660000Y-200160000D03*
X200660000Y-197620000D03*
X200660000Y-195080000D03*
X200660000Y-192540000D03*
X200660000Y-190000000D03*
D11*
X235000000Y-128450000D03*
D12*
X235000000Y-130990000D03*
X235000000Y-133530000D03*
X235000000Y-136070000D03*
X235000000Y-138610000D03*
X235000000Y-141150000D03*
X235000000Y-143690000D03*
X235000000Y-146230000D03*
X235000000Y-148770000D03*
X235000000Y-151310000D03*
X235000000Y-153850000D03*
X235000000Y-156390000D03*
X235000000Y-158930000D03*
X235000000Y-161470000D03*
X235000000Y-164010000D03*
X235000000Y-166550000D03*
X235000000Y-169090000D03*
X235000000Y-171630000D03*
X235000000Y-174170000D03*
X235000000Y-176710000D03*
X250240000Y-176710000D03*
X250240000Y-174170000D03*
X250240000Y-171630000D03*
X250240000Y-169090000D03*
X250240000Y-166550000D03*
X250240000Y-164010000D03*
X250240000Y-161470000D03*
X250240000Y-158930000D03*
X250240000Y-156390000D03*
X250240000Y-153850000D03*
X250240000Y-151310000D03*
X250240000Y-148770000D03*
X250240000Y-146230000D03*
X250240000Y-143690000D03*
X250240000Y-141150000D03*
X250240000Y-138610000D03*
X250240000Y-136070000D03*
X250240000Y-133530000D03*
X250240000Y-130990000D03*
X250240000Y-128450000D03*
D13*
X209370000Y-189800000D03*
D14*
X209370000Y-192340000D03*
X209370000Y-194880000D03*
X209370000Y-197420000D03*
X209370000Y-199960000D03*
X209370000Y-202500000D03*
X209370000Y-205040000D03*
X216990000Y-205040000D03*
X216990000Y-202500000D03*
X216990000Y-199960000D03*
X216990000Y-197420000D03*
X216990000Y-194880000D03*
X216990000Y-192340000D03*
X216990000Y-189800000D03*
D13*
X267410000Y-120950000D03*
D14*
X267410000Y-123490000D03*
X267410000Y-126030000D03*
X267410000Y-128570000D03*
X267410000Y-131110000D03*
X267410000Y-133650000D03*
X267410000Y-136190000D03*
X267410000Y-138730000D03*
X267410000Y-141270000D03*
X267410000Y-143810000D03*
X275030000Y-143810000D03*
X275030000Y-141270000D03*
X275030000Y-138730000D03*
X275030000Y-136190000D03*
X275030000Y-133650000D03*
X275030000Y-131110000D03*
X275030000Y-128570000D03*
X275030000Y-126030000D03*
X275030000Y-123490000D03*
X275030000Y-120950000D03*
D13*
X267890000Y-154420000D03*
D14*
X267890000Y-156960000D03*
X267890000Y-159500000D03*
X267890000Y-162040000D03*
X267890000Y-164580000D03*
X267890000Y-167120000D03*
X267890000Y-169660000D03*
X267890000Y-172200000D03*
X267890000Y-174740000D03*
X267890000Y-177280000D03*
X275510000Y-177280000D03*
X275510000Y-174740000D03*
X275510000Y-172200000D03*
X275510000Y-169660000D03*
X275510000Y-167120000D03*
X275510000Y-164580000D03*
X275510000Y-162040000D03*
X275510000Y-159500000D03*
X275510000Y-156960000D03*
X275510000Y-154420000D03*
D13*
X130290000Y-187680000D03*
D14*
X130290000Y-190220000D03*
X130290000Y-192760000D03*
X130290000Y-195300000D03*
X130290000Y-197840000D03*
X130290000Y-200380000D03*
X130290000Y-202920000D03*
X130290000Y-205460000D03*
X137910000Y-205460000D03*
X137910000Y-202920000D03*
X137910000Y-200380000D03*
X137910000Y-197840000D03*
X137910000Y-195300000D03*
X137910000Y-192760000D03*
X137910000Y-190220000D03*
X137910000Y-187680000D03*
D13*
X351975000Y-96400000D03*
D14*
X351975000Y-98940000D03*
X351975000Y-101480000D03*
X351975000Y-104020000D03*
X351975000Y-106560000D03*
X351975000Y-109100000D03*
X351975000Y-111640000D03*
X351975000Y-114180000D03*
X351975000Y-116720000D03*
X351975000Y-119260000D03*
X359595000Y-119260000D03*
X359595000Y-116720000D03*
X359595000Y-114180000D03*
X359595000Y-111640000D03*
X359595000Y-109100000D03*
X359595000Y-106560000D03*
X359595000Y-104020000D03*
X359595000Y-101480000D03*
X359595000Y-98940000D03*
X359595000Y-96400000D03*
D13*
X336181000Y-96400000D03*
D14*
X336181000Y-98940000D03*
X336181000Y-101480000D03*
X336181000Y-104020000D03*
X336181000Y-106560000D03*
X336181000Y-109100000D03*
X336181000Y-111640000D03*
X336181000Y-114180000D03*
X336181000Y-116720000D03*
X336181000Y-119260000D03*
X343801000Y-119260000D03*
X343801000Y-116720000D03*
X343801000Y-114180000D03*
X343801000Y-111640000D03*
X343801000Y-109100000D03*
X343801000Y-106560000D03*
X343801000Y-104020000D03*
X343801000Y-101480000D03*
X343801000Y-98940000D03*
X343801000Y-96400000D03*
D13*
X320388000Y-96400000D03*
D14*
X320388000Y-98940000D03*
X320388000Y-101480000D03*
X320388000Y-104020000D03*
X320388000Y-106560000D03*
X320388000Y-109100000D03*
X320388000Y-111640000D03*
X320388000Y-114180000D03*
X320388000Y-116720000D03*
X320388000Y-119260000D03*
X328008000Y-119260000D03*
X328008000Y-116720000D03*
X328008000Y-114180000D03*
X328008000Y-111640000D03*
X328008000Y-109100000D03*
X328008000Y-106560000D03*
X328008000Y-104020000D03*
X328008000Y-101480000D03*
X328008000Y-98940000D03*
X328008000Y-96400000D03*
D13*
X304594000Y-96400000D03*
D14*
X304594000Y-98940000D03*
X304594000Y-101480000D03*
X304594000Y-104020000D03*
X304594000Y-106560000D03*
X304594000Y-109100000D03*
X304594000Y-111640000D03*
X304594000Y-114180000D03*
X304594000Y-116720000D03*
X304594000Y-119260000D03*
X312214000Y-119260000D03*
X312214000Y-116720000D03*
X312214000Y-114180000D03*
X312214000Y-111640000D03*
X312214000Y-109100000D03*
X312214000Y-106560000D03*
X312214000Y-104020000D03*
X312214000Y-101480000D03*
X312214000Y-98940000D03*
X312214000Y-96400000D03*
D11*
X38310000Y-112630000D03*
D12*
X38310000Y-115170000D03*
X38310000Y-117710000D03*
X38310000Y-120250000D03*
X38310000Y-122790000D03*
X38310000Y-125330000D03*
X38310000Y-127870000D03*
X38310000Y-130410000D03*
X38310000Y-132950000D03*
X38310000Y-135490000D03*
X38310000Y-138030000D03*
X38310000Y-140570000D03*
X38310000Y-143110000D03*
X38310000Y-145650000D03*
X38310000Y-148190000D03*
X38310000Y-150730000D03*
X38310000Y-153270000D03*
X38310000Y-155810000D03*
X38310000Y-158350000D03*
X38310000Y-160890000D03*
X53550000Y-160890000D03*
X53550000Y-158350000D03*
X53550000Y-155810000D03*
X53550000Y-153270000D03*
X53550000Y-150730000D03*
X53550000Y-148190000D03*
X53550000Y-145650000D03*
X53550000Y-143110000D03*
X53550000Y-140570000D03*
X53550000Y-138030000D03*
X53550000Y-135490000D03*
X53550000Y-132950000D03*
X53550000Y-130410000D03*
X53550000Y-127870000D03*
X53550000Y-125330000D03*
X53550000Y-122790000D03*
X53550000Y-120250000D03*
X53550000Y-117710000D03*
X53550000Y-115170000D03*
X53550000Y-112630000D03*
D32*
X367100000Y-196700000D03*
X368800000Y-196700000D03*
D33*
X90600000Y-107000000D03*
X90600000Y-102100000D03*
D10*
X137000000Y-183325000D03*
X132000000Y-183325000D03*
X72500000Y-107600000D03*
X77500000Y-107600000D03*
X126400000Y-91500000D03*
X131400000Y-91500000D03*
X43700000Y-73900000D03*
X48700000Y-73900000D03*
X85000000Y-178600000D03*
X80000000Y-178600000D03*
X42900000Y-108200000D03*
X47900000Y-108200000D03*
X126400000Y-108500000D03*
X131400000Y-108500000D03*
D23*
X321175000Y-141525000D03*
D22*
X323715000Y-141525000D03*
X326255000Y-141525000D03*
D23*
X292475000Y-145025000D03*
D22*
X295015000Y-145025000D03*
X297555000Y-145025000D03*
D10*
X326175000Y-146525000D03*
X321175000Y-146525000D03*
D11*
X287115000Y-155795000D03*
D12*
X287115000Y-158335000D03*
X287115000Y-160875000D03*
X287115000Y-163415000D03*
X287115000Y-165955000D03*
X287115000Y-168495000D03*
X287115000Y-171035000D03*
X287115000Y-173575000D03*
X287115000Y-176115000D03*
X287115000Y-178655000D03*
X287115000Y-181195000D03*
X287115000Y-183735000D03*
X287115000Y-186275000D03*
X287115000Y-188815000D03*
X302355000Y-188815000D03*
X302355000Y-186275000D03*
X302355000Y-183735000D03*
X302355000Y-181195000D03*
X302355000Y-178655000D03*
X302355000Y-176115000D03*
X302355000Y-173575000D03*
X302355000Y-171035000D03*
X302355000Y-168495000D03*
X302355000Y-165955000D03*
X302355000Y-163415000D03*
X302355000Y-160875000D03*
X302355000Y-158335000D03*
X302355000Y-155795000D03*
D11*
X316225000Y-150745000D03*
D12*
X316225000Y-153285000D03*
X316225000Y-155825000D03*
X316225000Y-158365000D03*
X316225000Y-160905000D03*
X316225000Y-163445000D03*
X316225000Y-165985000D03*
X316225000Y-168525000D03*
X316225000Y-171065000D03*
X316225000Y-173605000D03*
X316225000Y-176145000D03*
X316225000Y-178685000D03*
X316225000Y-181225000D03*
X316225000Y-183765000D03*
X316225000Y-186305000D03*
X316225000Y-188845000D03*
X331465000Y-188845000D03*
X331465000Y-186305000D03*
X331465000Y-183765000D03*
X331465000Y-181225000D03*
X331465000Y-178685000D03*
X331465000Y-176145000D03*
X331465000Y-173605000D03*
X331465000Y-171065000D03*
X331465000Y-168525000D03*
X331465000Y-165985000D03*
X331465000Y-163445000D03*
X331465000Y-160905000D03*
X331465000Y-158365000D03*
X331465000Y-155825000D03*
X331465000Y-153285000D03*
X331465000Y-150745000D03*
D10*
X180400000Y-78100000D03*
X175400000Y-78100000D03*
X213600000Y-78000000D03*
X208600000Y-78000000D03*
X197600000Y-78000000D03*
X192600000Y-78000000D03*
D13*
X207400000Y-80960000D03*
D14*
X207400000Y-83500000D03*
X207400000Y-86040000D03*
X207400000Y-88580000D03*
X207400000Y-91120000D03*
X207400000Y-93660000D03*
X207400000Y-96200000D03*
X207400000Y-98740000D03*
X207400000Y-101280000D03*
X207400000Y-103820000D03*
X215020000Y-103820000D03*
X215020000Y-101280000D03*
X215020000Y-98740000D03*
X215020000Y-96200000D03*
X215020000Y-93660000D03*
X215020000Y-91120000D03*
X215020000Y-88580000D03*
X215020000Y-86040000D03*
X215020000Y-83500000D03*
X215020000Y-80960000D03*
D13*
X174500000Y-80960000D03*
D14*
X174500000Y-83500000D03*
X174500000Y-86040000D03*
X174500000Y-88580000D03*
X174500000Y-91120000D03*
X174500000Y-93660000D03*
X174500000Y-96200000D03*
X174500000Y-98740000D03*
X174500000Y-101280000D03*
X174500000Y-103820000D03*
X174500000Y-106360000D03*
X174500000Y-108900000D03*
X182120000Y-108900000D03*
X182120000Y-106360000D03*
X182120000Y-103820000D03*
X182120000Y-101280000D03*
X182120000Y-98740000D03*
X182120000Y-96200000D03*
X182120000Y-93660000D03*
X182120000Y-91120000D03*
X182120000Y-88580000D03*
X182120000Y-86040000D03*
X182120000Y-83500000D03*
X182120000Y-80960000D03*
D13*
X191500000Y-80960000D03*
D14*
X191500000Y-83500000D03*
X191500000Y-86040000D03*
X191500000Y-88580000D03*
X191500000Y-91120000D03*
X191500000Y-93660000D03*
X191500000Y-96200000D03*
X191500000Y-98740000D03*
X191500000Y-101280000D03*
X191500000Y-103820000D03*
X199120000Y-103820000D03*
X199120000Y-101280000D03*
X199120000Y-98740000D03*
X199120000Y-96200000D03*
X199120000Y-93660000D03*
X199120000Y-91120000D03*
X199120000Y-88580000D03*
X199120000Y-86040000D03*
X199120000Y-83500000D03*
X199120000Y-80960000D03*
D10*
X170100000Y-115400000D03*
X165100000Y-115400000D03*
D11*
X159610000Y-119630000D03*
D12*
X159610000Y-122170000D03*
X159610000Y-124710000D03*
X159610000Y-127250000D03*
X159610000Y-129790000D03*
X159610000Y-132330000D03*
X159610000Y-134870000D03*
X159610000Y-137410000D03*
X159610000Y-139950000D03*
X159610000Y-142490000D03*
X159610000Y-145030000D03*
X159610000Y-147570000D03*
X159610000Y-150110000D03*
X159610000Y-152650000D03*
X159610000Y-155190000D03*
X159610000Y-157730000D03*
X159610000Y-160270000D03*
X159610000Y-162810000D03*
X159610000Y-165350000D03*
X159610000Y-167890000D03*
X174850000Y-167890000D03*
X174850000Y-165350000D03*
X174850000Y-162810000D03*
X174850000Y-160270000D03*
X174850000Y-157730000D03*
X174850000Y-155190000D03*
X174850000Y-152650000D03*
X174850000Y-150110000D03*
X174850000Y-147570000D03*
X174850000Y-145030000D03*
X174850000Y-142490000D03*
X174850000Y-139950000D03*
X174850000Y-137410000D03*
X174850000Y-134870000D03*
X174850000Y-132330000D03*
X174850000Y-129790000D03*
X174850000Y-127250000D03*
X174850000Y-124710000D03*
X174850000Y-122170000D03*
X174850000Y-119630000D03*
D11*
X188380000Y-119240000D03*
D12*
X188380000Y-121780000D03*
X188380000Y-124320000D03*
X188380000Y-126860000D03*
X188380000Y-129400000D03*
X188380000Y-131940000D03*
X188380000Y-134480000D03*
X188380000Y-137020000D03*
X188380000Y-139560000D03*
X188380000Y-142100000D03*
X188380000Y-144640000D03*
X188380000Y-147180000D03*
X188380000Y-149720000D03*
X188380000Y-152260000D03*
X188380000Y-154800000D03*
X188380000Y-157340000D03*
X188380000Y-159880000D03*
X188380000Y-162420000D03*
X188380000Y-164960000D03*
X188380000Y-167500000D03*
X203620000Y-167500000D03*
X203620000Y-164960000D03*
X203620000Y-162420000D03*
X203620000Y-159880000D03*
X203620000Y-157340000D03*
X203620000Y-154800000D03*
X203620000Y-152260000D03*
X203620000Y-149720000D03*
X203620000Y-147180000D03*
X203620000Y-144640000D03*
X203620000Y-142100000D03*
X203620000Y-139560000D03*
X203620000Y-137020000D03*
X203620000Y-134480000D03*
X203620000Y-131940000D03*
X203620000Y-129400000D03*
X203620000Y-126860000D03*
X203620000Y-124320000D03*
X203620000Y-121780000D03*
X203620000Y-119240000D03*
D11*
X95826700Y-182730000D03*
D12*
X95826700Y-185270000D03*
X95826700Y-187810000D03*
X95826700Y-190350000D03*
X95826700Y-192890000D03*
X95826700Y-195430000D03*
X95826700Y-197970000D03*
X95826700Y-200510000D03*
X95826700Y-203050000D03*
X95826700Y-205590000D03*
X103446700Y-205590000D03*
X103446700Y-203050000D03*
X103446700Y-200510000D03*
X103446700Y-197970000D03*
X103446700Y-195430000D03*
X103446700Y-192890000D03*
X103446700Y-190350000D03*
X103446700Y-187810000D03*
X103446700Y-185270000D03*
X103446700Y-182730000D03*
D13*
X78595000Y-182730000D03*
D14*
X78595000Y-185270000D03*
X78595000Y-187810000D03*
X78595000Y-190350000D03*
X78595000Y-192890000D03*
X78595000Y-195430000D03*
X78595000Y-197970000D03*
X78595000Y-200510000D03*
X78595000Y-203050000D03*
X78595000Y-205590000D03*
X86215000Y-205590000D03*
X86215000Y-203050000D03*
X86215000Y-200510000D03*
X86215000Y-197970000D03*
X86215000Y-195430000D03*
X86215000Y-192890000D03*
X86215000Y-190350000D03*
X86215000Y-187810000D03*
X86215000Y-185270000D03*
X86215000Y-182730000D03*
D13*
X61363300Y-182730000D03*
D14*
X61363300Y-185270000D03*
X61363300Y-187810000D03*
X61363300Y-190350000D03*
X61363300Y-192890000D03*
X61363300Y-195430000D03*
X61363300Y-197970000D03*
X61363300Y-200510000D03*
X61363300Y-203050000D03*
X61363300Y-205590000D03*
X68983300Y-205590000D03*
X68983300Y-203050000D03*
X68983300Y-200510000D03*
X68983300Y-197970000D03*
X68983300Y-195430000D03*
X68983300Y-192890000D03*
X68983300Y-190350000D03*
X68983300Y-187810000D03*
X68983300Y-185270000D03*
X68983300Y-182730000D03*
D10*
X114675000Y-186200000D03*
X119675000Y-186200000D03*
D11*
X356000000Y-199800000D03*
D12*
X356000000Y-202340000D03*
X356000000Y-204880000D03*
X356000000Y-207420000D03*
X363620000Y-207420000D03*
X363620000Y-204880000D03*
X363620000Y-202340000D03*
X363620000Y-199800000D03*
D10*
X362300000Y-196500000D03*
X357300000Y-196500000D03*
X342925000Y-92350000D03*
X337925000Y-92350000D03*
X358000000Y-92475000D03*
X353000000Y-92475000D03*
D26*
X259800000Y-89400000D03*
D12*
X259800000Y-91940000D03*
X259800000Y-94480000D03*
X259800000Y-97020000D03*
X259800000Y-99560000D03*
X259800000Y-102100000D03*
D34*
X110000000Y-78600000D03*
X95000000Y-78600000D03*
D35*
X95000000Y-83600000D03*
X97500000Y-86100000D03*
X102500000Y-83600000D03*
X107500000Y-86100000D03*
X110000000Y-83600000D03*
X102500000Y-88600000D03*
X105000000Y-73600000D03*
X100000000Y-73600000D03*
D21*
X45700000Y-97700000D03*
D22*
X48240000Y-97700000D03*
X45700000Y-100240000D03*
X48240000Y-100240000D03*
D29*
X32300000Y-129000000D03*
D30*
X32300000Y-134080000D03*
D36*
X59400000Y-74400000D03*
D37*
X59400000Y-78900000D03*
D25*
X365725000Y-138075000D03*
D38*
X345725000Y-138075000D03*
D39*
X32600000Y-75400000D03*
X32600000Y-206100000D03*
X217200000Y-138700000D03*
X378400000Y-75400000D03*
X378400000Y-206100000D03*
D23*
X158990000Y-103190000D03*
D22*
X161530000Y-103190000D03*
X164070000Y-103190000D03*
D11*
X113058000Y-190320000D03*
D12*
X113058000Y-192860000D03*
X113058000Y-195400000D03*
X113058000Y-197940000D03*
X113058000Y-200480000D03*
X113058000Y-203020000D03*
X113058000Y-205560000D03*
X120678000Y-205560000D03*
X120678000Y-203020000D03*
X120678000Y-200480000D03*
X120678000Y-197940000D03*
X120678000Y-195400000D03*
X120678000Y-192860000D03*
X120678000Y-190320000D03*
D11*
X162720000Y-190190000D03*
D12*
X162720000Y-192730000D03*
X162720000Y-195270000D03*
X162720000Y-197810000D03*
X162720000Y-200350000D03*
X162720000Y-202890000D03*
X162720000Y-205430000D03*
X170340000Y-205430000D03*
X170340000Y-202890000D03*
X170340000Y-200350000D03*
X170340000Y-197810000D03*
X170340000Y-195270000D03*
X170340000Y-192730000D03*
X170340000Y-190190000D03*
D11*
X178600000Y-190160000D03*
D12*
X178600000Y-192700000D03*
X178600000Y-195240000D03*
X178600000Y-197780000D03*
X178600000Y-200320000D03*
X178600000Y-202860000D03*
X178600000Y-205400000D03*
X186220000Y-205400000D03*
X186220000Y-202860000D03*
X186220000Y-200320000D03*
X186220000Y-197780000D03*
X186220000Y-195240000D03*
X186220000Y-192700000D03*
X186220000Y-190160000D03*
D40*
X84700000Y-80500000D03*
X82700000Y-72600000D03*
X84700000Y-75000000D03*
D29*
X270870000Y-188300000D03*
D30*
X275950000Y-188300000D03*
D11*
X353240000Y-154310000D03*
D12*
X353240000Y-156850000D03*
X353240000Y-159390000D03*
X353240000Y-161930000D03*
X353240000Y-164470000D03*
X353240000Y-167010000D03*
X353240000Y-169550000D03*
X353240000Y-172090000D03*
X353240000Y-174630000D03*
X353240000Y-177170000D03*
X353240000Y-179710000D03*
X353240000Y-182250000D03*
X353240000Y-184790000D03*
X353240000Y-187330000D03*
X368480000Y-187330000D03*
X368480000Y-184790000D03*
X368480000Y-182250000D03*
X368480000Y-179710000D03*
X368480000Y-177170000D03*
X368480000Y-174630000D03*
X368480000Y-172090000D03*
X368480000Y-169550000D03*
X368480000Y-167010000D03*
X368480000Y-164470000D03*
X368480000Y-161930000D03*
X368480000Y-159390000D03*
X368480000Y-156850000D03*
X368480000Y-154310000D03*
D41*
X352450000Y-82350000D03*
D22*
X352450000Y-79810000D03*
X349910000Y-82350000D03*
X349910000Y-79810000D03*
X347370000Y-82350000D03*
X347370000Y-79810000D03*
X344830000Y-82350000D03*
X344830000Y-79810000D03*
X342290000Y-82350000D03*
X342290000Y-79810000D03*
X339750000Y-82350000D03*
X339750000Y-79810000D03*
X337210000Y-82350000D03*
X337210000Y-79810000D03*
X334670000Y-82350000D03*
X334670000Y-79810000D03*
X332130000Y-82350000D03*
X332130000Y-79810000D03*
X329590000Y-82350000D03*
X329590000Y-79810000D03*
X327050000Y-82350000D03*
X327050000Y-79810000D03*
X324510000Y-82350000D03*
X324510000Y-79810000D03*
X321970000Y-82350000D03*
X321970000Y-79810000D03*
X319430000Y-82350000D03*
X319430000Y-79810000D03*
X316890000Y-82350000D03*
X316890000Y-79810000D03*
X314350000Y-82350000D03*
X314350000Y-79810000D03*
X311810000Y-82350000D03*
X311810000Y-79810000D03*
X309270000Y-82350000D03*
X309270000Y-79810000D03*
X306730000Y-82350000D03*
X306730000Y-79810000D03*
X304190000Y-82350000D03*
X304190000Y-79810000D03*
D10*
X50625000Y-185600000D03*
X45625000Y-185600000D03*
X67875000Y-178850000D03*
X62875000Y-178850000D03*
D13*
X288800000Y-96300000D03*
D14*
X288800000Y-98840000D03*
X288800000Y-101380000D03*
X288800000Y-103920000D03*
X288800000Y-106460000D03*
X288800000Y-109000000D03*
X288800000Y-111540000D03*
X288800000Y-114080000D03*
X288800000Y-116620000D03*
X288800000Y-119160000D03*
X296420000Y-119160000D03*
X296420000Y-116620000D03*
X296420000Y-114080000D03*
X296420000Y-111540000D03*
X296420000Y-109000000D03*
X296420000Y-106460000D03*
X296420000Y-103920000D03*
X296420000Y-101380000D03*
X296420000Y-98840000D03*
X296420000Y-96300000D03*
D10*
X43400000Y-165500000D03*
X48400000Y-165500000D03*
D23*
X156325000Y-77100000D03*
D22*
X156325000Y-74560000D03*
X158865000Y-77100000D03*
X158865000Y-74560000D03*
X161405000Y-77100000D03*
X161405000Y-74560000D03*
X163945000Y-77100000D03*
X163945000Y-74560000D03*
X166485000Y-77100000D03*
X166485000Y-74560000D03*
D26*
X125090000Y-95590000D03*
D10*
X125090000Y-103210000D03*
X132710000Y-103210000D03*
X132710000Y-95590000D03*
D23*
X135600000Y-75400000D03*
D22*
X138140000Y-75400000D03*
X140680000Y-75400000D03*
X143220000Y-75400000D03*
X145760000Y-75400000D03*
X148300000Y-75400000D03*
D11*
X44100000Y-190100000D03*
D12*
X44100000Y-192640000D03*
X44100000Y-195180000D03*
X44100000Y-197720000D03*
X44100000Y-200260000D03*
X44100000Y-202800000D03*
X44100000Y-205340000D03*
X51720000Y-205340000D03*
X51720000Y-202800000D03*
X51720000Y-200260000D03*
X51720000Y-197720000D03*
X51720000Y-195180000D03*
X51720000Y-192640000D03*
X51720000Y-190100000D03*
M02*
